<svg width="50" height="50" viewBox="0 0 50 50" fill="none" xmlns="http://www.w3.org/2000/svg">
<g clip-path="url(#clip0_15_72)">
<path d="M32.1655 0.275282C31.0842 0.266763 27.1166 1.72706 26.2316 2.85373C25.2877 4.05553 25.4015 7.16803 25.4015 7.16803C25.4015 7.16803 17.7706 9.60499 16.2522 10.0004C14.7337 10.3958 13.3291 12.0036 12.2919 13.5919C11.2546 15.1803 8.07077 25.7134 7.85084 29.8768C7.63093 34.0401 9.33629 36.0146 10.5934 36.5845C10.5934 36.5845 21.9199 37.9847 23.3815 38.2438C24.843 38.503 28.5039 38.8404 29.6922 38.6969C30.8806 38.5535 48.2909 27.1855 48.8218 26.1611C49.3525 25.1366 49.6231 20.6024 49.1881 17.3338C48.7532 14.0653 46.8843 9.93506 45.8703 7.95524C44.8564 5.97543 40.0589 5.35759 38.8423 5.4998C37.6258 5.64201 34.779 5.49992 34.779 5.49992C34.779 5.49992 34.5916 4.40854 34.5223 3.09147C34.4529 1.77441 33.0559 0.523718 32.3414 0.297192C32.2968 0.283021 32.2375 0.275845 32.1655 0.275282ZM31.2873 3.27367C32.3594 3.29871 32.4477 5.44589 32.4477 5.44589L27.7647 6.99234C27.7647 6.99234 27.9935 5.41132 28.1334 4.83506C28.2733 4.2588 30.0073 3.39807 31.1804 3.278C31.2171 3.27424 31.2527 3.27286 31.2873 3.27367Z" fill="white"/>
<path d="M12.5924 49.7847C10.1424 49.2232 2.77429 46.633 1.78492 45.9855C0.818046 45.3528 -0.020641 43.9551 0.000419643 43.0118C0.0139801 42.4045 0.165238 42.1823 1.091 41.4105C3.36639 39.5136 8.15537 36.7828 9.15617 36.8114C9.48726 36.8212 9.48395 36.7948 9.0952 36.326C8.86919 36.0535 8.52511 35.7299 8.33049 35.6067C8.1359 35.4836 7.80793 34.8634 7.60168 34.2284C7.02384 32.4489 7.06893 29.4466 7.73205 25.5426C8.60123 20.4256 9.6301 17.1438 11.2453 14.3366C12.8135 11.6112 14.6294 10.3889 20.2359 8.28496C23.2511 7.15345 24.2056 7.0043 24.3639 7.63993C24.5298 8.30579 24.029 8.62374 21.2534 9.61496C19.7561 10.1496 17.573 10.974 16.4021 11.4469C14.4247 12.2455 14.2109 12.3905 13.399 13.4824C12.4852 14.7115 11.2174 17.6368 10.407 20.3857C9.62389 23.0427 8.71107 28.846 8.75352 30.8981C8.82148 34.18 10.0718 36.7677 10.6218 34.7647C10.7933 34.1402 10.7589 33.9948 10.2673 33.2629C9.66085 32.3602 9.38265 31.1201 9.41791 29.477C9.45115 27.9879 10.3983 23.4479 11.2021 20.9367C11.5646 19.8043 11.9066 18.6142 11.9621 18.292C12.2892 16.3936 13.3707 15.467 15.6446 15.1366C17.9607 14.8 22.059 15.4696 23.8019 16.4694C25.1403 17.2371 25.7819 18.1845 26.4864 20.4337C27.3807 23.2888 27.5052 24.4345 27.4047 28.88C27.322 32.5828 27.2939 32.8337 26.8456 34.0705C26.3261 35.504 25.6107 36.3139 24.7206 36.4762C24.3628 36.5414 24.1072 36.7397 24.0536 36.9933C23.9817 37.3341 24.1144 37.436 24.8275 37.5876C25.3009 37.6882 26.3333 37.8013 27.1215 37.839C28.3731 37.899 28.8244 37.7918 30.6848 36.9935C34.0488 35.55 44.9084 28.4739 47.1053 26.294C48.4188 24.9906 48.5629 24.0874 48.2027 19.4139C47.8763 15.1789 47.1513 12.289 45.8152 9.89619C44.4507 7.45262 43.6533 7.03922 38.8191 6.26906C37.0381 5.98534 36.3814 5.68151 36.6856 5.282C36.9021 4.99746 41.0366 4.96568 42.497 5.23732C44.329 5.57805 45.361 6.32876 46.6394 8.25059C48.4626 10.9915 49.4498 14.731 49.8731 20.4996C50.1084 23.7074 50.0286 25.0196 49.5316 26.1166C48.8044 27.7215 45.9379 30.0064 39.2189 34.3368C34.7636 37.2082 33.7753 37.7699 31.7464 38.5837C29.1605 39.621 27.8079 39.9915 26.7725 39.9463L25.7335 39.9009L25.8164 40.5915C26.0876 42.8532 23.8044 45.6252 19.7381 47.9712C16.6251 49.7671 15.7892 50.0802 14.3602 49.9847C13.665 49.9383 12.8695 49.8483 12.5924 49.7847ZM16.73 47.7873C17.2237 47.5073 17.6289 47.2117 17.6306 47.1304C17.6323 47.049 16.7104 46.6621 15.5821 46.2704L13.5307 45.5583L12.2582 46.5853C11.5583 47.1502 11.0553 47.6481 11.1403 47.6919C11.6905 47.9754 13.4954 48.2927 14.5667 48.2944C15.4592 48.2958 16.0972 48.1462 16.73 47.7873ZM11.2561 46.3104C11.8192 45.794 12.2222 45.297 12.1516 45.2059C12.081 45.1149 11.0256 44.7066 9.80636 44.2986L7.58939 43.5566L6.39961 44.3251C5.74518 44.7478 5.1108 45.1733 4.98988 45.2707C4.78023 45.4395 8.96045 47.1077 9.83827 47.2055C10.055 47.2297 10.693 46.8269 11.2561 46.3104ZM20.4121 45.654C21.6861 44.8205 22.1168 44.4198 21.9665 44.208C21.8313 44.0174 19.3561 43.2965 17.7236 42.9722C16.8648 42.8016 16.7288 42.8468 15.8013 43.6109C15.2523 44.0631 14.834 44.4792 14.8718 44.5354C14.9451 44.6446 18.9399 46.1506 19.3027 46.2058C19.4215 46.2239 19.9207 45.9756 20.4121 45.654ZM4.64446 44.1222L5.98434 43.1857L5.3164 42.9518C4.94906 42.8231 4.22579 42.5548 3.70922 42.3555C2.82492 42.0143 2.71223 42.0231 1.78171 42.5052L0.793328 43.0173L1.25445 43.6535C1.50807 44.0034 2.06007 44.4547 2.4812 44.6564C2.90226 44.8582 3.25977 45.0312 3.27565 45.0409C3.2917 45.0507 3.9075 44.6372 4.64446 44.1222ZM14.3777 43.3588C14.8294 42.9566 15.2005 42.5657 15.2024 42.4902C15.2057 42.3423 11.6857 41.4046 11.0379 41.3809C10.4797 41.3605 8.93948 42.5565 9.35533 42.6875C9.5276 42.7417 10.4692 43.0671 11.4479 43.4106C12.4265 43.7541 13.3012 44.0475 13.3918 44.0626C13.4824 44.0776 13.926 43.761 14.3777 43.3588ZM23.8437 42.4887C24.1737 42.0734 24.3361 41.6383 24.3472 41.1396C24.3743 39.9295 24.0987 39.6413 22.7803 39.5001C21.6773 39.3819 21.5054 39.4355 20.102 40.3336C18.4405 41.3968 18.2323 41.6334 18.7975 41.8156C23.284 43.2622 23.2344 43.2556 23.8437 42.4887ZM8.31396 41.6103C8.78533 41.3017 9.1333 40.9576 9.08719 40.8456C9.04108 40.7335 8.57506 40.5479 8.05167 40.4332C7.52822 40.3184 6.94034 40.1143 6.74528 39.9796C6.46626 39.7868 6.11934 39.9021 5.11821 40.5201C4.41832 40.9521 3.95713 41.3198 4.0934 41.3371C4.2296 41.3544 4.98301 41.5343 5.76755 41.737C6.55207 41.9396 7.25315 42.1203 7.32542 42.1384C7.39774 42.1566 7.84255 41.9189 8.31396 41.6103ZM17.9611 40.2107L19.4151 39.0349L17.318 38.7436L15.221 38.4522L13.8918 39.2877C13.1607 39.7473 12.5978 40.1758 12.6409 40.2399C12.6839 40.304 13.5307 40.5749 14.5225 40.8419C15.5143 41.1088 16.3665 41.3406 16.4165 41.3568C16.4664 41.3731 17.1615 40.8573 17.9611 40.2107ZM12.2157 38.8976L13.5291 38.0698L12.6033 37.954C11.3819 37.8011 9.21512 38.1567 8.31751 38.6574C7.53265 39.0951 7.63069 39.2697 8.77193 39.4664C10.6028 39.7821 10.8867 39.7352 12.2157 38.8976ZM22.7015 37.0271C22.747 36.8533 22.2232 36.6994 21.1223 36.5632C18.3676 36.2226 13.8161 35.3624 12.8006 34.9906C12.2736 34.7976 11.8012 34.6938 11.7509 34.76C11.6132 34.9408 11.623 35.7011 11.7647 35.8299C11.9878 36.0325 21.2501 37.3051 22.3939 37.2902C22.5255 37.2886 22.6638 37.1701 22.7015 37.0271ZM24.6359 34.8706C25.1413 34.6487 25.918 33.2999 25.5496 33.2838C25.4599 33.2799 25.3424 33.37 25.2884 33.4841C25.2344 33.5981 24.6143 33.957 23.9104 34.2816C23.2065 34.6062 22.6296 34.9107 22.6286 34.9582C22.6241 35.1561 24.1357 35.0902 24.6359 34.8706ZM18.8093 33.5796L18.7589 32.7512L17.8614 32.712C17.0615 32.6771 16.924 32.7463 16.5969 33.348L16.2299 34.0232L16.6098 34.1426C16.8188 34.2082 17.4106 34.2948 17.9248 34.3349L18.8598 34.4079L18.8093 33.5796ZM22.38 32.9991C24.4423 32.1679 25.3695 31.6371 25.8412 31.0174C26.1055 30.6701 26.1345 30.2909 26.0887 27.7748C26.0602 26.2078 25.9698 24.5114 25.8879 24.0051C25.7426 23.1077 25.7229 23.087 25.0977 23.1766C24.745 23.2271 24.1701 23.4434 23.8201 23.6572C23.3063 23.9711 23.2009 24.1422 23.2729 24.5454C23.322 24.8201 23.3945 25.6996 23.434 26.4999C23.4945 27.7264 23.5675 27.9976 23.8988 28.2265C24.4692 28.6204 24.3909 29.0747 23.7865 28.8781C23.3886 28.7486 23.27 28.8096 23.1735 29.1928C23.0989 29.489 23.1591 29.8385 23.3286 30.1203C23.7172 30.7598 23.4681 31.1965 22.9848 30.7229C22.6516 30.3964 22.5805 30.3964 22.3319 30.7231C22.1784 30.9248 21.6066 31.3968 21.0615 31.7721C20.0689 32.4553 19.7207 33.1364 20.1538 33.5474C20.4404 33.8192 20.1953 33.8795 22.38 32.9991ZM12.7063 32.253C12.873 31.849 13.239 31.351 13.5195 31.1464C13.8 30.9418 14.0627 30.748 14.1033 30.7157C14.1438 30.6834 14.0632 30.2943 13.9241 29.8512C13.6774 29.0655 13.6529 29.0493 12.9378 29.2005C12.5346 29.2858 12.1699 29.3044 12.1276 29.2418C12.02 29.0828 12.4752 28.7245 12.9816 28.5697C13.4514 28.426 13.8363 28.0894 13.8424 27.817C13.8446 27.7198 13.5408 27.5581 13.1673 27.4578C12.3367 27.2347 12.4583 26.8111 13.342 26.8497C13.9283 26.8753 14.0087 26.7981 14.3189 25.9109C14.5048 25.3793 14.8944 24.52 15.1847 24.0014C15.641 23.1859 15.7087 22.89 15.6863 21.8103C15.6437 19.7629 16.2582 19.3279 17.2891 20.6757C17.8106 21.3575 17.9964 21.4477 19.0899 21.5501C19.7605 21.6129 20.4232 21.7381 20.5625 21.8284C20.7337 21.9392 20.9185 21.7661 21.132 21.2949C21.4894 20.5059 22.1622 20.1915 22.5272 20.6428C22.6609 20.8081 22.8404 21.3589 22.9261 21.8669L23.0821 22.7905L23.7176 22.3796C24.0672 22.1535 24.5635 21.9076 24.8205 21.833C25.0774 21.7584 25.2895 21.614 25.2918 21.5122C25.294 21.4104 25.0781 20.812 24.812 20.1825C24.1118 18.5263 23.1907 17.9537 20.2338 17.3367C17.7229 16.8127 14.9327 16.7541 13.9485 17.2048C12.9691 17.6533 12.4128 19.0525 11.6709 22.9332C10.3414 29.8876 10.333 31.5121 11.6209 32.5967C11.9828 32.9014 12.3068 33.114 12.341 33.0691C12.375 33.0242 12.5395 32.6569 12.7063 32.253ZM15.2153 32.693C15.638 32.3316 15.6438 32.3008 15.3499 31.98C15.1809 31.7956 14.9165 31.6393 14.7623 31.6326C14.4331 31.6182 13.5665 32.6131 13.5575 33.0158C13.549 33.3957 14.6426 33.1828 15.2153 32.693ZM19.9004 30.6947C20.7984 30.4442 21.482 29.8319 21.2497 29.4862C20.9634 29.0601 21.0433 28.895 21.4712 29.0289C22.093 29.2234 22.2049 28.4873 21.5867 28.269C20.9073 28.0289 20.976 27.6551 21.6938 27.6865L22.284 27.7123L22.3174 26.2188C22.3357 25.3974 22.2758 24.1041 22.1843 23.3449L22.0178 21.9643L21.6826 22.5077C21.3601 23.0304 21.273 23.0452 19.3816 22.898C17.4365 22.7466 17.4101 22.7369 16.8841 21.9843L16.3526 21.2236L16.311 21.7992C16.2881 22.1158 16.2566 22.5866 16.2413 22.8456C16.2254 23.1046 16.045 23.734 15.8398 24.2443C15.193 25.8524 14.9679 26.9431 15.2294 27.2007C15.4124 27.381 15.3917 27.4864 15.12 27.758C14.8276 28.0503 14.8211 28.0945 15.0701 28.1054C15.2269 28.1122 15.3517 28.277 15.3473 28.4716C15.343 28.6661 15.2251 28.8203 15.0852 28.8142C14.8757 28.805 14.8649 28.8853 15.0248 29.2694C15.1941 29.6764 15.8311 30.205 16.6498 30.6181C17.0749 30.8326 19.2252 30.8833 19.9009 30.6947L19.9004 30.6947ZM16.9666 28.9576C16.8082 28.573 17.163 28.1552 17.5651 28.2527C18.1145 28.3859 18.065 29.0437 17.5004 29.1102C17.2533 29.1393 17.0131 29.0706 16.9666 28.9576ZM18.5949 27.955C18.4549 27.7036 18.4671 27.5194 18.6451 27.2006C18.9632 26.6306 19.4743 26.9347 19.3861 27.6413C19.3092 28.2565 18.8615 28.434 18.5949 27.955ZM16.2329 27.251C16.1075 26.8971 16.129 26.7146 16.3205 26.5061C16.6888 26.1051 17.1142 26.4384 17.0357 27.0666C16.9511 27.7436 16.4485 27.8591 16.2329 27.251ZM30.1235 32.3165C29.9488 32.0564 29.7753 31.4912 29.7379 31.0604C29.6788 30.379 29.623 21.2041 29.6721 20.2455C29.7483 18.7593 29.8204 18.2066 29.9711 17.9572C30.2474 17.4999 31.0578 17.6617 31.5317 18.2688C31.9272 18.7754 32.0032 19.2047 32.364 22.967C32.9364 28.9355 32.8314 30.6984 31.8186 32.1227C31.2352 32.9432 30.5938 33.0165 30.1235 32.3165ZM31.1603 30.8143C31.3422 30.5264 31.3192 30.4672 31.0202 30.4541C30.8145 30.4451 30.659 30.5889 30.6544 30.7922C30.6501 30.9868 30.7132 31.1488 30.7945 31.1524C30.8759 31.1559 31.0405 31.0038 31.1603 30.8143ZM31.2058 29.2737C31.4992 29.0703 31.5406 28.7941 31.5659 26.87C31.6044 23.9252 31.5098 23.296 31.0091 23.1743C30.6174 23.0792 30.6093 23.1084 30.6873 24.3405C30.7313 25.0356 30.7484 26.4797 30.7254 27.5498C30.7015 28.6197 30.7264 29.4971 30.7787 29.4994C30.8312 29.5017 31.0234 29.4001 31.2058 29.2737ZM31.4982 20.7723C31.4106 19.3629 31.2015 18.8961 30.6467 18.8718C30.1908 18.8519 30.1294 19.2533 30.3919 20.5368C30.483 20.9821 30.5834 21.4803 30.615 21.6439C30.6468 21.8076 30.8752 21.9503 31.1229 21.9612C31.5655 21.9805 31.572 21.96 31.4982 20.7723ZM34.3037 30.3089C34.1146 29.9052 34.0667 29.1521 34.1092 27.249C34.1771 24.2087 34.0002 21.5372 33.5989 19.5415C33.2253 17.6837 33.2346 17.3189 33.6588 17.1834C33.8458 17.1237 34.0031 16.8863 34.0082 16.6559C34.0184 16.2004 34.345 15.9648 34.9308 15.9904C35.5048 16.0154 36.4635 17.6514 36.8029 19.1852C37.4325 22.0301 37.492 25.7818 36.9483 28.3526C36.8531 28.8028 36.5312 29.5588 36.2331 30.0326C35.5745 31.0795 34.7217 31.2016 34.3037 30.3089ZM35.6677 28.5948C35.8437 28.1174 36.0413 27.1435 36.1067 26.4306L36.2256 25.1345L35.5954 25.9204C35.012 26.6479 34.963 26.808 34.9347 28.0749C34.8983 29.707 35.183 29.909 35.6677 28.5948ZM36.2129 23.4226C36.2311 22.8419 36.1646 22.6534 35.9374 22.6435C35.3667 22.6185 34.8728 23.2849 34.8545 24.1045C34.831 25.1575 34.931 25.233 35.6065 24.6721C36.0685 24.2885 36.1936 24.0306 36.2129 23.4226ZM35.9045 21.1249C36.0004 20.5567 35.4929 18.7059 35.0953 18.1743C34.6108 17.5264 34.0966 17.2579 34.2096 17.7118C34.3704 18.3572 34.5804 19.8657 34.6643 20.9782L34.748 22.0866L35.2945 21.7938C35.595 21.6328 35.8695 21.3318 35.9045 21.1249ZM39.0484 27.8658C38.4032 27.4392 38.3846 27.3422 38.2429 23.6883C38.1799 22.0628 37.9998 19.5693 37.8427 18.1474C37.6143 16.0798 37.5989 15.4324 37.7657 14.9154C38.1455 13.7387 38.7145 13.8556 39.5156 15.2747C40.6114 17.2159 41.3424 20.7879 41.2737 23.866C41.2266 25.9754 40.949 27.0352 40.2564 27.7493C39.7031 28.3198 39.7311 28.317 39.0484 27.8658ZM39.8627 25.8482C40.4034 23.8789 39.9127 19.5025 38.8614 16.9167C38.4337 15.8648 38.3578 16.0413 38.624 17.4687C38.8117 18.4757 38.9442 20.0383 39.3106 25.5642C39.3898 26.7583 39.5852 26.8587 39.8627 25.8482ZM42.279 26.1659C42.0332 25.7004 41.9595 24.9628 41.7661 21.034C41.5812 17.2781 41.4218 15.9209 41.0311 14.7773C40.8286 14.1846 40.8347 14.0993 41.0882 13.9758C41.7819 13.6378 42.4877 16.5369 42.6916 20.562C42.7603 21.9193 42.8613 23.0921 42.9159 23.1682C42.9705 23.2443 43.0075 21.9254 42.998 20.2373C42.9839 17.7193 42.9112 16.8904 42.5932 15.6222C42.2164 14.1198 42.0863 13.8874 41.4486 13.5783C41.0102 13.3657 41.1887 12.6567 41.7424 12.4113C42.8786 11.9076 43.8811 14.6231 44.1244 18.8634C44.2879 21.7116 44.0146 24.9421 43.5277 25.9134C43.21 26.5473 42.5507 26.6807 42.279 26.1659ZM45.7989 23.374C45.4755 22.8419 45.2805 21.4274 45.1844 18.9165C45.1447 17.8762 44.9879 16.0961 44.8361 14.9608C44.6843 13.8254 44.6091 12.7334 44.669 12.5341C44.8257 12.0123 45.3042 12.11 45.691 12.7426C46.3457 13.8134 47.1317 18.6182 47.07 21.1723C47.0171 23.3259 46.4098 24.3794 45.7989 23.374ZM30.7505 15.1463C31.7464 14.3709 32.4149 14.0546 39.409 11.0495C40.0619 10.769 40.2592 10.761 40.4226 11.0085C40.8893 11.7149 38.9807 12.7041 33.2557 14.7229C30.57 15.67 29.9416 15.7761 30.7505 15.1463ZM25.3367 11.9752C24.8148 11.5599 24.7295 10.8979 24.7784 7.63973C24.8225 4.69981 25.0116 3.60776 25.6487 2.61361C26.8552 0.730986 31.3658 -0.641407 33.2203 0.309863C35.2405 1.34606 36.3524 8.33201 34.7711 10.0536C34.3432 10.5195 33.4121 10.5669 32.7659 10.1557C32.0007 9.66882 31.6329 8.82952 31.6481 7.60489C31.6548 7.0753 31.6233 6.64038 31.5779 6.6384C31.5325 6.63642 31.0285 6.78249 30.4576 6.96299C29.8867 7.14349 29.2117 7.23916 28.9575 7.1756C28.5217 7.06663 28.4883 7.12119 28.3722 8.13378C28.0817 10.6672 28.006 11.0247 27.6434 11.5783C27.1841 12.2796 25.9796 12.4869 25.3367 11.9752ZM26.6202 10.5274C26.8118 10.4341 26.8971 10.0836 26.9141 9.32034C26.9273 8.72879 27.0384 7.56572 27.161 6.73575C27.4206 4.97738 28.0661 3.83407 29.1592 3.19636C30.0128 2.6984 31.7319 2.7223 32.2258 3.23898C32.5607 3.58928 32.6143 3.86606 32.8027 6.2198C32.9698 8.30702 32.9843 8.3521 33.4985 8.37455L33.9787 8.39552L33.9393 6.6825C33.8935 4.69405 33.2411 2.20179 32.6394 1.71712C31.4702 0.77522 27.3531 2.41004 26.523 4.14585C26.4007 4.40144 26.2145 5.75294 26.1093 7.14919C26.004 8.54543 25.8645 9.89973 25.7993 10.1587C25.7076 10.523 25.7567 10.6329 26.0155 10.6442C26.1997 10.6523 26.4718 10.5997 26.6202 10.5274ZM30.3249 5.86047C31.2648 5.48292 31.562 5.26118 31.5693 4.93188C31.5746 4.69395 31.4744 4.43784 31.3465 4.36275C30.9645 4.13835 29.7707 4.64103 29.2067 5.26383C28.6876 5.83686 28.4607 6.65927 28.8769 6.45906C28.9942 6.40263 29.6458 6.13326 30.3249 5.86047Z" fill="black"/>
</g>
<defs>
<clipPath id="clip0_15_72">
<rect width="50" height="50" fill="white"/>
</clipPath>
</defs>
</svg>
