<svg width="340" height="402" viewBox="0 0 340 402" fill="none" xmlns="http://www.w3.org/2000/svg">
<path d="M243.337 84.5638C240.527 76.0453 237.596 67.1574 217.75 73.169C207.093 76.397 198.16 87.8018 190.858 104.738C185.364 118.208 180.722 135.626 177.019 156.51C169.452 199.183 166.264 254.384 167.754 308.053L164.452 308.172L164.408 306.553C163.4 267.798 164.815 228.319 168.548 193.318C152.666 174.573 134.563 159.798 121.372 154.891C90.1114 147.063 81.8529 167.743 82.0577 186.19C82.0952 189.563 83.1332 192.369 84.179 195.195C85.2603 198.118 86.3498 201.062 86.3498 204.68C86.3498 207.079 81.6254 212.034 75.4841 218.476C63.4105 231.141 45.8607 249.549 47.9671 265.57C49.9137 280.374 62.2582 291.616 73.6208 297.66C74.7332 298.252 75.9448 299.351 77.4026 300.674C78.4394 301.615 79.6008 302.668 80.9396 303.733L81.0424 303.814C82.0941 304.636 83.8298 305.797 86.2495 307.295L86.9959 307.755C121.228 328.726 160.956 314.598 173.336 309.383L174.06 309.075L261.85 307.965L261.839 307.887C261.815 307.725 261.775 307.484 261.725 307.172C260.9 302.093 257.024 278.237 265.277 268.623C291.051 238.6 319.312 152.68 280.887 116.676C272.395 108.719 263.969 103.883 257.498 100.168C253.567 97.9116 250.358 96.0694 248.293 94.1936C245.751 91.8836 244.555 88.2585 243.337 84.5638Z" fill="#FFE4FF"/>
<path fill-rule="evenodd" clip-rule="evenodd" d="M87.8632 180.73C85.9286 180.348 89.3478 184.705 89.3478 184.705C89.3478 184.705 89.7979 181.112 87.8632 180.73Z" fill="white"/>
<path fill-rule="evenodd" clip-rule="evenodd" d="M116.801 308.3C116.801 308.3 96.0199 298.427 96.0199 284.68C96.0199 280.647 98.2413 281.034 102.684 285.842C103.167 286.364 103.86 287.167 104.761 288.25C105.313 288.913 92.8408 271.715 99.1253 268.497C105.251 265.362 106.676 281.642 106.996 281.417C107.352 281.167 107.248 276.242 108.666 274.064C109.43 272.89 111.676 272.64 113.376 274.064C122.304 281.545 116.801 308.3 116.801 308.3Z" fill="#FFC107"/>
<path fill-rule="evenodd" clip-rule="evenodd" d="M107.869 207.455C107.869 207.455 99.2244 206.951 98.046 203.829C96.8677 200.708 103.278 202.482 103.278 202.482L107.869 207.455Z" fill="white"/>
<path fill-rule="evenodd" clip-rule="evenodd" d="M93.2492 192.657C91.3139 191.427 92.4145 188.495 93.2492 188.373C95.7199 188.012 97.6696 194.23 97.9419 194.852C98.4136 195.93 94.2311 193.281 93.2492 192.657Z" fill="white"/>
<path fill-rule="evenodd" clip-rule="evenodd" d="M113.15 211.505C113.15 211.505 108.417 197.802 112.798 198.882C117.18 199.961 115.919 215.891 115.919 215.891L113.15 211.505Z" fill="white"/>
<path fill-rule="evenodd" clip-rule="evenodd" d="M109.972 201.523C110.034 203.746 110.87 207.156 112.476 211.805C112.498 211.868 112.526 211.928 112.561 211.984L115.331 216.37C115.722 216.989 116.58 216.723 116.64 215.965L116.69 215.308C117.469 204.687 116.345 198.915 112.952 198.079C110.978 197.592 109.9 198.933 109.972 201.523ZM112.718 199.704C114.826 200.318 115.806 204.76 115.377 213.097L115.351 213.581L113.79 211.108L113.517 210.304C112.168 206.28 111.47 203.321 111.419 201.472L111.414 201.213C111.411 199.812 111.75 199.464 112.645 199.685L112.718 199.704Z" fill="#00160A"/>
<path fill-rule="evenodd" clip-rule="evenodd" d="M96.4355 267.667C93.3868 269.227 93.5979 273.165 95.9253 278.528L96.104 278.934C96.5297 279.884 97.0155 280.866 97.5528 281.874L97.738 282.217L97.7149 282.2C96.8446 281.542 96.0937 281.157 95.4477 281.045C93.7322 280.746 92.8575 282.181 92.8575 284.68C92.8575 294.3 100.012 302.432 114.131 309.141C114.589 309.358 115.11 309.056 115.222 308.507C118.957 290.351 117.781 278.6 111.492 273.33C109.562 271.714 106.773 271.814 105.661 273.522L105.564 273.676C105.092 274.465 104.762 275.504 104.518 276.795L104.507 276.852L104.475 276.71C104.302 275.937 104.118 275.208 103.91 274.478C103.221 272.056 102.397 270.155 101.363 268.882C100.002 267.208 98.31 266.707 96.4355 267.667ZM103.342 279.212L103.695 281.098L103.735 281.295C103.761 281.413 103.785 281.509 103.809 281.589C103.841 281.698 103.875 281.788 103.928 281.884C103.994 282.003 104.076 282.107 104.207 282.197C104.462 282.371 104.789 282.382 105.058 282.192C105.405 281.949 105.49 281.74 105.585 281.051L105.629 280.707C105.661 280.452 105.775 279.37 105.795 279.199C105.872 278.515 105.949 277.951 106.044 277.414C106.266 276.152 106.565 275.199 106.951 274.605C107.48 273.793 109.264 273.728 110.539 274.797L110.706 274.94C116.011 279.579 117.159 290.088 113.971 306.534L113.873 307.036L113.546 306.875C100.766 300.545 94.4623 293.127 94.4623 284.68C94.4623 283.145 94.6983 282.758 95.2042 282.846C96.0996 283.002 97.6638 284.221 99.7706 286.501L100.04 286.797C100.361 287.156 100.755 287.612 101.222 288.165L101.844 288.907C101.855 288.918 101.871 288.935 101.903 288.967L101.913 288.995C101.938 289.041 102.017 289.057 102.543 289.168L102.726 289.095C102.943 289.002 102.978 288.94 103.162 288.611L103.204 288.411C103.23 288.28 103.226 288.249 103.212 288.135L103.177 287.973C103.17 287.942 103.164 287.926 103.154 287.902L103.146 287.883C103.125 287.83 103.112 287.803 103.092 287.768L102.873 287.434L102.317 286.598C102.222 286.453 102.126 286.305 102.019 286.141C101.104 284.731 100.217 283.275 99.3837 281.772C98.6029 280.364 97.9213 279.006 97.3648 277.723C95.4011 273.198 95.2445 270.275 97.095 269.328C99.3222 268.188 101.032 270.292 102.383 275.038C102.75 276.328 103.041 277.627 103.342 279.212Z" fill="#00160A"/>
<path fill-rule="evenodd" clip-rule="evenodd" d="M98.924 195.355L99.5832 196.036C107.756 204.509 113.447 211.269 116.48 215.96C121.775 224.148 126.042 232.641 129.637 241.633C130.915 244.83 132.072 247.994 133.212 251.354L133.523 252.275C133.878 253.336 134.222 254.384 134.596 255.546L136.192 260.544C140.507 273.962 139.079 274.616 134.97 261.565L133.356 256.504C133.018 255.453 132.709 254.502 132.398 253.564L132.163 252.862C130.932 249.186 129.694 245.769 128.313 242.316C124.757 233.422 120.54 225.028 115.308 216.937L115.068 216.571C111.961 211.871 106.191 205.078 97.9465 196.577C97.6492 196.271 97.627 195.749 97.897 195.411C98.1669 195.073 98.6267 195.048 98.924 195.355ZM79.7934 176.64L89.9718 186.506C90.926 187.436 91.6696 188.164 92.0246 188.519C92.3259 188.821 92.3548 189.342 92.0893 189.684C91.8238 190.027 91.3643 190.059 91.0631 189.758L88.4142 187.165C84.8966 183.743 79.343 178.376 78.8477 177.895C78.5427 177.598 78.5071 177.077 78.7682 176.73C79.0293 176.384 79.4883 176.344 79.7934 176.64Z" fill="#00160A"/>
<path fill-rule="evenodd" clip-rule="evenodd" d="M98.6047 201.13C97.2684 201.475 96.8183 202.663 97.3809 204.153C98.3195 206.639 101.799 207.924 107.832 208.275C108.502 208.314 108.854 207.386 108.368 206.86L103.777 201.887C103.686 201.788 103.572 201.718 103.449 201.683C101.21 201.064 99.617 200.87 98.6047 201.13ZM102.919 203.229L105.912 206.47L105.732 206.451L105.28 206.397C101.426 205.907 99.2346 204.892 98.7111 203.505L98.6566 203.357C98.4966 202.901 98.5543 202.829 98.9249 202.733C99.6078 202.557 100.886 202.696 102.708 203.173L102.919 203.229Z" fill="#00160A"/>
<path fill-rule="evenodd" clip-rule="evenodd" d="M94.3554 313.125C92.533 314.317 93.2755 315.557 97.2056 317.538C101.446 319.703 109.339 323.884 122.895 325.062C143.892 326.886 163.009 323.444 187.143 323.444C220.555 323.444 235.221 331.781 246.915 329.858C278.264 324.704 285.366 314.701 276.013 312.12C265.746 309.286 233.111 309.633 222.126 308.818L218.726 308.57L215.805 308.487C184.185 307.605 133.499 308.487 123.6 308.487C103.406 308.487 94.3554 313.125 94.3554 313.125Z" fill="#916400"/>
<path fill-rule="evenodd" clip-rule="evenodd" d="M187.143 323.444C220.555 323.444 235.221 332.069 246.915 330.146C278.264 324.992 285.366 314.701 276.013 312.12C265.746 309.287 228.448 308.366 219.264 308.592C219.264 308.592 261.485 317.452 259.226 320.386C252.499 329.122 235.748 318.565 205.325 318.873C199.057 318.936 187.143 323.444 187.143 323.444Z" fill="#916400"/>
<path fill-rule="evenodd" clip-rule="evenodd" d="M125.605 308.862C124.791 308.867 124.138 308.869 123.6 308.869L122.679 308.872C109.55 308.941 99.9746 310.508 93.9114 313.615L93.8167 313.67C92.4005 314.596 91.8579 315.96 92.7478 317.361C93.3233 318.267 94.5281 319.122 96.5615 320.162L98.2902 321.039C100.447 322.124 101.726 322.712 103.647 323.479L103.855 323.562C109.396 325.76 115.544 327.26 122.813 327.892C127.977 328.341 133.241 328.495 139.011 328.404L141.031 328.364C144.825 328.275 148.056 328.124 153.961 327.763L164.166 327.122C173.892 326.524 179.824 326.285 186.829 326.278L187.143 326.278C199.679 326.278 209.92 327.362 221.279 329.473L222.265 329.66C223.976 329.998 233.389 331.881 235.988 332.305L236.078 332.32C240.614 333.044 243.969 333.189 247.07 332.68L247.937 332.535C262.018 330.145 272.193 326.586 277.331 322.649C282.465 318.714 282 314.207 276.439 312.585L276.268 312.537C271.65 311.262 262.882 310.554 249.26 310.091L246.466 310.001C245.651 309.976 244.81 309.951 243.925 309.927L232.066 309.615C227.498 309.487 224.698 309.377 222.578 309.23L218.795 308.955L215.832 308.87L212.821 308.792C204.089 308.585 193.659 308.486 181.72 308.478L178.17 308.478C169.851 308.484 161.24 308.53 151.627 308.612L125.605 308.862ZM184.497 310.933C196.412 310.957 206.744 311.075 215.288 311.307L218.699 311.404L222.577 311.686C224.711 311.831 227.506 311.94 232.002 312.066L243.426 312.365C244.773 312.403 246.017 312.439 247.211 312.477L250.009 312.57C262.995 313.028 271.436 313.727 275.759 314.92L276.017 314.994C279.602 316.062 279.72 317.86 276.123 320.616C271.205 324.385 251.016 334.482 236.749 331.04L236.093 330.934C233.077 330.425 222.971 327.851 222.375 327.739L220.911 327.466C209.971 325.466 199.986 324.417 187.949 324.372L186.198 324.372C179.001 324.394 172.801 324.667 162.267 325.329L154.958 325.791C147.888 326.229 144.517 326.386 140.118 326.476L139.764 326.483C117.456 327.466 103.855 321.565 103.855 321.565C102.075 320.843 97.4691 319.026 97.4691 319.026L97.1263 318.848C86.3799 314.705 109.842 311.391 122.698 311.324L126.705 311.306L149.985 311.078C160.823 310.983 170.364 310.931 179.594 310.929L184.497 310.933Z" fill="#00160A"/>
<path fill-rule="evenodd" clip-rule="evenodd" d="M234.071 291.166C234.071 291.166 234.015 294.801 235 296.483C235.985 298.165 238.732 302.843 241.288 304.074C242.075 304.454 245.081 304.502 246.886 305.7C250.514 308.107 251.321 312.442 246.886 313.361C238.081 315.184 235 309.913 235 309.913C235 309.913 231.372 304.074 227.737 300.202C224.101 296.329 221.205 295.163 221.205 295.163" fill="white"/>
<path d="M264.458 131.365C263.233 131.261 262.512 132.319 262.512 133.6C262.512 138.033 268.891 144.097 273.047 144.097C274.266 144.097 275.263 143.107 274.909 141.594C274.775 141.024 274.468 140.518 273.965 139.895L273.854 139.76C273.288 139.077 272.703 138.468 271.391 137.186L269.381 135.23C268.888 134.745 268.104 133.972 267.867 133.742L267.582 133.467C267.033 132.941 266.608 132.558 266.229 132.253C265.558 131.715 265.039 131.415 264.458 131.365Z" fill="white"/>
<path fill-rule="evenodd" clip-rule="evenodd" d="M223.71 218.295C223.71 218.295 221.295 210.468 215.088 208.348C213.116 207.674 221.743 222.46 214.128 227.976C211.751 229.698 207.525 230.591 202.325 231.432C179.143 235.179 172.154 225.356 157.843 220.559C152.105 218.635 124.195 210.127 119.975 253.47C117.334 280.6 137.34 289.008 155.269 293.319C191.187 301.954 246.223 298.551 263.388 270.088C283.848 236.159 252.401 206.613 247.971 203.49C246.898 202.733 249.974 212.43 250.316 217.334C250.658 222.238 247.971 224.021 247.971 224.021C247.971 224.021 246.912 218.829 237.547 217.938C228.183 217.047 223.71 218.295 223.71 218.295Z" fill="white"/>
<path fill-rule="evenodd" clip-rule="evenodd" d="M85.9346 182.175C86.2628 183.053 87.0261 184.217 88.2673 185.799C89.0868 186.843 90.6072 186.322 90.7807 184.937C91.1771 181.773 90.3478 179.552 88.1111 179.111C86.3604 178.765 85.2299 180.288 85.9346 182.175ZM89.3478 184.705L89.1258 184.42C87.0373 181.714 86.6165 180.484 87.8633 180.73C89.1531 180.985 89.6479 182.31 89.3478 184.705Z" fill="#00160A"/>
<path fill-rule="evenodd" clip-rule="evenodd" d="M93.1568 187.558C92.3432 187.677 91.6801 188.762 91.4974 189.96C91.2873 191.337 91.7386 192.639 92.8958 193.374L93.6938 193.877C94.4635 194.356 95.1547 194.767 95.8271 195.134L96.1392 195.301C96.6402 195.564 97.0456 195.748 97.3539 195.844C97.6694 195.943 97.9089 195.971 98.1644 195.865C98.7104 195.638 98.8062 195.053 98.6175 194.554L98.5578 194.403C98.4823 194.202 98.296 193.697 98.1888 193.416L98.1655 193.355C97.8735 192.597 97.5756 191.897 97.2477 191.23C96.0333 188.759 94.7274 187.329 93.1568 187.558ZM96.1331 192.342C96.3297 192.761 96.5172 193.199 96.7016 193.662L96.7624 193.817L96.5842 193.723L96.4541 193.652C95.5926 193.182 94.6822 192.626 93.6026 191.94C93.0196 191.57 92.812 190.971 92.9235 190.24C92.972 189.922 93.0818 189.615 93.2193 189.39C93.2614 189.321 93.303 189.265 93.3402 189.225L93.3808 189.184L93.3416 189.188C94.0948 189.078 95.0433 190.117 95.9839 192.031L96.1331 192.342Z" fill="#00160A"/>
<path fill-rule="evenodd" clip-rule="evenodd" d="M105.533 201.731C105.404 201.095 98.1952 186.176 103.257 186.644C108.319 187.113 107.114 204.022 106.938 204.022C106.73 204.022 105.625 202.189 105.533 201.731Z" fill="white"/>
<path fill-rule="evenodd" clip-rule="evenodd" d="M100.734 188.867C100.734 190.294 101.153 192.184 101.905 194.479C102.131 195.169 102.384 195.885 102.662 196.628L102.832 197.077C103.5 198.825 104.839 201.973 104.828 201.915C104.9 202.271 105.2 202.864 105.597 203.515L105.743 203.753C106.228 204.535 106.469 204.818 106.878 204.842L107.051 204.847C107.542 204.876 107.541 205.068 107.655 204.257L107.696 203.96C107.713 203.839 107.73 203.68 107.748 203.491L107.758 203.375C107.804 202.847 107.844 202.16 107.872 201.407C107.944 199.463 107.923 197.383 107.783 195.442L107.745 194.949C107.292 189.507 105.978 186.072 103.316 185.825C101.615 185.668 100.733 186.876 100.734 188.867ZM103.198 187.463C104.894 187.62 105.984 190.639 106.341 195.576C106.475 197.444 106.495 199.458 106.426 201.338L106.402 201.897L106.376 201.847C106.306 201.711 106.258 201.608 106.243 201.563L106.238 201.547C106.207 201.393 104.755 197.98 104.16 196.423C103.824 195.544 103.523 194.704 103.262 193.906C102.565 191.78 102.181 190.049 102.181 188.866C102.181 187.789 102.424 187.419 103.122 187.458L103.198 187.463Z" fill="#00160A"/>
<path fill-rule="evenodd" clip-rule="evenodd" d="M125.427 232.04C125.427 232.04 127.012 229.538 127.904 228.296C128.795 227.053 129.75 226.014 129.75 226.014C129.75 226.014 108.223 223.581 100.767 217.278C91.0297 209.048 82.2953 195.397 73.4972 192.509C62.9792 189.058 59.0865 197.064 56.0527 197.716C46.811 199.705 29.8847 205.364 37.6245 222.455C40.0139 227.732 47.7544 230.185 53.2076 227.244C59.2945 223.96 66.7905 215.917 74.6742 215.917C83.7908 215.917 85.3781 224.398 96.951 228.895C104.054 231.655 125.427 232.04 125.427 232.04Z" fill="white"/>
<path fill-rule="evenodd" clip-rule="evenodd" d="M151.059 292.52C151.059 292.52 156.315 299.034 158.492 303.225C160.67 307.416 159.907 309.689 162.93 311.626C167.472 314.536 172.153 313.803 174.236 312.255C176.319 310.707 174.365 306.747 169.999 306.747C168.925 306.747 167.661 303.946 167.05 302.093C166.438 300.241 166.718 295.681 166.718 295.681L151.059 292.52Z" fill="white"/>
<path fill-rule="evenodd" clip-rule="evenodd" d="M248.945 205.13C248.945 205.13 283.188 252.824 235.034 280.819C201.356 300.399 146.026 289.828 146.026 289.828C146.026 289.828 206.26 308.216 245.628 286.046C270.748 271.901 275.716 247.855 263.733 223.374C260.597 216.967 248.945 205.13 248.945 205.13Z" fill="#E7EAEE"/>
<path fill-rule="evenodd" clip-rule="evenodd" d="M246.934 202.752C247.366 202.103 248.038 202.094 248.54 202.448C250.157 203.588 253.081 206.346 255.894 209.581C259.799 214.071 263.285 219.159 265.958 224.643C273.277 239.658 272.623 255.378 263.334 270.781C255.124 284.395 239.062 292.612 216.514 296.293C196.793 299.512 173.963 299.066 155.045 294.518L154.097 294.286C143.27 291.603 135.289 288.193 129.25 282.924C121.33 276.012 117.636 266.341 118.902 253.335C120.819 233.648 127.673 222.707 138.005 218.874C141.845 217.449 145.959 217.099 150.205 217.574C153.116 217.901 155.561 218.515 158.149 219.383L158.609 219.539C161.421 220.507 163.813 221.577 167.504 223.433L170.232 224.821C175.885 227.699 179.157 229.063 183.391 230.033C188.72 231.253 194.588 231.397 201.707 230.292L202.763 230.121C208.574 229.159 211.693 228.286 213.548 226.942C215.72 225.369 216.495 222.82 216.184 219.289C216.043 217.683 215.692 215.989 215.138 214.014L214.985 213.482C214.746 212.675 214.046 210.408 213.918 209.915C213.758 209.305 213.685 208.88 213.711 208.485C213.777 207.493 214.542 206.881 215.399 207.174C219.927 208.72 223.178 213.211 225.175 220.491C225.353 221.137 225.035 221.825 224.466 222.026C223.897 222.227 223.291 221.867 223.114 221.22C221.594 215.678 219.374 212.073 216.467 210.312L216.275 210.2L217.062 212.803L217.083 212.878C219.079 222.543 217.596 230.121 204.173 232.463C203.434 232.592 188.59 234.042 182.427 232.31C173.09 229.687 159.839 219.895 151.895 219.539C143.951 219.183 142.205 219.895 138.675 221.205C129.205 224.718 121.328 236.097 119.739 254.891C118.9 264.815 123.62 274.87 131.361 281.065C151.059 296.829 196.741 297.579 216.207 294.402C238.215 290.809 254.7 282.324 262.497 269.395C271.288 254.817 271.016 240.084 264.069 225.831C261.499 220.558 258.132 215.644 254.358 211.304C252.639 209.327 250.881 207.54 249.454 206.237L249.214 206.019L249.423 206.954L250.091 209.871L250.335 210.964C250.373 211.136 250.41 211.305 250.446 211.471L250.573 212.071C251.025 214.226 251.299 215.899 251.393 217.237C251.65 220.936 250.707 223.625 248.515 225.08C248.001 225.421 247.339 225.224 247.039 224.64C246.738 224.055 246.911 223.304 247.426 222.963C248.817 222.039 249.438 220.27 249.24 217.43C249.157 216.243 248.899 214.671 248.47 212.624L248.348 212.053C248.296 211.809 248.241 211.56 248.184 211.299L247.243 207.171C247.103 206.545 246.997 206.054 246.913 205.626L246.888 205.499C246.745 204.756 246.669 204.223 246.665 203.822C246.661 203.412 246.713 203.085 246.934 202.752Z" fill="#00160A"/>
<path fill-rule="evenodd" clip-rule="evenodd" d="M223.624 216.944L224.395 216.796C229.488 215.843 233.599 215.498 236.74 215.768C240.054 216.053 243.566 217.07 247.278 218.815C247.768 219.045 248.001 219.682 247.798 220.238C247.596 220.794 247.034 221.059 246.545 220.829C243.012 219.168 239.695 218.208 236.595 217.941C233.479 217.673 229.258 218.054 223.949 219.092C223.427 219.194 222.931 218.796 222.841 218.203C222.751 217.61 223.102 217.046 223.624 216.944Z" fill="#00160A"/>
<path fill-rule="evenodd" clip-rule="evenodd" d="M229.762 212.054C232.061 211.518 234.16 211.795 236.033 212.894C237.826 213.946 239.38 215.269 240.691 216.862C240.965 217.195 240.949 217.718 240.656 218.029C240.363 218.34 239.902 218.323 239.628 217.989C238.433 216.536 237.013 215.327 235.366 214.361C233.799 213.442 232.037 213.209 230.055 213.672C229.661 213.764 229.277 213.476 229.196 213.029C229.115 212.582 229.369 212.146 229.762 212.054Z" fill="#00160A"/>
<path fill-rule="evenodd" clip-rule="evenodd" d="M234.41 207.73C234.616 207.339 235.063 207.211 235.407 207.446C237.251 208.698 238.777 210.099 239.983 211.651C241.201 213.217 242.201 215.22 242.987 217.654C243.126 218.082 242.932 218.556 242.555 218.713C242.178 218.871 241.76 218.651 241.622 218.223C240.895 215.971 239.983 214.146 238.893 212.743C237.791 211.325 236.381 210.031 234.661 208.863C234.316 208.629 234.204 208.122 234.41 207.73Z" fill="#00160A"/>
<path fill-rule="evenodd" clip-rule="evenodd" d="M213.342 227.351C213.647 226.858 214.245 226.738 214.679 227.083C215.113 227.429 205.848 242.413 205.848 245.32C205.848 248.473 207.211 250.583 210.844 253.911L212.383 255.301L212.831 255.708C215.083 257.774 216.394 259.224 217.509 261.064C219.068 263.636 219.801 266.508 219.614 269.913C219.384 274.114 218.268 277.017 216.056 280.367L215.856 280.667C215.607 281.031 214.512 282.619 214.213 283.084C213.143 284.743 212.639 285.992 212.548 287.459C212.144 293.922 214.822 301.725 220.637 310.842C220.948 311.329 220.852 312.01 220.423 312.364C219.994 312.717 219.394 312.608 219.083 312.12C213.027 302.628 210.192 294.365 210.633 287.305C210.75 285.432 211.351 283.88 212.521 282.021L212.664 281.796C213.008 281.262 214.264 279.443 214.37 279.286C216.477 276.147 219.522 271.556 217.083 262.818C215.856 258.418 204.198 255.301 203.814 245.936C203.724 243.73 206.963 237.692 213.342 227.351Z" fill="#00160A"/>
<path d="M216.871 272.657L215.532 272.674C207.604 272.789 202.781 273.243 201.292 273.968L201.237 273.996C199.047 275.136 197.324 276.683 196.007 278.537C194.984 279.977 194.261 281.52 193.789 283.061C193.648 283.52 193.539 283.949 193.457 284.34L193.402 284.617L195.695 287.954C195.718 287.988 195.739 288.022 195.758 288.057L195.781 288.093L195.853 288.213C196.348 289.029 196.91 289.826 197.634 290.756L197.967 291.178C198.561 291.914 200.453 294.229 201.095 295.063C202.47 296.845 203.628 298.56 204.737 300.529C206.427 303.531 207.918 306.997 209.256 311.195L209.353 311.502L209.449 311.816C209.566 312.205 209.68 312.604 209.804 313.054L210.369 315.159C211.204 318.261 211.787 319.686 212.711 320.549L212.866 320.69C214.077 321.761 215.206 322.026 218.344 322.139L219.261 322.168C223.433 322.297 225.608 318.535 223.222 315.802C222.473 314.945 220.004 314.28 215.966 314.002C215.437 313.965 215.934 312.417 215.966 311.816C215.998 311.216 216.453 310.758 216.982 310.795C217.45 310.827 217.899 310.864 218.33 310.906C212.982 302.103 210.371 294.602 210.786 287.954C210.903 286.082 210.726 285.349 211.896 283.489L212.119 283.142C212.545 282.496 213.646 280.901 213.745 280.754C214.645 279.413 215.273 278.313 215.776 277.114L215.875 276.872L215.908 276.786L215.964 276.646C216.229 275.958 216.509 274.772 216.795 273.11L216.871 272.657Z" fill="white"/>
<path fill-rule="evenodd" clip-rule="evenodd" d="M194.332 283.353C195.088 285.858 196.407 287.387 198.244 289.753L198.502 290.082C198.961 290.655 201.04 293.197 201.721 294.08C203.095 295.862 204.253 297.577 205.362 299.546C207.052 302.548 208.543 306.014 209.882 310.212C209.946 310.414 210.01 310.621 210.074 310.834L210.249 311.429C210.288 311.566 210.328 311.706 210.368 311.85L210.597 312.687C210.714 313.122 210.951 314.013 210.995 314.176L211.121 314.64C211.89 317.423 212.459 318.747 213.336 319.566L213.491 319.707C214.651 320.733 215.735 321.019 218.579 321.14L219.886 321.185C224.058 321.314 226.234 317.553 223.847 314.819C223.098 313.962 220.629 313.297 216.591 313.019C216.062 312.982 215.659 312.466 215.691 311.865C215.723 311.264 216.178 310.807 216.707 310.843L217.211 310.88C221.428 311.212 224.05 311.956 225.21 313.284C228.946 317.563 225.619 323.423 220.005 323.367L219.329 323.348C215.321 323.226 213.884 322.899 212.117 321.25C210.857 320.073 210.172 318.491 209.293 315.303L208.723 313.18L208.54 312.513C208.462 312.234 208.388 311.975 208.313 311.725L208.258 311.538C208.197 311.337 208.137 311.143 208.077 310.954C206.786 306.905 205.358 303.584 203.745 300.721C202.773 298.994 201.761 297.473 200.576 295.908L200.277 295.516C199.584 294.617 197.327 291.86 197.013 291.462C194.966 288.864 193.743 286.765 192.871 284L192.782 283.711C191.084 278.088 188.905 276.17 186.059 277.368C185.562 277.577 180 280.607 185.386 276.54C190.773 272.472 194.332 283.353 194.332 283.353Z" fill="#00160A"/>
<path fill-rule="evenodd" clip-rule="evenodd" d="M227.821 244.636C226.775 244.636 225.275 241.225 225.275 239.559C225.275 237.892 229.03 238.456 229.03 238.456C229.03 238.456 232.973 239.056 232.43 240.732C231.886 242.409 228.402 244.636 227.821 244.636Z" fill="#FFB61D"/>
<ellipse cx="221.639" cy="232.365" rx="2.07102" ry="4.39365" fill="#00160A"/>
<ellipse cx="241.446" cy="233.359" rx="2.2697" ry="4.32482" fill="#00160A"/>
<path fill-rule="evenodd" clip-rule="evenodd" d="M239.965 240.62C241.694 239.777 243.607 239.617 245.684 240.132C247.716 240.636 253.835 244.985 253.621 245.371C253.407 245.757 247.21 242.201 245.374 241.745C243.583 241.301 241.978 241.435 240.539 242.137C240.17 242.317 239.742 242.123 239.584 241.704C239.425 241.285 239.596 240.8 239.965 240.62Z" fill="#00160A"/>
<path fill-rule="evenodd" clip-rule="evenodd" d="M241.066 243.474C242.881 243.583 243.354 243.113 245.84 244.945C248.326 246.778 250.184 251.094 249.843 251.336C249.503 251.579 247.52 247.73 245.243 245.791C242.966 243.853 240.28 244.71 240.302 244.255C240.322 243.825 240.628 243.489 241 243.473L241.066 243.474Z" fill="#00160A"/>
<path fill-rule="evenodd" clip-rule="evenodd" d="M228.463 246.425C227.959 249.983 228.085 252.249 228.274 254.776C228.463 257.304 230.243 260.944 230.421 262.465C230.599 263.986 227.055 257.713 226.841 255.054C226.626 252.394 225.107 245.166 227.761 245.502C227.761 245.502 228.519 246.03 228.463 246.425Z" fill="#00160A"/>
<path fill-rule="evenodd" clip-rule="evenodd" d="M215.256 241.055C216.868 241.055 217.521 241.1 219.09 241.451C219.484 241.539 219.741 241.973 219.663 242.42C219.586 242.868 219.203 243.159 218.809 243.071C218.251 242.946 217.18 242.415 215.404 242.437C212.976 242.466 210.863 243.996 210.757 243.743C210.585 243.33 213.645 241.055 215.256 241.055Z" fill="#00160A"/>
<path fill-rule="evenodd" clip-rule="evenodd" d="M217.892 237.51C218.283 237.614 218.525 238.059 218.433 238.503C218.34 238.947 217.949 239.222 217.558 239.117C214.067 238.182 211.266 238.207 209.29 238.119C207.347 238.033 202.988 238.379 202.86 237.946C202.733 237.514 214.318 236.552 217.892 237.51Z" fill="#00160A"/>
<path fill-rule="evenodd" clip-rule="evenodd" d="M234.088 290.077C234.618 290.087 235.04 290.584 235.031 291.185C234.996 293.407 235.27 294.976 235.799 295.879C238.017 299.666 239.898 302.221 241.663 303.071C241.711 303.094 241.825 303.127 242.004 303.167L242.269 303.221C242.467 303.258 243.305 303.402 243.451 303.428C244.003 303.527 244.458 303.622 244.901 303.736C245.881 303.988 246.695 304.311 247.37 304.759C249.398 306.104 250.736 308.071 250.867 310.005C251.017 312.24 249.587 313.909 247.058 314.433C240.85 315.718 236.505 314.458 234.216 310.542C231.833 306.706 229.453 303.524 227.08 300.997C224.745 298.509 222.672 296.91 220.884 296.19C220.384 295.989 220.123 295.366 220.3 294.799C220.477 294.232 221.026 293.935 221.525 294.136C223.599 294.971 225.881 296.731 228.393 299.407C230.867 302.042 233.33 305.335 235.799 309.311C237.603 312.396 241.182 313.434 246.714 312.288C248.355 311.949 249.02 311.172 248.953 310.171C248.877 309.044 247.933 307.656 246.402 306.641C245.924 306.323 245.282 306.069 244.477 305.862C244.13 305.773 243.768 305.695 243.339 305.615L241.952 305.37L241.684 305.317C241.352 305.246 241.115 305.175 240.913 305.077C239.594 304.442 238.238 303.074 236.819 301.147C235.883 299.876 235.164 298.732 234.201 297.086C233.416 295.746 233.071 293.771 233.111 291.147C233.121 290.545 233.558 290.066 234.088 290.077Z" fill="#00160A"/>
<path fill-rule="evenodd" clip-rule="evenodd" d="M241.839 310.182C241.934 309.822 242.268 309.617 242.586 309.724C243.574 310.06 244.273 310.43 244.7 310.87C245.104 311.288 245.504 311.929 245.914 312.798C246.07 313.13 245.96 313.543 245.668 313.72C245.375 313.898 245.012 313.773 244.856 313.441C244.505 312.697 244.179 312.174 243.893 311.879C243.629 311.606 243.073 311.312 242.242 311.03C241.925 310.922 241.745 310.543 241.839 310.182Z" fill="#00160A"/>
<path fill-rule="evenodd" clip-rule="evenodd" d="M244.969 308.741C245.073 308.384 245.413 308.191 245.727 308.309C246.573 308.629 247.202 308.994 247.62 309.425C248.035 309.852 248.432 310.543 248.835 311.506C248.977 311.846 248.85 312.253 248.55 312.414C248.251 312.575 247.893 312.43 247.751 312.091C247.41 311.274 247.09 310.718 246.813 310.433C246.54 310.151 246.05 309.867 245.348 309.602C245.034 309.483 244.864 309.098 244.969 308.741Z" fill="#00160A"/>
<path fill-rule="evenodd" clip-rule="evenodd" d="M219.291 318.127C219.396 317.77 219.735 317.577 220.049 317.696C220.896 318.015 221.525 318.38 221.942 318.811C222.357 319.239 222.755 319.93 223.157 320.893C223.299 321.233 223.172 321.639 222.873 321.8C222.573 321.961 222.216 321.817 222.074 321.477C221.732 320.66 221.412 320.105 221.136 319.819C220.863 319.538 220.372 319.253 219.671 318.988C219.356 318.869 219.186 318.484 219.291 318.127Z" fill="#00160A"/>
<path fill-rule="evenodd" clip-rule="evenodd" d="M221.036 315.815C221.141 315.458 221.48 315.265 221.794 315.384C222.641 315.704 223.27 316.068 223.687 316.499C224.102 316.927 224.5 317.618 224.902 318.581C225.044 318.921 224.917 319.327 224.618 319.488C224.318 319.65 223.961 319.505 223.819 319.165C223.477 318.348 223.157 317.793 222.881 317.508C222.608 317.226 222.117 316.942 221.416 316.676C221.101 316.558 220.931 316.172 221.036 315.815Z" fill="#00160A"/>
<path fill-rule="evenodd" clip-rule="evenodd" d="M150.411 291.716C150.802 291.309 157.426 299.937 158.847 302.671C159.305 303.552 159.666 304.401 159.988 305.308C160.087 305.588 160.179 305.865 160.279 306.177L160.655 307.385C161.214 309.149 162.143 309.87 163.402 310.677C167.096 313.044 171.459 313.016 173.71 311.343C174.959 310.415 173.273 307.836 169.999 307.836C168.468 307.836 167.152 305.507 166.151 302.476C165.682 301.056 165.565 298.79 165.761 295.605C165.797 295.005 166.256 294.552 166.785 294.594C167.313 294.635 167.712 295.156 167.675 295.756C167.498 298.652 167.601 300.66 167.948 301.71L168.049 302.007C168.723 303.926 169.715 305.657 169.999 305.657C172.306 305.657 174.257 306.666 175.306 308.271C176.416 309.968 176.27 312.046 174.761 313.167C171.892 315.299 166.761 315.332 162.459 312.575C160.796 311.51 160.067 310.406 159.385 308.321L159.019 307.15C158.896 306.759 158.792 306.44 158.679 306.121C158.392 305.311 158.072 304.561 157.666 303.779C156.254 301.062 153.814 297.548 150.352 293.256C149.994 292.812 150.02 292.122 150.411 291.716Z" fill="#00160A"/>
<path fill-rule="evenodd" clip-rule="evenodd" d="M168.182 310.182C168.277 309.822 168.611 309.617 168.929 309.724C169.917 310.06 170.616 310.43 171.043 310.87C171.447 311.288 171.847 311.929 172.256 312.798C172.413 313.13 172.303 313.543 172.01 313.72C171.718 313.898 171.355 313.773 171.199 313.441C170.848 312.697 170.522 312.174 170.236 311.879C169.972 311.606 169.416 311.312 168.585 311.03C168.268 310.922 168.087 310.543 168.182 310.182Z" fill="#00160A"/>
<path fill-rule="evenodd" clip-rule="evenodd" d="M170.439 309.071C170.544 308.714 170.883 308.521 171.198 308.64C172.044 308.959 172.673 309.324 173.091 309.755C173.505 310.183 173.903 310.873 174.305 311.837C174.447 312.176 174.32 312.583 174.021 312.744C173.721 312.905 173.364 312.761 173.222 312.421C172.88 311.604 172.56 311.049 172.284 310.763C172.011 310.481 171.52 310.197 170.819 309.932C170.504 309.813 170.334 309.428 170.439 309.071Z" fill="#00160A"/>
<path fill-rule="evenodd" clip-rule="evenodd" d="M59.8105 193.801L59.6077 193.96C58.9656 194.47 57.7289 195.494 57.4566 195.712L57.4286 195.734C56.723 196.286 56.2465 196.565 55.8741 196.646C49.2942 198.061 43.6116 199.646 39.7217 202.99C34.2826 207.667 31.3445 215.844 35.0713 224.074C37.7232 229.93 47.7487 231.395 53.6194 228.228C54.6238 227.686 55.6937 227.008 56.9845 226.111L57.521 225.735C57.7067 225.603 57.8977 225.467 58.101 225.321L59.5065 224.303L61.0432 223.185L61.6057 222.781C67.256 218.75 70.8458 217.007 74.6742 217.007C77.8387 217.007 80.0657 217.993 82.8633 220.324L83.0742 220.501C83.56 220.914 86.7127 223.769 87.7772 224.649C90.5355 226.93 93.259 228.612 96.6403 229.926L96.9376 230.038C101.886 231.857 111.351 232.876 125.412 233.13C125.726 233.135 126.022 232.966 126.206 232.677L126.754 231.817C127.541 230.591 128.173 229.645 128.648 228.984C129.217 228.19 129.806 227.462 130.414 226.8C131.006 226.157 130.661 225.021 129.845 224.929L128.999 224.831C115.276 223.21 106.038 220.375 101.34 216.404L100.997 216.112C98.4917 213.961 96.0989 211.533 92.4514 207.559L87.7379 202.417C85.8742 200.4 85.2193 199.745 83.9136 198.485L83.7092 198.288C80.6568 195.349 78.0085 193.334 75.4396 192.131C74.8759 191.867 74.3176 191.644 73.7636 191.462C68.0432 189.585 63.9365 190.628 59.8105 193.801ZM73.2307 193.556C73.7158 193.716 74.208 193.912 74.7083 194.146C76.9846 195.212 79.3941 197.024 82.1872 199.682L83.2802 200.737C84.4833 201.912 85.3162 202.791 88.0889 205.816L91.377 209.408C95.1008 213.457 97.5399 215.909 100.194 218.152L100.35 218.282C105.171 222.259 113.928 225.054 126.668 226.733L127.71 226.867L127.696 226.885C127.575 227.042 127.456 227.201 127.337 227.363L127.075 227.726L126.875 228.011C126.495 228.557 126.042 229.235 125.517 230.045L124.941 230.941L123.775 230.916C110.55 230.611 101.688 229.583 97.2616 227.864C94.1973 226.673 91.7159 225.168 89.2081 223.134L88.907 222.887C87.8852 222.043 84.7449 219.198 84.2229 218.755C81.0196 216.038 78.3814 214.827 74.6742 214.827C70.3766 214.827 66.5344 216.691 60.5943 220.929L59.6814 221.586L57.7238 223.011C57.1428 223.432 56.6836 223.761 56.2372 224.074L55.7414 224.419C54.6119 225.196 53.6686 225.788 52.7958 226.259C47.8191 228.944 40.6313 226.712 38.4779 221.957C35.1842 214.683 36.3431 209.338 41.0498 205.291C44.6454 202.199 49.9195 200.145 56.2314 198.787C56.892 198.645 57.5288 198.286 58.3594 197.651L58.5175 197.529C58.7638 197.336 60.2572 196.097 60.8273 195.652L60.8867 195.606C64.5718 192.772 68.1057 191.874 73.2307 193.556Z" fill="#00160A"/>
<path fill-rule="evenodd" clip-rule="evenodd" d="M303.064 223.175L302.974 223.424L302.792 223.94C300.431 230.741 298.347 241.159 296.528 255.222L296.422 256.048L296.416 256.008C295.712 251.292 294.822 247.628 293.739 245.004C291.858 240.444 289.177 238.722 286.01 240.359C275.731 245.669 276.345 267.261 287.23 305.205C287.375 305.71 287.789 306.052 288.256 306.052H300.074C300.391 306.052 300.692 305.893 300.897 305.619C315.654 285.853 322.262 272.566 320.647 265.265L320.594 265.034C319.124 258.753 315.448 257.407 310.205 260.782L310.019 260.904L310.28 260.22C319.375 236.295 321.044 221.563 314.899 215.822C310.387 211.606 306.27 214.395 303.064 223.175ZM313.703 216.768C319.113 221.823 317.19 238.375 306.927 264.028C306.458 265.201 318.553 256.008 318.553 265.863L318.591 266.05C319.756 272.116 313.746 284.361 300.496 302.353L299.572 303.6L288.256 304.515C288.256 304.515 273.001 247.313 286.904 242.59C290.905 241.232 293.857 247.83 295.321 265.678C295.441 267.139 297.31 267.17 297.468 265.713L297.596 264.537C299.699 245.449 302.195 231.958 305.059 224.114L305.223 223.672C307.898 216.559 310.68 213.944 313.703 216.768Z" fill="#00160A"/>
<path d="M313.527 217.715C318.937 222.77 316.745 238.246 306.482 263.9C306.013 265.073 307.251 266.169 308.138 265.366L308.499 265.044C314.329 259.89 317.318 260.284 318.553 265.863L318.591 266.05C319.756 272.116 313.746 284.361 300.496 302.353L299.572 303.6H289.041L288.663 302.263C278.735 266.926 278.343 247.013 286.904 242.591C290.853 240.55 293.857 247.83 295.321 265.678C295.441 267.139 297.31 267.17 297.468 265.713L297.596 264.537C299.699 245.449 302.195 231.958 305.059 224.114L305.223 223.672C307.898 216.559 310.504 214.891 313.527 217.715Z" fill="white"/>
<ellipse cx="285.394" cy="258.223" rx="3.83867" ry="4.35917" fill="#E7EAEE"/>
<ellipse cx="309.385" cy="229.888" rx="3.83867" ry="4.35917" fill="#E7EAEE"/>
<ellipse cx="311.305" cy="271.845" rx="3.83867" ry="4.35917" fill="#E7EAEE"/>
<path fill-rule="evenodd" clip-rule="evenodd" d="M107.845 309.08C101.069 309.202 77.7678 311.162 77.3653 310.181C76.8504 308.924 102.26 307.273 107.799 307.174L109.534 307.147C114.57 307.085 107.845 309.08 107.845 309.08ZM207.517 306.529C208.113 306.512 208.609 307.046 208.625 307.723C208.64 308.4 208.17 308.963 207.574 308.981L197.93 309.251C191.927 309.408 184.97 309.57 174.689 309.8C174.093 309.813 173.6 309.275 173.588 308.598C173.576 307.921 174.05 307.362 174.646 307.348L192.851 306.927C198.378 306.791 202.819 306.67 207.517 306.529ZM232.391 305.958C232.988 305.947 233.479 306.488 233.488 307.165C233.497 307.842 233.022 308.399 232.426 308.41L229.896 308.445L222.155 308.506C220.535 308.525 219.266 308.55 217.77 308.591C217.174 308.608 216.679 308.073 216.665 307.396C216.65 306.719 217.121 306.157 217.717 306.14L219.621 306.094C220.868 306.068 222.135 306.051 223.818 306.038L230.254 305.989C231.003 305.981 231.68 305.971 232.391 305.958ZM302.361 303.6C302.361 303.6 304.299 303.22 318.451 304.423C319.045 304.473 319.491 305.062 319.447 305.737C319.402 306.412 312.404 306.071 302.837 306.052L300.206 306.057C293.181 306.092 286.655 306.308 275.825 306.815L262.154 307.47C256.32 307.742 252.84 307.874 248.608 307.987C248.012 308.003 247.517 307.467 247.503 306.79C247.489 306.113 247.961 305.552 248.557 305.536L251.956 305.435C255.998 305.302 260.153 305.117 267.518 304.76L275.329 304.384C287.541 303.81 294.332 303.6 302.361 303.6Z" fill="#00160A"/>
<path d="M269.648 127.117L269.895 126.6C271.831 122.618 273.517 120.641 275.484 121.286C275.643 121.339 275.8 121.41 275.953 121.5C277.158 122.21 277.447 123.529 277.109 125.329L277.087 125.44L277.144 125.347C277.715 124.426 278.26 123.715 278.824 123.187L278.946 123.077C280.201 121.967 281.533 121.864 282.739 123.02C284.664 124.866 284.446 127.962 282.874 129.868L282.787 129.971C282.568 130.222 282.437 130.765 282.29 132.043L282.163 133.162C282.01 134.454 281.908 135.021 281.668 135.896C281.215 137.549 280.472 138.928 279.315 140.054C277.86 141.469 275.406 141.272 271.948 139.658C271.577 139.485 271.4 139.002 271.552 138.58C271.705 138.159 266.703 133.149 266.551 133.369L266.503 133.433C266.224 133.762 265.764 133.772 265.474 133.456L264.772 132.687C264.349 132.224 264.56 131.411 265.136 131.283C266.193 131.047 267.013 130.787 267.589 130.51C268.073 130.277 268.337 130.054 268.4 129.91C268.4 129.91 269.45 127.534 269.648 127.117Z" fill="white"/>
<path fill-rule="evenodd" clip-rule="evenodd" d="M264.458 131.365C263.233 131.261 262.512 132.319 262.512 133.6C262.512 138.033 268.891 144.097 273.047 144.097C274.266 144.097 275.263 143.107 274.909 141.594C274.775 141.024 274.468 140.518 273.965 139.895L273.854 139.76C273.288 139.077 272.703 138.468 271.391 137.186L269.381 135.23C268.888 134.745 268.104 133.972 267.867 133.742L267.582 133.467C267.033 132.941 266.608 132.558 266.229 132.253C265.558 131.715 265.039 131.415 264.458 131.365ZM263.967 133.6C263.967 131.866 266.154 134.263 268.786 136.827L270.535 138.526C272.675 140.622 275.288 142.803 273.965 142.963C269.773 143.469 263.967 137.156 263.967 133.6Z" fill="#00160A"/>
<path fill-rule="evenodd" clip-rule="evenodd" d="M264.794 119.746C265.095 119.444 266.596 118.254 265.821 119.817C265.045 121.379 260.564 123.361 265.045 131.264C265.216 131.565 265.008 132.168 264.634 132.334C264.261 132.501 263.839 132.292 263.692 131.868C262.559 128.591 262.035 126.218 262.135 124.676C262.241 123.042 263.145 121.407 264.794 119.746Z" fill="#00160A"/>
<path fill-rule="evenodd" clip-rule="evenodd" d="M259.195 122.498C259.274 122.051 260.051 120.944 260.051 121.851C260.051 122.757 258.909 125.056 260.516 127.646C262.123 130.237 264.888 131.994 264.651 132.362C264.415 132.731 263.96 132.812 263.636 132.543C261.309 130.619 259.896 129.113 259.364 127.933C258.809 126.702 258.771 124.9 259.195 122.498Z" fill="#00160A"/>
<path fill-rule="evenodd" clip-rule="evenodd" d="M269.648 127.117L269.895 126.6C271.831 122.618 273.517 120.641 275.484 121.286C275.643 121.339 275.8 121.41 275.953 121.5C277.158 122.21 277.447 123.529 277.109 125.329L277.087 125.44L277.144 125.347C277.715 124.426 278.26 123.715 278.824 123.187L278.946 123.077C280.201 121.967 281.533 121.864 282.739 123.02C284.664 124.866 284.446 127.962 282.874 129.868L282.787 129.971C282.568 130.222 282.437 130.765 282.29 132.043L282.163 133.162C282.01 134.454 281.908 135.021 281.668 135.896C281.215 137.549 280.472 138.928 279.315 140.054C277.86 141.469 275.406 141.272 271.948 139.658C271.577 139.485 271.4 139.002 271.552 138.58C271.705 138.159 276.94 141.613 278.946 138.928C280.952 136.242 281.168 130.687 281.747 129.004L281.887 128.71C282.996 127.437 283.033 125.463 281.801 124.282C281.165 123.672 280.589 123.717 279.839 124.38C279.156 124.984 278.444 126.02 277.622 127.529L277.382 127.979C276.978 128.753 276.169 130.357 276.062 130.561L275.914 130.839C275.416 131.763 274.781 132.342 274.687 132.367C274.593 132.392 274.459 132.306 274.426 131.524C274.415 131.267 274.472 131.008 274.593 130.657L274.641 130.52C274.787 130.117 275.59 128.222 275.645 128.086C275.889 127.489 276.085 126.969 276.247 126.478C276.901 124.501 275.928 123.346 275.284 122.966C275.214 122.926 275.147 122.895 275.08 122.873C274.082 122.545 272.692 124.229 271.07 127.602L270.718 128.348C270.458 128.911 270.204 129.49 269.704 130.641C269.34 131.477 268.37 132.077 266.752 132.56L266.663 132.586L266.671 132.61C266.742 132.864 266.703 133.149 266.551 133.369L266.503 133.433C266.224 133.762 265.764 133.772 265.474 133.456L264.772 132.687C264.349 132.224 264.56 131.411 265.136 131.283C266.193 131.047 267.013 130.787 267.589 130.51C268.073 130.277 268.337 130.054 268.4 129.91L269.08 128.357C269.288 127.887 269.45 127.534 269.648 127.117Z" fill="#00160A"/>
<ellipse cx="279.188" cy="129.642" rx="1.652" ry="1.53804" fill="#FFB61D"/>
<ellipse cx="274.468" cy="125.354" rx="1.652" ry="1.53804" fill="#FFB61D"/>
<path fill-rule="evenodd" clip-rule="evenodd" d="M264.312 136.142C264.082 135.91 263.794 135.491 263.54 135.037L263.213 135.202L262.826 135.391C262.748 135.431 262.698 135.463 262.683 135.488C262.638 135.582 262.535 135.618 262.451 135.568C262.37 135.518 262.337 135.401 262.381 135.307C262.412 135.218 262.629 134.938 263.033 134.663C263.106 134.614 263.187 134.567 263.273 134.522C263.125 134.206 263.008 133.901 262.953 133.656C262.87 133.295 262.936 133.04 263.045 132.95C263.152 132.861 263.42 132.844 263.829 133.229C263.904 133.294 263.916 133.416 263.859 133.5C263.802 133.584 263.695 133.6 263.62 133.535C263.542 133.47 263.464 133.433 263.4 133.406L263.431 133.544C263.444 133.594 263.458 133.645 263.479 133.695C263.552 133.877 263.645 134.085 263.75 134.298C264.069 134.161 264.433 134.037 264.825 133.977C265.016 133.948 265.212 133.942 265.414 133.944C265.53 133.935 265.632 134.035 265.639 134.168C265.647 134.3 265.558 134.415 265.442 134.424C264.97 134.475 264.533 134.611 264.148 134.763L264.022 134.815C264.23 135.185 264.453 135.521 264.645 135.711C264.748 135.815 264.759 135.996 264.668 136.115C264.575 136.234 264.416 136.246 264.312 136.142Z" fill="#FFB61D"/>
<path fill-rule="evenodd" clip-rule="evenodd" d="M153.318 283.607C152.124 289.993 146.363 291.805 146.426 296.946C146.458 299.606 147.105 301.812 147.636 303.509C148.715 306.958 151.528 310.511 152.831 313.801C153.944 316.612 159.531 314.71 159.977 319.08C160.22 321.46 156.268 322.831 155.192 322.923C153.649 323.056 151.692 322.454 149.322 321.117C146.439 319.527 144.126 318.274 142.451 315.982C142.124 315.536 141.919 314.274 141.558 312.29C141.163 310.119 139.812 304.601 136.284 295.691C135.78 294.418 133.852 289.21 131.706 283.884C129.936 279.488 137.252 270.682 140.496 270.99C148.464 271.747 154.161 279.095 153.318 283.607Z" fill="white"/>
<path fill-rule="evenodd" clip-rule="evenodd" d="M147.731 321.211C145.748 319.87 144.116 318.325 142.837 316.575C142.51 316.128 142.27 314.482 141.909 312.498C141.72 311.458 134.833 292.697 132.562 285.635C132.138 284.318 133.167 285.24 133.408 285.635C134.726 287.792 142.837 302.017 146.712 315.196" fill="#E7EAEE"/>
<path fill-rule="evenodd" clip-rule="evenodd" d="M149.277 320.651L149.572 320.816C151.801 322.074 153.6 322.627 154.943 322.512C156.386 322.388 158.74 320.91 158.845 319.653C159.012 317.634 158.53 317.061 156.152 316.041C155.462 315.745 153.596 315.809 150.722 316.304C150.198 316.394 149.709 315.984 149.629 315.389C149.55 314.794 149.91 314.239 150.434 314.149L150.907 314.069C153.848 313.591 155.774 313.549 156.83 314.002L157.143 314.139C159.998 315.421 161.013 316.747 160.755 319.857C160.537 322.492 157.352 324.49 155.088 324.685C153.4 324.83 151.365 324.226 148.967 322.907L148.726 322.772C145.726 321.118 143.338 319.084 141.57 316.666C141.338 316.348 141.189 315.923 141.036 315.272L141.001 315.118C140.944 314.865 140.887 314.585 140.822 314.234L140.441 312.114L140.382 311.804C139.756 308.622 137.944 302.747 135.197 295.768L134.778 294.718C134.52 294.079 130.836 287.3 130.561 285.711C129.533 279.771 133.737 276.829 133.737 276.829C133.737 276.829 131.557 282.053 132.171 284.621C132.649 286.618 136.68 293.488 138.114 298.755C139.598 304.206 141.152 310.022 143.421 314.777C145.134 318.367 146.36 319.993 149.277 320.651Z" fill="#00160A"/>
<path fill-rule="evenodd" clip-rule="evenodd" d="M153.931 319.43C154.026 319.069 154.36 318.864 154.678 318.972C155.666 319.307 156.365 319.678 156.792 320.118C157.196 320.535 157.596 321.176 158.006 322.046C158.162 322.378 158.052 322.79 157.759 322.968C157.467 323.145 157.104 323.02 156.948 322.688C156.597 321.944 156.271 321.422 155.985 321.126C155.721 320.853 155.165 320.559 154.334 320.277C154.017 320.17 153.836 319.79 153.931 319.43Z" fill="#00160A"/>
<path fill-rule="evenodd" clip-rule="evenodd" d="M155.606 317.328C155.711 316.971 156.051 316.778 156.365 316.896C157.211 317.216 157.84 317.581 158.258 318.012C158.672 318.439 159.07 319.13 159.473 320.093C159.615 320.433 159.487 320.839 159.188 321.001C158.889 321.162 158.531 321.017 158.389 320.678C158.048 319.861 157.728 319.305 157.451 319.02C157.178 318.738 156.688 318.454 155.986 318.189C155.672 318.07 155.502 317.685 155.606 317.328Z" fill="#00160A"/>
<path fill-rule="evenodd" clip-rule="evenodd" d="M149.601 273.43C151.711 274.394 155.861 279.737 155.219 282.738C154.555 285.841 153.582 287.081 152.033 289.138L151.87 289.35C151.398 289.961 149.447 292.212 149.369 292.306L149.184 292.538C147.445 294.767 146.735 297.23 148.149 301.772C149.185 305.098 150.89 308.879 153.242 312.485C153.553 312.961 154.325 314.358 153.906 314.71C153.487 315.063 152.496 313.924 152.185 313.448C149.727 309.68 147.944 306.027 146.841 302.487C145.175 297.138 145.577 294.934 147.877 292.055L148.023 291.875C148.269 291.584 149.96 289.631 150.408 289.064L150.452 289.007C151.897 287.14 152.85 285.163 153.461 282.306C153.883 280.332 152.108 276.825 148.355 273.98C145.864 272.091 147.491 272.466 149.601 273.43Z" fill="#00160A"/>
</svg>
