<svg width="347" height="347" viewBox="0 0 347 347" fill="none" xmlns="http://www.w3.org/2000/svg">
<path d="M63.815 250.4C62.7414 247.302 49.083 252.135 44.2713 252.776C42.9857 252.947 48.8916 117.113 53.7032 85.6442C54.0264 83.5306 55.6732 80.7141 57.7602 81.6688C60.7127 83.0194 64.1732 82.9339 67.4723 82.8258C127.139 80.8716 186.904 81.4243 246.515 84.4818C248.53 84.5851 250.714 84.7527 252.215 85.9862C253.647 87.163 254.097 89.0175 254.458 90.7472C261.338 123.707 262.242 226.899 259.57 260.366C257.542 260.351 243.891 258.057 243.891 258.057C243.891 258.057 67.4723 245.406 63.815 250.4Z" fill="#FFC107"/>
<path fill-rule="evenodd" clip-rule="evenodd" d="M144.361 189.532C141.873 214.235 139.137 238.917 136.152 263.573C136.072 264.234 135.785 265.078 135.058 265.087C94.1352 265.555 53.2003 265.178 12.2957 263.954C11.8623 263.941 11.3892 263.914 11.068 263.648C10.651 263.302 10.6639 262.71 10.7087 262.196C12.9431 236.611 15.1775 211.025 17.4119 185.44C17.8952 184.905 18.7527 184.848 19.5106 184.833C59.824 184.026 100.169 183.218 140.459 184.704C141.406 184.739 142.416 184.794 143.183 185.304C144.531 186.202 144.514 188.013 144.361 189.532Z" fill="#E7EAEE"/>
<path fill-rule="evenodd" clip-rule="evenodd" d="M231.343 108.906C231.981 109.355 232.228 110.118 232.434 110.83C239.265 134.346 242.478 158.738 241.95 183.065C241.888 185.893 241.943 189.102 244.221 191.015C245.802 164.22 242.579 137.194 234.721 111.341C233.986 108.92 236.005 106.59 237.879 104.753L251.037 91.854C257.22 114.272 259.009 137.417 258.99 160.596C257.869 162.427 256.769 164.27 255.891 166.184C253.85 170.637 253.021 175.482 252.639 180.3C251.196 198.494 255.897 216.689 262.766 233.804C263.122 234.69 263.519 235.62 264.328 236.203C265.118 236.773 266.167 236.913 267.164 237.022C276.915 238.09 286.814 238.023 296.547 236.821C297.4 236.716 298.306 236.58 298.948 236.053C299.525 235.579 299.789 234.87 300.02 234.191C304.866 219.988 305.641 204.922 306.309 190.05C306.712 181.103 306.867 171.424 301.249 164.107C300.27 162.833 299.139 161.666 298.007 160.5C296.687 159.139 295.367 157.778 294.293 156.249C292.081 153.099 291.006 149.287 291.275 145.547C291.514 142.22 287.251 140.285 283.676 139.716C283.5 139.688 283.324 139.661 283.148 139.635C283.212 138.581 283.276 137.844 283.339 137.826C286.377 136.981 289.298 135.785 292.008 134.272C293.492 133.443 295.104 131.915 294.303 130.504C293.65 129.352 291.877 129.293 290.49 129.566C288.258 130.004 286.131 130.888 284.303 132.139C285.28 128.134 287.388 124.366 290.367 121.299C289.149 123.044 290.823 125.687 293.081 125.812C295.34 125.936 297.312 123.824 297.099 121.763C298.005 123.45 300.521 124.217 302.351 123.366C304.182 122.515 304.988 120.203 304.034 118.539C305.49 119.843 308.205 119.655 309.41 118.151C310.614 116.647 309.969 114.2 308.137 113.385C309.36 113.494 310.641 113.596 311.777 113.168C312.914 112.74 313.83 111.595 313.486 110.516C313.275 109.851 312.657 109.369 312.034 108.976C310.078 107.741 307.762 106.989 305.393 106.818C306.101 106.198 306.943 105.735 307.787 105.271C308.51 104.873 309.235 104.474 309.876 103.976C311.263 102.897 312.202 100.945 311.159 99.5794C310.408 98.5958 308.883 98.3276 307.613 98.6257C306.343 98.9239 305.265 99.6723 304.225 100.403L305.671 95.7982C306.01 94.7186 306.307 93.434 305.52 92.5718C304.416 91.3617 302.167 92.0788 301.074 93.2972C300.637 93.7837 300.283 94.3322 299.93 94.8791C299.399 95.7017 298.87 96.5204 298.068 97.1184C298.021 95.815 297.958 94.4562 297.272 93.3133C296.586 92.1705 295.069 91.3314 293.726 91.7681C292.745 92.0872 292.127 92.9678 291.686 93.8307C290.303 96.533 289.924 99.6561 290.627 102.57C288.877 101.302 286.535 100.603 284.367 101.087C282.198 101.57 280.36 103.409 280.416 105.451C280.472 107.492 282.775 109.336 284.933 108.813C283.386 109.235 281.783 109.686 280.587 110.678C279.392 111.671 278.734 113.372 279.515 114.665C280.537 116.356 283.172 116.382 285.235 115.967C287.849 115.441 290.379 114.568 292.721 113.384L288.915 119.396C286.069 123.892 282.376 131.03 281.324 139.415C278.12 139.113 274.857 139.272 271.881 140.354C268.171 141.702 264.998 144.707 264.505 148.344C264.148 150.983 263.114 153.428 261.828 155.806C261.334 134.29 258.871 112.811 254.458 91.672C254.097 89.9424 253.647 88.0878 252.215 86.911C250.714 85.6775 248.53 85.5099 246.515 85.4066C186.904 82.3491 127.139 81.7964 67.4723 83.7506C64.1732 83.8587 60.7127 83.9442 57.7603 82.5936C55.6732 81.639 54.0264 84.4554 53.7032 86.569C48.8916 118.038 45.7427 149.72 44.2714 181.466C44.222 182.532 44.8863 184.076 45.939 183.617C47.6629 150.902 51.1962 118.266 56.5207 85.8762L66.5736 98.8868C67.291 99.8154 68.0412 100.844 67.9583 101.978L63.0414 169.241C62.7411 173.35 62.4546 177.573 63.815 181.499C66.9524 156.089 69.0103 130.567 69.9824 105.01C70.0511 103.204 72.621 102.59 74.5948 102.502C126.201 100.202 177.863 104.296 229.336 108.386C230.039 108.442 230.784 108.512 231.343 108.906ZM281.206 140.469C277.36 140.092 273.336 141.275 269.819 142.912C268.507 143.523 267.046 144.495 267.168 145.841C267.294 147.224 268.992 147.951 270.455 148.292C275.797 149.537 281.513 149.397 286.775 147.892C288.091 147.516 289.574 146.846 289.783 145.595C290.023 144.16 288.448 143.076 287.062 142.379C286.057 141.874 285.039 141.382 283.958 141.033C283.668 140.94 283.377 140.858 283.084 140.787C283.055 141.343 283.025 141.938 282.996 142.533C282.881 144.88 282.766 147.23 282.651 147.26C282.176 147.383 281.698 147.498 281.217 147.604C280.963 145.157 280.982 142.769 281.206 140.469ZM255.86 169.685C256.608 167.443 257.736 165.335 258.98 163.27C258.926 171.353 258.664 179.437 258.304 187.492C258.221 189.344 258.779 191.869 260.807 191.883C261.69 180.821 262.047 169.723 261.882 158.632C263.684 155.723 265.32 152.766 266.04 149.505C273.687 151.747 282.214 151.347 289.573 148.402C290.3 151.799 291.764 155.061 293.854 157.942C294.905 159.391 296.112 160.745 297.318 162.098L297.319 162.098C299.228 164.24 301.134 166.377 302.405 168.874C304.299 172.593 304.627 176.806 304.786 180.91C305.447 198.019 303.671 215.207 299.517 231.896C299.153 233.359 298.442 235.109 296.823 235.309C287.287 236.489 277.602 236.643 268.028 235.767C267.046 235.678 265.995 235.549 265.263 234.942C264.591 234.384 264.324 233.535 264.087 232.731C258.854 214.989 253.576 196.899 254.453 178.534C254.596 175.548 254.907 172.543 255.86 169.685ZM173.537 84.6658L249.862 88.0773C245.103 93.643 240.127 99.0539 234.947 104.296C233.007 106.26 229.689 106.24 226.801 106.066C217.972 105.531 209.138 104.947 200.301 104.362C157.574 101.536 114.788 98.7053 72.109 101.501C71.1156 101.566 70.3967 100.684 69.882 99.904L60.0606 85.0267C90.7141 86.1438 121.426 85.9301 152.057 84.3866C159.21 84.0261 166.381 84.346 173.537 84.6658ZM149.271 113.642C150.538 113.151 151.855 112.648 153.23 112.693C154.349 112.729 155.413 113.127 156.449 113.516C174.702 120.375 193.327 126.407 212.231 131.585C215.087 132.367 215.875 135.66 216.169 138.374L221.972 191.841C223.218 191.717 223.441 190.157 223.321 189.016L217.505 133.955C218.449 133.825 219.367 134.191 220.252 134.544L220.253 134.544C220.355 134.585 220.457 134.625 220.559 134.665C221.539 135.048 222.699 135.345 223.635 134.88C224.571 134.415 224.729 132.867 223.707 132.592C200.925 126.45 178.374 119.588 156.109 112.024C155.167 111.704 154.201 111.379 153.196 111.384C152.248 111.388 151.334 111.687 150.442 111.983L80.7519 135.058C80.4393 136.26 82.5174 136.705 83.7486 136.197C83.9361 136.119 84.1284 136.034 84.3234 135.947C85.409 135.465 86.5829 134.943 87.5312 135.531C85.9815 149.647 84.6808 163.787 83.6297 177.943C83.5305 179.279 83.9754 181.15 85.4363 181.05L89.1139 136.712C89.2187 135.449 89.5466 133.91 90.8654 133.521C110.641 127.683 130.134 121.048 149.271 113.642ZM192.445 247.158C193.447 247.143 194.708 246.954 194.97 246.069C194.544 245.326 193.446 245.226 192.528 245.221L151.232 244.995C147.504 244.975 143.707 244.963 140.146 245.971C140.392 246.737 141.478 246.901 142.35 246.923C159.044 247.336 175.747 247.414 192.445 247.158ZM149.353 253.018C146.082 252.982 142.763 252.94 139.623 252.101C156.961 251.557 174.318 251.503 191.66 251.941C193.135 251.978 194.72 252.054 195.881 252.887C195.645 253.435 194.848 253.517 194.203 253.509L149.353 253.018ZM191.584 230.944C175.981 231.495 160.335 231.045 144.801 229.597C143.743 229.499 142.305 229.645 142.148 230.607C159.004 232.456 176.017 233.108 192.984 232.554C193.213 231.784 192.455 230.913 191.584 230.944ZM179.373 176.486C180.092 177.062 180.235 178.019 180.331 178.888L183.803 210.355C186.971 210.256 190.157 210.665 193.172 211.559L184.084 213.029C186.222 216.028 187.88 219.312 188.988 222.745C175.523 222.638 162.061 222.17 148.626 221.344C147.844 221.295 146.96 221.198 146.491 220.623C145.917 219.919 146.285 218.925 146.672 218.121L149.254 212.747C149.665 211.892 148.206 211.296 147.202 211.472C147.106 211.489 147.007 211.507 146.906 211.526C145.961 211.701 144.872 211.903 144.334 211.216C143.499 210.151 145.403 208.971 146.827 209.115C147.101 209.142 147.385 209.183 147.672 209.225L147.672 209.225L147.672 209.225L147.672 209.225L147.672 209.225L147.672 209.225C148.879 209.4 150.14 209.582 150.93 208.808C151.417 198.019 152.511 187.253 154.207 176.566C154.274 176.141 154.368 175.674 154.736 175.407C155.069 175.166 155.531 175.159 155.957 175.164C162.978 175.248 169.997 175.481 177.006 175.864C177.842 175.91 178.744 175.981 179.373 176.486ZM176.822 177.474C170.416 176.943 163.996 176.559 157.569 176.321C157.017 176.301 156.411 176.297 155.982 176.615C155.52 176.956 155.417 177.551 155.347 178.09C154.055 188.084 153.237 198.129 152.896 208.188C152.883 208.562 152.894 208.987 153.198 209.238C153.43 209.43 153.768 209.46 154.081 209.48C162.783 210.037 171.502 210.375 180.225 210.494C180.623 210.499 181.067 210.488 181.348 210.231C181.653 209.952 181.639 209.504 181.605 209.11L178.965 179.234C178.931 178.852 178.889 178.45 178.648 178.137C178.258 177.631 177.496 177.53 176.822 177.474ZM183.198 214.431C182.976 214.068 182.731 213.694 182.343 213.479C181.963 213.268 181.498 213.239 181.054 213.215L154.315 211.8C153.49 211.756 152.595 211.729 151.916 212.16C151.368 212.508 151.068 213.091 150.792 213.647L148.412 218.432C148.272 218.714 148.134 219.054 148.312 219.318C148.489 219.579 148.879 219.621 149.215 219.634L186.424 221.154C185.59 218.824 184.508 216.569 183.198 214.431ZM138.358 136.072C138.831 137.669 139.815 139.117 141.052 140.325C145.08 144.257 151.981 145.422 157.294 143.092C162.607 140.762 165.931 135.135 165.184 129.789C164.438 124.444 159.697 119.773 153.931 118.663C150.594 118.02 147.03 119.095 144.405 121.085C141.78 123.075 140.023 125.894 138.95 128.854C138.106 131.177 137.657 133.709 138.358 136.072ZM162.174 130.555C159.336 130.782 156.482 130.835 153.637 130.712C153.399 130.702 153.144 130.685 152.955 130.552C152.669 130.35 152.645 129.97 152.645 129.64L152.655 122.862C152.656 122.422 152.672 121.942 152.985 121.608C153.602 120.951 154.777 121.353 155.55 121.854C158.766 123.939 161.152 127.072 162.174 130.555ZM143.161 131.183C142.948 131.199 142.721 131.213 142.53 131.124C142.032 130.892 142.142 130.218 142.349 129.744C143.968 126.024 147.01 122.838 150.821 120.868L150.847 129.941C150.847 130.14 150.838 130.362 150.684 130.502C150.547 130.628 150.336 130.65 150.142 130.664L143.161 131.183ZM142.262 135.526C141.766 134.797 141.484 133.626 142.332 133.258C142.612 133.137 142.938 133.157 143.247 133.179L149.524 133.633C150.124 133.677 150.813 133.768 151.13 134.235C151.298 134.483 151.321 134.787 151.34 135.078L151.653 139.922C151.671 140.206 151.674 140.528 151.453 140.728C151.203 140.953 150.797 140.911 150.455 140.841C147.1 140.154 144.08 138.194 142.262 135.526ZM153.032 139.978L152.827 135.079C152.813 134.73 152.82 134.331 153.105 134.098C153.361 133.888 153.744 133.896 154.087 133.915L161.611 134.34C159.968 136.79 157.635 138.848 154.898 140.26C154.234 140.603 153.061 140.675 153.032 139.978ZM108.337 125.249C107.011 124.483 107.077 122.726 107.301 121.306L108.203 115.58C108.36 114.584 108.996 113.274 110.057 113.541C110.966 113.77 111.02 114.917 110.879 115.769L109.751 122.625C109.586 123.627 109.316 124.772 108.337 125.249ZM79.37 212.137C79.5103 211.573 79.7718 210.979 80.324 210.698C81.1699 210.267 82.2897 210.826 82.7102 211.624C83.1308 212.422 83.0489 213.355 82.9578 214.237C82.8857 214.935 82.8014 215.665 82.3749 216.248C81.9484 216.831 81.0613 217.196 80.3908 216.856C79.9579 216.636 79.7254 216.193 79.568 215.764C79.1418 214.602 79.0725 213.332 79.37 212.137ZM97.6586 105.198C96.1145 105.921 96.0102 107.869 96.1179 109.452C96.1813 110.384 96.3628 111.487 97.2808 111.897C97.6352 112.055 98.0417 112.075 98.4357 112.09C102.591 112.257 106.752 112.31 110.91 112.249C111.49 112.241 112.104 112.221 112.588 111.93C113.369 111.461 113.522 110.491 113.601 109.64C113.684 108.744 113.764 107.82 113.455 106.967C113.146 106.114 112.343 105.343 111.361 105.31L99.9024 104.924C99.1395 104.898 98.338 104.88 97.6586 105.198ZM98.683 110.666C98.3687 110.498 98.2825 110.126 98.2271 109.798C98.0486 108.737 98.0248 107.381 99.0747 106.902C99.4901 106.713 99.9765 106.724 100.44 106.739L107.825 106.981C108.815 107.014 109.858 107.061 110.693 107.549C111.527 108.037 112.024 109.13 111.467 109.879C110.966 110.553 109.931 110.631 109.04 110.642L99.3269 110.764C99.1064 110.767 98.8736 110.767 98.683 110.666ZM46.9633 209.559C48.5862 212.032 47.3722 215.177 46.2436 217.87C44.239 222.652 42.6199 228.115 44.9591 232.768C45.4894 233.824 46.1609 235.199 45.2435 236.002C42.2282 233.408 41.5101 229.208 42.1217 225.463C42.5365 222.923 43.4651 220.494 44.3943 218.063C44.835 216.911 45.2759 215.757 45.6621 214.592C46.0087 213.546 46.3131 212.432 46.0206 211.372C45.6424 210.003 44.3299 209.002 42.9292 208.407C40.3686 207.319 37.0373 207.412 35.0163 209.215C32.9954 211.018 33.1325 214.639 35.6332 215.837C36.7214 216.359 38.1934 216.316 39.0545 215.514C39.9156 214.713 39.7946 213.138 38.69 212.646C40.1673 212.317 41.6632 213.459 42.0811 214.796C42.4991 216.133 42.109 217.564 41.6068 218.877C41.178 219.997 40.6653 221.099 40.153 222.2C39.0365 224.598 37.9221 226.993 37.683 229.571C37.3727 232.916 38.5719 236.184 39.7467 239.386C39.8677 239.715 39.9886 240.045 40.1074 240.373C40.3891 241.152 40.6182 242.119 39.9873 242.701C36.4754 239.19 35.5102 234.03 36.2346 229.318C36.959 224.605 39.169 220.208 41.3531 215.889C40.764 215.934 40.2534 216.221 39.7417 216.509L39.7415 216.509C39.5283 216.629 39.3149 216.749 39.0955 216.852C36.4503 218.09 32.8712 216.384 32.0686 213.767C31.2659 211.151 32.9744 208.216 35.6163 206.972C38.2582 205.728 41.5595 206.019 44.1787 207.303C45.2853 207.845 46.3172 208.575 46.9633 209.559ZM102.097 113.509C101.887 112.969 101.343 112.493 100.716 112.516C99.6217 112.555 99.2468 113.852 99.181 114.851L98.5301 124.741C98.4894 125.358 98.4711 126.042 98.9037 126.517C99.3363 126.993 100.389 126.953 100.514 126.345C101.268 122.661 101.831 118.945 102.201 115.213C102.258 114.642 102.307 114.05 102.097 113.509ZM57.7737 244.42C56.1276 244.62 55.0479 246.326 55.3014 247.826C55.5548 249.327 56.8381 250.546 58.3132 251.243C58.6989 251.425 58.5248 252.031 58.1174 252.168C57.71 252.306 57.2599 252.128 56.8895 251.921C55.2844 251.023 54.1405 249.464 53.8395 247.765C53.6504 246.698 53.8188 245.514 54.6097 244.71C55.4007 243.906 56.9174 243.674 57.7737 244.42ZM99.403 221.426C98.8992 222.898 98.3953 224.37 98.0232 225.872C96.2507 233.027 97.5453 240.52 99.5235 247.631C100.038 249.479 97.7892 251.297 95.7313 250.99C93.6733 250.684 92.2066 248.806 92.0052 246.908C91.983 246.699 91.9725 246.487 91.962 246.274C91.9321 245.67 91.9021 245.064 91.6031 244.533C91.1991 243.815 90.0059 243.4 89.4357 244.016C90.6922 246.148 91.6228 249.388 89.2673 250.494C87.0124 251.553 84.6117 249.108 84.0335 246.851C83.6723 245.441 82.5007 243.465 81.2015 244.292C81.697 245.088 82.0788 245.946 82.4595 246.803C83.0909 248.223 83.7192 249.636 84.8581 250.74C86.6837 252.51 90.7194 252.602 91.3634 250.241C92.7509 251.286 94.3527 252.181 96.1348 252.396C97.9169 252.61 99.899 252.013 100.855 250.621C102.047 248.884 101.346 246.654 100.721 244.665L100.66 244.471C98.7377 238.337 98.529 231.761 100.059 225.535C100.389 224.193 100.798 222.866 101.207 221.539C101.913 219.248 102.619 216.959 102.914 214.599C103.467 210.179 102.52 205.612 100.236 201.685C99.6114 200.612 97.7519 200.808 96.8043 201.66C96.199 202.204 95.8195 202.902 95.4385 203.603C95.2231 204 95.0072 204.397 94.7498 204.767C94.0373 205.793 92.6686 206.677 91.4436 206.206C89.3998 205.42 87.1532 205.57 84.9067 205.72H84.9066H84.9065H84.9063H84.9062H84.906H84.9059H84.9058H84.9056H84.9055H84.9054H84.9052H84.9051H84.9049H84.9048H84.9047H84.9045C84.0536 205.777 83.2026 205.834 82.3628 205.84C79.3052 205.862 75.6647 204.648 75.1307 201.895C74.9001 200.705 73.0454 200.326 71.9312 200.975C70.817 201.624 70.3153 202.859 69.9638 204.024C68.3271 209.446 68.3955 215.289 70.1588 220.678C70.7204 222.395 68.1985 223.453 66.2915 223.863C53.0738 226.707 42.091 236.89 39.162 249.016C38.972 249.802 39.3941 251.048 40.1836 250.691C42.891 237.947 54.8124 227.279 68.8029 225.081C70.5637 224.804 71.6761 223.089 71.8124 221.46C71.9196 220.179 71.5822 218.918 71.2461 217.662L71.246 217.662L71.246 217.662L71.2459 217.661L71.2458 217.661L71.2458 217.661L71.2457 217.661L71.2456 217.66L71.2456 217.66L71.2455 217.66L71.2454 217.659L71.2453 217.659L71.2453 217.659L71.2452 217.659L71.2451 217.658L71.2451 217.658L71.245 217.658C71.154 217.318 71.0631 216.978 70.9813 216.639C69.8363 211.89 70.4705 206.798 72.7538 202.406C75.0053 203.463 76.6053 205.602 76.8652 207.904C81.8048 206.964 86.9653 207.009 91.8845 208.034C93.6244 208.397 94.6213 206.911 95.66 205.363C96.6129 203.943 97.601 202.471 99.2302 202.324C101.297 206.558 101.929 211.367 101.019 215.928C100.646 217.797 100.024 219.611 99.403 221.426ZM92.9638 223.956L90.3086 222.805C89.5811 222.489 88.8302 222.158 88.3112 221.595C91.0022 221.475 93.7305 222.313 95.7967 223.895C95.2221 224.682 93.899 224.362 92.9638 223.956ZM75.3119 251.932C75.1684 250.078 74.9228 248.231 74.5762 246.4C74.4379 245.669 74.2518 244.887 73.6518 244.388C73.0517 243.888 71.9024 243.902 71.583 244.584C73.0142 245.179 73.4815 246.825 73.5335 248.262C73.543 248.525 73.5453 248.792 73.5476 249.059V249.059C73.5579 250.252 73.5683 251.464 74.2198 252.476C74.3481 252.675 74.5395 252.882 74.7924 252.88C75.2284 252.877 75.3426 252.33 75.3119 251.932ZM83.1916 218.889C81.6169 219.828 79.7463 220.347 77.8664 220.366C77.2597 220.372 76.5507 220.271 76.257 219.786C78.3333 218.701 80.8678 218.373 83.1916 218.889ZM89.775 212.94C89.5532 213.828 89.6614 214.783 90.0776 215.61C90.3842 216.22 91.1308 216.824 91.7737 216.5C92.053 216.36 92.2107 216.081 92.3338 215.812C92.7488 214.905 92.9533 213.918 92.9299 212.934C92.9168 212.388 92.7962 211.78 92.3152 211.455C91.3544 210.805 90.041 211.875 89.775 212.94ZM204.315 144.523C204.974 145.062 205.067 145.958 205.117 146.764L206.221 164.863C206.296 166.09 205.948 167.769 204.604 167.794L175.147 168.344C174.682 168.353 174.176 168.35 173.809 168.089C173.363 167.772 173.281 167.196 173.235 166.681L171.558 148.292C171.454 147.151 171.679 145.608 172.921 145.461C182.578 144.322 192.326 143.828 202.061 143.984C202.855 143.996 203.723 144.039 204.315 144.523ZM189.955 148.556C190.025 148.109 190.073 147.594 189.735 147.265C189.413 146.951 188.88 146.944 188.409 146.959L175.243 147.379C174.967 147.388 174.664 147.406 174.465 147.582C174.214 147.802 174.236 148.168 174.276 148.483L175.025 154.36C175.153 155.369 175.771 156.708 176.843 156.443C180.469 155.546 184.267 155.232 188.011 155.519C188.674 155.57 188.985 154.797 189.079 154.195L189.955 148.556ZM188.53 164.03L188.854 158.957C188.877 158.596 188.883 158.191 188.611 157.929C188.371 157.698 187.991 157.656 187.644 157.631C183.875 157.366 180.068 157.569 176.358 158.232C176.131 158.273 175.892 158.32 175.721 158.463C175.434 158.702 175.439 159.109 175.465 159.463L175.856 164.687C175.896 165.226 175.995 165.854 176.511 166.118C176.844 166.287 177.253 166.246 177.631 166.201L187.677 164.981C187.867 164.958 188.067 164.931 188.219 164.825C188.472 164.649 188.512 164.321 188.53 164.03ZM191.503 147.966L191.089 154.12C191.071 154.393 191.063 154.697 191.258 154.905C191.5 155.163 191.932 155.152 192.302 155.12L201.848 154.292C202.104 154.27 202.381 154.24 202.57 154.08C202.792 153.891 202.824 153.586 202.842 153.309L203.219 147.407C203.234 147.179 203.239 146.924 203.074 146.753C202.883 146.555 202.552 146.554 202.264 146.568L192.582 147.05C192.262 147.066 191.904 147.099 191.699 147.324C191.54 147.497 191.518 147.74 191.503 147.966ZM202.697 164.024C203.229 163.554 203.222 162.786 203.179 162.111L202.932 158.266C202.89 157.618 202.605 156.761 201.898 156.809L192.293 157.466C191.933 157.491 191.528 157.537 191.311 157.801C191.147 157.999 191.139 158.267 191.138 158.516L191.111 163.593C191.11 163.898 191.122 164.237 191.352 164.459C191.573 164.672 191.927 164.708 192.248 164.727C195.225 164.904 198.219 164.833 201.182 164.513C201.724 164.455 202.305 164.371 202.697 164.024ZM86.8789 217.57C86.0569 217.191 84.9513 217.44 84.4159 218.125C83.8034 218.908 84.0635 220.142 84.9507 220.662C85.8379 221.181 87.1719 220.881 87.6938 220.044C88.2157 219.207 87.8194 218.004 86.8789 217.57ZM97.1176 219.095C97.6077 219.471 96.8037 220.084 96.1704 220.164C93.7978 220.464 91.3492 220.247 89.0835 219.537C89.9278 218.721 91.3228 218.72 92.5495 218.777L96.5942 218.965C96.7782 218.974 96.9764 218.987 97.1176 219.095ZM81.3592 220.847L77.5889 222.753C77.094 223.004 76.5191 223.502 76.8247 223.937C77.1091 224.342 77.7901 224.144 78.2459 223.903L82.9492 221.423C83.0481 221.08 82.7954 220.685 82.4196 220.596C82.057 220.51 81.687 220.681 81.3592 220.847ZM122.625 191.33C122.988 190.935 123.383 190.52 123.924 190.371C124.465 190.223 125.177 190.483 125.246 190.996C123.762 192.935 121.919 194.644 119.82 196.029C120.018 194.225 121.35 192.719 122.625 191.33ZM125.01 195.169L128.139 192.052C128.483 191.709 128.847 191.214 128.572 190.822C128.183 190.266 127.256 190.755 126.785 191.255L123.108 195.153C122.967 195.541 123.485 195.911 123.927 195.851C124.37 195.79 124.708 195.471 125.01 195.169ZM97.9417 145.622C98.5158 145.079 99.4011 144.95 100.221 144.857C110.149 143.729 120.203 143.53 130.175 144.265C130.795 144.31 131.522 144.423 131.797 144.934C131.937 145.194 131.919 145.499 131.898 145.788L130.295 167.878C130.234 168.716 130.071 169.704 129.25 170.081C128.855 170.263 128.392 170.253 127.95 170.24L99.5164 169.36C98.961 169.342 98.3507 169.305 97.9512 168.952C97.5616 168.607 97.4923 168.068 97.4485 167.574C96.8678 161.013 96.7846 154.415 97.2 147.843C97.2499 147.053 97.34 146.191 97.9417 145.622ZM113.611 146.135C109.364 146.078 105.115 146.146 100.873 146.338C100.212 146.368 99.4535 146.448 99.0799 146.948C98.8293 147.284 98.8273 147.719 98.8344 148.126L99.119 164.399C99.1403 165.616 99.5397 167.218 100.869 167.283L113.756 167.906C113.988 167.918 114.241 167.924 114.43 167.799C114.682 167.633 114.717 167.308 114.729 167.025L115.1 158.588C115.114 158.263 115.105 157.886 114.827 157.681C114.639 157.542 114.379 157.526 114.138 157.517C109.508 157.347 104.86 157.624 100.294 158.344C99.7718 158.426 99.4809 157.7 99.7865 157.304C100.092 156.908 100.671 156.796 101.194 156.719C105.492 156.091 109.844 155.77 114.197 155.759C114.93 155.757 115.158 154.859 115.157 154.188L115.147 148.655C115.145 147.582 114.784 146.15 113.611 146.135ZM127.358 157.498L118.926 157.481C118.36 157.48 117.715 157.511 117.354 157.909C117.098 158.192 117.06 158.584 117.033 158.95L116.486 166.313C116.436 166.986 116.465 167.804 117.103 168.144C117.384 168.293 117.723 168.308 118.048 168.319L126.338 168.604C126.595 168.613 126.873 168.616 127.083 168.48C127.355 168.302 127.411 167.958 127.443 167.653L128.422 158.433C128.444 158.223 128.462 157.996 128.342 157.816C128.152 157.532 127.722 157.499 127.358 157.498ZM128.231 155.267C128.713 154.984 128.856 154.408 128.951 153.891C129.315 151.932 129.606 149.961 129.825 147.983C129.863 147.637 129.878 147.238 129.602 146.999C129.393 146.818 129.08 146.79 128.793 146.772L118.625 146.133C118.257 146.11 117.834 146.107 117.591 146.36C117.397 146.562 117.391 146.858 117.395 147.127L117.515 154.674C117.518 154.856 117.525 155.051 117.639 155.201C117.823 155.444 118.2 155.467 118.523 155.467L127.078 155.469C127.475 155.469 127.897 155.463 128.231 155.267ZM156.462 215.094C155.546 215.115 154.527 215.181 153.897 215.789C154.191 216.328 154.979 216.411 155.637 216.425L179.063 216.895C179.554 216.905 179.722 216.212 179.394 215.877C179.067 215.542 178.524 215.491 178.034 215.462C170.854 215.051 163.654 214.928 156.462 215.094ZM144.361 189.532C141.873 214.235 139.137 238.917 136.152 263.573C136.072 264.234 135.785 265.078 135.058 265.087C94.1352 265.555 53.2003 265.178 12.2957 263.954C11.8623 263.941 11.3892 263.914 11.068 263.648C10.651 263.302 10.6639 262.71 10.7087 262.196L17.4119 185.44C17.8952 184.905 18.7527 184.848 19.5106 184.833C59.824 184.026 100.169 183.218 140.459 184.704C141.406 184.739 142.416 184.794 143.183 185.304C144.531 186.202 144.514 188.013 144.361 189.532ZM124.068 199.167C93.8613 196.329 63.4124 195.65 33.0903 197.137C32.7009 197.156 32.2776 197.188 31.9904 197.429C31.6859 197.685 31.6268 198.097 31.5863 198.473L25.9493 250.891C25.909 251.266 25.8805 251.682 26.1312 251.981C26.431 252.338 26.9937 252.377 27.4861 252.384L115.513 253.775C116.057 253.784 116.666 253.769 117.049 253.416C117.368 253.123 117.436 252.679 117.487 252.269L124.068 199.167ZM126.142 198.982C125.741 199.668 125.639 200.463 125.543 201.236L119.379 250.949C119.298 251.604 119.223 252.295 119.514 252.898C119.841 253.574 120.562 254.006 121.246 254.399L133.979 261.72C137.319 237.255 140.661 212.768 142.21 188.153L128.408 196.985C127.54 197.54 126.641 198.127 126.142 198.982ZM127.923 195.348L139.25 187.59C116.31 185.793 93.279 186.098 70.2398 186.404C53.8773 186.621 37.5107 186.838 21.1692 186.302L28.04 193.173C29.1291 194.262 30.4498 195.442 32.0604 195.349C62.4842 193.601 93.0675 194.179 123.386 197.077C125.057 197.237 126.578 196.268 127.923 195.348ZM120.467 255.995C119.037 255.567 117.506 255.534 116.001 255.505L27.737 253.827C26.2484 253.799 24.711 253.778 23.333 254.294C22.1947 254.72 21.2517 255.481 20.3323 256.228L12.427 262.65C32.1731 261.851 51.9426 262.325 71.7116 262.798C91.9854 263.284 112.259 263.769 132.506 262.883L124.057 257.769C122.919 257.08 121.764 256.384 120.467 255.995ZM27.8484 202.767C28.3419 197.017 24.9384 191.136 19.4624 188.276C16.9654 212.282 14.7027 236.309 12.6748 260.353L21.2386 254.178C22.3664 253.365 23.588 252.398 23.7004 251.089L27.8484 202.767ZM162.827 188.944C161.941 188.03 160.559 187.541 159.231 187.671C157.727 187.819 156.35 188.771 155.783 190.054C155.217 191.337 155.485 192.897 156.455 193.959C157.879 195.518 160.739 195.733 162.423 194.408C164.107 193.082 164.3 190.464 162.827 188.944ZM158.413 189.464C158.963 189.179 159.629 189.087 160.246 189.209C161.821 189.519 162.758 191.375 161.994 192.672C161.231 193.97 159.021 194.277 157.871 193.246C156.72 192.215 157.01 190.188 158.413 189.464ZM294.678 105.92C292.865 104.474 291.895 102.263 291.805 100.064C291.716 97.8651 292.449 95.6837 293.603 93.7533C293.913 93.2351 294.782 93.2146 295.298 93.5701C295.813 93.9256 296.053 94.5181 296.236 95.0846C297.359 98.5603 297.299 102.348 296.067 105.792C296.023 105.914 295.975 106.04 295.877 106.132C295.563 106.428 295.018 106.192 294.678 105.92ZM291.574 108.356C289.249 108.438 286.91 108.182 284.671 107.601C283.429 107.279 282.053 106.699 281.737 105.553C281.463 104.562 282.169 103.503 283.154 103.021C284.14 102.54 285.325 102.536 286.425 102.712C289.027 103.128 291.427 104.516 292.953 106.488C293.175 106.774 293.387 107.106 293.333 107.453C293.229 108.117 292.306 108.33 291.574 108.356ZM291.928 110.338L292.113 112.782L285.61 114.573C284.361 114.917 282.975 115.253 281.795 114.746C280.615 114.238 280.13 112.465 281.27 111.887C284.279 110.36 287.754 109.613 291.19 109.755C291.426 109.765 291.695 109.795 291.828 109.973C291.906 110.078 291.919 110.211 291.928 110.338ZM305.028 117.71C302.18 116.49 300.233 114.042 298.414 111.694C298.33 111.586 298.242 111.465 298.258 111.334C298.294 111.02 298.788 111.009 299.121 111.09C302.366 111.878 305.806 112.773 308.034 115.071C308.508 115.56 308.936 116.176 308.827 116.822C308.712 117.51 307.986 118.014 307.233 118.119C306.481 118.224 305.718 118.005 305.028 117.71ZM302.766 120.946C302.704 121.599 302.259 122.261 301.566 122.426C301.143 122.527 300.691 122.433 300.288 122.278C298.226 121.483 297.288 119.305 296.821 117.302C296.435 115.642 296.224 113.948 296.192 112.251C298.87 113.932 301.014 116.319 302.298 119.049C302.581 119.651 302.827 120.294 302.766 120.946ZM303.229 93.5383C303.788 93.4075 304.502 93.8195 304.383 94.3356C303.409 98.572 301.91 103.211 297.848 105.43C298.148 101.561 299.582 97.7704 301.962 94.5607C302.285 94.1242 302.671 93.6692 303.229 93.5383ZM311.026 111.867C310.333 111.859 309.642 111.806 308.953 111.736C305.546 111.389 302.19 110.619 299.006 109.456C302.939 107.227 308.493 107.77 311.823 110.71C311.991 110.859 312.165 111.034 312.173 111.249C312.19 111.705 311.525 111.872 311.026 111.867ZM291.343 122.089C291.325 119.494 292.493 116.91 294.509 115.086C294.447 114.874 294.966 115.002 294.796 115.156C295.693 117.469 295.888 120.006 295.355 122.411C295.112 123.505 294.4 124.793 293.182 124.744C291.915 124.693 291.351 123.249 291.343 122.089ZM292.109 132.66L282.914 137.051C282.676 136.143 282.822 135.156 283.314 134.338C284.361 132.6 286.654 131.901 288.737 131.35C289.897 131.043 291.082 130.733 292.288 130.777C292.559 130.787 292.85 130.823 293.047 130.993C293.635 131.498 292.823 132.319 292.109 132.66ZM307.342 100.535C308.001 100.258 308.924 100.067 309.334 100.615C309.732 101.146 309.249 101.85 308.753 102.307C306.595 104.293 303.83 105.618 301.07 106.828C300.312 107.161 299.106 107.317 298.897 106.572C301.151 103.998 304.068 101.914 307.342 100.535ZM295.549 110.961C294.752 111.199 293.69 110.855 293.542 110.1C293.447 109.62 293.74 109.146 294.091 108.78C294.814 108.026 295.84 107.522 296.925 107.388C297.191 107.355 297.475 107.347 297.71 107.464C298.468 107.841 297.996 108.897 297.45 109.508C296.919 110.102 296.345 110.723 295.549 110.961Z" fill="#00160A"/>
<path fill-rule="evenodd" clip-rule="evenodd" d="M289.573 148.402C282.214 151.347 273.687 151.747 266.04 149.505C264.43 156.799 258.235 162.569 255.86 169.685C254.907 172.543 254.596 175.548 254.453 178.534C253.576 196.899 258.854 214.989 264.087 232.731C264.324 233.535 264.591 234.384 265.263 234.942C265.995 235.549 267.046 235.678 268.028 235.767C277.602 236.643 287.287 236.489 296.823 235.309C298.442 235.109 299.153 233.359 299.517 231.896C303.671 215.207 305.447 198.019 304.786 180.91C304.627 176.806 304.299 172.593 302.405 168.874C300.331 164.8 296.569 161.684 293.854 157.942C291.764 155.061 290.3 151.799 289.573 148.402Z" fill="#FF79B0"/>
<path fill-rule="evenodd" clip-rule="evenodd" d="M276.077 147.41C276.566 148.148 276.657 149.537 275.718 149.451C272.629 144.053 268.906 138.958 264.634 134.282C264.737 134.995 264.839 135.709 264.942 136.422C265.15 137.87 265.356 139.36 264.966 140.777C264.577 142.193 263.447 143.539 261.879 143.82C260.311 144.101 258.494 142.9 258.686 141.45C258.692 143.037 256.877 144.382 255.164 144.122C253.452 143.863 252.215 142.143 252.548 140.586C252.701 139.874 251.634 139.412 250.875 139.624C250.116 139.836 249.543 140.407 248.823 140.712C246.605 141.654 243.981 139.524 243.855 137.291C243.729 135.058 245.768 130.729 247.423 129.083C245.101 128.739 243.232 126.689 243.281 124.539C243.33 122.389 245.291 120.412 247.627 120.158C245.851 118.052 244.036 115.095 245.764 112.956C247.027 111.394 249.692 111.29 251.54 112.249C253.387 113.208 254.577 114.942 255.56 116.664C255.535 115.261 255.515 113.823 256.022 112.498C256.529 111.174 257.68 109.964 259.192 109.72C260.704 109.477 262.44 110.536 262.407 111.939C262.382 113.026 261.742 114.638 262.914 114.823C263.547 113.355 265.759 112.801 267.283 113.544C268.806 114.287 269.56 116.01 269.353 117.577C269.147 119.144 268.122 120.543 266.842 121.602C268.726 121.712 271.021 122.094 271.627 123.729C272.215 125.317 270.672 126.937 269.003 127.633C267.334 128.329 265.416 128.537 263.91 129.495C266.291 130.875 268.726 134.188 270.797 137.604C273.46 141.999 275.519 146.565 276.077 147.41Z" fill="#FF79B0"/>
<path fill-rule="evenodd" clip-rule="evenodd" d="M263.401 129.494C265.694 131.159 267.773 133.069 269.582 135.174C270.073 133.456 270.648 131.615 272.17 130.513C273.692 129.411 276.456 129.645 277.038 131.338C277.253 131.962 277.132 132.638 276.973 133.275C276.305 135.939 274.967 138.462 273.094 140.592C274.087 142.093 275.08 143.595 276.072 145.096C276.561 145.834 276.652 147.223 275.713 147.137C272.624 141.739 268.902 136.644 264.629 131.968C264.732 132.682 264.834 133.395 264.937 134.109C265.145 135.557 265.351 137.046 264.961 138.463C264.572 139.88 263.443 141.226 261.875 141.507C260.307 141.788 258.489 140.587 258.681 139.137C258.687 140.724 256.872 142.068 255.159 141.809C253.447 141.549 252.21 139.83 252.544 138.272C252.696 137.56 251.629 137.099 250.87 137.31C250.111 137.522 249.538 138.093 248.818 138.399C246.6 139.341 243.976 137.211 243.85 134.978C243.724 132.745 245.259 130.729 246.914 129.082C244.592 128.739 242.723 126.689 242.772 124.539C242.821 122.389 244.782 120.412 247.118 120.157C245.342 118.052 243.527 115.095 245.256 112.956C246.518 111.394 249.183 111.29 251.031 112.249C252.878 113.208 254.068 114.942 255.051 116.664C255.026 115.26 255.006 113.823 255.513 112.498C256.02 111.174 257.171 109.963 258.683 109.72C260.195 109.477 261.931 110.536 261.898 111.939C261.873 113.026 261.233 114.638 262.405 114.823C263.039 113.355 265.251 112.801 266.774 113.544C268.297 114.287 269.051 116.01 268.845 117.577C268.638 119.144 267.613 120.543 266.333 121.602C268.217 121.712 270.512 122.094 271.118 123.729C271.706 125.317 270.163 126.937 268.494 127.633C266.825 128.329 264.907 128.537 263.401 129.494ZM246.999 113.385C245.637 114.333 245.835 116.314 246.7 117.664C248.216 120.031 251.101 121.323 253.84 122.443C254.431 122.685 255.322 122.825 255.556 122.272C255.664 122.017 255.552 121.732 255.441 121.478C254.631 119.625 253.819 117.766 252.768 116.017C252.178 115.034 251.482 114.058 250.45 113.453C249.418 112.848 247.974 112.706 246.999 113.385ZM244.318 124.083C243.965 125.822 245.821 127.41 247.739 127.649C249.656 127.888 251.547 127.178 253.326 126.482C253.796 126.298 254.304 126.082 254.523 125.66C254.968 124.802 253.942 123.945 253.053 123.455C251.571 122.639 250.014 121.8 248.287 121.705C246.561 121.61 244.634 122.528 244.318 124.083ZM267.16 116.742C267.239 116.392 267.291 116.016 267.141 115.685C266.88 115.109 266.099 114.879 265.419 114.921C263.351 115.048 261.961 116.894 261.134 118.631C260.399 120.175 259.846 121.791 259.488 123.442C263.206 122.907 266.406 120.112 267.16 116.742ZM260.237 129.798C259.089 129.965 258.963 131.419 259.136 132.47C259.307 133.514 259.479 134.557 259.65 135.6C259.927 137.287 260.42 139.246 262.127 139.937C263.904 137.229 263.884 133.617 262.078 130.925C261.667 130.313 261.012 129.685 260.237 129.798ZM254.983 139.725C255.116 139.88 255.273 140.037 255.484 140.082C256.004 140.192 256.342 139.598 256.461 139.121C257.267 135.892 257.237 132.544 257.203 129.231C257.178 128.986 256.753 129.127 256.59 129.323C255.344 130.827 254.268 132.497 253.841 134.343C253.415 136.189 253.711 138.238 254.983 139.725ZM261.801 124.158C261.535 124.284 261.265 124.416 261.065 124.62C260.402 125.295 260.866 126.469 261.736 126.904C262.606 127.339 263.677 127.227 264.638 127.004C266.059 126.676 267.421 126.134 268.652 125.407C269.126 125.126 269.639 124.68 269.484 124.183C269.417 123.968 269.233 123.801 269.041 123.663C267.025 122.214 264.077 123.078 261.801 124.158ZM257.492 122.313C259.066 119.15 259.859 115.665 259.795 112.191C259.791 111.987 259.78 111.771 259.657 111.601C259.228 111.006 258.23 111.608 257.84 112.226C255.927 115.262 255.792 119.174 257.492 122.313M254.677 129.541C255.066 129.395 254.902 128.792 254.506 128.666C254.109 128.54 253.682 128.719 253.308 128.895C251.003 129.979 248.598 131.192 247.288 133.238C246.844 133.931 246.591 134.915 247.235 135.462C247.822 135.96 248.793 135.754 249.45 135.334C251.731 133.875 252.103 130.509 254.677 129.541ZM274.741 131.201C274.392 130.868 273.79 131.179 273.432 131.503C272.254 132.567 271.211 133.839 270.89 135.324C270.569 136.809 271.132 138.528 272.555 139.301C274.219 137.123 275.069 134.435 274.933 131.78C274.922 131.574 274.898 131.35 274.741 131.201ZM256.1 125.157C256.594 126.526 257.619 127.729 258.951 128.5C259.373 128.744 259.782 128.149 259.811 127.694C259.903 126.27 259.282 124.82 258.157 123.832C257.711 123.44 257.049 123.106 256.499 123.363C255.849 123.666 255.872 124.524 256.1 125.157Z" fill="#00160A"/>
<path fill-rule="evenodd" clip-rule="evenodd" d="M199.51 192.42C197.359 192.472 195.179 192.539 193.121 193.114C198.091 215.681 198.6 238.842 201.194 261.739C201.243 262.177 201.31 262.648 201.639 262.969C202.013 263.333 202.611 263.395 203.156 263.434C238.443 265.975 273.927 266.235 309.255 264.212C309.702 264.187 310.188 264.146 310.517 263.868C310.915 263.532 310.944 262.976 310.94 262.481C310.881 253.803 309.531 245.18 308.183 236.59C306.094 223.27 304.005 209.95 301.916 196.629C301.836 196.123 301.723 195.562 301.275 195.255C300.94 195.027 300.497 194.998 300.081 194.977C266.585 193.29 233.045 191.603 199.51 192.42Z" fill="#E7EAEE"/>
<ellipse cx="283.244" cy="232.259" rx="1.008" ry="0.925333" fill="#FFB61D"/>
<ellipse cx="275.936" cy="232.259" rx="1.008" ry="0.925333" fill="#FFB61D"/>
<ellipse cx="256.784" cy="241.743" rx="0.756" ry="0.694" fill="#FFB61D"/>
<ellipse cx="250.484" cy="241.743" rx="0.756" ry="0.694" fill="#FFB61D"/>
<ellipse cx="231.08" cy="232.259" rx="1.512" ry="1.388" fill="#FFB61D"/>
<ellipse cx="219.992" cy="232.721" rx="1.512" ry="1.388" fill="#FFB61D"/>
<path fill-rule="evenodd" clip-rule="evenodd" d="M310.674 266.508C274.55 268.48 238.266 267.985 202.222 265.029C201.233 264.947 200.147 264.823 199.477 264.152C198.86 263.535 198.773 262.63 198.716 261.795C197.155 238.786 194.763 215.825 191.545 192.96C191.339 191.504 193.43 190.812 195.027 190.665C217.024 188.648 239.124 189.616 261.242 190.584C275.383 191.203 289.531 191.822 303.664 191.662C304.593 191.652 304.919 192.772 304.963 193.621C305.522 204.335 307.461 214.943 309.398 225.545C311.657 237.906 313.915 250.258 313.982 262.764C313.989 263.965 313.868 265.362 312.782 266.038C312.177 266.415 311.406 266.468 310.674 266.508ZM199.51 192.42C197.359 192.472 195.179 192.539 193.121 193.114C196.509 208.497 197.824 224.155 199.139 239.818L199.139 239.818C199.754 247.133 200.368 254.449 201.194 261.739C201.243 262.177 201.31 262.648 201.639 262.969C202.013 263.333 202.611 263.395 203.156 263.434C238.443 265.974 273.927 266.235 309.255 264.212C309.702 264.186 310.188 264.146 310.517 263.868C310.915 263.532 310.944 262.976 310.94 262.481C310.881 253.803 309.531 245.18 308.183 236.59L301.916 196.629C301.836 196.123 301.723 195.562 301.275 195.255C300.94 195.027 300.497 194.998 300.081 194.977C266.585 193.29 233.045 191.603 199.51 192.42ZM221.838 225.047C222.707 225.01 223.084 226.027 223.189 226.817C223.368 228.174 223.259 229.967 221.827 230.36C220.585 229.301 220.115 227.551 220.678 226.086C220.869 225.59 221.263 225.072 221.838 225.047ZM276.507 230.158C274.97 230.037 276.107 225.229 276.971 225.807C277.836 226.384 278.044 230.279 276.507 230.158ZM283.532 229.508C281.678 229.508 282.309 225.085 283.532 225.085C284.185 225.085 284.717 229.508 283.532 229.508ZM228.944 229.564C229.267 228.972 229.469 228.325 229.535 227.666C229.587 227.151 229.545 226.598 229.224 226.172C228.903 225.745 228.231 225.509 227.744 225.773C227.441 225.937 227.271 226.248 227.164 226.555C226.818 227.544 226.969 228.669 227.567 229.552C227.761 229.839 228.092 230.131 228.447 230.04C228.685 229.979 228.833 229.766 228.944 229.564ZM254.466 238.921C254.596 237.99 254.995 236.73 255.93 237.116C256.311 237.273 256.504 237.664 256.601 238.035C256.806 238.819 256.638 239.793 255.866 240.181C255.093 240.569 254.336 239.853 254.466 238.921ZM223.556 232.859C222.755 233.526 221.556 234.307 220.739 233.656C220.864 233.05 221.237 232.488 221.768 232.108C221.074 231.578 219.877 231.9 219.496 232.649C219.114 233.399 219.508 234.362 220.268 234.809C221.028 235.256 222.052 235.224 222.859 234.852C223.068 234.755 223.285 234.638 223.506 234.519L223.506 234.519C224.358 234.06 225.26 233.574 225.924 234.135C227.429 235.404 230.171 235.068 231.258 233.482C231.56 233.042 231.738 232.469 231.479 232.005C231.221 231.542 230.386 231.387 230.09 231.831C230.014 231.944 229.984 232.074 229.953 232.204C229.943 232.247 229.933 232.29 229.921 232.333C229.728 233.033 229.017 233.586 228.23 233.649C227.444 233.713 226.638 233.282 226.313 232.624C225.868 231.721 224.356 232.191 223.556 232.859ZM251.603 237.265C251.76 238.286 251.489 239.357 250.859 240.211C250.741 240.371 250.585 240.536 250.375 240.549C250.154 240.563 249.97 240.401 249.838 240.237C249.099 239.318 249.127 237.945 249.904 237.051C250.266 236.635 251.007 236.341 251.391 236.74C251.527 236.882 251.575 237.077 251.603 237.265ZM209.239 253.607C209.302 255.971 212.39 257.123 214.936 257.537C222.068 258.697 229.353 258.739 236.596 258.778C258.334 258.893 280.095 259.008 301.783 257.655C302.545 257.607 303.4 257.515 303.874 256.967C304.318 256.455 304.264 255.73 304.187 255.081C302.025 236.856 299.157 218.702 295.59 200.664C295.378 199.589 293.872 199.288 292.679 199.228C263.686 197.765 234.631 197.799 205.595 197.833C204.775 197.834 203.908 197.846 203.211 198.24C201.628 199.134 201.864 201.267 202.28 202.926C206.453 219.548 208.789 236.557 209.239 253.607ZM273.118 237.837C270.111 239.885 267.834 242.815 266.707 246.086C263.275 244.631 261.72 240.332 263.528 237.293C265.83 233.421 266.638 228.121 263.282 224.959C261.118 222.92 257.682 222.327 254.639 222.898C248.612 224.028 244.051 229.718 244.686 235.315C244.788 236.211 245.005 237.093 245.222 237.974C245.447 238.887 245.671 239.801 245.768 240.732C245.958 242.56 245.534 244.603 243.97 245.755C241.677 242.128 237.955 239.277 233.649 237.85C236.487 231.602 239.284 224.283 235.702 218.364C234.474 216.334 232.592 214.698 230.577 213.289C227.934 211.44 224.785 209.871 221.465 210.082C215.865 210.437 211.994 215.893 211.881 221.025C211.769 226.157 214.394 230.967 216.955 235.534L210.789 242.566C209.769 228.154 207.508 213.815 204.034 199.726C232.883 199.823 261.731 200.249 290.569 201.003C291.207 201.02 291.909 201.06 292.369 201.465C292.766 201.815 292.878 202.347 292.969 202.844L301.799 250.681C297.917 244.747 292.947 239.41 287.158 234.961C285.722 239.216 284.453 243.518 283.357 247.856L278.978 241.579C282.462 239.67 284.766 236.407 286.751 233.166C289.077 229.369 291.184 225.29 291.357 220.941C291.531 216.591 289.334 211.907 285.02 210.07C287.494 208.546 287.584 204.794 285.36 202.976C283.135 201.158 279.339 201.482 277.29 203.465C275.24 205.447 274.995 208.691 276.446 211.075C271.787 212.914 268.502 217.359 268.372 221.999C268.252 226.291 270.571 230.291 272.912 234.013C273.677 235.23 274.349 236.998 273.118 237.837ZM261.189 241.573L268.883 256.093C269.543 254.848 268.892 253.526 268.238 252.197C267.97 251.652 267.701 251.107 267.522 250.564C266.204 246.582 269.813 242.774 273.117 239.914C273.64 239.461 274.286 238.973 274.992 239.103C275.566 239.208 275.951 239.687 276.28 240.13C278.663 243.344 281.086 246.636 282.187 250.386C282.193 250.405 282.198 250.424 282.204 250.444C282.361 250.982 282.53 251.558 283.008 251.898C283.503 252.249 284.433 252.087 284.49 251.516C284.995 246.449 286.204 241.442 288.08 236.653L300.591 251.327C301.465 252.353 302.391 253.638 301.892 254.857C301.303 256.297 299.229 256.544 297.548 256.554L243.083 256.903C233.948 256.962 224.781 257.018 215.718 255.97C214.77 255.86 213.768 255.717 213.035 255.155C212.378 254.652 212.039 253.887 211.791 253.136C210.596 249.52 210.994 245.485 212.879 242.124C213.761 240.551 215.076 239.044 216.925 238.528C218.774 238.011 221.155 238.909 221.507 240.647C222.021 243.178 224.387 245.418 227.196 245.583C230.005 245.747 232.824 243.464 232.604 240.897C232.516 239.875 234.298 239.887 235.255 240.421C240.414 243.306 243.07 249.478 241.445 254.805C241.176 255.685 242.842 256.104 243.506 255.422C244.128 254.782 244.082 253.841 244.04 252.974C244.037 252.915 244.035 252.857 244.032 252.798C243.883 249.474 245.057 246.113 247.285 243.482C248.079 243.971 248.674 244.701 249.263 245.424C250.051 246.39 250.827 247.342 252.052 247.684C253.955 248.214 255.897 246.941 257.149 245.527C257.453 245.185 257.742 244.826 258.033 244.467C258.941 243.342 259.853 242.213 261.189 241.573ZM221.519 217.643C219.831 220.815 217.387 223.649 214.407 225.888C213.845 223.557 213.706 221.141 213.999 218.769C214.224 216.949 214.749 215.07 216.109 213.726C217.863 211.99 220.737 211.488 223.269 211.962C225.801 212.435 228.048 213.748 230.089 215.199C231.806 216.419 233.459 217.794 234.486 219.548C236.799 223.499 235.467 228.331 234.086 232.632C233.238 235.271 232.108 238.219 229.364 239.344C226.985 240.319 224.152 239.537 221.971 238.231C218.356 236.067 215.815 232.46 215.154 228.555C215.045 227.915 215.044 227.141 215.62 226.764C218.35 224.977 220.602 222.585 222.129 219.851C224.707 223.095 229.132 225.036 233.512 224.843C234.451 224.801 235.701 224.191 235.293 223.416C230.023 223.919 224.542 221.622 221.519 217.643ZM277.098 237.924C275.17 235.316 273.508 232.544 272.14 229.656C271.799 228.936 271.556 227.938 272.268 227.502C275.721 225.387 278.337 222.154 279.539 218.516L282.047 221.383C282.858 222.311 283.687 223.253 284.766 223.914C285.846 224.574 287.235 224.919 288.463 224.534C288.919 224.392 289.039 225.099 288.872 225.512C286.965 230.208 284.219 234.618 280.777 238.515C280.475 238.856 280.143 239.21 279.687 239.347C278.656 239.657 277.706 238.746 277.098 237.924ZM281.068 211.614C282.296 211.5 283.577 211.546 284.705 212.004C285.699 212.407 286.518 213.107 287.192 213.887C289.208 216.222 290.002 219.402 289.294 222.306C289.235 222.546 289.159 222.798 288.965 222.968C288.655 223.24 288.162 223.213 287.742 223.132C285.299 222.658 283.298 220.961 282.087 218.965C282.027 218.866 281.967 218.765 281.908 218.664C281.552 218.058 281.188 217.439 280.566 217.067C279.841 216.632 278.629 216.778 278.393 217.542C277.271 221.18 274.686 224.425 271.243 226.517C270.476 225.778 270.123 224.753 269.966 223.744C269.514 220.829 270.571 217.771 272.672 215.54C274.774 213.309 277.865 211.912 281.068 211.614ZM257.335 224.672C260.225 225.006 262.881 227.076 263.339 229.706C263.551 230.922 263.315 232.161 263.079 233.373C262.969 233.941 262.832 234.553 262.361 234.936C261.783 235.406 260.906 235.366 260.148 235.223C257.991 234.814 255.983 233.771 254.495 232.286C254.405 232.196 254.317 232.104 254.228 232.012C253.833 231.604 253.436 231.193 252.913 230.941C252.273 230.632 251.363 230.654 250.945 231.195C249.772 232.714 248.215 233.983 246.43 234.873C246.642 232.217 247.623 229.556 249.557 227.565C251.491 225.573 254.446 224.338 257.335 224.672ZM251.656 233.032C252.025 232.388 253.064 232.976 253.584 233.525C255.63 235.69 258.783 236.939 261.909 236.825C260.287 239.802 258.061 242.503 255.378 244.748C254.734 245.286 253.964 245.83 253.095 245.764C252.337 245.706 251.721 245.195 251.204 244.684C249.599 243.1 248.32 241.242 247.45 239.235C247.106 238.441 246.925 237.348 247.718 236.899C249.376 235.962 250.751 234.611 251.656 233.032ZM281.243 210.149C279.365 210.442 277.276 209.001 277.408 207.263C277.5 206.047 278.541 205.053 279.694 204.443C280.533 203.999 281.497 203.694 282.461 203.786C283.424 203.878 284.372 204.436 284.671 205.279C284.806 205.661 284.804 206.074 284.75 206.473C284.514 208.202 283.122 209.856 281.243 210.149ZM224.03 240.706C226.397 241.59 229.231 241.341 231.371 240.061C231.501 240.589 231.176 241.112 230.864 241.572C229.864 243.048 228.292 244.741 226.473 244.243C225.518 243.982 224.94 243.211 224.356 242.431C223.84 241.743 223.32 241.048 222.53 240.692C222.878 240.317 223.532 240.52 224.03 240.706Z" fill="#00160A"/>
</svg>
