<svg width="336" height="277" viewBox="0 0 336 277" fill="none" xmlns="http://www.w3.org/2000/svg">
<path d="M44.0527 174.181C44.0527 174.181 226.524 174.257 298.768 174.181C304.438 164.341 297.305 151.194 284.418 147.733C288.451 151.396 292.484 155.058 296.517 158.72C289.431 158.663 44.0527 158.72 44.0527 158.72V174.181Z" fill="#FF79B0"/>
<path fill-rule="evenodd" clip-rule="evenodd" d="M102.904 174.202C193.504 174.23 258.792 174.223 298.768 174.181C304.438 164.341 165.402 168.485 112.679 168.485C59.957 168.485 84.3484 174.197 102.904 174.202Z" fill="#FEC601"/>
<path fill-rule="evenodd" clip-rule="evenodd" d="M140.635 61.38C139.991 60.7956 138.721 60.7524 138.016 61.291C140.291 57.7051 146.945 56.6302 148.375 52.7778C150.205 47.8463 152.905 43.1198 156.37 38.78C157.812 43.0467 160.567 47.0282 164.326 50.2791C165.304 50.2826 166.282 50.2861 167.26 50.2896C169.482 50.2976 171.724 50.3072 173.893 50.6874C177.797 51.3715 181.296 53.2246 185.252 53.6857C184.958 53.3934 184.665 53.1012 184.372 52.809C184.454 52.5074 185.003 52.3694 185.287 52.579C185.788 50.9929 187.402 49.7473 189.233 49.0048C191.064 48.2622 193.763 46.8802 199.167 47.2438C192.611 53.0854 194.641 77.4046 193.028 82.0134C192.478 82.1303 192.057 81.6516 191.699 81.2992C191.341 80.9467 190.506 80.7302 190.313 81.1564C188.97 84.1195 188.779 88.6791 184.663 90.4445C183.868 90.7852 183.396 90.1488 183.457 89.8386C183.536 89.4426 182.938 89.1374 182.44 89.1976C181.942 89.2577 181.544 89.5449 181.156 89.8002C174.608 94.1036 163.886 91.8854 157.331 96.1813C156.035 97.0301 154.894 98.1364 153.277 98.4937C152.312 98.707 151.285 98.6229 150.299 98.4823C144.431 97.6452 139.206 94.8737 135.131 91.4105C131.055 87.9472 128.012 83.8062 125.179 79.6309C127.789 78.4543 130.533 77.1717 131.952 75.0675C133.069 73.4096 133.756 71.0331 136.106 70.8305C135.361 72.7574 134.615 74.6844 133.87 76.6113C133.597 77.3169 133.321 78.0527 133.465 78.782C133.609 79.5113 134.31 80.2277 135.236 80.2647C136.493 80.3149 137.379 79.1824 138.627 79.0535C138.863 82.7806 140.661 86.4343 143.668 89.2977C144.711 90.2914 146.717 91.1936 147.776 90.2103C146.169 88.1439 144.562 86.0774 142.955 84.0109C141.954 82.7231 140.926 81.3757 140.742 79.8682C140.559 78.3606 141.498 76.6506 143.319 76.2111C143.4 75.8125 142.872 75.4702 142.365 75.4583C141.857 75.4464 141.391 75.66 140.955 75.8669C139.334 76.6365 137.713 77.4061 136.092 78.1757C136.609 75.1161 137.667 72.1146 139.224 69.2872C137.715 69.1734 136.173 69.3569 134.772 69.8168C135.85 67.3329 137.828 65.101 140.406 63.4586C141.168 62.9728 141.28 61.9644 140.635 61.38Z" fill="white"/>
<path fill-rule="evenodd" clip-rule="evenodd" d="M173.008 54.7866C171.673 55.4902 170.619 56.5277 170.035 57.7146C169.854 58.0837 169.337 58.2618 168.989 58.5452C168.641 58.8286 168.583 59.4344 169.071 59.5136C169.285 59.5482 169.494 59.4546 169.681 59.3657C172.675 57.9426 176.317 56.7936 179.583 57.7656C179.046 57.9839 178.775 58.5442 178.989 58.993C178.322 59.0122 177.701 59.2508 177.102 59.4848C176.574 59.6908 176.047 59.8969 175.519 60.1029C175.575 60.2269 175.63 60.3509 175.685 60.4748C178.07 59.5082 180.983 59.4077 183.464 60.2064C182.64 60.3061 181.799 60.3244 180.969 60.2606C179.759 60.7462 178.548 61.2318 177.338 61.7175C177.068 61.8255 176.784 61.9443 176.633 62.1518C176.481 62.3594 176.539 62.6812 176.821 62.7667C179.008 61.2312 182.102 60.5523 184.969 60.9787C185.303 61.0285 185.532 60.657 185.39 60.4108C185.248 60.1646 184.908 60.0383 184.591 59.939C183.002 59.441 181.326 59.1189 179.627 58.9848C180.477 58.3575 181.461 57.846 182.525 57.4792C182.7 57.0023 181.836 56.5452 181.352 56.8586C177.671 56.2842 173.727 56.8541 170.535 58.4217C170.508 57.9233 170.973 57.5042 171.407 57.1446C172.766 56.0206 174.124 54.8967 175.482 53.7727C173.104 54.0126 170.773 54.5456 168.597 55.347C168.105 55.5283 167.619 55.724 167.173 55.9696C165.494 56.8947 164.495 58.5494 164.637 60.1706C165.653 58.4599 167.263 56.9752 169.24 55.9243C170.371 55.3235 171.652 54.8558 173.008 54.7866V54.7866Z" fill="#E7EAEE"/>
<path fill-rule="evenodd" clip-rule="evenodd" d="M259.469 135.645C262.913 138.106 262.612 142.46 261.369 146.009C259.77 150.574 257.065 154.892 253.447 158.656L296.517 159.001L284.418 148.014C297.305 151.474 304.438 164.622 298.768 174.461C226.524 174.538 154.279 174.42 82.0355 174.108C95.2123 181.197 107.986 189.796 114.109 201.48C120.232 213.163 117.697 228.524 104.68 235.797C99.8316 238.506 94.0096 239.894 88.1893 240.772C82.188 241.676 74.9204 241.714 71.2163 237.848C69.0529 235.591 70.0871 232.048 71.1098 228.544L71.1099 228.544C71.8233 226.1 72.5311 223.675 72.1443 221.719C70.8325 215.084 65.221 211.719 58.8181 207.88C57.4729 207.073 56.0929 206.246 54.7105 205.363C42.9066 197.822 29.3756 188.288 25.9308 176.557C22.7843 165.842 26.2472 155.212 35.2464 146.859C38.4867 143.851 42.4698 141.114 46.4731 138.362C51.8526 134.665 57.2685 130.943 60.9668 126.506C63.2251 123.797 64.0168 120.901 64.8476 117.862L64.8477 117.862L64.8477 117.862L64.8477 117.861L64.8478 117.861C65.1459 116.771 65.4491 115.662 65.8269 114.536C70.6785 100.084 87.9789 92.6533 105.793 85.0017C108.049 84.0327 110.314 83.06 112.562 82.0692C122.872 77.5258 133.277 71.7103 136.587 62.6067C134.762 62.6634 134.085 60.4794 135.137 59.2903C135.919 58.4061 137.155 57.9086 138.387 57.4123L138.388 57.4122C138.813 57.2411 139.237 57.0702 139.642 56.8836C143.407 55.1515 145.565 51.6178 147.775 47.9989C151.095 42.5622 154.532 36.9333 163.71 36.9333C164.056 38.7779 163.698 40.4213 163.363 41.9609C162.844 44.3404 162.38 46.4723 164.651 48.7169C171.155 48.1428 177.879 49.2749 183.534 51.8962C186.803 46.9558 195.094 44.8455 201.816 46.445C200.964 47.2977 200.46 47.7254 200.041 48.08C199.157 48.8289 198.659 49.2515 196.095 52.6647C192.316 57.6936 194.71 76.1811 195.308 79.1041C195.906 82.027 193.076 84.1043 190.488 82.6609C191.749 86.9933 187.207 91.1277 181.622 91.2524C179.715 91.5232 178.53 92.2576 177.409 92.9518C176.713 93.3835 176.041 93.7996 175.237 94.0789C192.97 104.175 212.601 112.155 233.272 117.671L233.636 117.768C237.504 118.798 241.547 119.876 244.286 122.268C247.11 124.736 247.773 129.116 244.487 131.189C246.493 132.638 249.24 133.032 251.987 133.426C254.724 133.818 257.461 134.211 259.469 135.645ZM76.2795 155.184C79.4798 157.591 85.7455 157.717 90.1485 157.703L147.248 157.517C148.897 155.772 147.877 153.091 145.746 151.716C143.615 150.341 140.746 149.971 138.011 149.798C129.186 149.242 120.209 150.252 111.922 152.732C109.595 153.061 107.828 150.724 108.391 148.897C108.953 147.07 110.908 145.763 112.726 144.561C118.592 140.682 124.344 136.314 127.097 130.653C129.953 124.783 129.124 117.857 124.928 112.521C131.973 117.179 133.453 125.741 130.289 132.582C127.126 139.423 120.178 144.744 112.651 148.896C116.762 149.567 121.03 148.819 125.255 148.079C130.374 147.183 135.43 146.298 140.067 147.96L141.023 127.202L143.501 145.397C143.685 146.75 144.22 148.424 145.9 148.676C150.46 149.359 153.163 154.112 150.799 157.29C152.837 158.384 155.945 157.895 157.306 156.265C158.666 154.635 158.029 152.164 155.972 151.093C150.982 148.495 150.587 142.899 150.723 138.154L151.66 105.395C151.682 104.605 151.458 103.565 150.473 103.456C136.067 101.863 123.258 93.2466 118.882 82.2054C106.114 86.7578 93.3443 92.007 83.0418 99.2362C59.4648 115.78 65.9318 129.536 67.6235 133.134C67.9199 133.765 68.0697 134.083 67.8857 134.05C66.7102 133.841 66.1524 132.788 65.8269 131.864C65.0664 129.708 64.5711 127.492 64.3505 125.259C60.4597 131.013 54.2644 135.385 48.0567 139.765C42.3828 143.769 36.6986 147.78 32.754 152.86C26.6708 160.695 25.3975 170.779 29.4 179.42C34.1281 189.629 44.995 196.77 55.7131 203.813L55.7132 203.813C58.2888 205.506 60.8557 207.192 63.3268 208.915C68.499 212.52 73.7026 216.987 73.8695 222.457C73.9142 223.923 73.5854 225.368 73.256 226.815L73.2559 226.815C73.0231 227.838 72.79 228.862 72.6885 229.895C72.4432 232.39 73.2166 235.228 75.8707 236.57C76.9901 237.135 78.3212 237.368 79.6335 237.519C93.2378 239.083 109.902 231.755 113.783 221.26C117.591 210.96 110.907 198.253 102.124 190.105C96.6682 185.043 89.6084 181.425 82.5252 177.796C78.2067 175.583 73.8795 173.366 69.9018 170.814C66.1742 168.422 62.4929 165.845 60.134 162.528C57.7751 159.212 56.928 154.996 59.0469 151.579C60.7834 148.778 64.2058 146.834 67.5616 144.927C71.7816 142.529 75.8963 140.19 76.4212 136.285C76.3569 138.04 75.4263 140.005 74.5039 141.954C73.6997 143.652 72.9017 145.338 72.6895 146.859C72.2339 150.124 73.2793 152.927 76.2795 155.184ZM69.3368 148.488C63.6052 148.537 60.2389 154.313 61.8512 158.691C63.4635 163.07 68.1991 166.186 72.6895 169.021C74.9425 170.444 77.43 171.936 80.3058 171.953L297.14 173.245L298.09 159.856L256.271 159.824C250.862 159.82 244.728 160.066 241.205 163.333C239.924 164.521 237.642 163.227 236.079 162.277C232.376 160.026 227.348 159.916 222.688 159.901L69.6907 159.407C68.0501 159.401 65.8425 158.963 65.8965 157.657L76.1846 157.349C72.4897 155.325 69.94 152.025 69.3368 148.488ZM228.455 158.371C226.16 153.959 224.419 149.365 223.266 144.678C222.942 143.362 222.664 142.014 222.884 140.685C223.544 136.694 228.305 134.068 232.678 132.048C230.811 132.018 229.219 130.967 228.021 129.828C227.688 129.51 227.369 129.18 227.051 128.85C226.225 127.995 225.4 127.139 224.312 126.506C222.08 125.208 221.722 125.185 217.112 124.884C216.637 124.853 216.117 124.819 215.546 124.78C211.491 124.507 201.685 121.566 194.525 119.419L194.525 119.419C190.872 118.323 187.908 117.434 186.748 117.212C170.868 114.161 159.86 118.155 157.381 120.307C156.029 121.482 155.697 123.166 155.425 124.745C154.202 131.848 152.979 139.062 154.267 146.157C154.507 147.482 154.952 148.942 156.363 149.67C157.778 150.399 159.11 151.23 160.339 152.149C162.309 153.623 164.079 156.015 162.549 157.788L228.455 158.371ZM138.065 60.7642C138.769 60.2256 140.04 60.2688 140.684 60.8532C141.328 61.4375 141.216 62.446 140.454 62.9318C137.876 64.5741 135.899 66.8061 134.82 69.29C136.221 68.8301 137.763 68.6466 139.272 68.7604C137.715 71.5878 136.657 74.5893 136.14 77.6489L141.003 75.34C141.439 75.1332 141.906 74.9196 142.413 74.9315C142.92 74.9434 143.448 75.2857 143.367 75.6842C141.546 76.1238 140.607 77.8338 140.791 79.3413C140.974 80.8489 142.002 82.1963 143.003 83.4841L147.824 89.6835C146.766 90.6668 144.76 89.7645 143.716 88.7709C140.71 85.9075 138.912 82.2538 138.675 78.5267C138.095 78.5866 137.594 78.863 137.097 79.1368C136.524 79.4525 135.958 79.7648 135.284 79.7379C134.358 79.7009 133.658 78.9845 133.513 78.2552C133.369 77.5259 133.645 76.7901 133.918 76.0845L136.154 70.3036C134.331 70.4608 133.509 71.9261 132.71 73.3493L132.71 73.3497C132.479 73.7611 132.25 74.1689 132 74.5407C130.582 76.6449 127.838 77.9275 125.227 79.1041C128.06 83.2794 131.103 87.4204 135.179 90.8837C139.255 94.3469 144.479 97.1184 150.347 97.9555C151.333 98.0961 152.361 98.1802 153.326 97.9669C154.534 97.6998 155.477 97.0139 156.418 96.3301C156.735 96.0993 157.052 95.8687 157.379 95.6545C160.655 93.5078 164.971 92.9877 169.287 92.4677C173.608 91.947 177.928 91.4264 181.204 89.2734L181.297 89.2118C181.657 88.9737 182.03 88.7261 182.489 88.6707C182.987 88.6106 183.584 88.9157 183.506 89.3118C183.444 89.622 183.917 90.2584 184.711 89.9177C187.774 88.604 188.664 85.7431 189.472 83.1442C189.749 82.2505 190.018 81.3878 190.361 80.6296C190.554 80.2034 191.39 80.4199 191.748 80.7723C191.758 80.7822 191.768 80.7921 191.778 80.8021C191.787 80.8114 191.796 80.8208 191.806 80.8302L191.835 80.8589C192.173 81.1975 192.57 81.5941 193.076 81.4866C193.681 79.7185 193.47 77.7201 193.266 75.7866L193.266 75.7863C193.183 74.9992 193.102 74.2229 193.076 73.4773C193.074 73.4098 193.048 73.206 193.007 72.8866C192.539 69.2471 190.14 50.5881 199.167 47.2438C197.02 46.907 193.557 47.2186 190.488 48.7169C187.384 50.2328 185.152 53.0119 185.3 53.1589C183.155 52.9089 181.145 52.2497 179.132 51.5895C177.432 51.032 175.729 50.4738 173.942 50.1606C171.772 49.7804 169.53 49.7708 167.309 49.7628L164.375 49.7523C161.214 47.0189 161.336 44.0246 161.478 40.5522V40.552V40.5518V40.5516V40.5515C161.505 39.8943 161.532 39.22 161.538 38.5272C156.06 39.0999 150.254 47.3195 148.423 52.251C147.659 54.3108 145.401 55.5765 143.117 56.8566C141.13 57.9707 139.123 59.0956 138.065 60.7642ZM231.437 118.912C230.809 118.785 230.186 118.659 229.571 118.53C220.16 116.548 211.376 113.06 202.669 109.595C192.295 105.467 181.743 101.24 173.42 94.8102C172.777 94.3133 171.757 94.3477 170.868 94.4389C167.58 94.7762 164.347 95.4442 161.268 96.4219C159.655 96.9343 157.84 97.8141 157.829 99.1967C157.825 99.6834 158.06 100.149 158.291 100.6L159.841 103.623C160.502 104.914 161.175 106.252 161.118 107.644C161.06 109.037 160.067 110.507 158.384 110.889C156.701 111.272 154.621 110.026 155.056 108.676C155.801 106.365 156.311 104.006 156.579 101.629C153.299 106.799 154.43 112.967 155.639 118.678C159.98 116.858 164.524 115.344 169.199 114.161C170.805 113.755 172.605 113.397 174.122 113.981C177.837 115.41 184.828 115.791 185.517 115.407C186.205 115.023 187.147 115.208 187.94 115.43C189.218 115.788 191.652 116.543 194.561 117.446C201.698 119.66 211.688 122.761 214.439 123.038C215.163 123.111 215.891 123.165 216.619 123.219L216.619 123.219C218.194 123.336 219.767 123.453 221.297 123.761C223.535 124.212 225.741 125.145 226.925 126.722C227.81 126.335 228.363 125.65 228.918 124.961C229.186 124.629 229.455 124.295 229.762 123.994C230.706 123.069 232.687 122.498 233.592 123.447C234.386 121.287 238.404 120.452 240.423 122.03C240.735 122.273 240.995 122.554 241.255 122.835C241.526 123.127 241.796 123.419 242.125 123.669C242.769 124.159 243.8 124.462 244.548 124.075C241.492 120.944 236.349 119.905 231.437 118.912ZM241.397 158.154C243.702 158.814 246.246 158.171 248.533 157.472C250.695 156.81 252.952 156.022 254.265 154.503C255.846 152.676 255.675 150.265 255.442 148.054L254.467 138.793C255.913 139.761 256.976 141.088 257.469 142.541C258.638 140.488 256.899 137.746 254.129 137.275C255.299 136.504 257.225 137.01 258.051 138.025C258.877 139.04 258.858 140.347 258.617 141.541C258.551 141.863 258.472 142.185 258.393 142.506C258.178 143.377 257.963 144.248 258.03 145.129C259.768 142.967 260.099 140.128 258.891 137.748C258.344 136.67 257.374 135.615 255.956 135.337C254.537 135.06 252.782 135.982 253.017 137.13C253.555 139.759 252.015 142.459 249.653 144.346C247.29 146.234 244.194 147.423 241.07 148.378C239.92 148.73 238.49 149.535 239.05 150.408C239.636 151.32 240.04 152.352 239.839 153.363C239.638 154.375 238.707 155.341 237.439 155.516C235.876 155.731 234.486 154.767 233.362 153.876L226.725 148.613C227.609 150.569 228.647 152.481 229.83 154.334C230.64 155.604 231.566 156.89 233.031 157.708C234.495 158.526 236.639 158.738 238.024 157.837C238.796 157.335 239.849 157.669 240.83 157.98C241.022 158.041 241.212 158.101 241.397 158.154ZM242.054 139.735C242.673 139.409 243.292 139.081 243.934 138.793C245.924 137.9 248.565 137.42 250.391 138.511C250.976 137.012 249.819 135.401 248.31 134.39C245.64 132.601 241.726 132.076 238.467 133.07C235.377 134.013 232.241 135.039 229.786 136.806C227.332 138.573 225.654 141.244 226.285 143.83C226.975 143.964 227.551 143.522 228.089 143.11L228.09 143.11C228.192 143.031 228.294 142.954 228.394 142.882C229.92 141.782 232.014 141.753 234.148 141.722C235.445 141.704 236.757 141.685 237.965 141.426C239.459 141.105 240.755 140.421 242.054 139.735ZM237.321 153.094C236.708 151.871 236.332 150.525 236.668 149.236C237.003 147.947 238.173 146.738 239.783 146.435C243.507 145.734 246.892 143.945 249.15 141.486C249.605 140.991 249.976 140.217 249.37 139.838C249.121 139.682 248.783 139.659 248.467 139.663C246.427 139.687 244.643 140.532 242.856 141.379L242.856 141.379L242.855 141.379L242.855 141.379L242.855 141.379C242.132 141.721 241.409 142.064 240.668 142.352C238.896 143.043 236.943 143.438 234.972 143.504C234.577 143.517 234.177 143.518 233.778 143.519C232.519 143.522 231.257 143.525 230.114 143.915C228.607 144.431 227.496 145.991 228.437 147.06C230.67 149.598 233.789 151.54 236.86 153.444L237.321 153.094ZM124.282 80.5628C123.939 80.0698 123.43 79.5037 122.727 79.5674C121.816 79.65 121.633 80.6391 121.758 81.3616C122.645 86.488 126.632 91.0458 131.703 94.2831C136.775 97.5205 142.877 99.5699 149.05 101.195C149.474 101.306 149.89 101.517 150.298 101.724C151.079 102.119 151.832 102.5 152.564 102.151C153.408 101.748 153.193 100.643 152.425 100.153C151.728 99.7087 150.8 99.6133 149.906 99.5214C149.814 99.512 149.723 99.5027 149.633 99.493C143.665 98.8535 138.335 96.0351 134.258 92.5077C130.181 88.9802 127.198 84.7564 124.282 80.5628ZM234.94 123.743C234.402 124.253 233.81 124.815 232.994 124.801C232.308 124.789 231.88 125.233 231.437 125.692C231.123 126.018 230.801 126.352 230.374 126.538C229.352 126.981 229.264 128.216 229.935 128.973C230.605 129.731 231.77 130.099 232.896 130.333C235.193 130.811 237.617 130.893 239.957 130.574C241.482 130.365 243.064 129.938 244.026 128.973C244.987 128.007 245.015 126.385 243.741 125.684C243.315 125.45 242.803 125.341 242.293 125.232C241.685 125.103 241.081 124.974 240.634 124.635C240.302 124.384 240.103 124.048 239.905 123.713C239.697 123.363 239.489 123.012 239.129 122.76C238.546 122.35 237.663 122.294 236.929 122.499C236.196 122.703 235.593 123.131 235.089 123.603C235.04 123.649 234.99 123.696 234.94 123.743ZM239.24 161.44C239.476 161.514 239.742 161.526 239.987 161.473C240.224 161.423 240.44 161.312 240.596 161.161C241.231 160.548 240.346 159.441 239.38 159.639C238.413 159.838 238.312 161.148 239.24 161.44ZM160.669 157.596C160.904 157.82 161.477 157.796 161.538 157.509C161.789 156.324 161.908 154.868 160.678 154.173L160.469 156.757C160.446 157.048 160.434 157.371 160.669 157.596ZM173.008 52.9399C171.673 53.6435 170.619 54.681 170.035 55.8679C169.916 56.1098 169.653 56.2696 169.388 56.4309C169.249 56.5156 169.109 56.6008 168.989 56.6985C168.641 56.9819 168.583 57.5877 169.071 57.6668C169.285 57.7015 169.494 57.6079 169.681 57.519C172.675 56.0959 176.317 54.9469 179.583 55.9188C179.046 56.1372 178.775 56.6975 178.989 57.1463C178.322 57.1654 177.701 57.4041 177.102 57.6381L175.519 58.2562L175.685 58.6281C178.07 57.6615 180.983 57.561 183.464 58.3597C182.64 58.4594 181.799 58.4777 180.969 58.4139L177.338 59.8707C177.068 59.9788 176.784 60.0975 176.633 60.3051C176.481 60.5126 176.539 60.8344 176.821 60.92C179.008 59.3845 182.102 58.7055 184.969 59.132C185.303 59.1817 185.532 58.8103 185.39 58.5641C185.248 58.3179 184.908 58.1916 184.591 58.0923C183.002 57.5943 181.326 57.2721 179.627 57.138C180.477 56.5107 181.461 55.9993 182.525 55.6325C182.7 55.1556 181.836 54.6985 181.352 55.0118C177.671 54.4375 173.727 55.0074 170.535 56.575C170.508 56.0766 170.973 55.6574 171.407 55.2979L175.482 51.926C173.104 52.1659 170.773 52.6989 168.597 53.5003C168.105 53.6816 167.619 53.8773 167.173 54.1229C165.494 55.0479 164.495 56.7027 164.637 58.3239C165.653 56.6131 167.263 55.1285 169.24 54.0775C170.371 53.4768 171.652 53.0091 173.008 52.9399ZM164.629 68.6839C164.86 67.2532 164.87 65.7272 164.015 64.4553C163.76 64.075 163.405 63.7095 162.901 63.5501C162.131 63.3062 161.244 63.6175 160.636 64.0666C159.129 65.1808 158.808 66.9856 158.937 68.6198C158.993 69.33 159.124 70.0563 159.562 70.6768C159.999 71.2973 160.799 71.7966 161.693 71.807C162.59 71.8176 163.409 71.3346 163.876 70.7245C164.343 70.1144 164.514 69.3924 164.629 68.6839ZM186.089 74.006C187.784 71.9408 187.67 69.0356 185.816 67.0588C185.594 66.8226 185.342 66.5937 185.013 66.4587C184.372 66.1956 183.552 66.3542 182.997 66.7206C182.441 67.087 182.107 67.6236 181.865 68.1646C181.149 69.7673 181.119 71.559 181.782 73.1762C182.184 74.157 183.181 75.2182 184.458 75.0408C185.163 74.9429 185.698 74.4829 186.089 74.006ZM169.804 84.6141C169.6 84.569 169.398 84.5243 169.248 84.41C168.93 84.168 169.042 83.7004 169.402 83.5001C169.763 83.2998 170.269 83.3345 170.654 83.5042C171.043 83.6761 171.353 84.0161 171.287 84.3666C171.221 84.7171 170.658 84.9788 170.296 84.7727C170.152 84.6909 169.977 84.6524 169.804 84.6141ZM165.226 78.9196C162.412 78.4232 160.838 78.4861 158.423 78.9759L157.914 79.0816C155.505 79.5824 154 79.5846 150.942 78.7955C150.576 78.7011 150.183 78.8606 150.065 79.1516C149.946 79.4427 155.527 80.7049 158.078 80.1921L158.548 80.0947C160.897 79.6036 162.264 79.532 164.925 80.0014C165.3 80.0676 165.672 79.8791 165.755 79.5804C165.838 79.2816 165.602 78.9858 165.226 78.9196ZM143.118 73.569C143.288 73.2945 143.705 73.1815 144.05 73.3166C149.003 75.2573 151.748 75.5101 156.264 75.0511L157.404 74.9387C157.534 74.927 157.648 74.9175 157.769 74.9082L158.175 74.8794C160.864 74.7112 162.997 75.0743 165.732 76.3749C166.062 76.5317 166.17 76.8719 165.973 77.1346C165.776 77.3972 165.349 77.483 165.019 77.3261C162.473 76.1161 160.594 75.816 158.082 75.9977C157.916 76.0097 157.777 76.0206 157.615 76.0348L155.945 76.1983C151.458 76.6131 142.948 73.8435 143.118 73.569ZM177.481 78.7699C177.098 78.7482 176.765 78.9779 176.737 79.2831C176.71 79.5883 176.999 79.8534 177.382 79.8751C178.969 79.965 180.062 80.3945 181.702 81.4468L182.296 81.8369C182.469 81.9521 182.664 82.0824 182.717 82.1176C184.163 83.0773 185.126 83.6002 186.404 84.0173C186.76 84.1334 189.216 84.5312 187.312 83.7149C185.408 82.8987 182.928 80.8135 182.928 80.8135L182.565 80.5769C180.724 79.3975 179.407 78.879 177.481 78.7699ZM176.437 81.4203C176.588 81.1389 176.996 81.0081 177.35 81.1282C179.097 81.7218 180.081 82.4805 181.734 84.2026L182.244 84.7311C182.579 85.0717 182.859 85.4153 183.131 85.7488C183.731 86.4842 184.291 87.1703 185.301 87.6649C186.769 88.3838 184.671 88.0069 184.343 87.8466C183.04 87.2085 182.194 86.5043 180.875 85.1325L180.492 84.7342C179.059 83.2561 178.223 82.6296 176.804 82.1473C176.45 82.0272 176.286 81.7017 176.437 81.4203Z" fill="#00160A"/>
<path fill-rule="evenodd" clip-rule="evenodd" d="M173.998 79.6607C174.568 79.2522 175.395 79.1271 175.951 78.7072C176.478 78.3091 176.68 77.6601 176.447 77.1122C176.214 76.5644 175.558 76.1467 174.835 76.0857C172.762 75.9108 170.689 75.7358 168.617 75.5609C168.125 75.5194 167.581 75.4883 167.182 75.7216C166.574 76.0779 166.67 76.8566 167.11 77.3454C167.55 77.8342 168.227 78.1492 168.757 78.5777C169.44 79.1299 169.867 79.8784 169.94 80.6512C169.995 81.225 169.916 81.9089 170.488 82.2615C171.205 82.7041 172.265 82.1811 172.704 81.5489C173.143 80.9167 173.324 80.1442 173.998 79.6607H173.998Z" fill="#FF4081"/>
<path fill-rule="evenodd" clip-rule="evenodd" d="M89.9473 157.859C85.5443 157.873 79.2786 157.747 76.0783 155.34C73.0781 153.083 72.0327 150.28 72.4883 147.015C72.9439 143.749 76.0996 139.726 76.22 136.441C75.2777 143.452 62.7658 145.412 58.8457 151.735C56.7268 155.152 57.574 159.368 59.9328 162.684C62.2917 166.001 65.973 168.578 69.7006 170.97C80.2024 177.707 93.1405 182.112 101.923 190.261C110.706 198.409 117.39 211.116 113.582 221.415C109.701 231.911 93.0366 239.239 79.4323 237.675C78.12 237.524 76.7889 237.291 75.6696 236.726C73.0154 235.384 72.242 232.546 72.4873 230.051C72.7325 227.556 73.7446 225.115 73.6683 222.613C73.5014 217.143 68.2979 212.676 63.1257 209.071C50.371 200.181 35.0631 192.238 29.1988 179.576C25.1963 170.935 26.4697 160.851 32.5528 153.016C40.8132 142.377 56.7023 136.428 64.1493 125.415C64.3699 127.648 64.8652 129.864 65.6257 132.02C65.9512 132.944 66.509 133.997 67.6845 134.206C68.9188 134.426 55.133 118.834 82.8406 99.3921C93.1431 92.163 105.913 86.9138 118.681 82.3613C123.056 93.4026 135.865 102.019 150.272 103.612C151.256 103.721 151.481 104.761 151.459 105.551C151.146 116.471 150.834 127.39 150.522 138.31C150.386 143.055 150.781 148.651 155.77 151.249C157.827 152.32 158.465 154.791 157.105 156.421C155.744 158.051 152.636 158.54 150.598 157.446C152.962 154.268 150.259 149.514 145.699 148.831C144.019 148.58 143.484 146.906 143.3 145.553C142.474 139.488 141.647 133.423 140.821 127.358C140.503 134.277 140.184 141.197 139.865 148.116C131.403 145.081 121.542 150.536 112.45 149.052C119.977 144.9 126.924 139.579 130.088 132.738C133.251 125.897 131.771 117.335 124.727 112.677C128.923 118.013 129.751 124.938 126.896 130.809C124.143 136.47 118.391 140.838 112.525 144.717C110.707 145.919 108.752 147.226 108.19 149.053C107.627 150.88 109.394 153.217 111.721 152.888C120.008 150.408 128.984 149.398 137.81 149.954C140.545 150.127 143.414 150.497 145.545 151.872C147.676 153.247 148.696 155.928 147.046 157.673C128.013 157.735 108.98 157.797 89.9473 157.859Z" fill="white"/>
<path fill-rule="evenodd" clip-rule="evenodd" d="M79.6335 237.519C78.3212 237.368 76.9901 237.135 75.8707 236.57C73.2166 235.228 72.4432 232.39 72.6885 229.895C72.9337 227.4 73.9458 224.959 73.8695 222.457C73.7026 216.987 68.4991 212.52 63.3269 208.915C50.5723 200.025 35.2643 192.082 29.4 179.42C27.052 174.351 56.5348 189.853 72.6885 208.105C84.0707 220.965 85.257 238.166 79.6335 237.519Z" fill="#E7EAEE"/>
<path fill-rule="evenodd" clip-rule="evenodd" d="M68.7877 111.446C70.7862 107.615 76.3574 103.926 83.0418 99.2361C93.3444 92.007 106.114 86.7578 118.882 82.2053C106.362 89.4648 91.0994 95.5246 80.2386 104.636C74.9451 109.077 71.3641 118.026 68.3714 120.902C66.0804 123.104 63.088 122.371 68.7877 111.446Z" fill="#E7EAEE"/>
<path fill-rule="evenodd" clip-rule="evenodd" d="M157.01 109.943C156.556 109.154 156.236 105.512 158.628 105.512C160.12 106.86 159.967 109.448 157.01 109.943Z" fill="#FF4081"/>
<path fill-rule="evenodd" clip-rule="evenodd" d="M229.571 118.53C235.001 119.673 241.102 120.544 244.548 124.075C243.8 124.462 242.769 124.16 242.125 123.669C241.48 123.178 241.059 122.527 240.423 122.03C238.404 120.452 234.386 121.287 233.592 123.448C232.687 122.498 230.706 123.069 229.762 123.994C228.818 124.92 228.237 126.148 226.925 126.722C225.741 125.145 223.535 124.212 221.297 123.761C219.06 123.31 216.729 123.269 214.439 123.038C210.567 122.648 206.784 121.706 203.323 120.272C203.533 120.615 189.192 115.665 176.068 114.948C166.484 114.424 157.471 117.91 155.639 118.678C154.43 112.967 153.299 106.799 156.579 101.629C156.311 104.006 155.801 106.365 155.056 108.676C154.621 110.026 156.701 111.272 158.384 110.889C160.067 110.507 161.06 109.037 161.118 107.644C161.175 106.252 160.502 104.914 159.841 103.624C159.324 102.616 158.807 101.608 158.291 100.6C158.06 100.149 157.825 99.6835 157.829 99.1968C157.84 97.8142 159.655 96.9344 161.268 96.422C164.347 95.4443 167.58 94.7763 170.868 94.439C171.757 94.3478 172.777 94.3134 173.42 94.8103C181.743 101.24 192.295 105.467 202.669 109.595C211.376 113.06 220.16 116.548 229.571 118.53Z" fill="white"/>
<path fill-rule="evenodd" clip-rule="evenodd" d="M226.925 126.722C225.741 125.145 223.535 124.211 221.297 123.761C219.06 123.31 216.729 123.269 214.439 123.038C213.545 122.948 209.876 122.487 205.114 121.157C198.228 119.234 188.775 116.163 179.769 115.382C168.013 114.362 157.53 117.885 155.639 118.678C154.43 112.967 158.52 113.653 160.715 113.472C209.253 109.482 228.237 126.148 226.925 126.722Z" fill="#E7EAEE"/>
</svg>
