<svg width="197" height="260" viewBox="0 0 197 260" fill="none" xmlns="http://www.w3.org/2000/svg">
<path fill-rule="evenodd" clip-rule="evenodd" d="M134.161 114.279C136.151 116 138.148 117.819 140.437 118.683C142.727 119.547 145.417 119.283 147.18 117.18C154.294 108.692 165.75 107.273 173.947 113.864C182.144 120.455 186.39 134.499 183.867 146.678C181.343 158.857 172.265 168.142 162.655 168.371C157.675 168.49 153.071 171.616 148.313 173.548C143.555 175.48 137.833 175.975 134.112 171.629C130.101 166.944 130.559 157.291 134.981 153.296C128.032 153.979 121.083 154.663 114.134 155.347C115.663 156.16 117.29 157.08 118.166 158.915C119.042 160.75 118.641 163.752 117.044 164.297C111.1 166.327 105.014 162.627 99.308 159.641C93.6024 156.654 86.7272 154.461 81.6395 158.979C70.1732 169.163 55.0251 167.472 41.3685 164.502C38.0923 163.79 34.1511 162.223 33.4699 157.955C27.1994 159.505 20.8048 160.188 14.4258 159.99C12.8688 159.941 11.0306 159.619 10.3029 157.811C9.36001 155.468 11.0526 152.81 12.701 151.281C17.7349 146.612 23.8807 144.044 30.0436 144.033C31.799 144.03 32.971 141.621 33.4178 139.392C33.8647 137.162 33.99 134.682 35.1298 132.929C31.2536 132.165 27.1472 133.719 24.175 137.074C23.6234 137.697 22.6922 137.072 22.4606 136.166C22.2291 135.26 22.4676 134.275 22.7126 133.376C24.084 128.339 25.8035 123.222 28.9204 119.778C32.0372 116.334 36.9071 115.092 40.1929 118.253C41.2236 119.245 42.9738 120.518 45.4433 122.073C47.9753 121.57 49.858 121.17 51.0914 120.872C54.8267 119.97 58.29 117.743 61.6759 115.484C73.4744 107.612 85.5716 98.8479 98.8003 98.3534C111.456 97.8804 123.588 105.136 134.161 114.279ZM147.55 127.926L148.737 131.852C148.795 132.045 148.858 132.246 148.98 132.376C149.129 132.534 149.333 132.555 149.522 132.591C150.973 132.865 152.11 134.312 153.139 135.684C154.456 137.441 155.773 139.199 157.091 140.956C157.485 141.482 158.141 140.913 158.519 140.366C159.368 139.135 160.234 137.872 160.724 136.341C161.215 134.81 161.268 132.933 160.537 131.577C160.102 130.771 159.441 130.228 158.762 129.803C157.643 129.1 156.429 128.659 155.194 128.507C153.989 128.359 152.776 128.484 151.566 128.472C150.218 128.459 148.871 128.276 147.55 127.926Z" fill="white"/>
<path fill-rule="evenodd" clip-rule="evenodd" d="M33.4699 157.955C27.1994 159.505 20.8048 160.188 14.4258 159.99C12.5901 156.477 32.4548 150.005 33.1751 154.272C33.7447 157.645 33.7707 159.84 33.4699 157.955Z" fill="#E7EAEE"/>
<path fill-rule="evenodd" clip-rule="evenodd" d="M129.67 146.574C130.34 146.48 133.003 145.623 135.799 146.02C137.301 145.008 144.502 145.803 148.8 146.909C151.559 147.619 158.551 148.09 161.09 149.791C165.497 152.743 165.598 154.568 164.935 154.959C163.051 156.069 160.782 156.617 159.562 156.646C157.365 156.698 152.947 154.033 148.1 152.363C145.936 151.617 144.345 150.983 143.092 150.369L143.296 150.251C140.585 151.858 137.78 152.114 134.981 153.296C128.032 153.979 121.083 154.663 114.134 155.347C115.662 156.161 92.6663 145.166 99.308 143.562C99.7174 143.463 100.169 143.403 100.658 143.376C106.878 143.034 119.236 148.039 129.67 146.574Z" fill="#E7EAEE"/>
<path fill-rule="evenodd" clip-rule="evenodd" d="M67.6113 133.002C67.6961 133.201 67.632 133.465 67.5047 133.62C67.3774 133.775 67.2025 133.842 67.032 133.884C65.7757 134.194 64.4031 133.294 63.8367 131.789C63.7736 131.621 63.7185 131.437 63.7378 131.252C63.7571 131.066 63.8757 130.887 64.0179 130.898C64.3836 131.428 64.7546 131.964 65.21 132.356C65.6653 132.748 66.222 132.987 66.7575 132.858C67.0614 132.784 67.4604 132.648 67.6113 133.002Z" fill="#00160A"/>
<path fill-rule="evenodd" clip-rule="evenodd" d="M68.4348 153.527C68.4525 153.062 68.8958 152.868 69.2497 152.851C70.8355 152.774 72.3123 153.795 73.7769 154.597C75.2415 155.399 76.9471 155.99 78.3774 155.088C78.676 154.899 78.9888 154.642 79.3128 154.733C78.7755 156.101 77.4912 156.723 76.3205 156.638C75.1497 156.554 74.0526 155.904 72.9732 155.303C71.8937 154.702 70.7581 154.13 69.5875 154.216C69.3474 154.233 69.1015 154.278 68.8701 154.192C68.6386 154.106 68.4228 153.842 68.4348 153.527Z" fill="#00160A"/>
<path fill-rule="evenodd" clip-rule="evenodd" d="M71.2109 157.424C70.117 157.005 68.8381 157.215 67.9396 156.294C67.8298 156.182 67.7214 156.034 67.7172 155.852C67.7112 155.595 67.9214 155.408 68.1165 155.401C68.3116 155.395 68.4948 155.512 68.678 155.6C69.3469 155.923 70.0833 155.879 70.7816 156.066C71.8291 156.347 72.7516 157.131 73.7383 157.671C74.725 158.212 75.9084 158.488 76.8271 157.771C77.1978 157.481 77.685 157.049 77.9923 157.446C76.992 158.942 75.2986 159.566 73.8518 158.971C72.9305 158.592 72.1377 157.779 71.2109 157.424Z" fill="#00160A"/>
<path fill-rule="evenodd" clip-rule="evenodd" d="M39.6866 142.277C39.5107 141.981 39.5122 141.553 39.6244 141.208C39.7367 140.863 39.9427 140.588 40.1556 140.338C41.1664 139.152 42.5654 138.35 43.8776 138.795C44.861 139.129 45.6391 140.097 46.3277 141.078C46.6225 141.498 46.9267 142.099 46.706 142.591C46.4703 143.117 45.8785 143.006 45.4302 142.846C44.0387 142.351 42.564 142.059 41.1578 142.477C40.6477 142.628 40.0087 142.818 39.6866 142.277Z" fill="#00160A"/>
<path fill-rule="evenodd" clip-rule="evenodd" d="M62.4763 160.079C62.6702 160.232 62.6434 160.643 62.4819 160.852C62.3203 161.061 62.0822 161.12 61.8589 161.171C60.6071 161.453 59.3552 161.735 58.1034 162.016C57.842 162.075 57.5499 162.126 57.332 161.928C57.114 161.729 57.1078 161.178 57.3672 161.106C58.9367 160.671 60.5186 160.313 62.1085 160.034C62.233 160.012 62.3687 159.993 62.4763 160.079Z" fill="#00160A"/>
<path fill-rule="evenodd" clip-rule="evenodd" d="M59.2819 142.903C59.0065 143.037 58.7023 142.688 58.6652 142.306C58.628 141.923 58.7787 141.553 58.9532 141.243C59.7652 139.799 61.2122 139.059 62.5685 139.282C63.9248 139.504 65.1568 140.632 65.8694 142.164C65.9793 142.4 66.0812 142.672 66.0395 142.943C65.9943 143.237 65.7851 143.45 65.5636 143.523C65.342 143.595 65.1089 143.554 64.8838 143.503C63.9473 143.29 63.0341 142.922 62.0969 142.715C61.1596 142.508 60.173 142.469 59.2819 142.903Z" fill="#00160A"/>
<path fill-rule="evenodd" clip-rule="evenodd" d="M41.5813 133.023C41.6878 132.613 42.139 132.715 42.4625 132.799C43.4706 133.062 44.4567 132.324 45.3313 131.615C45.4481 131.52 45.6035 131.7 45.601 131.88C45.5984 132.06 45.4996 132.21 45.4031 132.338C44.5311 133.496 43.2272 134.287 42.0483 133.784C41.7849 133.671 41.4918 133.367 41.5813 133.023Z" fill="#00160A"/>
<path fill-rule="evenodd" clip-rule="evenodd" d="M76.5994 140.036C76.2593 139.951 76.0829 139.409 76.1465 138.962C76.2102 138.515 76.4413 138.146 76.6594 137.793C77.4831 136.459 78.2338 135.041 78.8253 133.509C79.3341 132.192 79.7239 130.795 80.296 129.523C81.9328 125.884 85.1077 123.532 88.3259 123.573C87.0363 122.361 85.5117 121.644 83.9674 121.169C79.1906 119.702 74.0294 120.498 69.6418 123.38C68.9483 123.835 68.2719 124.342 67.5487 124.709C67.2151 124.878 66.8461 125.018 66.5044 124.879C66.1627 124.74 65.8945 124.212 66.0534 123.791C66.145 123.549 66.3424 123.413 66.5273 123.293C68.3965 122.082 70.2736 120.867 72.255 120.016C76.6875 118.114 81.5849 118.133 86.0087 120.07C87.493 120.72 89.0442 121.73 89.687 123.603C89.7856 123.89 89.7947 124.35 89.5573 124.397C87.0082 124.901 84.4142 126.06 82.6547 128.534C80.3758 131.738 79.824 136.658 77.3527 139.606C77.1423 139.857 76.8787 140.106 76.5994 140.036Z" fill="#00160A"/>
<path fill-rule="evenodd" clip-rule="evenodd" d="M114.134 155.347C115.663 156.16 117.29 157.08 118.166 158.915C119.042 160.75 118.641 163.752 117.044 164.297C111.1 166.327 105.014 162.627 99.308 159.641C93.6024 156.654 86.7272 154.461 81.6395 158.979C70.1732 169.163 55.0251 167.472 41.3685 164.502C38.0923 163.79 34.1511 162.223 33.4699 157.955C27.1994 159.505 20.8048 160.188 14.4258 159.99C12.8688 159.941 11.0306 159.619 10.3029 157.811C9.36001 155.468 11.0526 152.81 12.701 151.281C17.7349 146.612 23.8807 144.044 30.0436 144.033C31.799 144.03 32.971 141.621 33.4178 139.392C33.8647 137.162 33.99 134.682 35.1298 132.929C31.2536 132.165 27.1472 133.719 24.175 137.074C23.6234 137.697 22.6922 137.072 22.4606 136.166C22.2291 135.26 22.4676 134.275 22.7126 133.376C24.084 128.339 25.8035 123.222 28.9204 119.778C32.0372 116.334 35.4871 115.027 40.1715 117.828C41.3983 118.562 43.1504 119.865 45.4279 121.738C47.9448 121.465 49.8327 121.176 51.0914 120.872C54.8267 119.97 58.29 117.743 61.6759 115.484C73.4744 107.612 85.5716 98.8479 98.8003 98.3534C111.456 97.8804 123.588 105.136 134.161 114.279C136.151 116 138.148 117.819 140.437 118.683C142.727 119.547 145.417 119.283 147.18 117.18C154.294 108.692 165.75 107.273 173.947 113.864C182.144 120.455 186.39 134.499 183.867 146.678C181.343 158.857 172.265 168.142 162.655 168.371C157.675 168.49 153.071 171.616 148.313 173.548C143.555 175.48 137.833 175.975 134.112 171.629C130.101 166.944 130.559 157.291 134.981 153.296C128.032 153.979 121.083 154.663 114.134 155.347ZM154.358 138.512C150.851 133.881 145.619 131.616 140.703 132.601C143.083 131.63 145.634 131.385 148.097 131.891C141.116 118.652 129.848 110.383 118.364 104.734C112.783 101.988 106.972 99.7313 101.013 99.5586C93.2566 99.3337 85.6971 102.644 78.5325 106.554C70.6691 110.845 63.0627 115.899 55.4649 120.948C57.8091 120.791 60.1852 122.144 61.7002 124.498C55.3363 121.052 47.7983 121.583 41.7519 125.904C41.7809 124.326 42.7415 122.862 43.9263 122.592C40.4664 118.589 35.151 117.618 30.9901 120.228C26.8292 122.838 24.0644 128.878 24.2615 134.927C27.7754 131.111 32.8437 129.931 37.1426 131.928C34.5839 137.535 33.2629 144.103 33.3799 150.637C34.7245 149.894 36.3813 150.243 37.4806 151.503C36.2524 151.677 35.0242 151.85 33.796 152.024C33.8479 152.76 33.8998 153.495 33.9517 154.231C35.2513 153.98 36.5509 153.728 37.8506 153.477C37.0142 154.74 35.8348 155.604 34.5767 155.874C34.4187 157.976 35.53 159.96 36.9243 161.013C38.3186 162.067 39.956 162.381 41.549 162.676C45.5194 163.411 49.4899 164.145 53.4603 164.88C52.5395 163.516 52.3887 161.32 51.7876 159.802C51.0089 157.836 49.8847 157.035 49.321 154.427C49.1266 153.527 48.6784 152.26 49.3056 151.687C49.569 151.447 49.9122 151.438 50.233 151.437C51.5437 151.436 52.8543 151.434 54.165 151.432C54.5885 151.431 55.0314 151.437 55.4058 151.697C56.5401 152.485 56.1818 154.812 55.3347 156.077C54.4875 157.343 53.2762 158.354 52.9868 159.996C52.6896 161.682 53.5542 163.43 54.7025 164.28C55.8509 165.13 57.2172 165.274 58.5346 165.334C61.3113 165.458 64.0955 165.289 66.8516 164.829C73.7899 163.67 81.1817 159.957 84.4021 151.804C84.2073 153.859 83.3895 155.801 82.1675 157.11C87.2225 154.665 92.947 154.693 97.9884 157.186C102.769 159.551 107.306 164.117 112.376 163.298C112.159 163.066 112.075 162.666 111.857 162.435C111.266 161.805 110.541 161.343 109.95 160.714C111.758 161.582 113.565 162.45 115.373 163.319C115.168 162.924 115.373 162.525 114.991 161.921C114.608 161.318 113.773 160.24 113.281 159.293C114.65 159.816 115.85 161.064 116.552 162.694C117.137 162.506 117.722 162.318 118.307 162.13C115.336 156.865 111.23 152.718 106.592 150.3C104.342 149.126 101.553 147.722 101.271 144.565C106.329 150.978 113.576 153.714 120.606 153.909C127.635 154.105 134.571 152.008 141.42 149.923C139.852 148.882 138.438 147.442 137.28 145.707C144.973 151.367 153.58 154.872 162.362 155.92C161.863 154.811 161.365 153.703 160.867 152.594C161.957 152.635 162.975 153.72 163.229 155.111C163.775 154.829 164.322 154.546 164.868 154.264C164.108 153.285 163.348 152.307 162.588 151.329C163.811 150.942 165.182 152.18 165.345 153.817C165.856 153.468 166.278 152.897 166.529 152.216C165.621 151.313 164.712 150.41 163.804 149.506C165.181 149.47 166.563 150.075 167.648 151.19C166.365 147.092 162.021 146.994 159.136 144.696C157.217 143.167 155.94 140.603 154.358 138.512ZM147.826 126.738C149.542 127.284 151.34 126.861 153.106 126.868C154.935 126.875 156.758 127.352 158.472 128.191C159.53 128.709 160.588 129.406 161.276 130.582C162.367 132.446 162.272 135.15 161.511 137.278C160.75 139.406 159.433 141.089 158.144 142.72C160.85 144.305 163.555 145.89 166.261 147.475C167.025 147.923 167.852 148.448 168.201 149.447C168.806 151.174 167.632 153.068 166.427 154.121C162.668 157.405 157.554 157.807 153.523 155.137C150.936 153.425 148.069 152.608 145.237 151.807C143.691 151.369 142.08 150.933 140.544 151.427C139.454 151.778 138.427 152.592 137.305 152.542C136.302 152.497 135.523 153.634 134.936 154.702C133.003 158.214 131.409 162.703 132.541 166.774C133.319 169.573 135.291 171.589 137.44 172.546C139.589 173.502 141.911 173.53 144.176 173.34C147.01 173.103 149.897 172.513 152.386 170.717C154.007 169.547 155.457 167.871 157.249 167.274C159.4 166.558 161.666 167.519 163.879 167.307C165.641 167.138 167.309 166.232 168.922 165.286C172.863 162.977 176.805 160.25 179.601 155.932C183.769 149.494 184.761 140.059 182.769 132.023C180.777 123.987 176.07 117.38 170.437 113.294C168.888 112.17 167.257 111.215 165.54 110.655C161.418 109.309 156.907 110.369 153.304 113.324C151.45 114.846 149.838 116.828 148.021 118.426C146.204 120.023 144.067 121.254 141.891 120.975C143.568 123.409 145.397 125.965 147.826 126.738ZM18.0831 148.748C15.5581 150.041 13.0316 151.756 11.4314 154.628C12.1677 154.095 13.0922 154.036 13.8644 154.473C13.3015 154.838 12.7386 155.203 12.1756 155.568C11.8603 155.773 11.5343 155.989 11.3153 156.35C11.0963 156.711 11.0171 157.263 11.2291 157.632C11.4411 158 11.9774 157.966 12.08 157.525C12.4564 155.903 13.9097 154.867 15.1501 155.336C14.2185 156.033 13.2013 156.872 12.9435 158.239C13.0828 158.854 13.7693 158.956 14.1728 158.593C14.5763 158.23 14.7776 157.601 15.0097 157.035C15.2417 156.47 15.5787 155.891 16.0627 155.798C16.1648 155.778 16.2816 155.789 16.3525 155.887C16.4761 156.059 16.3741 156.339 16.2577 156.52C15.9942 156.928 15.6578 157.286 15.5282 157.793C15.3987 158.301 15.6302 159.011 16.0371 158.978C21.7508 158.52 27.4536 157.83 33.1349 156.91C33.3402 156.326 32.7165 155.852 32.2312 155.766C30.9993 155.546 29.7321 155.676 28.541 156.143C28.761 155.181 29.5004 154.552 30.2524 154.372C31.0045 154.191 31.7762 154.377 32.5276 154.562C32.5335 153.869 32.435 153.175 32.2395 152.531C31.0448 152.498 29.8607 151.974 28.8945 151.051C29.7021 150.654 30.6402 150.745 31.3951 151.292C31.7555 151.553 32.0241 150.788 32.03 150.248C32.0494 148.491 32.0687 146.734 32.088 144.977C27.3022 145.183 22.5444 146.464 18.0831 148.748ZM149.522 132.591C150.973 132.865 152.11 134.312 153.139 135.684C154.456 137.441 155.773 139.199 157.091 140.956C157.485 141.482 158.141 140.913 158.519 140.366C159.368 139.135 160.234 137.872 160.724 136.341C161.215 134.81 161.268 132.933 160.537 131.577C160.102 130.771 159.441 130.228 158.762 129.803C157.643 129.1 156.429 128.659 155.194 128.507C153.989 128.359 152.776 128.484 151.566 128.472C150.218 128.459 148.871 128.276 147.55 127.926C147.945 129.235 148.341 130.544 148.737 131.852C148.795 132.045 148.858 132.246 148.98 132.376C149.129 132.534 149.333 132.555 149.522 132.591Z" fill="#00160A"/>
</svg>
