<svg width="30" height="30" viewBox="0 0 30 30" fill="none" xmlns="http://www.w3.org/2000/svg">
<g clip-path="url(#clip0_30_420)">
<path d="M4.23725 -0.000190392C3.18404 -0.00733821 2.24255 1.63653 2.09705 2.73902C2.07279 3.96401 1.79479 4.32867 2.51443 6.42627C2.49298 9.15601 0.301011 19.2529 0.0387819 23.6417C0.0939055 24.6749 -0.247448 25.5038 0.424286 26.3715C0.957427 26.8793 1.19573 26.7654 1.71747 26.5473C2.11275 26.3821 2.03323 25.0785 1.95813 24.1411C1.87581 22.1182 2.38339 19.669 2.69645 16.2848C2.74875 15.729 2.76015 15.7171 3.16735 15.7953C3.53083 15.8625 3.93976 15.8113 4.32019 15.7426C4.66181 15.6896 5.15962 15.5781 5.29529 15.2663C5.54277 14.4928 3.90894 14.743 3.24662 14.5574C2.9915 14.4886 2.98952 14.4855 3.03293 14.2038C3.06588 13.9894 3.01789 14.0572 3.15816 13.7908C3.3729 13.7887 3.60985 13.766 3.85869 13.8458C4.54193 13.8948 5.16616 13.7962 5.34963 13.6105C5.73863 13.197 5.2293 12.9563 4.75411 12.7846C4.28823 12.6163 3.81356 12.6577 3.32446 12.6191C3.32132 12.4851 3.2945 12.3884 3.30873 12.3263C3.32975 12.2344 3.409 12.2185 3.73284 12.2407C5.11051 12.335 5.24209 12.3254 5.54208 12.108C6.49623 11.3924 4.99845 11.1218 4.28811 11.0698C3.75874 11.0013 3.54974 10.9531 3.52589 10.8944C3.77243 9.27824 3.94984 8.76709 4.27524 7.05174C4.4266 6.03745 2.79888 4.51466 3.60209 2.9387C3.80229 2.36311 3.93543 2.08712 4.11712 2.06873C4.22622 2.05769 4.35281 2.13939 4.52142 2.30478C5.06512 2.82575 4.73255 4.7673 6.14945 5.20251C6.84084 5.48739 7.4393 5.35096 8.06941 5.37022C7.99002 5.71644 8.03118 5.94566 8.26778 6.29217C8.48869 6.6091 8.66936 6.66496 8.93337 6.49791C9.13441 6.37061 9.22688 5.99695 9.41694 5.44572C9.48409 5.2567 10.1385 4.9341 10.2923 5.45638C10.4399 5.95727 10.3248 6.10631 10.582 6.45823C10.8738 6.78489 11.1947 7.04446 11.5379 6.34453C11.6692 6.08866 11.7183 5.7335 11.7334 5.34892C11.8387 4.88996 12.1381 4.99151 12.5753 5.22639C12.7746 5.63596 12.8505 5.94578 13.2755 6.1285C13.6495 6.1908 13.8747 5.83985 13.9974 5.50303C14.1158 5.24039 14.1162 5.2403 14.4624 5.26258C14.6531 5.27485 15.1287 5.34127 15.5192 5.41009C16.6999 5.57446 17.3046 3.93275 17.8096 3.05424C18.1132 2.57269 18.4909 2.70812 18.7187 3.30039C18.7082 4.29736 18.6229 5.52497 18.8586 6.07615C19.5319 8.217 20.1837 10.652 19.6838 13.5069C18.9464 13.9327 17.7931 12.8015 17.7516 11.928C18.5071 11.7582 19.2126 10.2819 17.7346 10.0211C17.2699 9.8873 16.994 9.85558 16.061 9.82861C14.5427 9.80359 14.4688 11.4655 16.0202 11.7304C16.437 12.1373 15.3368 13.8844 14.7782 14.1702C13.9605 14.5887 13.1818 13.9743 12.571 13.4977C12.3628 13.2842 11.8203 13.2593 11.6797 13.4567C11.3026 14.0995 13.1377 15.3233 13.8581 15.5106C14.8719 15.8153 15.8207 15.5066 16.403 14.7435C16.6593 14.3731 16.9071 14.0559 17.117 13.6634C17.3977 13.3515 17.3241 13.6648 17.5534 13.9213C17.8796 14.4146 18.6781 14.9651 19.4848 14.9426C19.6446 17.2201 19.7931 18.8326 19.9028 20.1293C19.9901 21.1617 20.4885 24.9978 20.4885 24.9978C20.8117 27.7642 22.4783 26.4603 22.3249 25.147C22.2468 24.4783 22.4418 24.1958 22.3449 22.5943C23.3354 22.8123 25.0586 23.6979 25.698 25.1695C27.2098 27.6446 30.2942 25.8117 29.9774 23.5857C29.7243 22.6525 29.5529 21.7215 28.9794 20.7653C27.122 17.8518 23.9895 17.965 21.3735 17.9423C21.0653 14.5452 21.5248 10.7526 20.9388 7.15465C20.8152 6.48221 20.6642 5.77776 20.4773 5.03558C20.1108 3.67006 20.6701 2.11934 19.6104 0.868718C19.1763 0.425262 18.2611 0.424109 17.6588 0.867386C16.6312 1.79037 16.1283 2.74979 14.9926 3.83474C11.3799 3.57754 9.5951 3.84594 6.98358 3.68779C6.40431 2.88855 6.13794 2.12762 5.67855 1.23881C5.21779 0.347422 4.71599 0.00305434 4.23725 -0.000190392ZM13.2234 7.193C12.8288 7.18754 12.5804 7.45509 12.4415 8.01741C12.3705 8.30915 12.3495 8.7919 12.7079 9.11258C12.9025 9.26293 13.4383 9.24119 13.7112 9.15318C14.1574 8.97304 14.621 7.55109 13.6681 7.2887C13.5027 7.22701 13.3548 7.19483 13.2234 7.193ZM8.88005 7.28338C8.21846 7.28338 8.09605 7.90338 8.15766 8.51576C8.21634 9.06749 8.58834 9.4027 9.20202 9.47592C9.75043 9.39883 9.94915 8.90669 10.0525 8.15205C10.0504 7.4783 9.79226 7.28751 8.88005 7.28338ZM9.27413 18.8429C9.11849 19.2909 9.66321 20.0023 10.1604 20.1023C12.1781 20.6585 12.8983 22.9768 12.8127 24.5815C12.7635 25.2231 12.9078 25.8816 12.5892 26.5846C12.507 26.8142 12.4535 26.875 12.3169 26.8949C11.8406 26.9749 12.0053 27.6483 11.7549 27.9355C11.5205 28.0151 11.5178 27.9399 11.7187 27.0866C11.8416 26.5663 12.1264 25.5555 11.0805 25.7929C10.8948 25.8762 10.7157 26.2604 10.5755 26.8719C10.4975 27.2142 10.4115 27.49 10.3843 27.4849C9.89799 27.2901 9.92315 24.6226 9.78916 24.2774C9.91709 22.4948 8.07215 21.3892 7.00483 21.146C5.62412 20.8315 5.37929 21.7121 6.36273 22.3542C6.33794 22.3509 6.31366 22.3468 6.28898 22.3434C8.74256 24.2002 7.2803 25.755 8.36625 27.6688C9.43504 29.5524 12.6425 31.3068 13.8158 28.6319C13.9916 28.2309 14.1419 27.8458 14.2689 27.4755C14.7889 25.454 14.8462 23.7821 14.3055 22.0574C13.5443 19.63 12.4361 19.3018 11.4219 18.7577C10.4793 18.3995 9.49662 18.2647 9.27413 18.8429ZM27.7187 22.1312C27.3707 22.6509 27.1881 22.6838 27.3863 23.879C27.5651 24.3752 27.2281 24.5423 26.8204 23.9341C25.5663 22.3074 24.201 21.2474 22.2248 21.2869C21.8915 21.1613 21.6213 19.5272 21.9249 19.5771C24.4569 18.9519 27.0928 20.5305 27.7187 22.1312Z" fill="#FFC107"/>
</g>
<defs>
<clipPath id="clip0_30_420">
<rect width="30" height="30" fill="white"/>
</clipPath>
</defs>
</svg>
