<svg width="323" height="219" viewBox="0 0 323 219" fill="none" xmlns="http://www.w3.org/2000/svg">
<path d="M153.328 2.43866e-08C150.966 0.000162111 148.671 0.812057 145.688 2.4929C139.889 5.75977 137.187 8.69765 134.885 14.2389C132.855 19.1701 131.664 31.3656 134.347 37.7407C134.733 39.4707 135.261 41.4887 135.521 42.2253C136.128 43.9494 134.398 44.0237 131.82 42.3841C130.807 41.7401 129.607 41.3871 129.153 41.5997C127.949 42.1627 128.143 44.1557 129.486 45.0321C133.539 47.6776 144.904 50.2573 160.62 48.2048C167.312 47.3308 167.034 42.0107 162.722 43.7432C161.255 44.3322 160.041 44.3297 154.004 44.3297C144.892 44.3297 145.467 44.8059 144.924 36.8043C144.626 32.3951 144.776 31.2908 146.032 28.6646C148.106 24.3309 150.755 22.4832 157.631 20.5731C165.671 18.3398 167.988 15.4104 166.967 8.77237C166.479 5.6003 164.342 3.55299 159.317 1.44498C157.043 0.490902 155.165 -0.000126348 153.328 2.43866e-08ZM153.805 2.81699C154.123 2.81479 154.517 2.84163 154.998 2.89318C156.378 3.04134 157.72 3.32002 157.979 3.51238C158.84 4.15196 158.466 8.25712 157.186 12.2166C156.491 14.3672 156.084 16.4462 156.281 16.8365C156.479 17.2267 156.097 17.5463 155.433 17.5463C154.39 17.5463 154.131 16.6695 153.55 11.1767C153.179 7.67351 152.788 4.31561 152.682 3.7152C152.57 3.08836 152.848 2.82338 153.805 2.81699ZM149.804 3.09386C149.877 3.09605 149.93 3.11809 149.957 3.16146C150.392 3.85248 151.546 12.913 151.546 15.6378C151.546 18.2718 151.281 18.9783 150.03 19.6733C148.598 20.4687 148.353 20.2084 145.637 15.0229C144.055 12.0016 142.761 8.99452 142.761 8.34043C142.761 7.39485 148.701 3.06014 149.804 3.09386ZM161.332 5.03194L162.715 6.84179C165.217 10.117 164.202 14.3673 160.508 16.0799C158.104 17.1946 157.856 16.9342 158.896 14.3897C159.434 13.0746 160.203 10.4312 160.603 8.51535L161.332 5.03194ZM140.201 10.6589C140.51 10.6589 142.051 13.1138 143.625 16.1142L146.487 21.5695L145.095 23.7244C143.454 26.2632 142.928 26.3845 140.861 24.6988C137.414 21.888 135.839 19.5867 136.259 17.9724C136.864 15.6462 139.552 10.6589 140.201 10.6589ZM213.242 16.8649C210.683 16.8938 208.192 17.1475 206.037 17.6295C201.536 18.6357 194.781 22.811 192.006 26.3021C187.743 31.6659 189.188 38.2284 194.982 39.8107C197.875 40.6009 198.711 40.4154 207.264 37.0887C215.083 34.0475 220.456 34.7537 222.984 39.155C224.761 42.2482 224.243 44.0144 220.983 45.9866C218.481 47.5 217.971 48.1772 217.81 50.203C217.584 53.0352 219.423 55.0595 222.221 55.0595C224.508 55.0595 224.441 53.9554 222.081 52.7635C219.777 51.5999 219.673 50.2401 221.797 49.0601C223.879 47.9034 223.844 47.8907 224.077 49.8939C224.209 51.0241 224.709 51.6158 225.533 51.6158C226.232 51.6158 227.062 50.8538 227.407 49.8939C228.175 47.7598 230.018 47.6475 230.553 49.7024C230.808 50.6803 231.502 51.2332 232.478 51.2332C233.83 51.2332 234.005 50.8973 234.005 48.2934C234.005 45.5426 234.161 45.2963 236.435 44.4655C240.41 43.0133 245.975 42.6248 250.302 43.497C252.954 44.0313 254.576 44.0548 254.978 43.5651C257.144 40.9238 247.223 38.7176 239.725 40.1735C234.74 41.1414 234.005 41.0527 234.005 39.4824C234.005 38.1819 241.547 36.6933 248.138 36.6933C252.427 36.6933 254.515 37.1449 258.895 38.9892C268.69 44.4578 274.265 46.4101 282.096 51.3722C283.416 52.8408 283.431 53.1711 283.132 73.6661C282.965 85.1079 282.633 95.6664 282.396 97.1292C281.988 99.6395 281.507 100.07 273.83 104.801C265.907 109.683 244.272 120.547 240.772 121.401C238.491 122.222 237.173 123.019 233.848 120.902C230.955 120.004 213.809 112.299 207.597 109.105C203.622 107.061 203.847 108.365 202.561 79.8742C202.16 71.005 202.034 60.7948 202.281 57.1848L202.729 50.621L209.11 48.164C219.436 44.1879 222.081 42.7363 222.081 41.0481C222.081 39.7972 221.776 39.6375 220.148 40.0345C219.085 40.2937 217.32 40.9891 216.226 41.5798C215.132 42.1705 211.695 43.557 208.589 44.6608C201.237 47.273 198.872 48.7549 198.823 50.7798C198.724 54.8492 198.981 69.3014 199.456 86.4343C200.074 108.681 200.352 109.883 205.451 112.318C207.176 113.143 212.401 115.625 217.061 117.836C222.298 120.329 228.651 124.456 235.26 126.161C236.468 126.543 237.793 126.885 238.204 126.923C239.229 127.018 247.815 123.199 249.371 121.955C250.066 121.4 252.612 120.053 255.028 118.962C267.06 113.528 281.884 104.865 284.453 101.766C285.725 100.232 286.028 94.3639 285.562 80.3126C285.444 76.735 285.639 66.1417 285.894 60.1644C286.299 50.6896 285.977 50.6075 284.091 49.4931C280.137 46.7365 269.961 40.9221 259.565 36.2812C252.492 33.5528 244.329 32.361 236.152 34.8636C234.879 35.2531 234.633 34.9178 234.035 31.9811C232.303 23.4815 229.006 19.3017 222.897 17.8602C219.939 17.1622 216.533 16.8277 213.242 16.8649ZM211.985 19.9652C212.524 19.9599 213.129 19.9779 213.807 20.0119L218.371 20.2405L216.542 23.3016C215.537 24.9851 214.348 27.6231 213.899 29.1636C213.211 31.5275 212.751 32.0119 210.951 32.2682C208.324 32.6421 207.647 31.3938 207.647 26.1765C207.647 21.1889 208.21 20.0021 211.985 19.9652ZM222.52 20.9659C223.016 20.9533 223.553 21.0968 224.188 21.3522C226.854 22.4253 228.207 24.1962 227.379 25.5305C227.054 26.0546 225.816 28.0921 224.627 30.0581C223.439 32.024 222.309 33.6081 222.117 33.5785C221.925 33.5489 221.203 33.2287 220.512 32.867C219.822 32.5053 218.48 32.1851 217.531 32.1555C215.282 32.0854 215.304 30.5853 217.615 26.5006C219.908 22.4476 221.031 21.0036 222.52 20.9659ZM205.137 21.4268V25.2719C205.137 27.3867 205.568 30.133 206.094 31.3748C206.621 32.6165 206.914 33.6321 206.745 33.6321C206.577 33.6321 205.023 34.3129 203.292 35.1447C200.2 36.631 200.134 36.6321 199.503 35.1952C199.15 34.391 198.861 31.8544 198.861 29.5585C198.861 24.6644 200.029 22.5464 203.097 21.8738L205.137 21.4268ZM135.574 23.6681C136.388 23.6681 142.133 28.3749 142.133 29.0418C142.133 29.3844 141.962 30.2095 141.752 30.8752C141.357 32.1299 136.846 32.6535 136.27 31.5116C135.693 30.3704 135.099 23.6681 135.574 23.6681ZM195.887 26.7667C195.924 26.7705 195.954 26.7856 195.976 26.8134C196.11 26.9862 196.32 29.3327 196.442 32.0278C196.677 37.19 196.35 37.8156 194.017 36.675C192.384 35.8771 191.586 32.8498 192.474 30.8253C193.171 29.2383 195.334 26.7098 195.887 26.7667ZM229.66 27.5104C230.267 27.5104 231.494 31.8839 231.494 34.0442C231.494 35.4027 231.031 35.864 229.259 36.2694C227.607 36.6472 227.079 37.1187 227.238 38.076C227.399 39.0497 227.976 39.3082 229.561 39.1169C231.312 38.9055 231.601 39.078 231.268 40.1364C231.047 40.8369 230.867 42.4147 230.867 43.6429C230.867 45.2826 230.575 45.8604 229.769 45.816C227.847 45.7103 227.102 45.0279 227.102 43.3757C227.102 42.4914 226.508 40.2738 225.783 38.4478C224.519 35.2635 224.51 35.0427 225.553 33.0408C226.941 30.3767 229.07 27.5104 229.66 27.5104ZM148.665 33.4465C148.217 33.4405 147.771 33.4414 147.33 33.4497C145.783 33.4832 145.523 33.827 145.396 34.884C145.219 36.358 145.624 36.4872 151.985 36.99C158.756 37.5251 164.67 39.1177 168.02 40.3886C171.8 41.8227 172.803 44.4798 170.548 45.552C168.824 46.3723 166.066 47.3868 164.323 50.8184C161.599 56.1826 159.057 67.8271 159.802 76.0849C160.56 84.4732 163.917 90.3527 167.619 97.2612C173.985 109.144 176.649 117.379 176.649 125.128C176.649 133.065 173.202 140.331 167.4 144.621C162.241 148.436 156.942 147.594 150.865 147.501C136.571 147.772 134.825 147.764 130.851 144.44C124.934 139.489 118.957 134.89 116.227 127.892C115.242 125.232 114.901 122.806 114.916 118.559C114.942 111.09 116.508 107.313 124.435 95.601C133.113 82.7791 135.946 73.8778 134.59 63.6913C133.306 54.0541 130.253 48.0398 125.71 46.1997C124.043 45.5245 122.798 45.25 122.679 44.0266C122.346 40.6141 128.91 39.2092 131.151 38.7993C132.967 38.4669 132.717 36.3289 130.837 36.1229C123.942 37.4172 118.83 41.0225 119.305 43.8565C119.393 47.1631 120.075 47.9461 123.47 48.6384C126.67 49.2909 129.202 52.9764 130.809 59.3198C132.354 65.4214 132.426 69.4651 131.086 74.9646C129.625 80.9674 127.522 85.4804 123.402 91.4603C114.016 105.082 111.796 110.413 111.799 119.324C111.802 129.739 115.63 136.634 126.306 145.464C131.986 150.161 133.552 151.406 136.485 151.532C146.629 151.966 154.121 152.163 163.945 151.532C166.177 151.388 171.423 147.513 174.737 141.977C178.051 136.442 179.923 129.107 179.925 123.82C179.822 118.14 179.492 116.325 177.56 110.811C176.324 107.286 173.514 101.131 171.314 97.1324C169.115 93.134 166.243 87.1073 164.932 83.7402C162.208 76.7408 161.941 72.5957 163.688 64.3877C165.497 55.8868 166.643 50.3503 171.902 48.6689C176.644 47.1529 175.339 41.0473 172.96 39.4561C172.225 38.9648 170.096 37.6015 168.606 37.1102C162.818 35.2013 155.385 33.5368 148.665 33.4465ZM138.995 34.3817C141.446 34.3817 141.505 34.4451 141.505 37.0597C141.505 39.4831 141.338 39.7383 139.748 39.7383C137.614 39.7383 136.485 38.4938 136.485 36.1417C136.485 34.5984 136.794 34.3817 138.995 34.3817ZM139.963 42.1378C141.068 42.097 142.382 42.5331 142.608 43.373C142.781 44.0187 142.135 44.3297 140.617 44.3297C138.995 44.3297 138.368 43.9956 138.368 43.1332C138.368 42.4898 139.103 42.1696 139.963 42.1378ZM258.429 46.6997C257.771 46.6745 257.067 47.1013 256.646 48.0594C255.652 50.325 243.677 54.965 237.268 55.5676C232.35 56.0302 230.855 56.7927 233.22 57.6329C235.54 58.4568 243.262 57.1398 249.019 54.9382C252.324 53.6744 256.158 52.2085 257.538 51.6812C259.557 50.9101 260.048 50.361 260.048 48.8734C260.048 47.5122 259.276 46.7322 258.429 46.6997ZM268.695 48.2692C268.235 48.2988 267.564 48.8691 266.324 50.1091L264.441 51.9908L266.404 51.9946C268.467 51.9986 270.166 50.3271 269.479 48.9705C269.261 48.5417 269.061 48.2971 268.784 48.2703C268.755 48.2675 268.725 48.2672 268.695 48.2692ZM137.023 51.3287C136.28 51.3141 136.005 52.8506 136.451 55.426C137.679 62.5085 137.835 73.1247 136.784 78.0697C134.923 86.8278 131.848 93.4753 126.427 100.459C124.378 103.109 122.136 106.557 120.422 110.528C118.83 114.218 119.445 121.8 122.207 126.02C123.021 127.264 123.011 127.266 124.995 125.255C129.319 120.869 131.734 117.866 131.331 117.375C131.089 117.08 129.537 118.018 127.883 119.46C123.442 123.331 123.34 123.383 122.903 121.993C122.627 121.117 123.422 119.757 125.537 117.488C129.041 113.728 128.471 112.013 124.876 115.498C122.099 118.188 121.307 117.914 122.088 114.531C123.088 110.201 124.092 108.363 128.669 102.488C131.128 99.3318 133.9 95.1528 134.83 93.2015C137.663 87.256 140.204 77.7729 140.275 72.8805C140.387 65.1043 139.16 53.3849 138.097 52.089C137.677 51.5776 137.314 51.3345 137.023 51.3287ZM159.751 52.8327C159.621 52.8217 159.466 52.8403 159.288 52.8826C157.052 53.4121 154.386 62.3409 154.425 69.9348C154.437 72.1123 154.634 76.4356 155.233 78.5494L156.323 82.3928L154.343 82.1111C152.218 81.8086 149.71 83.0388 149.71 84.384C149.71 84.9054 150.489 85.0291 151.833 84.7215C153.48 84.3448 154.047 84.5221 154.358 85.5098C154.887 87.1931 154.282 89.3812 153.137 89.9166C152.633 90.1527 152.22 90.7011 152.22 91.1352C152.22 92.5133 154.68 91.9862 156.051 90.3142C157.055 89.0902 157.282 88.1263 157 86.2964L156.628 83.8893L158.023 87.0873C159.975 91.5605 161.12 88.6032 158.608 82.1144C155.657 74.4931 156.083 67.2858 158.654 59.5747C160.363 54.4484 160.661 52.9102 159.751 52.8327ZM208.771 54.4049C208.448 54.4226 208.356 54.5999 208.533 54.9495C208.988 55.8463 212.628 58.0567 217.688 60.5073C219.241 61.2595 221.077 61.8802 221.767 61.8863C223.006 61.8975 223.006 61.883 221.804 60.7745C221.134 60.1565 220.346 59.6509 220.052 59.6509C219.759 59.6509 217.745 58.6396 215.577 57.4038C212.314 55.543 209.902 54.4764 208.924 54.407C208.868 54.4031 208.817 54.4023 208.771 54.4049ZM147.622 55.0434C145.762 55.0434 142.133 57.3779 142.133 58.574C142.133 59.9401 143.372 59.8904 144.92 58.4624C145.59 57.8444 146.649 57.3388 147.274 57.3388C148.192 57.3388 148.409 57.9646 148.409 60.6124C148.409 62.4128 148.023 64.5647 147.552 65.3949C147.081 66.2251 146.488 67.7112 146.236 68.6969C145.394 71.9855 147.965 70.2462 149.465 66.5126C151.822 60.6455 150.922 55.0434 147.622 55.0434ZM265.433 56.0833C261.93 56.3108 237.77 63.4456 237.77 64.3566C237.77 65.4208 239.243 65.1384 247.971 62.3981C252.543 60.9629 258.329 59.3823 260.83 58.8858C264.931 58.0716 266.657 57.1236 265.844 56.1315C265.824 56.1071 265.777 56.091 265.706 56.0833C265.638 56.0758 265.546 56.0759 265.433 56.0833ZM274.608 59.4384C274.464 59.4371 274.317 59.4401 274.165 59.4475C271.311 59.5864 269.539 60.8587 270.03 62.418C270.202 62.9632 269.528 66.3455 268.533 69.9348C267.51 73.6254 266.978 76.6526 267.309 76.9016C268.23 77.5957 268.956 76.6974 269.335 74.3974C269.878 71.1008 273.412 61.9464 274.142 61.9464C275.169 61.9463 274.885 65.0768 273.527 68.7259C272.844 70.5606 272.286 72.5409 272.286 73.1263C272.286 75.3439 273.491 74.0487 274.857 70.364C275.637 68.2596 276.478 66.5378 276.726 66.5378C277.151 66.5378 277.032 72.5492 276.401 82.9906C275.878 91.6308 273.403 95.8015 265.968 100.565C261.461 103.453 261.475 101.306 261.861 100.187C263.603 100.552 264.155 98.1161 262.012 97.0535C259.923 95.8927 258.449 96.6696 258.64 98.8301C258.766 100.251 258.37 100.693 256.445 101.285C253.897 102.068 253.454 101.852 253.195 99.7052C252.961 97.7587 251.305 97.9277 251.072 99.922C250.741 102.748 252.658 104.25 256.083 103.849C257.746 103.654 259.107 103.784 259.107 104.137C259.107 105.449 247.478 111.461 242.357 112.797C240.573 113.263 240.249 113.069 239.377 111.011C238.838 109.741 238.398 107.799 238.398 106.695C238.398 105.196 238.119 104.753 237.299 104.943C234.864 105.509 235.938 111.944 238.953 114.853C240.276 116.128 241.167 116.354 243.547 116.015C245.171 115.783 247.147 115.099 247.939 114.494C248.732 113.889 252.486 111.724 256.283 109.683C276.689 98.7135 278.668 96.004 279.517 77.861C280.176 63.7844 279.074 59.4799 274.608 59.4384ZM210.611 60.1193C209.299 60.1481 207.974 60.9262 207.022 62.3257C206.07 63.7243 205.704 75.6966 206.537 78.2081C206.781 78.9447 207.453 79.5469 208.031 79.5469C208.933 79.5469 209.03 78.9273 208.719 75.147C208.042 66.9305 209.856 61.2411 212.792 62.3772C214.502 63.0393 214.147 61.5512 212.356 60.5566C211.801 60.2482 211.207 60.1063 210.611 60.1193ZM266.604 62.733C266.277 62.7385 266.01 62.981 266.01 63.4568C266.01 63.8665 265.022 66.6783 263.814 69.7051C262.606 72.732 261.617 75.8402 261.617 76.6124C261.617 78.3992 262.805 78.4467 263.243 76.6773C263.426 75.9408 264.552 72.8206 265.747 69.7438C266.942 66.6669 267.756 63.826 267.555 63.4305C267.316 62.9588 266.93 62.7275 266.604 62.733ZM225.375 68.9893C225.04 68.979 224.759 69.0885 224.557 69.3349C224.034 69.9731 224.325 70.5382 225.684 71.5171C228.581 73.6038 229.205 75.5163 229.495 83.1993C229.727 89.3384 229.887 90.1695 230.687 89.3607C232.187 87.8421 231.582 75.723 229.865 72.9058C228.454 70.5908 226.571 69.0262 225.375 68.9893ZM244.572 70.2803C244.503 70.2765 244.429 70.2775 244.35 70.283C243.296 70.3568 241.406 71.2426 240.323 72.4685C238.612 74.4046 238.144 76.1205 238.328 79.7835C238.433 81.8852 239.438 80.6638 239.895 77.8782C240.33 75.2275 242.507 71.8949 243.804 71.8949C244.241 71.8949 244.774 71.5501 244.987 71.1292C245.272 70.5671 245.054 70.307 244.572 70.2803ZM253.431 72.8934C252.628 72.9316 251.323 73.8927 249.372 75.7281C247.478 77.5099 245.928 79.2503 245.928 79.5952C245.928 81.2233 247.452 81.0507 248.995 79.248C251.128 76.7557 252.204 76.7069 252.204 79.1021C252.204 80.1199 252.387 81.5351 252.611 82.2469C253.201 84.1218 253.827 82.379 254.341 77.4296C254.664 74.3217 254.463 72.8444 253.431 72.8934ZM272.897 80.3592C271.871 80.3023 270.622 80.81 269.775 81.8429C268.072 83.9198 268.198 84.904 270.168 84.904C271.648 84.904 271.778 85.127 271.453 87.1093C271.254 88.3223 271.272 89.5345 271.493 89.8034C272.342 90.8392 273.228 89.6286 274.086 86.2615C274.576 84.3352 274.804 82.2089 274.593 81.5359C274.358 80.7896 273.695 80.4036 272.897 80.3592ZM257.74 88.9798C256.645 88.9494 256.233 90.3264 257.037 91.3074C257.647 92.0515 259.421 91.2869 259.411 90.3555C259.406 89.9347 258.672 89.1395 257.968 89.005C257.889 88.9899 257.813 88.9818 257.74 88.9798ZM263.865 91.485C263.642 91.4801 263.442 91.5555 263.293 91.7367C262.97 92.1308 262.875 92.9931 263.083 93.6527C263.524 95.0539 265.111 95.2429 265.755 93.9709C266.231 93.0329 264.831 91.5061 263.865 91.485ZM39.3298 95.2469V95.248C36.7454 95.248 34.1688 101.163 32.4962 110.936C31.992 113.882 31.1343 117.82 30.59 119.687C28.1291 128.13 27.6354 132.89 27.7026 147.532L27.769 161.937C24.8912 162.373 23.5839 162.324 19.8209 155.694C18.31 152.909 18.1443 151.791 17.7554 141.749C17.5229 135.745 16.999 130.094 16.5911 129.192C15.0128 125.704 12.1237 123.562 8.99714 123.562C6.39355 123.562 5.75265 123.914 3.70408 126.473C1.83933 128.801 1.19771 130.406 0.49586 134.496C-1.17538 144.237 1.28647 151.827 9.27612 161.57C13.039 166.158 15.0215 167.829 20.8884 171.351C24.7795 173.687 28.4997 175.599 29.1551 175.599C29.8105 175.599 32.6001 176.397 32.6001 178.66C32.6001 181.868 35.3053 181.721 36.9062 181.721C39.1539 181.721 42.2619 180.499 42.8214 179.395C43.0326 178.978 44.746 179.05 47.0536 179.574C49.9746 180.235 52.7488 180.234 58.3028 179.571C63.1142 178.996 65.8886 178.951 66.2897 179.44C67.5761 181.009 74.2783 179.906 77.1645 177.651C79.0549 176.174 77.5525 164.983 73.863 153.061C72.2525 147.856 72.2204 147.394 72.3814 131.634C72.5627 113.887 71.9743 109.65 69.2603 109.159C67.6219 108.863 67.584 109.556 69.0064 113.789C70.2196 117.398 70.43 125.634 69.6665 139.631C69.2851 146.624 69.3916 148.212 70.488 151.875C73.8388 163.069 75.4387 169.747 75.4387 172.537C75.4387 175.777 74.4106 176.789 74.0707 173.884C73.9599 172.937 73.3419 172.047 72.6903 171.895C71.6534 171.654 71.562 171.954 71.9344 174.375C72.3537 177.1 72.3361 177.128 70.2099 177.128C67.9377 177.128 66.9358 176.186 66.5564 173.693C66.2299 171.548 64.1428 171.178 64.1428 173.265C64.1428 175.503 61.9007 176.36 54.6379 176.9C48.4145 177.362 45.71 176.729 43.316 174.249C42.085 172.973 40.9232 173.576 40.9232 175.49C40.9232 177.525 39.6359 178.659 37.3251 178.659C35.6139 178.659 35.0052 178.188 33.9826 176.075C33.295 174.654 32.7131 173.917 31.7368 173.463C31.607 171.59 31.2235 166.023 30.9848 162.146C30.991 162.042 30.9909 161.935 30.9768 161.823C30.8562 160.771 30.6238 155.036 30.4607 149.078L30.1641 138.246L32.0487 137.742C32.4927 138.917 34.2701 136.743 34.6814 136.138C35.3106 135.214 35.0186 135.039 32.8417 135.039C30.1259 135.039 30.0435 134.931 30.6503 132.17C30.8968 131.048 31.5081 130.448 32.4043 130.448C33.1609 130.448 34.3282 129.942 34.9982 129.324C36.1398 128.271 36.0687 128.199 33.8634 128.177C31.3449 128.151 31.1706 127.809 32.1218 124.759C32.5614 123.349 33.1921 122.795 34.3597 122.795C36.3928 122.795 38.5697 121.428 38.0788 120.46C37.8736 120.055 36.5795 119.952 35.1659 120.227C32.7014 120.708 32.6371 120.666 33.0999 118.89C33.3627 117.881 34.2181 113.903 35.0009 110.05C36.4757 102.789 38.0898 98.739 39.1811 99.5614C39.7418 99.984 39.6138 105.124 38.9646 108.256C38.7785 109.154 39.2945 109.374 41.3324 109.266C43.8329 109.134 43.9542 109.235 44.3417 111.753C44.6001 113.433 45.104 114.378 45.741 114.378C46.5364 114.378 46.6702 113.776 46.4072 111.385C46.0503 108.14 46.6919 107.524 50.4537 107.501C51.8983 107.492 52.168 107.846 52.3365 109.971C52.466 111.605 52.9082 112.539 53.6315 112.706C54.5114 112.909 54.7294 112.416 54.7294 110.225C54.7294 107.697 54.8716 107.491 56.6122 107.491C58.1762 107.491 58.4947 107.799 58.4947 109.31C58.4947 111.21 59.8781 113.202 60.5923 112.331C60.8194 112.054 61.005 111.046 61.005 110.092C61.005 108.769 61.414 108.3 62.7308 108.115C64.2638 107.9 64.4566 107.56 64.4566 105.066C64.4566 103.148 64.9388 101.633 65.9782 100.283C67.7507 97.9819 69.5427 97.5839 68.8445 99.6468C67.7072 103.007 67.3669 106.318 68.0995 106.893C70.0083 108.391 72.6257 98.7155 70.9698 96.2825C69.3442 93.894 65.3549 96.4528 62.6908 101.592L60.9337 104.981L52.6542 105.392C48.1005 105.618 43.9191 106.029 43.3618 106.306C42.5184 106.725 42.2754 106.024 41.9137 102.125C41.344 95.9856 41.0664 95.2469 39.3298 95.2469ZM162.091 97.6405C161.237 97.6334 161.326 98.79 163.37 102.745C167.205 110.168 169.284 122.247 167.976 126.211C167.629 127.263 166.893 129.416 166.34 130.994C165.382 133.733 165.391 133.864 166.527 133.864C168.013 133.864 169.505 131.155 170.488 126.675C172.121 119.229 166.406 99.5307 162.873 97.8777C162.549 97.7261 162.288 97.6422 162.091 97.6405ZM208.101 97.9753C207.807 98.0094 207.647 98.4556 207.647 99.3302C207.647 103.264 213.474 109.879 217.724 110.771C220.933 111.445 224.111 111.067 223.607 110.071C223.417 109.697 222.361 109.384 221.259 109.375C219.267 109.358 215.139 107.32 213.241 105.416C212.694 104.867 211.49 102.954 210.566 101.165C209.452 99.0069 208.59 97.9186 208.101 97.9753ZM232.133 100.887C231.572 100.871 231.252 102.229 231.393 104.707C231.63 108.873 230.382 112.661 228.332 113.999C227.636 114.453 227.242 115.172 227.457 115.596C227.672 116.02 228.598 116.261 229.514 116.132C232.604 115.696 235.164 106.577 233.355 102.454C232.893 101.401 232.469 100.896 232.133 100.887ZM140.129 106.452C139.446 106.458 138.533 107.304 137.163 109.024C135.58 111.01 135.201 111.943 135.719 112.574C136.236 113.205 136.841 113.094 138.022 112.15C139.582 110.904 139.623 110.917 139.623 112.674C139.623 113.666 139.817 114.714 140.054 115.003C141.607 116.897 142.7 112.06 141.552 108.376C141.152 107.096 140.73 106.447 140.129 106.452ZM161.391 112.624C159.322 112.609 156.001 115.879 156.983 117.077C157.496 117.702 158.036 117.708 158.969 117.099C160.799 115.905 160.96 116.012 160.96 118.431C160.96 119.623 161.154 120.836 161.391 121.126C162.458 122.426 163.156 120.78 163.156 116.965C163.156 113.102 163.049 112.807 161.587 112.635C161.523 112.628 161.458 112.624 161.391 112.624ZM64.4645 117.129C63.4167 117.111 61.6325 119.085 61.6325 120.595C61.6325 122.984 65.0105 122.286 65.2944 119.839C65.4099 118.843 65.2573 117.727 64.9551 117.359C64.8276 117.203 64.6585 117.132 64.4645 117.129ZM54.4156 118.205C53.2405 118.205 52.0271 120.317 52.443 121.639C52.9054 123.108 53.4718 123.097 55.2473 121.58C56.3774 120.615 56.5202 120.14 55.9377 119.284C55.5338 118.691 54.8489 118.205 54.4156 118.205ZM299.927 119.167C299.67 119.164 299.413 119.164 299.156 119.169C297.982 119.187 296.815 119.279 295.669 119.448C292.304 119.943 291.557 120.313 291.364 121.578C290.987 124.055 285.735 132.535 280.956 138.385C268.034 153.764 255.118 155.357 230.081 144.766C218.68 139.944 202.849 138.302 190.164 144.842C176.591 152.141 167.006 163.515 158.934 181.9C156.473 187.505 154.46 192.691 154.46 193.425C154.46 195.108 155.51 197.618 157.114 199.768C158.785 202.007 158.202 202.815 154.178 203.834C147.747 205.462 144.646 203.317 139.249 193.511C134.121 184.193 123.789 183.396 119.655 191.998C117.644 196.182 117.661 197.359 119.79 201.263C123.333 207.762 130.076 213.892 137.202 217.091C143.652 220.362 148.939 218.746 154.924 217.277C158.224 216.559 164.521 212.774 166.329 210.421L167.844 208.451L168.532 210.132C169.368 212.178 174.034 214.027 176.825 213.418C178.516 213.049 179.125 212.206 181.133 207.458C185.837 196.335 191.019 188.349 199.017 181.706C208.345 173.958 217.832 175.165 228.198 178.581C240.468 182.625 259.99 191.861 273.915 187.485C294.153 181.126 311.446 161.501 320.759 140.908C323.795 134.036 323.762 131.905 320.563 128.055C316.094 122.676 307.905 119.26 299.927 119.168V119.167ZM149.152 120.047C148.993 120.055 148.826 120.096 148.655 120.176C147.822 120.566 147.153 121.845 147.81 122.809C148.715 124.139 150.371 124.008 150.762 122.576C151.044 121.544 150.268 119.99 149.152 120.047ZM298.699 121.982C301.392 121.955 304.858 122.244 307.082 122.82C310.861 123.798 315.385 126.406 317.468 128.809C319.197 130.802 319.239 131.619 317.666 132.646C314.815 134.506 306.329 132.736 299.898 128.94C296.843 127.136 294.156 123.836 294.765 122.634C294.977 122.216 296.604 122.003 298.699 121.982ZM156.673 122.073C155.55 122.064 155.01 123.383 155.557 125.12C156.089 126.811 158.097 126.143 158.326 124.199C158.456 123.087 158.103 122.453 157.189 122.162C157.006 122.103 156.834 122.075 156.673 122.073ZM132.863 123.915C132.106 123.915 127.699 128.534 127.699 129.328C127.699 130.91 130.201 129.888 131.723 127.683C133.347 125.329 133.775 123.915 132.863 123.915ZM61.8679 124.574C61.6921 124.577 61.5086 124.586 61.3174 124.599C57.9565 124.837 57.5399 125.24 58.5704 127.252C59.7005 129.458 58.2518 131.457 55.8356 131.025C53.6398 130.632 52.8747 131.848 54.4398 133.243C55.8765 134.525 57.1194 134.515 59.0557 133.206C60.1689 132.454 61.0892 132.389 62.6089 132.958C65.0005 133.853 66.6532 133.295 66.6532 131.592C66.6532 130.742 66.1558 130.456 64.9498 130.612C62.891 130.878 62.1409 128.416 63.8238 126.916C65.3948 125.515 64.5051 124.515 61.8679 124.574ZM303.189 125.701C301.764 125.697 300.657 125.98 300.324 126.637C299.651 127.964 301.332 128.817 304.76 128.889C306.486 128.925 308.463 129.25 309.153 129.612C309.843 129.974 311.087 130.294 311.917 130.323C313.346 130.374 313.37 130.301 312.378 128.964C311.003 127.111 306.325 125.712 303.189 125.701ZM8.87834 126.075C9.68495 126.075 10.4958 126.423 11.2725 127.13C13.4208 129.084 13.8865 131.215 12.1653 131.215C11.4848 131.215 9.31726 132.247 7.34881 133.51C5.38036 134.773 3.53599 135.806 3.24998 135.806C2.48441 135.806 3.71117 131.133 5.05804 128.919C6.20122 127.04 7.53399 126.074 8.87834 126.075ZM153.386 126.373C153.292 126.376 153.202 126.384 153.115 126.398C152.034 126.567 151.887 127.075 152.056 130.068C152.21 132.81 151.976 133.845 150.943 134.985C149.939 136.092 149.462 136.219 148.896 135.529C148.49 135.034 147.932 134.629 147.656 134.629C146.881 134.629 147.062 137.272 147.907 138.302C148.874 139.482 149.596 139.453 151.631 138.159C152.639 137.517 153.618 137.365 154.141 137.769C155.642 138.929 157.194 138.543 157.194 137.01C157.194 136.103 156.785 135.604 156.096 135.67C154.686 135.807 154.257 132.057 155.388 129.481C156.062 127.944 156.045 127.524 155.283 126.922C154.844 126.576 154.042 126.352 153.386 126.373ZM292.305 127.894L294.955 129.934C298.546 132.699 299.967 133.324 307.373 135.401C311.266 136.493 314.628 137.016 316.002 136.744C318.577 136.235 318.636 136.407 317.192 140.21C309.651 157.542 300.265 168.301 287.012 176.694C269.679 187.67 266.24 186.542 249.934 181.944C242.469 179.983 234.185 176.534 227.884 173.957C219.384 170.069 207.899 171.217 200.351 175.525C196.527 177.708 193.146 181.869 187.721 188.512C184.374 192.61 182.292 196.007 180.514 200.271C178.083 206.102 177.052 207.858 177.052 206.165C177.052 205.71 175.88 203.786 174.447 201.891C169.764 195.696 164.261 191.814 158.903 190.927C158.585 190.875 158.967 189.368 159.753 187.579C168.554 167.531 176.244 157.677 189.402 149.586C198.785 143.884 212.249 142.132 223.178 146.347C246.886 155.49 266.767 163.169 284.654 139.177C287.44 135.389 290.301 131.301 291.012 130.092L292.305 127.894ZM293.331 132.361C293.287 132.358 293.244 132.361 293.201 132.364C292.459 132.415 291.821 133.198 290.757 135.205C288.367 139.712 281.521 147.849 277.126 151.406C271.898 155.638 264.31 159.476 259.369 160.389C257.067 160.814 254.618 161.428 253.928 161.754C251.372 162.959 256.227 163.574 260.78 162.622C264.575 161.828 265.224 161.862 265.691 162.878C265.986 163.522 266.809 164.049 267.52 164.049C268.575 164.049 268.741 163.708 268.428 162.188C268.13 160.739 268.337 160.214 269.365 159.816C270.091 159.535 270.995 159.684 271.374 160.147C272.562 161.595 273.696 161.072 273.696 159.075C273.696 157.169 274.379 156.756 277.049 157.044C277.72 157.116 278.338 156.547 278.523 155.689C278.697 154.875 280.577 152.55 282.701 150.524C289.176 144.345 293.366 139.055 292.917 137.627C292.643 136.757 292.912 136.233 293.775 135.957C295.423 135.432 295.396 132.968 293.738 132.439C293.596 132.394 293.462 132.367 293.331 132.362V132.361ZM12.4073 133.648C12.4794 133.648 12.547 133.652 12.6093 133.66C14.0574 133.865 14.275 134.278 14.4451 137.145C14.6159 140.024 14.4849 140.398 13.3054 140.398C11.3893 140.398 9.58367 141.749 7.01659 145.106C5.77863 146.725 4.56351 148.05 4.31616 148.05C3.59729 148.05 2.6423 144.351 2.6423 141.566C2.6423 139.202 2.9597 138.795 6.8045 136.218C9.17298 134.63 11.3258 133.648 12.4073 133.648ZM129.611 133.917C129.182 133.884 128.955 134.201 128.955 134.878C128.955 137.657 137.153 142.651 143.702 143.862C145.428 144.181 149.664 144.376 153.115 144.297C158.268 144.179 159.933 143.831 162.422 142.354C165.289 140.652 166.587 138.94 165.768 137.941C165.566 137.695 164.049 138.309 162.396 139.306C159.643 140.967 158.628 141.116 150.291 141.087C142.168 141.058 140.908 140.874 138.55 139.372C137.097 138.447 135.495 137.69 134.989 137.69C134.484 137.69 133.232 136.829 132.207 135.777C131.046 134.586 130.162 133.961 129.611 133.917ZM13.7155 142.008C14.3987 142.081 14.5876 143.265 14.8499 145.398C15.269 148.806 15.2199 148.935 12.094 152.667C10.3436 154.757 8.78607 156.468 8.6328 156.468C8.1767 156.468 5.15205 151.408 5.1588 150.656C5.16218 150.275 6.22111 148.849 7.51206 147.487C10.9776 143.832 12.6635 142.101 13.5721 142.009C13.6222 142.004 13.67 142.003 13.7155 142.008ZM309.904 142.255C309.18 142.212 308.607 143.241 307.489 145.925C304.908 152.128 302.477 155.633 297.125 160.874C291.431 166.449 282.869 172.428 282.035 171.411C281.764 171.08 282.037 170.37 282.64 169.832C285.156 167.588 283.453 165.828 280.313 167.428C278.048 168.582 277.533 169.951 278.787 171.48C279.908 172.847 278.961 173.776 274.788 175.404C267.353 178.303 257.645 179.284 254.128 177.492C252.898 176.865 251.714 176.568 251.498 176.832C250.375 178.2 252.117 179.188 255.657 180.52C273.569 183.839 289.72 174.154 302.269 160.532C304.651 157.827 309.467 150.094 309.467 148.976C309.467 148.767 310.079 147.548 310.827 146.267C312.132 144.033 312.141 143.894 311.049 142.921C310.593 142.514 310.233 142.274 309.904 142.255ZM209.371 148.757C196.405 148.794 180.988 158.648 172.451 172.354C169.339 177.351 166.101 183.71 165.507 185.99C165.281 186.858 165.391 188.512 165.751 189.666C166.294 191.407 166.562 191.603 167.335 190.821C167.847 190.303 168.266 189.072 168.266 188.087C168.266 185.202 173.851 174.794 178.291 169.404C184.857 161.956 191.323 156.543 199.297 153.326C204.378 151.29 213.519 151.037 218.785 152.786L221.923 153.828L221.709 157.055C221.499 160.24 222.479 162.898 223.563 162.081C223.869 161.851 224.119 160.305 224.119 158.646C224.119 156.28 224.355 155.633 225.217 155.642C227.179 155.663 227.691 156.711 227.63 160.582C227.582 163.628 227.789 164.44 228.669 164.656C229.569 164.877 229.767 164.371 229.767 161.853C229.767 158.285 230.318 157.637 232.494 158.646C233.567 159.144 234.135 160.062 234.272 161.521C234.519 164.145 236.268 164.423 236.563 161.885C236.677 160.906 237.101 160.258 237.505 160.444C239.617 161.42 248.627 163.93 249.731 162.305C250.358 161.381 249.594 161 240.756 157.451C230.705 153.416 219.809 148.858 209.371 148.757ZM288.444 149.146C288.155 149.143 287.87 149.268 287.529 149.491C285.558 150.777 284.026 153.993 284.884 155.039C285.407 155.677 285.891 155.567 286.752 154.617C288.292 152.918 289.194 152.999 290.033 154.911C290.767 156.584 292.554 156.666 292.996 155.047C293.141 154.516 292.259 152.86 291.035 151.368C289.733 149.78 289.08 149.152 288.444 149.146ZM15.044 153.228C15.2907 153.249 15.4786 153.485 15.6266 153.994C15.8385 154.723 16.4504 155.942 16.9867 156.702C17.819 157.882 17.8379 158.326 17.1143 159.739C16.6482 160.649 16.0785 162.252 15.8483 163.302L15.4299 165.21L12.6973 162.102L9.9652 158.993L11.6707 156.267C13.3973 154.519 14.4136 153.174 15.044 153.228ZM210.927 155.097C210.459 155.114 210.04 155.639 209.719 156.67C209.046 158.829 206.89 160.546 205.606 159.945C205.142 159.728 204.67 158.754 204.557 157.781C204.443 156.809 203.927 156.013 203.409 156.013C202.23 156.013 201.828 159.578 202.766 161.714C203.611 163.642 205.447 163.685 208.744 161.857C211.993 160.054 213.278 158.21 212.428 156.568C211.911 155.569 211.395 155.079 210.927 155.097ZM19.1195 160.537C19.3685 160.49 19.6558 160.846 20.1549 161.486C21.009 162.58 21.2339 163.73 21.0094 165.842C20.663 169.099 20.4677 169.21 18.4326 167.301C16.9987 165.956 16.9886 165.857 17.9807 162.962C18.5426 161.322 18.7993 160.597 19.1195 160.537ZM279.717 161.794C279.31 161.805 278.911 161.974 278.61 162.342C278.226 162.809 278.391 163.541 279.063 164.361C280.353 165.934 281.541 165.575 281.541 163.612C281.541 162.516 280.611 161.771 279.717 161.794ZM24.4191 164.354C24.723 164.37 25.1141 164.453 25.6274 164.571C26.0172 164.655 26.6899 164.648 27.4285 164.537C27.6101 166.116 28.0823 170 28.6416 172.58C26.5172 171.887 23.7808 170.611 22.8403 169.802C22.7318 169.709 22.8352 168.383 23.07 166.857C23.3786 164.852 23.5075 164.304 24.4191 164.354ZM212.516 164.75C206.466 164.702 199.396 166.117 192.099 172.872C187.864 176.293 185.873 178.918 181.816 186.432C180.509 188.853 178.171 192.195 176.622 193.858C173.901 196.778 173.531 198.484 175.618 198.484C177.524 198.484 180.828 194.557 184.181 188.307C195.175 165.584 212.366 164.896 230.081 171.231C237.49 173.997 245.813 176.292 248.428 176.292C252.24 176.292 250.054 174.962 242.298 172.563C238.34 171.338 232.136 169.251 228.512 167.924C224.888 166.597 219.861 165.304 217.341 165.049C215.825 164.892 214.21 164.763 212.516 164.75ZM252.831 165.636C252.515 165.653 252.219 165.79 251.894 166.038C250.742 166.917 250.744 170.099 250.744 172.211C250.744 173.794 252.514 173.176 253.238 171.23C253.8 169.722 253.821 169.721 256.265 171.196C258.501 172.545 258.817 172.571 259.711 171.481C260.605 170.391 260.5 170.17 258.567 169.064C257.396 168.395 255.664 167.251 254.718 166.521C253.973 165.948 253.442 165.661 252.968 165.636C252.922 165.633 252.876 165.633 252.831 165.636ZM272.35 165.691C271.157 165.662 270.7 167.026 271.626 168.156C272.357 169.047 274.01 168.314 274.01 167.098C274.01 166.473 273.374 165.851 272.598 165.717C272.512 165.702 272.429 165.693 272.35 165.691ZM187.309 168.116C186.855 168.09 186.368 168.878 186.128 170.437C185.683 173.333 183.798 176.292 182.4 176.292C181.837 176.292 181.451 175.259 181.326 173.422C181.195 171.487 180.825 170.553 180.19 170.553C178.741 170.553 178.535 177.99 179.936 179.7C181.364 181.44 183.785 180.65 185.992 177.725C187.86 175.247 188.571 172.845 188.244 170.117C188.085 168.796 187.71 168.139 187.309 168.116ZM129.01 189.258C129.888 189.246 130.747 189.412 131.531 189.779C132.415 190.193 132.37 190.412 131.196 191.415C129.737 192.661 126.848 199.885 126.848 202.287C126.848 204.823 125.785 204.693 123.782 201.911C121.252 198.397 120.811 196.093 122.181 193.543C123.585 190.93 126.378 189.294 129.01 189.258ZM133.662 191.237C134.226 191.207 135.743 192.619 136.657 194.321C137.565 196.01 137.587 196.768 136.85 200.99C136.393 203.61 136.007 207.218 135.992 209.006C135.977 210.795 135.679 212.232 135.329 212.199C134.979 212.165 133.421 211.186 131.868 210.023C129.159 207.994 129.048 207.766 129.138 204.454C129.241 200.676 130.517 197.07 132.583 194.723C133.367 193.833 133.756 192.717 133.532 192.005C133.367 191.482 133.442 191.249 133.662 191.237ZM159.877 194.875C160.88 194.922 162.38 195.615 163.246 196.668C164.083 197.685 164.052 197.935 162.969 198.914C162.299 199.519 161.538 200.015 161.279 200.015C160.599 200.015 158.853 196.803 158.853 195.553C158.853 195.053 159.276 194.848 159.877 194.875ZM167.667 199.522C167.953 199.544 168.261 199.692 168.561 199.995C169.304 200.748 169.367 201.232 168.825 202.029C167.885 203.41 167.059 203.353 166.594 201.876C166.166 200.515 166.812 199.455 167.667 199.522ZM139.645 201.018C139.884 201.001 140.919 202.022 142.048 203.399C143.866 205.615 144.299 206.789 144.597 210.311L144.956 214.554L142.962 214.478C139.891 214.36 137.816 213.418 137.963 212.208C138.751 205.702 139.401 201.287 139.608 201.036C139.616 201.025 139.628 201.019 139.645 201.018ZM171.422 202.929C171.635 202.95 171.861 203.219 172.187 203.675C173.167 205.046 174.542 208.018 174.542 208.764C174.542 209.003 174.048 209.146 173.444 209.083C171.608 208.891 168.894 208.341 168.894 208.161C168.894 208.067 169.424 206.724 170.071 205.176C170.752 203.547 171.068 202.894 171.422 202.929ZM163.366 204.427C163.753 204.439 164.107 204.555 164.36 204.804C164.998 205.432 164.947 205.878 164.106 207.012C162.544 209.116 160.736 208.77 160.736 206.367C160.736 205.293 162.204 204.391 163.366 204.427ZM157.06 207.679C158.604 207.661 159.127 210.122 157.826 211.282C156.238 212.697 155.231 212.485 154.749 210.632C154.299 208.901 155.239 207.7 157.06 207.679ZM148.12 207.866C148.256 207.864 148.401 207.898 148.555 207.97C149.098 208.224 149.915 208.432 150.371 208.432C151.254 208.432 152.725 212.589 152.108 213.341C151.906 213.588 150.805 213.789 149.661 213.789C147.966 213.789 147.508 213.435 147.187 211.878C146.722 209.617 147.174 207.879 148.12 207.866Z" fill="black"/>
</svg>
