<svg width="20" height="20" viewBox="0 0 20 20" fill="none" xmlns="http://www.w3.org/2000/svg">
<g clip-path="url(#clip0_30_409)">
<path d="M12.866 0.110107C12.4335 0.106699 10.8465 0.690817 10.4925 1.14149C10.1149 1.62221 10.1604 2.86721 10.1604 2.86721C10.1604 2.86721 7.10809 3.84199 6.50071 4.00014C5.89331 4.1583 5.33146 4.80142 4.91659 5.43677C4.50169 6.07212 3.22814 10.2854 3.14016 11.9507C3.0522 13.616 3.73435 14.4058 4.23717 14.6338C4.23717 14.6338 8.76777 15.1939 9.35241 15.2975C9.93704 15.4012 11.4014 15.5361 11.8767 15.4788C12.3521 15.4214 19.3162 10.8742 19.5285 10.4644C19.7408 10.0546 19.8491 8.24096 19.6751 6.93353C19.5011 5.6261 18.7535 3.97402 18.348 3.18209C17.9424 2.39016 16.0234 2.14303 15.5368 2.19991C15.0501 2.2568 13.9114 2.19996 13.9114 2.19996C13.9114 2.19996 13.8365 1.76341 13.8087 1.23658C13.781 0.709759 13.2222 0.209481 12.9364 0.118871C12.9185 0.113202 12.8948 0.110332 12.866 0.110107ZM12.5148 1.30946C12.9436 1.31948 12.9789 2.17835 12.9789 2.17835L11.1057 2.79693C11.1057 2.79693 11.1972 2.16452 11.2532 1.93402C11.3092 1.70352 12.0028 1.35922 12.472 1.31119C12.4867 1.30969 12.5009 1.30914 12.5148 1.30946Z" fill="white"/>
<path d="M5.03717 19.9139C4.05715 19.6893 1.10991 18.6532 0.714165 18.3942C0.327413 18.1411 -0.00806108 17.5821 0.000363183 17.2047C0.00578735 16.9618 0.0662906 16.8729 0.436594 16.5642C1.34675 15.8054 3.26234 14.7131 3.66266 14.7246C3.7951 14.7285 3.79377 14.7179 3.63828 14.5304C3.54787 14.4214 3.41024 14.2919 3.33239 14.2427C3.25455 14.1935 3.12337 13.9453 3.04087 13.6913C2.80973 12.9795 2.82777 11.7786 3.09301 10.217C3.44069 8.17022 3.85223 6.85753 4.49831 5.73464C5.12558 4.64448 5.85194 4.15555 8.09454 3.31399C9.30064 2.86138 9.68243 2.80172 9.74577 3.05598C9.8121 3.32232 9.61181 3.4495 8.50153 3.84599C7.90262 4.05986 7.0294 4.38961 6.56103 4.57878C5.77007 4.89821 5.68455 4.9562 5.3598 5.39295C4.99428 5.88459 4.48714 7.05471 4.16301 8.15428C3.84975 9.21708 3.48462 11.5384 3.5016 12.3592C3.52879 13.672 4.02892 14.7071 4.2489 13.9059C4.3175 13.6561 4.30377 13.5979 4.1071 13.3052C3.86453 12.9441 3.75325 12.448 3.76736 11.7908C3.78066 11.1951 4.15952 9.37916 4.48103 8.37467C4.62603 7.9217 4.76284 7.44567 4.78502 7.31681C4.91589 6.55746 5.34846 6.18679 6.25802 6.05462C7.18447 5.92001 8.82378 6.18785 9.52096 6.58776C10.0563 6.89486 10.3129 7.27381 10.5948 8.17348C10.9525 9.31554 11.0023 9.7738 10.9621 11.552C10.929 13.0331 10.9178 13.1335 10.7384 13.6282C10.5306 14.2016 10.2445 14.5256 9.88844 14.5905C9.74532 14.6166 9.64306 14.6959 9.62165 14.7973C9.59287 14.9337 9.64595 14.9744 9.9312 15.035C10.1206 15.0753 10.5335 15.1205 10.8488 15.1356C11.3494 15.1596 11.5299 15.1167 12.2741 14.7974C13.6197 14.22 17.9636 11.3896 18.8423 10.5176C19.3677 9.99623 19.4253 9.63497 19.2813 7.76555C19.1507 6.07158 18.8607 4.9156 18.3263 3.95848C17.7805 2.98105 17.4615 2.81569 15.5278 2.50763C14.8154 2.39414 14.5528 2.27261 14.6744 2.1128C14.761 1.99899 16.4148 1.98627 16.999 2.09493C17.7318 2.23122 18.1446 2.53151 18.656 3.30024C19.3852 4.39658 19.7801 5.89239 19.9494 8.19985C20.0436 9.48298 20.0116 10.0078 19.8128 10.4466C19.5219 11.0886 18.3754 12.0026 15.6878 13.7347C13.9056 14.8833 13.5103 15.108 12.6988 15.4335C11.6644 15.8484 11.1234 15.9966 10.7092 15.9785L10.2936 15.9604L10.3267 16.2366C10.4352 17.1413 9.52197 18.2501 7.89545 19.1885C6.65025 19.9069 6.31586 20.0321 5.74428 19.9939C5.4662 19.9753 5.148 19.9393 5.03717 19.9139ZM6.6922 19.1149C6.88966 19.0029 7.05176 18.8847 7.05243 18.8521C7.0531 18.8196 6.68437 18.6648 6.23304 18.5082L5.41249 18.2233L4.90347 18.6341C4.62353 18.8601 4.42232 19.0593 4.45632 19.0768C4.67639 19.1902 5.39834 19.3171 5.82686 19.3178C6.18388 19.3183 6.43907 19.2585 6.6922 19.1149ZM4.50263 18.5242C4.72787 18.3176 4.88906 18.1188 4.86082 18.0824C4.83259 18.046 4.41044 17.8826 3.92274 17.7194L3.03595 17.4227L2.56004 17.7301C2.29827 17.8991 2.04451 18.0693 1.99615 18.1083C1.91229 18.1758 3.58438 18.8431 3.9355 18.8822C4.02221 18.8919 4.2774 18.7308 4.50263 18.5242ZM8.16505 18.2616C8.67465 17.9282 8.84692 17.7679 8.78681 17.6832C8.73272 17.607 7.74262 17.3186 7.08964 17.1889C6.74613 17.1206 6.6917 17.1387 6.32071 17.4444C6.10112 17.6253 5.93379 17.7917 5.9489 17.8142C5.97824 17.8578 7.57616 18.4602 7.72128 18.4823C7.76878 18.4896 7.96846 18.3902 8.16505 18.2616ZM1.85798 17.6489L2.39393 17.2743L2.12675 17.1807C1.97982 17.1293 1.69051 17.0219 1.48388 16.9422C1.13016 16.8057 1.08509 16.8092 0.712878 17.0021L0.317527 17.2069L0.501977 17.4614C0.603423 17.6013 0.824224 17.7819 0.992674 17.8626C1.1611 17.9433 1.30411 18.0125 1.31045 18.0164C1.31688 18.0203 1.56319 17.8549 1.85798 17.6489ZM5.75127 17.3435C5.93194 17.1826 6.0804 17.0263 6.08114 16.9961C6.08246 16.9369 4.67448 16.5618 4.41534 16.5524C4.19209 16.5442 3.57599 17.0226 3.74233 17.075C3.81124 17.0967 4.18788 17.2269 4.57934 17.3642C4.97078 17.5016 5.32069 17.619 5.35691 17.625C5.39314 17.631 5.5706 17.5044 5.75127 17.3435ZM9.53766 16.9955C9.66966 16.8294 9.73464 16.6553 9.73909 16.4558C9.7499 15.9718 9.63969 15.8565 9.11232 15.8C8.6711 15.7528 8.60236 15.7742 8.04099 16.1334C7.37641 16.5587 7.2931 16.6534 7.51919 16.7262C9.31378 17.3049 9.29394 17.3022 9.53766 16.9955ZM3.32578 16.6441C3.51433 16.5207 3.65351 16.383 3.63507 16.3382C3.61662 16.2934 3.43022 16.2192 3.22086 16.1733C3.01148 16.1274 2.77633 16.0457 2.69831 15.9918C2.5867 15.9147 2.44793 15.9608 2.04748 16.208C1.76752 16.3809 1.58305 16.5279 1.63756 16.5348C1.69203 16.5418 1.9934 16.6137 2.30721 16.6948C2.62102 16.7759 2.90145 16.8481 2.93036 16.8554C2.95929 16.8626 3.13722 16.7676 3.32578 16.6441ZM7.18465 16.0843L7.76621 15.614L6.92739 15.4974L6.0886 15.3809L5.55693 15.7151C5.26448 15.8989 5.03931 16.0703 5.05654 16.096C5.07376 16.1216 5.41246 16.23 5.80918 16.3368C6.2059 16.4435 6.54681 16.5362 6.56679 16.5427C6.58676 16.5493 6.86479 16.3429 7.18465 16.0843ZM4.88648 15.559L5.41184 15.2279L5.04152 15.1816C4.55296 15.1204 3.68624 15.2627 3.3272 15.4629C3.01326 15.6381 3.05247 15.7079 3.50897 15.7866C4.24133 15.9129 4.35489 15.8941 4.88648 15.559ZM9.08077 14.8108C9.09898 14.7413 8.88947 14.6798 8.44912 14.6253C7.34722 14.489 5.52663 14.145 5.12045 13.9962C4.90964 13.919 4.72068 13.8775 4.70054 13.904C4.64546 13.9763 4.64938 14.2805 4.70609 14.332C4.7953 14.413 8.50023 14.9221 8.95774 14.9161C9.01038 14.9154 9.06572 14.868 9.08077 14.8108ZM9.85456 13.9482C10.0567 13.8595 10.3674 13.3199 10.22 13.3135C10.1842 13.3119 10.1372 13.348 10.1156 13.3936C10.094 13.4392 9.8459 13.5828 9.56434 13.7127C9.28278 13.8425 9.05204 13.9643 9.05162 13.9833C9.04985 14.0625 9.65449 14.0361 9.85456 13.9482ZM7.52393 13.4318L7.50375 13.1005L7.14475 13.0848C6.82481 13.0708 6.76978 13.0985 6.63894 13.3392L6.49214 13.6093L6.64413 13.657C6.72772 13.6833 6.96442 13.7179 7.17011 13.734L7.54412 13.7632L7.52393 13.4318ZM8.9522 13.1996C9.77713 12.8672 10.148 12.6549 10.3367 12.4069C10.4424 12.268 10.454 12.1163 10.4357 11.1099C10.4243 10.4831 10.3881 9.80457 10.3554 9.60206C10.2972 9.24308 10.2893 9.23479 10.0393 9.27063C9.8982 9.29083 9.66823 9.37736 9.52822 9.46289C9.32271 9.58844 9.28055 9.65689 9.30936 9.81818C9.32899 9.92805 9.35801 10.2799 9.37379 10.6C9.39799 11.0906 9.42721 11.1991 9.55972 11.2906C9.78787 11.4482 9.75654 11.6299 9.51478 11.5512C9.35564 11.4995 9.30817 11.5238 9.26958 11.6771C9.23974 11.7956 9.26381 11.9354 9.33165 12.0481C9.48707 12.3039 9.38742 12.4786 9.19412 12.2892C9.06084 12.1586 9.0324 12.1586 8.93293 12.2892C8.87154 12.3699 8.64285 12.5587 8.42478 12.7088C8.02777 12.9821 7.88847 13.2546 8.06173 13.419C8.17634 13.5277 8.07832 13.5518 8.9522 13.1996ZM5.08271 12.9012C5.14939 12.7396 5.2958 12.5404 5.408 12.4586C5.52021 12.3767 5.62529 12.2992 5.64152 12.2863C5.6577 12.2733 5.62549 12.1177 5.56983 11.9405C5.47115 11.6262 5.46136 11.6197 5.17533 11.6802C5.01402 11.7143 4.86817 11.7217 4.85124 11.6967C4.8082 11.6331 4.99028 11.4898 5.19285 11.4279C5.38075 11.3704 5.53472 11.2358 5.53715 11.1268C5.53802 11.0879 5.41651 11.0233 5.26713 10.9831C4.93486 10.8939 4.98353 10.7245 5.33698 10.7399C5.57152 10.7501 5.60366 10.7192 5.72775 10.3644C5.80212 10.1517 5.95797 9.808 6.07406 9.60057C6.25659 9.27436 6.28368 9.15599 6.27469 8.72412C6.25767 7.90514 6.50346 7.73115 6.91584 8.27028C7.12444 8.54299 7.19875 8.57907 7.63615 8.62003C7.9044 8.64515 8.16947 8.69524 8.2252 8.73135C8.29366 8.7757 8.36758 8.70644 8.45298 8.51796C8.59596 8.20238 8.86506 8.07661 9.01107 8.25712C9.06454 8.32324 9.13636 8.54358 9.17065 8.74677L9.23303 9.11622L9.48725 8.95183C9.62706 8.86141 9.82559 8.76303 9.92838 8.7332C10.0311 8.70336 10.116 8.64562 10.1169 8.60489C10.1178 8.56416 10.0314 8.32481 9.92499 8.073C9.64491 7.41053 9.27646 7.1815 8.0937 6.93468C7.08935 6.72508 5.97326 6.70166 5.57959 6.88192C5.18783 7.06131 4.96531 7.62101 4.66856 9.17326C4.13677 11.9551 4.13338 12.6049 4.64856 13.0387C4.7933 13.1606 4.92292 13.2456 4.93661 13.2276C4.95021 13.2097 5.016 13.0628 5.08271 12.9012ZM6.08632 13.0772C6.2554 12.9326 6.25773 12.9203 6.14017 12.792C6.07257 12.7183 5.96681 12.6557 5.90511 12.653C5.77342 12.6473 5.4268 13.0452 5.4232 13.2063C5.41981 13.3583 5.85723 13.2731 6.08632 13.0772ZM7.96036 12.2779C8.31956 12.1777 8.59299 11.9328 8.50008 11.7945C8.38557 11.624 8.41753 11.558 8.58867 11.6115C8.83741 11.6894 8.88217 11.3949 8.63489 11.3076C8.3631 11.2116 8.39059 11.0621 8.67772 11.0746L8.9138 11.0849L8.92714 10.4875C8.93447 10.159 8.91051 9.64166 8.8739 9.33794L8.80733 8.78573L8.67324 9.00307C8.54423 9.21218 8.5094 9.21809 7.75284 9.1592C6.9748 9.09862 6.96422 9.09478 6.75384 8.79372L6.54124 8.48945L6.5246 8.71968C6.51543 8.84631 6.50284 9.03466 6.4967 9.13825C6.49037 9.24183 6.41819 9.4936 6.3361 9.69773C6.0774 10.341 5.98734 10.7773 6.09194 10.8803C6.16516 10.9524 6.15689 10.9946 6.0482 11.1032C5.93124 11.2201 5.92865 11.2378 6.02823 11.2422C6.09095 11.2449 6.14087 11.3108 6.13913 11.3886C6.13739 11.4664 6.09021 11.5281 6.03426 11.5257C5.95046 11.522 5.94616 11.5541 6.0101 11.7077C6.07784 11.8705 6.33264 12.082 6.6601 12.2473C6.83014 12.3331 7.69026 12.3533 7.96056 12.2779L7.96036 12.2779ZM6.78683 11.583C6.72349 11.4292 6.86539 11.2621 7.02622 11.3011C7.24601 11.3544 7.2262 11.6175 7.00036 11.6441C6.9015 11.6557 6.80544 11.6283 6.78683 11.583ZM7.43813 11.182C7.38214 11.0814 7.38702 11.0078 7.45825 10.8802C7.58546 10.6523 7.78992 10.7739 7.75462 11.0565C7.72388 11.3026 7.5448 11.3736 7.43813 11.182ZM6.49337 10.9004C6.4432 10.7588 6.45179 10.6858 6.52839 10.6024C6.67572 10.442 6.84586 10.5754 6.81447 10.8266C6.78065 11.0974 6.57958 11.1436 6.49337 10.9004ZM12.0496 12.9266C11.9797 12.8226 11.9103 12.5965 11.8954 12.4242C11.8717 12.1516 11.8494 8.48165 11.869 8.09821C11.8995 7.50373 11.9284 7.28266 11.9886 7.18288C12.0992 6.99995 12.4233 7.06468 12.6129 7.30753C12.7711 7.51017 12.8015 7.68189 12.9458 9.18679C13.1747 11.5742 13.1328 12.2794 12.7277 12.8491C12.4943 13.1773 12.2377 13.2066 12.0496 12.9266ZM12.4643 12.3257C12.5371 12.2106 12.5279 12.1869 12.4083 12.1817C12.326 12.1781 12.2638 12.2356 12.262 12.3169C12.2602 12.3947 12.2855 12.4595 12.318 12.461C12.3506 12.4624 12.4164 12.4015 12.4643 12.3257ZM12.4825 11.7095C12.5999 11.6281 12.6164 11.5176 12.6266 10.748C12.642 9.57008 12.6041 9.3184 12.4038 9.26974C12.2472 9.23168 12.2439 9.24335 12.2751 9.7362C12.2927 10.0142 12.2996 10.5919 12.2903 11.0199C12.2808 11.4479 12.2907 11.7989 12.3117 11.7998C12.3327 11.8007 12.4095 11.7601 12.4825 11.7095ZM12.5995 8.30894C12.5644 7.74517 12.4808 7.55843 12.2589 7.54874C12.0765 7.54078 12.0519 7.70131 12.157 8.21472C12.1934 8.39282 12.2335 8.59211 12.2462 8.65758C12.2589 8.72304 12.3503 8.78014 12.4494 8.78446C12.6264 8.79219 12.629 8.78398 12.5995 8.30894ZM13.7217 12.1236C13.646 11.9621 13.6269 11.6608 13.6439 10.8996C13.671 9.68347 13.6003 8.61489 13.4398 7.8166C13.2903 7.07349 13.294 6.92757 13.4637 6.87338C13.5385 6.84948 13.6014 6.75453 13.6035 6.66238C13.6075 6.48018 13.7382 6.38592 13.9725 6.39616C14.2021 6.40618 14.5856 7.06058 14.7214 7.67406C14.9732 8.81203 14.997 10.3127 14.7795 11.341C14.7414 11.5211 14.6127 11.8235 14.4934 12.0131C14.23 12.4318 13.8889 12.4806 13.7217 12.1236ZM14.2673 11.4379C14.3377 11.247 14.4167 10.8574 14.4429 10.5723L14.4904 10.0538L14.2383 10.3682C14.005 10.6592 13.9854 10.7232 13.9741 11.23C13.9595 11.8828 14.0734 11.9636 14.2673 11.4379ZM14.4853 9.36905C14.4926 9.13676 14.466 9.06135 14.3751 9.05739C14.1469 9.04742 13.9493 9.31396 13.942 9.6418C13.9326 10.063 13.9726 10.0932 14.2428 9.86886C14.4276 9.71539 14.4776 9.61223 14.4853 9.36905ZM14.362 8.44997C14.4004 8.22267 14.1973 7.48236 14.0383 7.26972C13.8445 7.01057 13.6388 6.90315 13.684 7.0847C13.7484 7.34288 13.8324 7.94628 13.8659 8.39126L13.8994 8.83463L14.118 8.71753C14.2382 8.65312 14.348 8.53272 14.362 8.44997ZM15.6196 11.1463C15.3615 10.9757 15.354 10.9369 15.2974 9.47532C15.2722 8.82511 15.2001 7.82774 15.1373 7.25894C15.0459 6.43193 15.0398 6.17297 15.1065 5.96616C15.2584 5.49549 15.486 5.54223 15.8064 6.1099C16.2448 6.88635 16.5371 8.31515 16.5097 9.54639C16.4908 10.3901 16.3798 10.8141 16.1028 11.0997C15.8814 11.3279 15.8926 11.3268 15.6196 11.1463ZM15.9453 10.3393C16.1616 9.55156 15.9653 7.801 15.5448 6.76669C15.3737 6.34594 15.3433 6.41651 15.4498 6.98749C15.5249 7.39029 15.5779 8.01532 15.7244 10.2257C15.7561 10.7033 15.8343 10.7435 15.9453 10.3393ZM16.9118 10.4664C16.8135 10.2801 16.784 9.98512 16.7066 8.41359C16.6327 6.91124 16.5689 6.36836 16.4126 5.9109C16.3316 5.67386 16.3341 5.63972 16.4355 5.59031C16.713 5.45513 16.9953 6.61474 17.0768 8.22479C17.1043 8.76773 17.1447 9.23685 17.1666 9.26729C17.1884 9.29773 17.2032 8.77016 17.1994 8.09492C17.1938 7.08773 17.1647 6.75615 17.0375 6.24888C16.8868 5.6479 16.8347 5.55495 16.5796 5.43131C16.4043 5.3463 16.4757 5.06269 16.6971 4.96452C17.1516 4.76305 17.5526 5.84922 17.65 7.54538C17.7153 8.68465 17.606 9.97682 17.4113 10.3654C17.2842 10.6189 17.0205 10.6723 16.9118 10.4664ZM18.3198 9.34961C18.1904 9.13675 18.1124 8.57095 18.074 7.56661C18.0581 7.15048 17.9954 6.43845 17.9346 5.98431C17.8739 5.53017 17.8438 5.09336 17.8678 5.01363C17.9305 4.80493 18.1219 4.84399 18.2766 5.09703C18.5385 5.52535 18.8529 7.44727 18.8282 8.46891C18.807 9.33036 18.5641 9.75178 18.3198 9.34961ZM12.3004 6.05852C12.6987 5.74834 12.9661 5.62183 15.7638 4.41982C16.025 4.3076 16.1039 4.30441 16.1692 4.40339C16.3559 4.68598 15.5925 5.08166 13.3025 5.88917C12.2282 6.26799 11.9768 6.31046 12.3004 6.05852ZM10.1349 4.7901C9.92611 4.62397 9.89198 4.35916 9.91154 3.05589C9.92918 1.87993 10.0048 1.44311 10.2597 1.04545C10.7423 0.292398 12.5465 -0.25656 13.2883 0.123948C14.0964 0.538427 14.5411 3.33281 13.9086 4.02144C13.7375 4.20779 13.365 4.22675 13.1065 4.06229C12.8005 3.86753 12.6534 3.53181 12.6595 3.04196C12.6621 2.83012 12.6495 2.65616 12.6314 2.65536C12.6132 2.65457 12.4116 2.713 12.1832 2.7852C11.9549 2.8574 11.6849 2.89567 11.5832 2.87024C11.4089 2.82665 11.3955 2.84848 11.3491 3.25351C11.2329 4.26688 11.2026 4.40989 11.0576 4.63133C10.8738 4.91184 10.392 4.99475 10.1349 4.7901ZM10.6483 4.21095C10.7249 4.17363 10.759 4.03343 10.7659 3.72814C10.7711 3.49152 10.8156 3.02629 10.8646 2.6943C10.9684 1.99096 11.2266 1.53363 11.6639 1.27855C12.0053 1.07936 12.6929 1.08892 12.8905 1.2956C13.0245 1.43572 13.0459 1.54643 13.1213 2.48792C13.1881 3.32281 13.1939 3.34084 13.3996 3.34982L13.5917 3.35821L13.5759 2.673C13.5576 1.87762 13.2966 0.88072 13.056 0.686852C12.5883 0.310091 10.9414 0.96402 10.6094 1.65834C10.5605 1.76058 10.486 2.30118 10.4439 2.85968C10.4018 3.41818 10.346 3.95989 10.3199 4.06349C10.2832 4.20921 10.3029 4.25318 10.4064 4.2577C10.4801 4.26092 10.5889 4.23987 10.6483 4.21095ZM12.1301 2.34419C12.5061 2.19317 12.625 2.10448 12.6279 1.97275C12.6301 1.87758 12.5899 1.77514 12.5388 1.7451C12.386 1.65534 11.9085 1.85642 11.6829 2.10553C11.4752 2.33475 11.3845 2.66371 11.5509 2.58363C11.5979 2.56105 11.8585 2.45331 12.1301 2.34419Z" fill="black"/>
</g>
<defs>
<clipPath id="clip0_30_409">
<rect width="20" height="20" fill="white"/>
</clipPath>
</defs>
</svg>
