<svg width="44" height="39" viewBox="0 0 44 39" fill="none" xmlns="http://www.w3.org/2000/svg">
<g clip-path="url(#clip0_30_417)">
<path d="M17.0343 0.273333C16.4462 0.273333 15.894 0.419256 15.5896 0.588764C14.9807 0.927764 14.424 2.03143 14.7023 3.07007C14.9806 4.10868 14.5196 4.20971 14.5196 4.20971C14.5196 4.20971 12.8235 3.94277 11.9798 4.07263C11.1361 4.20244 7.57017 5.28444 4.79564 6.7703C2.02105 8.2561 0.533537 11.6027 0.611827 14.7763C0.690101 17.9498 2.71681 19.3059 4.91732 19.8396C4.91732 19.8396 6.15231 20.0993 7.51785 20.0633C8.8834 20.0271 9.64006 18.0582 9.75314 17.2575C9.86619 16.4569 10.0662 14.6609 10.3359 14.0623C10.6055 13.4636 15.1458 11.1772 15.1458 11.1772C15.1458 11.1772 17.216 11.4152 18.0944 11.4729C18.9729 11.5306 21.0604 9.65524 21.3126 9.16477C21.5648 8.67431 21.2342 5.98408 21.2342 5.98408C21.2342 5.98408 19.886 3.73366 19.8773 3.35861C19.8687 2.98352 19.5902 1.61306 18.6944 0.81243C18.2465 0.412155 17.6225 0.27151 17.0343 0.273333ZM20.957 19.7197C19.8495 19.7155 18.4965 19.8694 17.8507 20.0777C16.9114 20.3806 16.3461 20.8277 16.4418 21.5274C16.5375 22.227 17.4072 24.492 17.6334 25.1122C17.8595 25.7326 19.6773 28.1273 19.9991 28.9423C20.6949 29.476 22.1389 28.7979 22.7912 28.6825C23.4435 28.5671 25.0351 27.8964 25.6179 27.4203C26.2006 26.9443 25.2875 26.1652 24.9656 25.7757C24.6439 25.3863 24.1827 22.2705 24.2087 21.5925C24.2349 20.9145 23.226 20.0778 22.2258 19.8325C21.9132 19.7559 21.4604 19.7215 20.957 19.7197ZM37.456 28.3058C35.96 28.2955 35.0365 28.8246 34.4288 29.1586C33.6808 29.5697 31.7672 30.3342 31.7672 30.3342L29.7231 29.5697L29.6884 30.7021C29.6884 30.7021 28.9318 32.0149 29.0362 33.104C29.2742 34.6619 32.4134 35.8255 33.0805 35.0443C33.5014 34.5514 35.2898 33.9838 35.716 33.6448C36.1422 33.3058 37.76 33.1329 38.4384 33.1184C39.1168 33.104 39.5083 33.2916 39.9693 33.6882C40.4303 34.0849 42.3263 34.0633 42.2046 33.5224C42.0828 32.9814 42.6047 30.796 42.3524 30.1973C42.1002 29.5986 40.7694 28.7764 38.5863 28.4085C38.1769 28.3395 37.8012 28.3083 37.456 28.3058ZM23.6153 33.2215C23.475 33.2215 23.3364 33.2215 23.2 33.2266C21.0168 33.2988 18.3987 33.7533 17.9377 34.1716C17.4767 34.59 16.4852 37.0134 16.546 37.5255C16.894 38.5858 19.4773 38.4992 23.2956 38.5929C27.1139 38.6867 29.2361 37.4173 29.7231 37.0783C30.2102 36.7393 29.3753 34.8856 28.7578 34.3519C28.1788 33.8515 25.7193 33.2369 23.6153 33.2215Z" fill="white"/>
<path d="M17.0003 3.05176e-05C16.5276 0.00451405 15.914 0.163869 15.4198 0.445465C14.0661 1.21662 13.6003 2.37163 14.2072 3.45295L14.4607 3.90463L13.9036 3.80837C12.7836 3.61473 8.25609 4.77539 5.75562 5.89708C2.69712 7.26911 0.318552 9.84595 0.187874 11.9291C0.164859 12.2951 0.0939345 13.1556 0.0299984 13.8414C-0.177705 16.07 0.708244 18.4127 2.21963 19.631L3.04184 20.2937L3.03146 23.9249C3.02059 27.6106 2.74824 31.0457 2.22228 34.1227C1.98699 35.4994 1.98197 35.727 2.18261 35.895C2.53244 36.1877 4.38169 36.9036 5.27807 37.0933C6.16752 37.2815 6.61521 37.2262 6.74604 36.9121C6.88971 36.5671 6.48158 36.3485 4.75578 35.8462C3.44511 35.4646 3.1345 35.3221 3.19623 35.13C3.37752 34.566 3.76758 32.2659 3.95801 30.6365C4.07688 29.6199 4.16372 27.106 4.16372 24.6855V20.4948L5.35766 20.5523C6.14579 20.5902 6.81963 20.5337 7.3402 20.3848C7.77387 20.2609 8.15581 20.1847 8.18917 20.2155C8.31272 20.3293 8.5295 26.8032 8.54037 30.7098C8.54848 33.6466 8.60446 34.8077 8.74604 34.9789C9.04025 35.3349 10.1692 35.8207 11.2341 36.0497C12.0309 36.2209 12.2325 36.2222 12.4728 36.0576C13.0587 35.6562 12.5785 35.3385 10.5157 34.8252C10.2216 34.752 9.76247 34.7795 9.76274 34.2742L9.7673 28.62C9.71334 25.2919 9.59314 21.9309 9.50009 21.1512C9.33377 19.7571 9.33753 19.7244 9.73091 19.1903C10.1806 18.5796 10.4516 17.8045 10.4531 17.1254C10.4531 16.4428 10.6427 15.3079 10.7542 15.3106C10.8079 15.3106 11.2625 16.0875 11.7643 17.0341C12.5233 18.4657 12.93 19.0178 14.1815 20.3159C15.2653 21.4402 15.7156 22.022 15.7918 22.3965C15.8501 22.6825 16.0417 23.0363 16.2176 23.1827C16.5864 23.4898 17.1591 24.4869 17.6236 25.6307C17.801 26.0677 18.1502 26.685 18.3998 27.0024C18.6494 27.3199 18.9029 27.7858 18.9629 28.0377C19.1068 28.6412 19.6329 29.2431 20.0168 29.2431C20.3155 29.2431 20.3844 29.1154 20.3373 28.649C20.3247 28.524 20.5948 28.2764 20.9376 28.0989C21.6904 27.709 21.8871 27.695 21.8579 28.0329C21.8435 28.1986 21.9488 28.2895 22.1543 28.2895C22.3985 28.2895 22.4664 28.2001 22.4456 27.9058C22.4199 27.5426 22.4754 27.5131 23.4802 27.3561C24.0642 27.2649 24.7144 27.1465 24.925 27.0933C25.5001 26.948 25.2047 27.2806 24.4389 27.6406C24.0025 27.8457 23.6526 27.9111 23.3352 27.8469C22.8823 27.7552 22.8706 27.7678 22.8706 28.3391C22.8706 29.0037 23.0822 29.145 23.6665 28.8707C23.8854 28.768 24.4027 28.5738 24.8161 28.4395C25.6816 28.1581 26.3727 27.4869 26.3727 26.9277C26.3727 26.6869 26.1672 26.3463 25.8268 26.0222C25.3973 25.6134 25.2121 25.2452 24.9575 24.2949C24.6602 23.1856 24.6532 23.0367 24.8716 22.4664C25.1073 21.8511 25.1835 21.0396 24.6806 20.8845C24.6053 20.8613 24.5199 20.7951 24.3904 20.5094C24.207 20.105 23.9812 19.9234 23.3713 19.6899L22.5878 19.3899L22.6713 17.8847C22.7667 16.1624 22.4404 14.0009 21.8202 12.2458C21.6098 11.6506 21.438 11.0763 21.438 10.9697C21.438 10.863 21.3186 10.714 21.1728 10.6388C20.9306 10.5139 20.9363 10.4688 21.2388 10.1145C21.4209 9.90121 21.6597 9.40333 21.7696 9.00815C21.958 8.33066 22.0086 8.28055 22.6538 8.13082C23.0365 8.04204 23.4105 7.84717 23.5026 7.68863C23.7142 7.32427 23.4688 7.17077 23.0248 7.38977C22.4337 7.68127 22.0215 7.51677 21.9536 6.96239C21.8637 6.22971 21.3226 5.04134 20.807 4.44394C20.3886 3.9592 20.3616 3.8509 20.4386 2.96778C20.5012 2.24822 20.4566 1.89862 20.2558 1.54088C19.9115 0.927369 19.1287 0.494483 18.3625 0.493811H17.7543L18.5509 1.19061C18.9891 1.57386 19.3895 2.05227 19.4408 2.25399C19.5278 2.59651 19.5207 2.6017 19.3318 2.33094C19.2207 2.1715 18.8854 1.80837 18.5868 1.5241C18.0183 0.98286 17.7361 1.09237 18.1468 1.69489C18.2739 1.88135 18.4665 2.29806 18.5749 2.62075C18.6833 2.94345 18.8709 3.31218 18.9919 3.44029C19.181 3.64059 19.1699 3.70809 18.9124 3.92287C18.6234 4.16384 18.6106 4.14549 18.543 3.39432C18.4747 2.63536 17.9154 1.36931 17.5123 1.06104C17.3714 0.953255 17.1394 0.959569 16.7358 1.08224C16.13 1.26647 15.6067 1.87326 15.4428 2.5816C15.3231 3.09908 15.0704 2.9574 15.0704 2.37275C15.0704 1.81745 16.1963 0.710345 16.9088 0.565033C17.7822 0.386947 17.8459 0.352322 17.6445 0.166704C17.5188 0.0508192 17.2861 -0.0021123 17.0026 0.000577824L17.0003 3.05176e-05ZM17.1703 1.15324L17.4625 1.96008C17.6232 2.40377 17.7581 2.99786 17.7621 3.28022C17.7666 3.56258 17.7029 3.89034 17.6217 4.00861C17.3679 4.37846 17.136 3.52144 17.1539 2.28044L17.1703 1.15324ZM16.4439 1.73401C16.4923 1.75438 16.4786 1.94577 16.4267 2.40012C16.3761 2.84381 16.4033 3.42132 16.4864 3.68351C16.6582 4.22379 16.5221 4.29341 16.1115 3.8754C15.8864 3.64626 15.853 3.44812 15.9408 2.86015C16.0007 2.45829 16.1554 2.00886 16.2843 1.86146C16.3635 1.77084 16.4149 1.72169 16.4439 1.73401ZM13.724 4.35389C13.7702 4.35389 13.7947 4.36465 13.7947 4.38257C13.7947 4.40835 13.617 4.75529 13.3999 5.15351C12.8787 6.10959 12.621 7.27026 12.7342 8.1507C12.8444 9.00836 13.5447 10.2502 14.1512 10.6634L14.5912 10.9631L13.9143 11.276C13.5421 11.4481 12.7865 11.8298 12.2356 12.124C11.5731 12.4778 11.2142 12.5984 11.1756 12.4801C11.1435 12.3816 10.9996 11.839 10.8558 11.2742C10.3729 9.377 10.2852 9.14724 10.0437 9.14724C9.53763 9.14724 9.47225 9.85156 9.80888 11.6778L10.1318 13.43L9.81165 13.8051C9.57157 14.0864 9.51631 14.3028 9.59105 14.6698C9.67881 15.1008 9.52475 16.2077 9.18557 17.5817C9.11085 17.8842 8.9807 18.0217 8.76928 18.0217C8.30528 18.0217 8.06393 18.2208 8.06393 18.6033C8.06393 18.8822 7.92233 18.992 7.31913 19.1813C6.56337 19.4186 5.12601 19.4694 4.40407 19.2843C4.14984 19.2191 3.95738 19.0269 3.868 18.7489C3.65366 18.082 3.51211 17.875 3.27079 17.875C3.149 17.875 3.02665 18.0235 2.99867 18.205C2.9707 18.3865 2.886 18.535 2.81047 18.535C2.58533 18.535 2.01969 17.7144 1.57138 16.7372C1.20109 15.9301 1.15067 15.6212 1.14531 14.1346C1.14044 12.7298 1.20296 12.2761 1.52006 11.421C2.24561 9.46446 3.85782 7.77182 5.9704 6.74891C7.44513 6.03481 13.0315 4.32877 13.724 4.35389ZM19.5793 4.65878C19.7274 4.64876 19.9182 4.88551 20.2336 5.45744C20.3823 5.72716 20.4807 5.96249 20.4524 5.98045C20.3098 6.07093 19.8444 5.87647 19.8428 5.72624C19.8428 5.63131 19.7396 5.37325 19.6147 5.15281C19.4899 4.93231 19.4466 4.71856 19.5182 4.67771C19.5381 4.66636 19.5579 4.66024 19.5793 4.659V4.65878ZM15.5422 4.96498C15.6064 5.00158 15.6251 5.38003 15.5837 5.80597C15.4952 6.71539 15.2274 7.11289 15.2274 6.33478C15.2274 5.62744 15.3984 4.88312 15.5422 4.96498ZM18.8953 5.10553C19.0489 5.08765 19.3662 5.47523 19.3662 5.7284C19.3662 5.83397 19.2672 5.9205 19.1461 5.9205C18.9041 5.9205 18.688 5.36754 18.841 5.13946C18.855 5.11867 18.8735 5.10784 18.8953 5.10534V5.10553ZM14.4707 5.3019C14.6137 5.28235 14.4269 7.27504 14.2328 7.64393C14.0143 8.05915 13.7947 8.06985 13.7947 7.66517C13.7947 7.28713 14.25 5.63647 14.4378 5.33361C14.4505 5.31322 14.4613 5.30327 14.4707 5.30161L14.4707 5.3019ZM17.6947 5.48043C17.8261 5.48043 17.9335 5.60855 17.9335 5.76514C17.9335 6.07134 17.7238 6.26488 17.5579 6.11195C17.3611 5.93064 17.4586 5.48043 17.6947 5.48043ZM16.5822 5.60463C16.5908 5.60912 16.6007 5.62832 16.6106 5.66371C16.6508 5.80492 16.6508 6.03588 16.6106 6.17708C16.5704 6.31824 16.5376 6.20283 16.5376 5.9205C16.5376 5.70868 16.556 5.59079 16.5822 5.60463ZM20.2423 6.72457C20.4504 6.71321 20.9581 6.95265 20.9581 7.08915C20.9581 7.17244 20.9044 7.23852 20.8387 7.23594C20.6603 7.22876 20.0952 6.81253 20.1737 6.74584C20.1891 6.73299 20.2125 6.72623 20.2423 6.72457ZM19.0371 6.84377C19.3935 6.83346 19.5271 6.93113 19.8897 7.27162C20.1723 7.5369 20.5433 7.82538 20.714 7.91273C20.9944 8.05619 21.0063 8.12781 20.836 8.65145C20.6491 9.22603 19.9497 10.0063 19.233 10.4398C18.6907 10.7678 17.5941 10.8806 16.7855 10.6914C15.784 10.4571 14.6335 9.79641 14.3513 9.29348C14.1137 8.87008 14.1205 8.85516 14.8324 8.19916C15.2294 7.83338 15.6514 7.53393 15.7705 7.53393C15.8895 7.53393 16.1887 7.43745 16.4355 7.31949C17.0292 7.03571 17.0821 7.12329 16.6456 7.6674C16.4471 7.91475 16.3366 8.16502 16.4003 8.22368C16.5778 8.3873 17.018 8.07935 17.4307 7.50255C17.7495 7.05711 17.9178 6.9674 18.5899 6.88526C18.7749 6.8628 18.9184 6.84749 19.0371 6.84377ZM19.2951 9.33559C19.1708 9.33977 19.0376 9.38736 18.9296 9.48686C18.7231 9.67717 18.7141 9.76045 18.8793 9.9439C19.12 10.2111 19.6845 10.0058 19.6845 9.65102C19.6845 9.44597 19.5022 9.32943 19.2951 9.33559ZM17.3976 9.67251C16.989 9.63302 16.5674 9.98528 16.6601 10.2602C16.7717 10.5912 17.6749 10.4779 17.7481 10.122C17.7788 9.97226 17.6884 9.76308 17.5705 9.71483C17.5141 9.69197 17.456 9.67826 17.3976 9.67251ZM20.6678 10.9469C20.7182 10.9609 20.7302 11.0233 20.7359 11.1257C20.745 11.2882 20.8741 11.883 21.0227 12.4478C21.3706 13.7694 21.5654 18.4778 21.2916 18.9492C21.1446 19.2023 20.9619 19.2685 20.412 19.2685C19.5164 19.2685 17.8573 19.7452 17.1062 20.2182C16.7825 20.4221 16.4518 20.5886 16.3714 20.5886C16.2909 20.5886 15.6347 19.9847 14.913 19.2464C13.811 18.1189 13.4391 17.5962 12.5891 15.9825C12.0325 14.9258 11.5568 13.9333 11.5318 13.7767C11.4786 13.4421 12.1483 13.0512 13.9537 12.3633C14.6104 12.1131 15.2328 11.8082 15.3367 11.6858C15.5057 11.4871 15.5994 11.4877 16.2123 11.6937C16.5899 11.8205 17.4941 11.9325 17.7124 11.9555C17.949 13.2232 18.8577 12.9843 18.6872 11.8489C18.8044 11.8489 19.5224 11.5725 19.947 11.3091C20.393 11.0325 20.5838 10.9234 20.6678 10.9471V10.9469ZM20.5345 19.9918C21.0302 19.9714 21.4615 20.0025 21.7297 20.106C22.1972 20.286 22.2528 20.3625 22.1677 20.7072C21.8818 21.8653 21.8785 22.0119 22.1352 22.1026C22.5832 22.261 22.8491 22.0481 23.1731 21.2717C23.4618 20.5799 23.4894 20.5545 23.497 20.9741C23.5015 21.2265 23.3986 21.6683 23.2682 21.9556C23.0668 22.4 23.0643 22.5084 23.2511 22.6806C23.3719 22.792 23.497 23.0103 23.5293 23.166C23.5613 23.3216 23.7394 23.469 23.9245 23.4934C24.2276 23.5333 24.2684 23.6542 24.3347 24.709C24.3753 25.353 24.4917 25.957 24.5935 26.0508C24.8997 26.3329 24.8086 26.4385 24.1817 26.5284C22.3618 26.7897 21.6258 26.9521 21.1211 27.2038C20.8126 27.3577 20.4059 27.5863 20.2174 27.7117C19.8892 27.9301 19.8669 27.9182 19.6941 27.4356C19.5947 27.1584 19.3651 26.8081 19.1839 26.6572C18.8883 26.4111 18.0928 25.1361 18.0928 24.9086C18.0928 24.8588 18.1823 24.8477 18.2917 24.884C18.5612 24.973 19.0494 24.7279 19.0413 24.5075C19.0368 24.4096 18.8229 24.1008 18.5638 23.8215C18.0386 23.2553 17.9825 23.0826 18.3238 23.0826C18.451 23.0826 18.7768 23.3796 19.0479 23.7427C19.7352 24.6632 20.494 24.5743 20.2297 23.6043C20.1602 23.3489 20.217 23.2502 20.4687 23.1896C20.9143 23.0822 20.8841 22.6999 20.3824 22.0937C19.5715 21.114 18.6241 20.8137 17.7181 21.2491C17.2125 21.4921 16.9784 21.4305 16.9784 21.0544C16.9784 20.5839 19.0472 20.0533 20.5345 19.9918ZM41.4369 21.7743C41.3444 21.7801 41.2299 21.825 41.0654 21.911C40.3722 22.2735 40.0341 22.8209 40.0341 23.5809C40.0341 24.4014 40.3007 24.8189 41.1823 25.3792C43.0035 26.5364 43.1489 26.9012 42.2743 28.1178C41.804 28.7721 41.4161 28.9538 41.0874 28.6743C40.6044 28.2637 38.9543 27.8821 37.5931 27.8662C35.898 27.8463 35.1069 28.0406 34.0652 28.7315C33.6417 29.0124 33.1416 29.3444 32.9539 29.4694C32.7662 29.5943 32.3506 29.7356 32.0304 29.7835C31.5486 29.8555 31.3745 29.8055 31.0187 29.4938C30.4758 29.018 29.7953 28.8511 29.4564 29.1103C29.2648 29.2568 29.2255 29.465 29.2942 29.97C29.3579 30.4369 29.315 30.7217 29.1513 30.9212C29.0227 31.0778 28.9174 31.3656 28.9174 31.5606C28.9174 31.8698 28.8642 31.9027 28.501 31.8187C28.2719 31.7658 27.8667 31.6823 27.6007 31.6333C26.8946 31.5032 27.1749 31.8061 28.0434 32.1118C28.873 32.4037 28.9788 32.6343 28.2582 32.5806C27.553 32.5281 27.5059 32.8536 28.2014 32.9738C28.5811 33.0395 28.8187 33.1806 28.91 33.3947C29.1085 33.8605 30.3267 34.9062 31.0672 35.2465C31.7395 35.5555 32.8191 35.6377 33.2102 35.4098C33.357 35.3242 33.4218 35.3018 33.4218 35.3018C33.8778 35.8928 34.2388 35.6143 33.8031 35.0975C33.8031 35.0975 34.2177 34.7099 34.5039 34.3819C34.9912 33.8232 35.0269 33.7043 35.0668 32.5044C35.1146 31.0649 35.0567 30.248 33.9653 30.6979C33.6959 30.8089 33.0488 30.2978 33.0651 30.1232C33.0732 30.0354 34.516 29.3625 34.5687 29.4219C34.589 29.4448 34.7949 29.7436 35.0266 30.0865C35.293 30.4805 35.5645 30.7098 35.7645 30.7098C36.2621 30.7098 36.0937 30.1316 35.3886 29.4186C35.1038 29.1307 35.0893 29.0607 35.2892 28.9442C35.8099 28.6408 36.0581 28.7835 36.1663 29.4479C36.2907 30.2128 36.8059 31.061 37.0586 30.9171C37.2419 30.8128 37.1686 29.4072 36.9541 28.9131C36.8656 28.7089 36.9257 28.6563 37.2485 28.6563C37.769 28.6563 37.8263 28.7559 37.8512 29.7046C37.8774 30.7085 37.9619 31.0033 38.2223 31.0033C38.4919 31.0033 38.6229 30.5382 38.6256 29.5732C38.6256 28.9015 38.6685 28.8031 38.9463 28.8031C39.3072 28.8031 39.3471 29.105 39.1107 30.0448C39.0088 30.4495 39.02 30.6883 39.1477 30.8299C39.4466 31.1617 39.9016 30.5122 39.9016 29.7538C39.9016 29.196 39.9381 29.1326 40.2199 29.2005C40.4927 29.2663 40.5384 29.4005 40.5384 30.1401C40.5384 30.6148 40.6012 31.0033 40.6781 31.0033C40.913 31.0033 41.1679 30.6332 41.276 30.135C41.3653 29.7237 41.4089 29.689 41.6071 29.8716C42.0103 30.2431 42.1472 31.1494 41.9468 32.1208C41.6301 33.6567 42.1181 33.9018 42.7887 32.5435C43.1438 31.8241 43.1656 30.8773 42.8432 30.1664C42.6107 29.6537 42.6164 29.6171 42.9843 29.2543C43.8855 28.3653 44.243 27.0397 43.8282 26.1249C43.6752 25.7876 43.2978 25.4007 42.8308 25.1024C41.0113 23.94 40.8767 23.6847 41.5236 22.6241C41.7987 22.173 41.8312 22.0148 41.6773 21.8729C41.6003 21.802 41.5295 21.7685 41.4369 21.7743ZM21.456 28.2315C21.3458 28.2544 21.243 28.3616 21.1876 28.565C21.1324 28.7674 21.1341 29.0027 21.1921 29.088C21.2493 29.1732 21.4396 29.2431 21.6151 29.2431C21.879 29.2431 21.9255 29.161 21.8842 28.7676C21.8445 28.3903 21.6405 28.1935 21.4568 28.2315H21.456ZM22.7282 29.4122C22.5701 29.3756 22.5325 29.4392 22.3854 29.6924C22.2549 29.9171 22.2584 30.0495 22.3989 30.2059C22.63 30.4625 22.7471 30.4692 22.9954 30.2404C23.2651 29.9919 23.2325 29.5841 22.9345 29.4787C22.8465 29.4475 22.7806 29.4243 22.7279 29.4121L22.7282 29.4122ZM30.4698 30.2811C30.8273 30.5484 30.9111 30.6978 30.807 30.8836C30.6323 31.1954 30.6268 31.7366 30.7984 31.7366C30.8697 31.7366 31.0486 31.5036 31.196 31.2188C31.489 30.6525 31.8676 30.4359 32.1343 30.6816C32.2558 30.7936 32.1835 30.9719 31.8837 31.3002C31.309 31.9295 31.533 32.1688 32.1667 31.6028C32.4455 31.3537 32.809 31.1498 32.9745 31.1498C33.2397 31.1498 33.2249 31.1981 32.8502 31.5585C32.6164 31.7833 32.3792 32.1794 32.3229 32.4386C32.1746 33.1222 32.6347 33.0648 33.4882 32.2929C34.0048 31.9565 34.1707 31.2518 34.1707 32.1365C34.1707 32.5266 34.1054 32.6043 33.7451 32.6436C33.1459 32.7089 33.1092 33.0006 33.6869 33.107C34.2606 33.2128 34.3099 33.5127 33.8223 33.9313C33.4332 34.2653 33.2498 34.2859 33.2498 34.2859C32.9781 33.8691 32.6105 33.8512 32.8983 34.4366C32.7983 34.4777 32.849 34.5301 32.311 34.5087C31.3364 34.4696 31.0015 34.3623 30.6412 34.0398C30.7014 33.8873 30.4379 33.594 30.1695 33.7351C29.8234 33.4887 29.5012 33.0853 29.5718 32.5389C29.5858 32.4299 29.5777 32.1086 29.612 31.881C29.5854 31.7043 29.566 31.5393 29.5633 31.4238C29.5569 31.151 29.6521 31.0138 29.8876 30.9571C30.1721 30.8886 30.2043 30.807 30.1075 30.4012C29.9146 29.7255 29.9983 29.9285 30.4698 30.2811ZM20.61 30.1378C20.3862 30.1207 20.162 30.3301 20.162 30.632C20.162 30.9012 20.2468 31.0033 20.4698 31.0033C20.8227 31.0033 21.0727 30.4634 20.8255 30.2356C20.7592 30.1745 20.6846 30.1435 20.61 30.1378ZM22.1371 30.9322C22.08 30.9322 22.0182 30.9425 21.9529 30.9638C21.7441 31.0309 21.6778 31.6177 21.8601 31.7856C22.0135 31.927 22.1425 31.9068 22.3589 31.7074C22.7162 31.3781 22.5372 30.9273 22.1371 30.9322ZM39.7503 31.4768C39.5427 31.5138 39.3953 31.7928 39.1682 32.58C39.134 32.6996 38.7956 32.7641 38.1952 32.7654C37.689 32.7654 37.1136 32.8072 36.9166 32.8559C36.5882 32.937 36.5584 32.895 36.5584 32.3492C36.5584 32.0219 36.4836 31.7113 36.3922 31.6593C36.0803 31.4816 35.797 31.8925 35.379 33.1279C34.647 35.2914 33.8988 36.7547 33.2691 37.2547C32.9396 37.5163 32.7409 37.783 32.8047 37.878C32.9616 38.112 33.6246 38.0842 34.1786 37.8202C34.7326 37.5562 35.5577 36.1438 36.0753 34.5735L36.4174 33.5362L37.3979 33.4541C38.5403 33.3586 38.628 33.3896 38.628 33.8868C38.628 34.1076 38.8134 34.4189 39.0831 34.6511C39.7605 35.2341 39.9282 35.6808 39.3825 35.8803C39.0046 36.0184 39.0647 36.3449 39.335 36.5056C39.698 36.7214 40.1964 36.8008 40.5142 36.5939C40.8593 36.3693 40.7135 35.1292 40.4678 34.6262C40.3554 34.396 40.3976 34.374 40.7966 34.4547C41.6637 34.6303 42.1308 34.8532 42.1293 35.0915C42.1293 35.6715 41.7802 36.3138 41.4753 36.4029C41.0846 36.5172 41.1365 37.0657 41.5474 37.1386C42.4275 37.2948 43.146 36.6217 43.3344 35.4646C43.518 34.3359 42.662 33.4968 41.3269 33.4968C40.9883 33.4968 40.68 33.3567 40.3505 33.0531C39.9424 32.677 39.8781 32.5196 39.9296 32.0217C39.9776 31.5581 39.94 31.4432 39.7503 31.4768ZM30.1224 32.6225C29.9895 32.6122 29.8978 32.6744 29.8544 32.8C29.8036 32.947 29.8986 33.1615 29.9558 33.2063C30.2582 33.4427 30.6009 33.195 30.4557 32.8466C30.3988 32.71 30.2552 32.6328 30.1224 32.6225ZM23.1892 32.9303C21.6798 32.9673 18.8513 33.1528 17.8442 33.8606C17.1984 34.3145 16.5713 35.3799 16.3236 36.4444C16.1006 37.4024 16.2772 37.7864 17.1248 38.1848C17.7094 38.4596 19.845 38.8388 21.5947 38.9783C21.9887 39.0099 22.9558 39.0066 23.7438 38.9711C26.8822 38.8306 29.3771 38.2156 30.1657 37.388C30.6108 36.9209 30.6342 36.8417 30.4805 36.3268C30.1995 35.3854 29.8842 34.57 28.9778 34.0986C26.8784 33.0065 24.7775 32.8914 23.1892 32.9303ZM31.1693 33.3683C31.0965 33.3742 31.0256 33.4024 30.9659 33.4575C30.8605 33.5547 30.8297 33.7252 31.003 33.8847C31.354 34.2082 31.5741 34.0097 31.6237 33.7856C31.6789 33.5366 31.388 33.3503 31.1695 33.3683H31.1693ZM23.349 33.522C25.1101 33.5262 26.7945 33.8105 27.72 34.2925C28.3839 34.6382 28.035 34.7837 27.6979 34.9384C27.1393 35.1946 27.0265 35.2118 26.8293 35.0301C26.7042 34.9148 26.2453 34.778 25.8096 34.7261C25.3689 34.6736 24.8649 34.5041 24.6735 34.3443C24.256 33.9956 23.7959 33.9137 23.4783 34.355C23.2471 34.6764 23.5288 35.0864 23.8866 34.7947C24.1911 34.5465 24.3583 34.6657 24.3771 34.953C24.3938 35.2084 24.5973 35.2597 24.99 35.2353C26.646 35.1327 26.7255 35.3871 25.1536 35.7589C23.7027 36.1022 23.346 36.0733 23.346 35.6132C23.346 35.3061 23.2797 35.2453 22.9878 35.2839C22.7234 35.3188 22.6394 35.4175 22.6674 35.6608C22.6882 35.842 22.6525 35.9825 22.5879 35.9729C21.8624 35.8658 21.6164 35.7517 21.7347 35.5772C21.8067 35.471 21.9704 35.3698 22.0984 35.3524C22.4968 35.2986 23.2585 34.6456 23.1414 34.471C22.9887 34.2434 22.6264 34.1885 22.4067 34.4324C22.3065 34.5437 22.0053 34.6752 21.7372 34.7246C21.3858 34.7894 21.1995 34.9373 21.0692 35.2555C20.8819 35.7126 20.6474 35.7752 19.9153 35.6161C19.6082 35.5494 19.2898 35.4332 19.7469 35.3387C20.731 35.1351 21.0454 34.9004 20.3762 34.8505C20.0123 34.8234 19.464 34.8977 19.1575 35.0157C18.6682 35.2041 18.5594 35.2042 18.2667 35.0157C17.7912 34.7088 17.823 34.5378 18.61 34.2583C20.1988 33.6941 21.9087 33.5202 23.349 33.5222L23.349 33.522ZM28.9373 35.5819C28.992 35.5578 29.1586 35.8187 29.3076 36.1616C29.5657 36.7562 29.5648 36.7941 29.2877 36.9809C28.8703 37.2623 26.6439 37.8511 25.3051 38.0342C24.2094 38.184 22.855 38.2072 21.8335 38.0937C20.4971 37.9451 18.1098 37.5694 17.6436 37.4343C17.1307 37.2856 17.1181 37.2628 17.2176 36.6724C17.4134 35.5098 17.4351 35.4811 17.8483 35.8389C18.5602 36.4551 20.035 36.7558 22.7091 36.8301C25.4508 36.9062 26.5417 36.7397 28.0306 36.0172C28.4746 35.8018 28.8825 35.6059 28.9373 35.5819ZM33.004 35.7555C32.8284 35.7272 32.5442 35.8184 32.1886 36.0683C31.6625 36.4381 31.4798 36.8358 31.7299 37.0662C31.9678 37.2855 32.4149 37.1381 32.8035 36.7125C33.2877 36.1823 33.2967 35.8029 33.004 35.7555Z" fill="#FFC107"/>
</g>
<defs>
<clipPath id="clip0_30_417">
<rect width="44" height="39" fill="white"/>
</clipPath>
</defs>
</svg>
