<svg width="125" height="100" viewBox="0 0 125 100" fill="none" xmlns="http://www.w3.org/2000/svg">
<path fill-rule="evenodd" clip-rule="evenodd" d="M84.698 43.9538C85.9538 44.6154 87.2149 45.3153 88.6601 45.6475C90.1053 45.9798 91.8038 45.8782 92.9167 45.0692C97.4078 41.8047 104.64 41.2589 109.815 43.7939C114.99 46.3289 117.67 51.7306 116.078 56.4148C114.485 61.099 108.753 64.67 102.686 64.7583C99.5426 64.8041 96.6358 66.0063 93.632 66.7493C90.6283 67.4923 87.0157 67.6829 84.6666 66.0111C82.1348 64.2093 82.4238 60.4965 85.2154 58.96C80.8285 59.2229 76.4415 59.4859 72.0545 59.7488C73.0194 60.0618 74.0469 60.4156 74.6001 61.1213C75.1532 61.827 74.8996 62.9815 73.8919 63.1912C70.1391 63.9721 66.2966 62.549 62.6946 61.4003C59.0926 60.2517 54.7522 59.4081 51.5402 61.146C44.3014 65.0626 34.7382 64.4124 26.1167 63.2703C24.0483 62.9963 21.5602 62.3936 21.1302 60.752C17.1715 61.3482 13.1345 61.611 9.1074 61.5347C8.12439 61.516 6.96394 61.3922 6.50453 60.6967C5.90927 59.7956 6.97784 58.7732 8.0185 58.1851C11.1964 56.3895 15.0764 55.4015 18.9671 55.3973C20.0753 55.3961 20.8152 54.4696 21.0973 53.6123C21.3794 52.7549 21.4585 51.8009 22.1781 51.1266C19.731 50.8328 17.1386 51.4304 15.2622 52.7209C14.9139 52.9604 14.3261 52.72 14.1799 52.3717C14.0337 52.0234 14.1843 51.6445 14.3389 51.2985C15.2047 49.3613 16.2902 47.3931 18.258 46.0685C20.2257 44.744 23.3001 44.2662 25.3745 45.4822C26.0252 45.8636 27.1301 46.3533 28.6891 46.9511C30.2876 46.7578 31.4762 46.6038 32.2549 46.4893C34.613 46.1425 36.7994 45.2858 38.937 44.4169C46.3855 41.3893 54.0227 38.0185 62.3741 37.8284C70.3636 37.6464 78.0227 40.4371 84.698 43.9538ZM93.1502 49.2024L93.8995 50.7125C93.9363 50.7865 93.976 50.8639 94.0534 50.914C94.1473 50.9748 94.276 50.9829 94.3955 50.9966C95.3116 51.1022 96.0294 51.6586 96.6786 52.1863C97.5102 52.8622 98.3419 53.538 99.1735 54.2139C99.4227 54.4164 99.8367 54.1974 100.075 53.9869C100.612 53.5135 101.158 53.0279 101.467 52.4391C101.777 51.8502 101.811 51.128 101.349 50.6066C101.075 50.2968 100.657 50.0879 100.229 49.9242C99.5224 49.6539 98.7558 49.4844 97.976 49.4259C97.2156 49.369 96.4498 49.4169 95.6861 49.4123C94.835 49.4073 93.9846 49.3369 93.1502 49.2024Z" fill="white"/>
<path fill-rule="evenodd" clip-rule="evenodd" d="M21.1301 60.752C17.1714 61.3482 13.1344 61.611 9.10734 61.5346C7.94844 60.1835 20.4893 57.6941 20.944 59.3353C21.3036 60.6329 21.32 61.4768 21.1301 60.752Z" fill="#E7EAEE"/>
<path fill-rule="evenodd" clip-rule="evenodd" d="M81.8628 56.3748C82.2859 56.3386 83.967 56.009 85.7321 56.1618C86.6806 55.7722 91.2263 56.0782 93.9397 56.5035C95.6813 56.7765 100.096 56.9579 101.698 57.612C104.481 58.7475 104.545 59.4493 104.126 59.5997C102.937 60.0268 101.504 60.2373 100.734 60.2485C99.3473 60.2687 96.5578 59.2434 93.498 58.601C92.1315 58.3142 91.1273 58.0706 90.336 57.8342L90.4652 57.7889C88.7535 58.4071 86.9828 58.5056 85.2156 58.9599C80.8287 59.2229 76.4417 59.4858 72.0547 59.7488C73.0196 60.0618 58.5018 55.8331 62.6948 55.2161C62.9533 55.1781 63.2382 55.155 63.5472 55.1447C67.4738 55.013 75.2757 56.938 81.8628 56.3748Z" fill="#E7EAEE"/>
<path fill-rule="evenodd" clip-rule="evenodd" d="M42.6842 51.1547C42.7377 51.2311 42.6972 51.3329 42.6169 51.3925C42.5365 51.452 42.4261 51.4778 42.3184 51.4939C41.5253 51.613 40.6588 51.2669 40.3012 50.6882C40.2614 50.6237 40.2266 50.5529 40.2388 50.4816C40.251 50.4102 40.3258 50.3412 40.4156 50.3455C40.6465 50.5493 40.8807 50.7554 41.1682 50.9062C41.4557 51.057 41.8071 51.1489 42.1452 51.0992C42.337 51.071 42.5889 51.0185 42.6842 51.1547Z" fill="#00160A"/>
<path fill-rule="evenodd" clip-rule="evenodd" d="M43.2039 59.0489C43.2151 58.8702 43.4949 58.7956 43.7184 58.7889C44.7195 58.7592 45.6518 59.1519 46.5764 59.4603C47.5011 59.7687 48.5778 59.9963 49.4808 59.6492C49.6693 59.5767 49.8668 59.4778 50.0714 59.5128C49.7321 60.0391 48.9214 60.278 48.1822 60.2456C47.4431 60.2132 46.7505 59.9631 46.069 59.7319C45.3876 59.5007 44.6707 59.2808 43.9316 59.3138C43.78 59.3205 43.6248 59.3377 43.4787 59.3047C43.3326 59.2717 43.1963 59.1702 43.2039 59.0489Z" fill="#00160A"/>
<path fill-rule="evenodd" clip-rule="evenodd" d="M44.9567 60.5478C44.2661 60.3866 43.4587 60.4673 42.8915 60.1133C42.8222 60.0701 42.7537 60.0133 42.7511 59.943C42.7473 59.8445 42.88 59.7724 43.0032 59.7699C43.1263 59.7673 43.242 59.8123 43.3576 59.8463C43.7799 59.9704 44.2448 59.9537 44.6856 60.0256C45.347 60.1334 45.9293 60.4351 46.5523 60.6429C47.1752 60.8508 47.9223 60.9572 48.5023 60.6811C48.7363 60.5697 49.0439 60.4035 49.2379 60.5563C48.6064 61.1317 47.5373 61.3715 46.6239 61.1426C46.0423 60.9969 45.5418 60.6844 44.9567 60.5478Z" fill="#00160A"/>
<path fill-rule="evenodd" clip-rule="evenodd" d="M25.0549 54.7219C24.9439 54.6083 24.9448 54.4435 25.0157 54.3109C25.0865 54.1783 25.2166 54.0722 25.351 53.9761C25.9891 53.5201 26.8723 53.2114 27.7007 53.3828C28.3216 53.5113 28.8128 53.8836 29.2475 54.2608C29.4336 54.4223 29.6257 54.6536 29.4863 54.8429C29.3375 55.045 28.9639 55.0023 28.6809 54.9409C27.8025 54.7503 26.8714 54.638 25.9837 54.7988C25.6617 54.8571 25.2583 54.93 25.0549 54.7219Z" fill="#00160A"/>
<path fill-rule="evenodd" clip-rule="evenodd" d="M39.4425 61.5688C39.5649 61.6279 39.548 61.786 39.446 61.8662C39.344 61.9464 39.1937 61.9695 39.0527 61.9888C38.2624 62.0972 37.4721 62.2057 36.6818 62.3141C36.5168 62.3367 36.3324 62.3562 36.1948 62.2799C36.0572 62.2037 36.0532 61.9915 36.217 61.9639C37.2078 61.7965 38.2065 61.659 39.2102 61.5515C39.2889 61.5431 39.3745 61.5359 39.4425 61.5688Z" fill="#00160A"/>
<path fill-rule="evenodd" clip-rule="evenodd" d="M37.4256 54.9628C37.2518 55.0144 37.0598 54.8801 37.0363 54.733C37.0128 54.5858 37.108 54.4434 37.2181 54.3241C37.7307 53.7688 38.6443 53.4845 39.5005 53.5699C40.3568 53.6553 41.1346 54.0893 41.5844 54.6784C41.6538 54.7693 41.7181 54.8737 41.6918 54.9781C41.6633 55.0912 41.5312 55.1731 41.3913 55.2011C41.2515 55.2291 41.1043 55.213 40.9622 55.1934C40.371 55.1116 39.7945 54.97 39.2028 54.8903C38.611 54.8107 37.9882 54.7959 37.4256 54.9628Z" fill="#00160A"/>
<path fill-rule="evenodd" clip-rule="evenodd" d="M26.2511 51.1628C26.3184 51.0052 26.6032 51.0442 26.8074 51.0766C27.4439 51.1777 28.0664 50.8938 28.6185 50.6211C28.6922 50.5847 28.7903 50.6539 28.7887 50.7232C28.7871 50.7925 28.7248 50.8502 28.6638 50.8995C28.1134 51.3445 27.2902 51.649 26.5459 51.4553C26.3796 51.412 26.1946 51.2953 26.2511 51.1628Z" fill="#00160A"/>
<path fill-rule="evenodd" clip-rule="evenodd" d="M48.3584 53.8602C48.1436 53.8274 48.0323 53.619 48.0725 53.4471C48.1126 53.2752 48.2586 53.1333 48.3962 52.9975C48.9162 52.4844 49.3901 51.9388 49.7636 51.3497C50.0848 50.843 50.3309 50.3057 50.6921 49.8166C51.7254 48.4171 53.7297 47.5123 55.7614 47.5281C54.9473 47.0619 53.9848 46.7861 53.0099 46.6036C49.9942 46.0392 46.7359 46.3454 43.9659 47.4538C43.5281 47.6289 43.1011 47.8237 42.6445 47.965C42.4339 48.0302 42.201 48.084 41.9852 48.0306C41.7695 47.9772 41.6002 47.7739 41.7005 47.6121C41.7584 47.5188 41.883 47.4666 41.9997 47.4206C43.1798 46.9547 44.3648 46.4872 45.6157 46.1602C48.414 45.4286 51.5058 45.436 54.2986 46.1809C55.2357 46.4309 56.2149 46.8192 56.6207 47.5397C56.683 47.6503 56.6887 47.827 56.5388 47.845C54.9295 48.0391 53.292 48.4846 52.1812 49.4362C50.7425 50.6686 50.3941 52.5609 48.8339 53.6948C48.7011 53.7914 48.5347 53.8871 48.3584 53.8602Z" fill="#00160A"/>
<path fill-rule="evenodd" clip-rule="evenodd" d="M72.0545 59.7488C73.0194 60.0618 74.0469 60.4156 74.6001 61.1213C75.1532 61.827 74.8996 62.9815 73.8919 63.1912C70.1391 63.9721 66.2966 62.549 62.6946 61.4003C59.0926 60.2517 54.7522 59.4081 51.5402 61.146C44.3014 65.0626 34.7382 64.4124 26.1167 63.2703C24.0483 62.9963 21.5602 62.3936 21.1302 60.752C17.1715 61.3482 13.1345 61.611 9.1074 61.5347C8.12439 61.516 6.96394 61.3922 6.50453 60.6967C5.90927 59.7956 6.97784 58.7732 8.0185 58.1851C11.1964 56.3895 15.0764 55.4015 18.9671 55.3973C20.0753 55.3961 20.8152 54.4696 21.0973 53.6123C21.3794 52.7549 21.4585 51.8009 22.1781 51.1266C19.731 50.8328 17.1386 51.4304 15.2622 52.7209C14.9139 52.9604 14.3261 52.72 14.1799 52.3717C14.0337 52.0234 14.1843 51.6445 14.3389 51.2985C15.2047 49.3613 16.2902 47.3931 18.258 46.0685C20.2257 44.744 22.4036 44.2412 25.361 45.3186C26.1355 45.6007 27.2416 46.102 28.6794 46.8226C30.2684 46.7173 31.4602 46.6062 32.2549 46.4893C34.613 46.1425 36.7994 45.2858 38.937 44.4169C46.3855 41.3893 54.0227 38.0185 62.3741 37.8284C70.3636 37.6464 78.0227 40.4371 84.698 43.9538C85.9538 44.6154 87.2149 45.3153 88.6601 45.6475C90.1053 45.9798 91.8038 45.8782 92.9167 45.0692C97.4078 41.8047 104.64 41.2589 109.815 43.7939C114.99 46.3289 117.67 51.7306 116.078 56.4148C114.485 61.099 108.753 64.67 102.686 64.7583C99.5426 64.8041 96.6358 66.0063 93.632 66.7493C90.6283 67.4923 87.0157 67.6829 84.6666 66.0111C82.1348 64.2093 82.4238 60.4965 85.2154 58.96C80.8285 59.2229 76.4415 59.4859 72.0545 59.7488ZM97.4484 53.2741C95.2346 51.4927 91.9317 50.6216 88.8275 51.0005C90.3306 50.6269 91.9409 50.5327 93.4959 50.7276C89.0883 45.6356 81.9752 42.4551 74.7251 40.2822C71.2018 39.2263 67.5327 38.3583 63.7712 38.2919C58.8743 38.2054 54.1019 39.4787 49.5788 40.9824C44.6145 42.6327 39.8125 44.5767 35.0159 46.5187C36.4958 46.4582 37.9959 46.9785 38.9523 47.884C34.9347 46.5586 30.1759 46.763 26.3587 48.4248C26.377 47.8177 26.9834 47.2549 27.7314 47.151C25.5471 45.6114 22.1915 45.2377 19.5646 46.2415C16.9378 47.2454 15.1924 49.5684 15.3168 51.8952C17.5352 50.4275 20.7348 49.9736 23.4488 50.7417C21.8334 52.8981 20.9995 55.4243 21.0733 57.9376C21.9222 57.6515 22.9682 57.7861 23.6622 58.2706C22.8868 58.3373 22.1114 58.404 21.336 58.4707C21.3688 58.7538 21.4016 59.0368 21.4343 59.3199C22.2548 59.2231 23.0753 59.1264 23.8957 59.0296C23.3677 59.5155 22.6232 59.8476 21.8289 59.9515C21.7292 60.7601 22.4307 61.5231 23.311 61.9284C24.1912 62.3337 25.2249 62.4545 26.2306 62.5678C28.7372 62.8503 31.2438 63.1328 33.7504 63.4153C33.169 62.8908 33.0739 62.0463 32.6944 61.4625C32.2028 60.7062 31.493 60.3983 31.1372 59.395C31.0144 59.0489 30.7315 58.5615 31.1274 58.3414C31.2938 58.249 31.5104 58.2455 31.7129 58.2453C32.5404 58.2446 33.3678 58.2439 34.1952 58.2432C34.4626 58.243 34.7422 58.2451 34.9786 58.345C35.6947 58.6481 35.4685 59.5431 34.9337 60.0299C34.3989 60.5167 33.6341 60.9055 33.4515 61.5369C33.2638 62.1855 33.8097 62.8579 34.5346 63.1848C35.2596 63.5118 36.1221 63.5672 36.9538 63.59C38.7068 63.6379 40.4645 63.5729 42.2045 63.3958C46.5847 62.95 51.2513 61.5221 53.2843 58.3864C53.1614 59.1768 52.6451 59.9236 51.8736 60.4271C55.0649 59.4867 58.6788 59.4972 61.8615 60.4563C64.8798 61.3657 67.7436 63.1221 70.9447 62.8069C70.8075 62.7179 70.7543 62.5641 70.6171 62.4751C70.2437 62.2328 69.7863 62.0553 69.4129 61.813C70.5542 62.147 71.6955 62.481 72.8368 62.815C72.7072 62.6631 72.8368 62.5099 72.5954 62.2776C72.354 62.0453 71.8267 61.6309 71.516 61.2667C72.3803 61.4679 73.1378 61.9478 73.5808 62.5747C73.9501 62.5024 74.3195 62.4301 74.6889 62.3578C72.8136 60.3328 70.2211 58.7378 67.2933 57.8077C65.8728 57.3565 64.1118 56.8164 63.9342 55.6019C67.127 58.0687 71.7024 59.1209 76.1401 59.1961C80.5778 59.2712 84.9564 58.4646 89.2804 57.6627C88.2905 57.2624 87.3979 56.7087 86.6669 56.0414C91.5234 58.2182 96.9572 59.5661 102.501 59.9693C102.187 59.5429 101.872 59.1165 101.558 58.6901C102.246 58.7057 102.888 59.123 103.049 59.6582C103.394 59.5496 103.738 59.4409 104.083 59.3323C103.604 58.9561 103.124 58.5798 102.644 58.2036C103.416 58.0548 104.282 58.5309 104.385 59.1605C104.707 59.0262 104.974 58.8068 105.132 58.5448C104.559 58.1974 103.985 57.85 103.412 57.5026C104.281 57.4885 105.154 57.7212 105.839 58.1499C105.028 56.5738 102.286 56.5362 100.465 55.6523C99.2534 55.0644 98.4474 54.078 97.4484 53.2741ZM93.3248 48.7455C94.4083 48.9557 95.5429 48.7929 96.6577 48.7956C97.8128 48.7983 98.9633 48.9816 100.046 49.3045C100.714 49.5038 101.381 49.7715 101.816 50.2238C102.504 50.9409 102.444 51.981 101.964 52.7995C101.484 53.618 100.652 54.265 99.8389 54.8926C101.547 55.5021 103.255 56.1117 104.963 56.7212C105.445 56.8935 105.967 57.0956 106.188 57.4797C106.569 58.1439 105.829 58.8726 105.068 59.2774C102.694 60.5404 99.4663 60.6953 96.9211 59.6684C95.2882 59.0096 93.4779 58.6953 91.6901 58.3873C90.7141 58.2191 89.6973 58.0511 88.7277 58.2413C88.0394 58.3764 87.3907 58.6894 86.6824 58.6702C86.0496 58.653 85.5576 59.0901 85.1868 59.5007C83.9667 60.8517 82.9607 62.5781 83.6751 64.1438C84.1663 65.2203 85.4111 65.9959 86.7677 66.3638C88.1244 66.7318 89.5905 66.7423 91.0201 66.6694C92.8094 66.5783 94.6322 66.3512 96.2034 65.6603C97.2265 65.2105 98.1422 64.5658 99.2738 64.3364C100.632 64.061 102.062 64.4305 103.459 64.3489C104.572 64.2839 105.624 63.9355 106.643 63.5718C109.131 62.6835 111.62 61.6347 113.384 59.9741C116.016 57.4978 116.642 53.8691 115.385 50.7783C114.127 47.6875 111.156 45.1463 107.599 43.5746C106.622 43.1424 105.592 42.7753 104.508 42.5596C101.906 42.0419 99.0574 42.4496 96.7832 43.5863C95.6123 44.1715 94.595 44.9341 93.4477 45.5485C92.3004 46.163 90.9518 46.6362 89.5777 46.5289C90.6367 47.4651 91.7909 48.4481 93.3248 48.7455ZM11.4162 57.211C9.82221 57.7082 8.22722 58.3679 7.21696 59.4725C7.68179 59.2676 8.26546 59.2448 8.75298 59.4126C8.39759 59.5531 8.04221 59.6936 7.68682 59.8341C7.48773 59.9128 7.28193 59.9957 7.14366 60.1347C7.00539 60.2737 6.95538 60.486 7.08925 60.6277C7.22312 60.7694 7.56168 60.7564 7.62644 60.5865C7.86404 59.963 8.78157 59.5645 9.5646 59.7446C8.97649 60.0126 8.33431 60.3356 8.17158 60.8612C8.25952 61.0979 8.69292 61.1369 8.94764 60.9973C9.20237 60.8576 9.32949 60.6157 9.47598 60.3983C9.62248 60.1808 9.83524 59.9582 10.1408 59.9224C10.2052 59.9149 10.2789 59.9188 10.3237 59.9567C10.4018 60.0227 10.3373 60.1307 10.2639 60.2C10.0975 60.3571 9.88516 60.4946 9.80336 60.6899C9.72156 60.8851 9.86774 61.158 10.1246 61.1455C13.7317 60.9692 17.332 60.7039 20.9187 60.3502C21.0483 60.1256 20.6545 59.9432 20.3481 59.91C19.5705 59.8256 18.7705 59.8754 18.0185 60.055C18.1574 59.6852 18.6242 59.4431 19.0989 59.3738C19.5737 59.3044 20.0609 59.3757 20.5353 59.4469C20.539 59.1804 20.4768 58.9134 20.3534 58.6659C19.5992 58.6532 18.8516 58.4517 18.2417 58.0966C18.7515 57.944 19.3438 57.9788 19.8203 58.1893C20.0478 58.2898 20.2174 57.9956 20.2211 57.7877C20.2334 57.112 20.2456 56.4363 20.2578 55.7605C17.2364 55.8398 14.2327 56.3326 11.4162 57.211ZM94.3955 50.9966C95.3116 51.1022 96.0294 51.6586 96.6786 52.1863C97.5102 52.8622 98.3419 53.538 99.1735 54.2139C99.4227 54.4164 99.8367 54.1974 100.075 53.9869C100.612 53.5135 101.158 53.0279 101.467 52.4391C101.777 51.8502 101.811 51.128 101.349 50.6066C101.075 50.2968 100.657 50.0879 100.229 49.9242C99.5224 49.6539 98.7558 49.4844 97.976 49.4259C97.2156 49.369 96.4498 49.4169 95.6861 49.4123C94.835 49.4073 93.9846 49.3369 93.1502 49.2024C93.4 49.7058 93.6498 50.2092 93.8995 50.7125C93.9363 50.7865 93.976 50.8639 94.0534 50.914C94.1473 50.9748 94.276 50.9829 94.3955 50.9966Z" fill="#00160A"/>
</svg>
