<svg width="125" height="100" viewBox="0 0 125 100" fill="none" xmlns="http://www.w3.org/2000/svg">
<path d="M31.3545 72.1614C30.9995 71.2686 26.4828 72.6613 24.8916 72.846C24.4665 72.8953 26.4195 33.7502 28.0106 24.6813C28.1175 24.0722 28.6621 23.2605 29.3523 23.5357C30.3286 23.9249 31.4729 23.9002 32.5639 23.8691C52.295 23.3059 72.0584 23.4652 91.7712 24.3463C92.4375 24.3761 93.1596 24.4244 93.656 24.7799C94.1297 25.119 94.2785 25.6535 94.3979 26.1519C96.6731 35.6505 96.9718 65.3889 96.0882 75.0333C95.4177 75.0291 90.9033 74.368 90.9033 74.368C90.9033 74.368 32.5639 70.7221 31.3545 72.1614Z" fill="#FFC107"/>
<path fill-rule="evenodd" clip-rule="evenodd" d="M57.99 54.6202C57.1673 61.7391 56.2623 68.8521 55.2753 75.9578C55.2489 76.1481 55.154 76.3915 54.9137 76.3939C41.3809 76.529 27.8442 76.4202 14.3176 76.0676C14.1742 76.0638 14.0178 76.056 13.9116 75.9792C13.7737 75.8795 13.7779 75.7089 13.7928 75.561C14.5316 68.1876 15.2705 60.8142 16.0094 53.4408C16.1692 53.2869 16.4528 53.2705 16.7035 53.2661C30.0346 53.0333 43.376 52.8006 56.6995 53.2288C57.0129 53.2388 57.3466 53.2547 57.6002 53.4017C58.0463 53.6604 58.0406 54.1824 57.99 54.6202Z" fill="#E7EAEE"/>
<path fill-rule="evenodd" clip-rule="evenodd" d="M86.7539 31.385C86.9648 31.5145 87.0463 31.7343 87.1147 31.9395C89.3734 38.7164 90.436 45.7458 90.2613 52.7564C90.241 53.5714 90.259 54.4962 91.0125 55.0474C91.5351 47.3257 90.4695 39.5371 87.871 32.0866C87.6277 31.3891 88.2956 30.7176 88.9153 30.1882L93.2663 26.4708C95.3109 32.9312 95.9026 39.6014 95.8962 46.2812C95.5255 46.809 95.1618 47.34 94.8715 47.8917C94.1965 49.1747 93.9226 50.571 93.7962 51.9596C93.3191 57.2028 94.8736 62.4464 97.1452 67.3786C97.2628 67.634 97.3941 67.9021 97.6616 68.07C97.9228 68.2341 98.2696 68.2747 98.5992 68.3061C101.824 68.6139 105.097 68.5944 108.316 68.2482C108.598 68.2178 108.898 68.1786 109.11 68.0267C109.301 67.8902 109.388 67.6858 109.465 67.4902C111.067 63.3972 111.323 59.0553 111.544 54.7695C111.677 52.1909 111.729 49.4017 109.871 47.2931C109.547 46.9259 109.173 46.5897 108.799 46.2536L108.799 46.2535C108.362 45.8612 107.926 45.4691 107.571 45.0283C106.839 44.1206 106.484 43.0222 106.573 41.9443C106.652 40.9855 105.242 40.4279 104.06 40.2639C104.002 40.2559 103.943 40.2481 103.885 40.2407C103.906 39.9368 103.927 39.7245 103.948 39.7194C104.953 39.4758 105.919 39.131 106.815 38.6949C107.306 38.4563 107.839 38.0159 107.574 37.6092C107.358 37.2771 106.772 37.2603 106.313 37.3387C105.575 37.465 104.872 37.7198 104.267 38.0803C104.59 36.9263 105.287 35.8402 106.272 34.9563C105.87 35.4592 106.423 36.2211 107.17 36.2569C107.917 36.2927 108.569 35.6842 108.499 35.0902C108.798 35.5762 109.63 35.7975 110.235 35.5522C110.841 35.3069 111.107 34.6406 110.792 34.161C111.273 34.5369 112.171 34.4828 112.57 34.0493C112.968 33.6158 112.755 32.9106 112.149 32.6757C112.553 32.7071 112.977 32.7365 113.352 32.6131C113.728 32.4897 114.031 32.16 113.918 31.8488C113.848 31.6574 113.643 31.5183 113.438 31.4051C112.791 31.0493 112.025 30.8325 111.241 30.7834C111.476 30.6047 111.754 30.4711 112.033 30.3374C112.272 30.2227 112.512 30.1078 112.724 29.9642C113.182 29.6532 113.493 29.0908 113.148 28.6972C112.9 28.4137 112.396 28.3364 111.975 28.4223C111.555 28.5083 111.199 28.724 110.855 28.9346L111.333 27.6075C111.445 27.2964 111.543 26.9262 111.283 26.6777C110.918 26.329 110.174 26.5356 109.813 26.8867C109.669 27.0269 109.552 27.185 109.435 27.3426C109.259 27.5797 109.084 27.8156 108.819 27.9879C108.803 27.6123 108.783 27.2207 108.556 26.8914C108.329 26.562 107.827 26.3202 107.383 26.4461C107.059 26.538 106.854 26.7918 106.708 27.0405C106.251 27.8193 106.126 28.7193 106.358 29.559C105.78 29.1936 105.005 28.9923 104.288 29.1316C103.571 29.2709 102.963 29.8008 102.982 30.3892C103 30.9776 103.762 31.5089 104.475 31.3581C103.964 31.4799 103.434 31.6098 103.038 31.8958C102.643 32.1817 102.426 32.6721 102.684 33.0446C103.022 33.5321 103.893 33.5395 104.575 33.4199C105.44 33.2683 106.276 33.0168 107.051 32.6755L105.792 34.4081C104.851 35.7036 103.63 37.7609 103.282 40.1773C102.222 40.0901 101.143 40.1361 100.159 40.4477C98.9325 40.8362 97.8832 41.7021 97.7202 42.7505C97.602 43.5109 97.2602 44.2155 96.8348 44.9007C96.6714 38.7001 95.857 32.5104 94.3978 26.4184C94.2784 25.9199 94.1296 25.3855 93.6559 25.0463C93.1595 24.6909 92.4374 24.6426 91.771 24.6128C72.0583 23.7317 52.2948 23.5724 32.5638 24.1356C31.4728 24.1667 30.3285 24.1914 29.3521 23.8021C28.662 23.527 28.1174 24.3387 28.0105 24.9478C26.4194 34.0167 25.3781 43.1468 24.8915 52.2957C24.8752 52.6027 25.0949 53.0478 25.443 52.9156C26.0131 43.4875 27.1815 34.0823 28.9422 24.7481L32.2666 28.4976C32.5038 28.7652 32.7519 29.0616 32.7245 29.3886L31.0986 48.7727C30.9992 49.9568 30.9045 51.1738 31.3544 52.3052C32.3919 44.9823 33.0724 37.6273 33.3938 30.2623C33.4166 29.7418 34.2664 29.5648 34.9191 29.5395C51.9845 28.8767 69.0687 30.0565 86.0902 31.2351C86.3226 31.2512 86.5691 31.2715 86.7539 31.385ZM103.243 40.481C101.971 40.3722 100.64 40.7132 99.4775 41.1851C99.0436 41.3612 98.5602 41.641 98.6008 42.0292C98.6424 42.4277 99.2037 42.6371 99.6878 42.7354C101.454 43.0941 103.344 43.0537 105.085 42.62C105.52 42.5117 106.01 42.3187 106.079 41.9581C106.159 41.5446 105.638 41.2321 105.179 41.0314C104.847 40.8859 104.51 40.7439 104.153 40.6436C104.057 40.6167 103.961 40.5931 103.864 40.5725C103.854 40.7329 103.845 40.9043 103.835 41.0758C103.797 41.7521 103.759 42.4293 103.721 42.4379C103.564 42.4734 103.405 42.5065 103.247 42.537C103.162 41.8319 103.169 41.1439 103.243 40.481ZM94.8614 48.9004C95.1088 48.2544 95.4816 47.6468 95.8929 47.0519C95.8751 49.3812 95.7885 51.7108 95.6694 54.0321C95.642 54.566 95.8266 55.2935 96.4971 55.2977C96.7892 52.1096 96.9074 48.9115 96.8526 45.7152C97.4485 44.877 97.9897 44.0248 98.2278 43.0849C100.757 43.7311 103.576 43.6159 106.01 42.767C106.25 43.746 106.734 44.6863 107.425 45.5164C107.773 45.9338 108.172 46.3243 108.571 46.7141L108.571 46.7142C109.203 47.3314 109.833 47.9473 110.253 48.6667C110.88 49.7387 110.988 50.9527 111.04 52.1354C111.259 57.0661 110.672 62.0193 109.298 66.8288C109.178 67.2505 108.943 67.7547 108.407 67.8124C105.254 68.1525 102.051 68.1969 98.885 67.9444C98.5604 67.9185 98.213 67.8816 97.9708 67.7066C97.7485 67.5459 97.6602 67.301 97.5819 67.0695C95.8513 61.9564 94.106 56.7433 94.396 51.4507C94.4432 50.59 94.546 49.724 94.8614 48.9004ZM67.6379 24.3993L92.8779 25.3825C91.304 26.9864 89.6586 28.5457 87.9457 30.0565C87.3041 30.6225 86.2069 30.6168 85.252 30.5664C82.3327 30.4124 79.4122 30.2441 76.4908 30.0756L76.4907 30.0756L76.4906 30.0756L76.4904 30.0756L76.4903 30.0756L76.4902 30.0756L76.49 30.0756L76.4899 30.0756L76.4897 30.0756L76.4896 30.0756L76.4895 30.0756L76.4893 30.0756L76.4892 30.0755L76.4891 30.0755L76.4889 30.0755L76.4888 30.0755C62.3595 29.261 48.2107 28.4453 34.0971 29.2511C33.7686 29.2698 33.5308 29.0154 33.3606 28.7907L30.1128 24.5033C40.2496 24.8252 50.4055 24.7637 60.5349 24.3188C62.9004 24.215 65.2717 24.3071 67.6379 24.3993ZM59.6138 32.7497C60.0327 32.6084 60.4681 32.4635 60.9227 32.4763C61.293 32.4867 61.6446 32.6013 61.9873 32.7136C68.0235 34.6901 74.1822 36.4286 80.4336 37.9206C81.3783 38.1461 81.6386 39.0951 81.736 39.8772L83.6548 55.2856C84.067 55.2497 84.1408 54.8003 84.101 54.4714L82.1778 38.6037C82.49 38.5661 82.7935 38.6716 83.0863 38.7733C83.1203 38.7851 83.1541 38.7969 83.1877 38.8084C83.5117 38.9188 83.8953 39.0043 84.2049 38.8703C84.5146 38.7362 84.5668 38.2902 84.2288 38.2108C76.6949 36.4408 69.2376 34.4635 61.8748 32.2836C61.5635 32.1914 61.2438 32.0976 60.9116 32.099C60.598 32.1003 60.2958 32.1865 60.0009 32.2716L36.9552 38.9216C36.8518 39.268 37.539 39.3963 37.9462 39.2497C38.0082 39.2274 38.0717 39.2028 38.1362 39.1778C38.4952 39.0388 38.8834 38.8885 39.197 39.0577C38.6846 43.126 38.2544 47.2009 37.9068 51.2802C37.874 51.6655 38.0212 52.2047 38.5043 52.1757L39.7204 39.3984C39.7551 39.0342 39.8635 38.5908 40.2996 38.4786C46.839 36.7962 53.2854 34.8841 59.6138 32.7497ZM73.8906 71.2271C74.2222 71.2226 74.639 71.1683 74.7259 70.9132C74.5849 70.699 74.2217 70.6702 73.9183 70.6688L60.262 70.6038C59.0293 70.5979 57.7738 70.5946 56.5962 70.8851C56.6773 71.1057 57.0366 71.1531 57.3249 71.1593C62.8453 71.2783 68.369 71.3009 73.8906 71.2271ZM59.6407 72.9159C58.559 72.9055 57.4614 72.8934 56.4231 72.6516C62.1567 72.4947 67.8963 72.4793 73.6311 72.6055C74.1187 72.6162 74.6432 72.6381 75.027 72.878C74.949 73.036 74.6853 73.0595 74.4722 73.0574L59.6407 72.9159ZM73.606 66.5543C68.4462 66.7133 63.2725 66.5835 58.1355 66.1663C57.7855 66.1379 57.31 66.18 57.2581 66.4573C62.8323 66.9902 68.4584 67.178 74.0689 67.0184C74.1447 66.7966 73.8941 66.5455 73.606 66.5543ZM69.5681 50.8604C69.8057 51.0265 69.8529 51.3021 69.8846 51.5527L71.033 60.6211C72.0805 60.5925 73.1341 60.7104 74.1312 60.9678L71.1258 61.3916C71.8329 62.2557 72.3811 63.2023 72.7476 64.1917C68.2949 64.1606 63.8433 64.0259 59.4004 63.7877C59.1417 63.7738 58.8495 63.7458 58.6945 63.5801C58.5046 63.3772 58.6263 63.0909 58.7541 62.8591L59.608 61.3104C59.7439 61.0638 59.2614 60.8922 58.9295 60.9429L58.8724 60.9519L58.8316 60.9584C58.5189 61.0089 58.159 61.067 57.9811 60.8691C57.705 60.5621 58.3345 60.2222 58.8055 60.2636C58.8961 60.2716 58.99 60.2834 59.085 60.2954C59.484 60.3456 59.9011 60.3982 60.1622 60.1751C60.3231 57.0659 60.685 53.9632 61.2459 50.8836C61.2682 50.7611 61.2992 50.6265 61.4208 50.5496C61.5309 50.4799 61.6838 50.4781 61.8244 50.4795C64.1463 50.5036 66.4674 50.5708 68.7853 50.6812C69.0616 50.6943 69.3599 50.715 69.5681 50.8604ZM68.7244 51.1452C66.6061 50.9922 64.483 50.8814 62.3578 50.813C62.1752 50.8071 61.9749 50.806 61.8328 50.8975C61.6802 50.9958 61.6459 51.1673 61.6229 51.3226C61.1957 54.2027 60.9252 57.0976 60.8123 59.9964C60.8081 60.1042 60.8116 60.2269 60.9121 60.2991C60.9891 60.3544 61.1007 60.363 61.2041 60.3687C64.0819 60.5293 66.9653 60.6267 69.8498 60.6609C69.9812 60.6625 70.128 60.6592 70.2211 60.5852C70.3221 60.5049 70.3174 60.3756 70.3059 60.2622L69.4329 51.6524C69.4218 51.5424 69.4081 51.4265 69.3282 51.3363C69.1991 51.1905 68.9474 51.1613 68.7244 51.1452ZM70.8328 61.7956C70.7593 61.6911 70.6785 61.5833 70.5501 61.5212C70.4244 61.4604 70.2708 61.452 70.124 61.4452L61.2815 61.0373C61.0087 61.0247 60.7129 61.017 60.4884 61.1412C60.3072 61.2416 60.2078 61.4095 60.1164 61.5696L59.3296 62.9486C59.2832 63.0299 59.2376 63.1279 59.2965 63.2039C59.3549 63.2793 59.484 63.2912 59.5951 63.2952L71.8995 63.733C71.6238 63.0617 71.266 62.4118 70.8328 61.7956ZM56.0047 39.2139C56.1613 39.6741 56.4865 40.0914 56.8955 40.4393C58.2278 41.5727 60.5097 41.9083 62.2667 41.2368C64.0237 40.5652 65.1229 38.9437 64.876 37.4032C64.629 35.8628 63.0614 34.5166 61.1546 34.1967C60.0512 34.0116 58.8727 34.3211 58.0046 34.8947C57.1365 35.4682 56.5555 36.2806 56.2004 37.1335C55.9217 37.8032 55.773 38.5329 56.0047 39.2139ZM63.8803 37.6238C62.9421 37.6893 61.9983 37.7045 61.0575 37.6691C60.9787 37.6662 60.8945 37.6613 60.832 37.6229C60.7374 37.5648 60.7293 37.4554 60.7295 37.3601L60.7328 35.4068C60.733 35.2801 60.7384 35.1416 60.842 35.0455C61.046 34.856 61.4344 34.9721 61.6899 35.1164C62.7536 35.7172 63.5425 36.6203 63.8803 37.6238ZM57.5933 37.8048C57.5226 37.8094 57.4477 37.8134 57.3845 37.7878C57.2197 37.721 57.2561 37.5269 57.3245 37.39C57.86 36.3181 58.8658 35.3998 60.126 34.8321L60.1347 37.4469C60.1349 37.5043 60.1319 37.5681 60.081 37.6087C60.0356 37.6449 59.9657 37.6511 59.9016 37.6553L57.5933 37.8048ZM57.2958 39.0563C57.1317 38.8464 57.0384 38.5089 57.3189 38.403C57.4116 38.3679 57.5193 38.3736 57.6216 38.3801L59.6974 38.511C59.8957 38.5235 60.1235 38.5497 60.2284 38.6844C60.2839 38.7558 60.2916 38.8436 60.2978 38.9274L60.4012 40.3233C60.4072 40.4052 60.4083 40.498 60.3351 40.5556C60.2526 40.6204 60.1182 40.6083 60.0053 40.5882C58.8959 40.3901 57.897 39.8254 57.2958 39.0563ZM60.8572 40.3395L60.7896 38.9278C60.7848 38.827 60.7871 38.7119 60.8815 38.6448C60.9663 38.5845 61.0929 38.5867 61.2063 38.5922L63.6943 38.7146C63.1511 39.4206 62.3794 40.0138 61.4745 40.4208C61.2549 40.5195 60.8668 40.5403 60.8572 40.3395ZM46.0774 36.0948C45.6389 35.874 45.6606 35.3676 45.7346 34.9584L46.033 33.3084C46.0849 33.0212 46.2951 32.6437 46.6462 32.7207C46.9467 32.7866 46.9644 33.1172 46.918 33.3628L46.5449 35.3384C46.4903 35.6273 46.4009 35.9574 46.0774 36.0948ZM36.4982 61.1344C36.5446 60.9719 36.6311 60.8009 36.8137 60.7198C37.0934 60.5955 37.4637 60.7568 37.6028 60.9867C37.7419 61.2167 37.7148 61.4856 37.6847 61.7397C37.6608 61.9409 37.6329 62.1513 37.4919 62.3193C37.3509 62.4872 37.0575 62.5924 36.8358 62.4944C36.6926 62.4312 36.6157 62.3034 36.5637 62.1798C36.4228 61.8448 36.3998 61.4789 36.4982 61.1344ZM42.546 30.3164C42.0354 30.5248 42.0009 31.086 42.0365 31.5423C42.0575 31.811 42.1175 32.1289 42.4211 32.2469C42.5383 32.2925 42.6727 32.2981 42.803 32.3027C44.1771 32.3506 45.553 32.3659 46.9282 32.3485C47.1198 32.3461 47.3229 32.3403 47.4831 32.2564C47.7412 32.1213 47.7918 31.8417 47.8179 31.5964C47.8455 31.3384 47.8719 31.0719 47.7697 30.8261C47.6675 30.5803 47.4019 30.3583 47.0771 30.3487L43.288 30.2374C43.0358 30.2299 42.7707 30.2247 42.546 30.3164ZM42.8848 31.8921C42.7808 31.8439 42.7523 31.7367 42.734 31.642C42.675 31.3363 42.6671 30.9456 43.0143 30.8075C43.1517 30.7529 43.3125 30.756 43.466 30.7604L45.908 30.8303C46.2353 30.8396 46.5803 30.8532 46.8563 30.9938C47.1322 31.1344 47.2966 31.4494 47.1125 31.6653C46.9466 31.8596 46.6045 31.882 46.3096 31.8853L43.0977 31.9205C43.0248 31.9213 42.9478 31.9213 42.8848 31.8921ZM25.7817 60.3916C26.3184 61.1042 25.9169 62.0105 25.5437 62.7866C24.8808 64.1649 24.3454 65.739 25.119 67.0802C25.2943 67.3843 25.5164 67.7807 25.213 68.0121C24.2159 67.2644 23.9784 66.0541 24.1806 64.9749C24.3178 64.2429 24.6249 63.5429 24.9322 62.8424C25.0779 62.5102 25.2237 62.1779 25.3514 61.842C25.466 61.5406 25.5667 61.2195 25.47 60.9142C25.3449 60.5195 24.9109 60.231 24.4477 60.0595C23.6009 59.7461 22.4993 59.7728 21.831 60.2924C21.1627 60.812 21.208 61.8555 22.035 62.2009C22.3948 62.3512 22.8816 62.3388 23.1664 62.1079C23.4511 61.8769 23.4111 61.4229 23.0458 61.2811C23.5344 61.1863 24.029 61.5155 24.1672 61.9008C24.3054 62.2861 24.1764 62.6986 24.0104 63.0768C23.8686 63.3998 23.699 63.7172 23.5296 64.0344C23.1604 64.7257 22.7919 65.4157 22.7128 66.1587C22.6102 67.1228 23.0068 68.0646 23.3953 68.9871L23.3955 68.9876L23.3961 68.989C23.4358 69.0835 23.4755 69.1777 23.5146 69.2718C23.6077 69.4961 23.6835 69.7748 23.4748 69.9427C22.3135 68.9307 21.9943 67.4439 22.2339 66.0858C22.4734 64.7277 23.2042 63.4604 23.9265 62.2157C23.7317 62.2288 23.5628 62.3116 23.3936 62.3945C23.3231 62.4291 23.2525 62.4636 23.1799 62.4932C22.3052 62.85 21.1216 62.3584 20.8562 61.6044C20.5908 60.8503 21.1557 60.0046 22.0294 59.6461C22.903 59.2875 23.9947 59.3714 24.8609 59.7413C25.2268 59.8976 25.568 60.1079 25.7817 60.3916ZM44.0138 32.7115C43.9442 32.5558 43.7643 32.4187 43.557 32.4252C43.1952 32.4365 43.0712 32.8102 43.0495 33.0983L42.8342 35.9483C42.8208 36.1262 42.8147 36.3232 42.9578 36.4602C43.1008 36.5972 43.449 36.5857 43.4902 36.4106C43.7396 35.349 43.9259 34.2781 44.0482 33.2026C44.067 33.0379 44.0833 32.8672 44.0138 32.7115ZM29.3566 70.4379C28.8122 70.4956 28.4552 70.9872 28.539 71.4197C28.6228 71.8522 29.0472 72.2033 29.535 72.4043C29.6625 72.4568 29.605 72.6313 29.4702 72.6709C29.3355 72.7106 29.1867 72.6594 29.0642 72.5997C28.5334 72.3408 28.1551 71.8917 28.0556 71.4021C27.9931 71.0945 28.0487 70.7531 28.3103 70.5215C28.5718 70.29 29.0734 70.2231 29.3566 70.4379ZM43.1229 63.8116C42.9563 64.2356 42.7896 64.6598 42.6666 65.0926C42.0804 67.1548 42.5086 69.3141 43.1627 71.3633C43.3327 71.8958 42.5892 72.4197 41.9087 72.3314C41.2281 72.243 40.7431 71.7021 40.6765 71.1551C40.6692 71.0949 40.6657 71.0336 40.6622 70.9724C40.6523 70.7981 40.6424 70.6236 40.5436 70.4705C40.4099 70.2635 40.0154 70.1439 39.8268 70.3216C40.2423 70.9359 40.5501 71.8698 39.7711 72.1886C39.0254 72.4937 38.2316 71.7889 38.0404 71.1385C37.9209 70.7322 37.5335 70.1627 37.1039 70.4012C37.2677 70.6304 37.394 70.8778 37.5199 71.1246L37.5199 71.1247C37.7287 71.534 37.9364 71.9413 38.3131 72.2594C38.9168 72.7695 40.2513 72.7959 40.4643 72.1156C40.9231 72.4167 41.4528 72.6747 42.0421 72.7364C42.6314 72.7982 43.2869 72.6262 43.603 72.225C43.9973 71.7244 43.7655 71.0817 43.5588 70.5087L43.5386 70.4526C42.9029 68.6849 42.8338 66.7898 43.3398 64.9957C43.4489 64.6089 43.5842 64.2264 43.7195 63.8441L43.7195 63.844C43.9531 63.1838 44.1864 62.5242 44.2841 61.8439C44.467 60.5703 44.1537 59.2542 43.3982 58.1224C43.1918 57.8132 42.5769 57.8696 42.2635 58.1152C42.0634 58.272 41.9379 58.4733 41.8119 58.6752L41.8118 58.6753C41.7406 58.7895 41.6692 58.9039 41.5841 59.0107C41.3485 59.3063 40.8959 59.561 40.4908 59.4252C39.815 59.1987 39.072 59.242 38.3291 59.2853C38.0475 59.3017 37.7659 59.3181 37.4879 59.3199C36.4768 59.3261 35.2729 58.9764 35.0963 58.1829C35.0201 57.8401 34.4067 57.7309 34.0383 57.9179C33.6699 58.105 33.5039 58.4608 33.3877 58.7964C32.8465 60.359 32.8691 62.0429 33.4522 63.596C33.6379 64.0906 32.8039 64.3957 32.1733 64.5139C27.8024 65.3335 24.1705 68.2678 23.2019 71.7624C23.1391 71.989 23.2787 72.3481 23.5397 72.2452C24.435 68.5725 28.3773 65.4981 33.0038 64.8647C33.5861 64.7849 33.9539 64.2907 33.999 63.8212C34.0344 63.4521 33.9229 63.0888 33.8117 62.7268C33.7815 62.6284 33.7514 62.5302 33.7242 62.4319C33.3455 61.0634 33.5553 59.5959 34.3103 58.3303C35.0549 58.6347 35.5839 59.2512 35.6699 59.9145C37.3034 59.6439 39.0099 59.6568 40.6366 59.9522C41.212 60.0567 41.5416 59.6285 41.8851 59.1824C42.2002 58.7732 42.527 58.3488 43.0657 58.3067C43.749 59.5268 43.9581 60.9125 43.6572 62.2269C43.5338 62.7656 43.3284 63.2885 43.1229 63.8116ZM40.9935 64.5406L40.1155 64.2088C39.8749 64.1179 39.6266 64.0223 39.455 63.8601C40.3448 63.8256 41.2471 64.0672 41.9303 64.5229C41.7403 64.7498 41.3028 64.6574 40.9935 64.5406ZM35.1562 72.6029C35.1088 72.0686 35.0276 71.5363 34.913 71.0085C34.8672 70.7979 34.8057 70.5724 34.6073 70.4286C34.4088 70.2848 34.0288 70.2888 33.9231 70.4853C34.3964 70.6567 34.551 71.131 34.5681 71.5451C34.5713 71.621 34.5721 71.6979 34.5728 71.775C34.5762 72.1188 34.5797 72.468 34.7951 72.7596C34.8375 72.8171 34.9008 72.8766 34.9845 72.8761C35.1286 72.8752 35.1664 72.7175 35.1562 72.6029ZM37.762 63.0802C37.2412 63.3509 36.6226 63.5004 36.001 63.5059C35.8004 63.5077 35.5659 63.4787 35.4688 63.3388C36.1554 63.0261 36.9935 62.9316 37.762 63.0802ZM39.939 61.3659C39.8657 61.6219 39.9014 61.8969 40.0391 62.1355C40.1405 62.3112 40.3874 62.4853 40.5999 62.392C40.6923 62.3515 40.7445 62.2712 40.7852 62.1937C40.9224 61.9322 40.9901 61.6477 40.9823 61.3644C40.978 61.2067 40.9381 61.0316 40.779 60.9379C40.4613 60.7507 40.027 61.0589 39.939 61.3659ZM77.816 41.6493C78.0338 41.8045 78.0648 42.0627 78.0811 42.2952L78.4463 47.5109C78.471 47.8646 78.3562 48.3482 77.9117 48.3555L68.1705 48.5142C68.0167 48.5167 67.8495 48.5158 67.7281 48.4406C67.5806 48.3493 67.5536 48.1832 67.5381 48.0348L66.9838 42.7355C66.9494 42.4066 67.0238 41.9619 67.4345 41.9196C70.6279 41.5912 73.8512 41.4488 77.0705 41.4938C77.3332 41.4975 77.6202 41.5097 77.816 41.6493ZM73.0674 42.8115C73.0904 42.6827 73.1062 42.5344 72.9946 42.4394C72.8881 42.3489 72.7118 42.3468 72.5562 42.3511L68.2022 42.4722C68.1109 42.4748 68.0106 42.4802 67.9448 42.5307C67.8621 42.5942 67.8693 42.6996 67.8826 42.7905L68.1301 44.484C68.1726 44.7747 68.3767 45.1608 68.7313 45.0844C69.9306 44.826 71.1865 44.7354 72.4245 44.8181C72.6436 44.8328 72.7466 44.61 72.7775 44.4365L73.0674 42.8115ZM72.5961 47.2709L72.7033 45.8088C72.7109 45.7049 72.7129 45.5881 72.623 45.5126C72.5436 45.446 72.418 45.4339 72.3031 45.4268C71.0569 45.3505 69.7978 45.4089 68.5711 45.6C68.4959 45.6117 68.4169 45.6254 68.3602 45.6666C68.2654 45.7354 68.267 45.8526 68.2757 45.9546L68.4049 47.46C68.4182 47.6154 68.4509 47.7965 68.6216 47.8724C68.7317 47.9214 68.8668 47.9096 68.9918 47.8964L72.3139 47.5449C72.3768 47.5383 72.4429 47.5306 72.4934 47.4999C72.577 47.4491 72.59 47.3546 72.5961 47.2709ZM73.5792 42.6416L73.4424 44.415C73.4364 44.4937 73.4338 44.5812 73.4982 44.6411C73.5782 44.7154 73.7211 44.7124 73.8434 44.7031L77.0002 44.4645C77.085 44.458 77.1764 44.4494 77.239 44.4033C77.3125 44.3491 77.3231 44.261 77.3289 44.1812L77.4536 42.4803C77.4585 42.4145 77.4602 42.3412 77.4055 42.2918C77.3424 42.2348 77.233 42.2345 77.1378 42.2387L73.936 42.3776C73.8303 42.3822 73.7119 42.3916 73.644 42.4563C73.5915 42.5064 73.5842 42.5764 73.5792 42.6416ZM77.2809 47.2693C77.4567 47.1337 77.4546 46.9124 77.4403 46.7177L77.3586 45.6096C77.3448 45.4231 77.2507 45.176 77.0169 45.19L73.8405 45.3793C73.7215 45.3864 73.5875 45.3997 73.5157 45.4757C73.4616 45.5329 73.4589 45.6101 73.4585 45.6818L73.4497 47.1449C73.4492 47.2329 73.4531 47.3305 73.5292 47.3944C73.6025 47.456 73.7193 47.4661 73.8257 47.4717C74.81 47.5228 75.8003 47.5022 76.7799 47.4102C76.9591 47.3933 77.1512 47.3692 77.2809 47.2693ZM38.9813 62.7002C38.7095 62.5909 38.3439 62.6627 38.1668 62.8601C37.9643 63.086 38.0503 63.4415 38.3437 63.5912C38.6371 63.7409 39.0782 63.6543 39.2508 63.4131C39.4234 63.172 39.2923 62.8252 38.9813 62.7002ZM42.3671 63.1398C42.5292 63.2481 42.2633 63.4247 42.0539 63.4478C41.2693 63.5341 40.4596 63.4717 39.7103 63.267C39.9895 63.0319 40.4509 63.0316 40.8565 63.0481L42.194 63.1023C42.2549 63.1048 42.3204 63.1087 42.3671 63.1398ZM37.156 63.6446L35.9092 64.194C35.7456 64.2661 35.5554 64.4097 35.6565 64.5351C35.7506 64.6518 35.9758 64.5947 36.1265 64.5254L37.6818 63.8107C37.7145 63.7117 37.631 63.598 37.5067 63.5722C37.3868 63.5474 37.2644 63.5968 37.156 63.6446ZM50.8021 55.1384C50.9223 55.0244 51.0528 54.9048 51.2317 54.862C51.4107 54.8192 51.6461 54.8942 51.6688 55.042C51.178 55.6009 50.5687 56.0935 49.8746 56.4925C49.9398 55.9726 50.3803 55.5385 50.8021 55.1384ZM51.5909 56.2447L52.6255 55.3463C52.7393 55.2475 52.8596 55.1048 52.7688 54.9918C52.6401 54.8318 52.3334 54.9726 52.1776 55.1166L50.9617 56.2401C50.9152 56.3519 51.0866 56.4584 51.2328 56.441C51.3791 56.4236 51.4909 56.3316 51.5909 56.2447ZM42.6397 41.966C42.8295 41.8095 43.1222 41.7724 43.3933 41.7456C46.6764 41.4204 50.0011 41.3631 53.2988 41.5747C53.5038 41.5879 53.7443 41.6204 53.8351 41.7676C53.8814 41.8425 53.8755 41.9304 53.8686 42.0138L53.3385 48.3799C53.3184 48.6214 53.2644 48.906 52.993 49.0147C52.8624 49.0671 52.7093 49.0643 52.5632 49.0604L43.1604 48.8067C42.9767 48.8018 42.7749 48.791 42.6428 48.6892C42.5139 48.5899 42.491 48.4344 42.4766 48.292C42.2845 46.4013 42.257 44.4999 42.3944 42.6061C42.4109 42.3783 42.4407 42.1301 42.6397 41.966ZM47.8212 42.1137C46.4169 42.0973 45.0119 42.1169 43.6091 42.1722C43.3903 42.1808 43.1396 42.2039 43.016 42.3481C42.9332 42.4449 42.9325 42.5704 42.9349 42.6875L43.029 47.3771C43.036 47.7278 43.1681 48.1897 43.6076 48.2082L47.8692 48.388C47.9461 48.3912 48.0297 48.393 48.0922 48.357C48.1754 48.3091 48.187 48.2156 48.1911 48.1338L48.3137 45.7026C48.3184 45.6087 48.3152 45.5001 48.2234 45.4412C48.1612 45.4012 48.0753 45.3965 47.9954 45.394C46.4646 45.3448 44.9273 45.4248 43.4176 45.6322C43.2448 45.6559 43.1486 45.4466 43.2497 45.3324C43.3508 45.2183 43.5421 45.1861 43.7152 45.164C45.1365 44.983 46.5756 44.8904 48.015 44.8872C48.2574 44.8866 48.333 44.6278 48.3326 44.4346L48.3293 42.8401C48.3287 42.5309 48.2091 42.1182 47.8212 42.1137ZM52.3672 45.3885L49.5787 45.3836C49.3916 45.3833 49.1785 45.3922 49.059 45.507C48.9744 45.5884 48.9618 45.7014 48.9528 45.8069L48.7722 47.9287C48.7556 48.1227 48.7651 48.3585 48.976 48.4563C49.0689 48.4994 49.1812 48.5037 49.2886 48.5069L52.0299 48.589C52.1149 48.5915 52.2069 48.5925 52.2762 48.5532C52.3664 48.5019 52.3848 48.4029 52.3955 48.3151L52.7191 45.6577C52.7264 45.5973 52.7325 45.5319 52.6928 45.4801C52.6299 45.3981 52.4878 45.3887 52.3672 45.3885ZM52.6559 44.7454C52.8155 44.6638 52.8625 44.498 52.8942 44.3491C53.0143 43.7843 53.1106 43.2163 53.1829 42.6464C53.1955 42.5468 53.2007 42.4317 53.1094 42.3629C53.0402 42.3106 52.9368 42.3027 52.8416 42.2975L49.4792 42.1132C49.3578 42.1065 49.2177 42.1056 49.1374 42.1785C49.0732 42.2368 49.0712 42.3222 49.0726 42.3998L49.1123 44.5746C49.1132 44.6271 49.1155 44.6832 49.1532 44.7263C49.2143 44.7964 49.3387 44.8032 49.4458 44.8032L52.2748 44.8036C52.4061 44.8036 52.5455 44.8018 52.6559 44.7454ZM61.9916 61.9867C61.6885 61.9928 61.3519 62.0117 61.1434 62.1871C61.2408 62.3422 61.5011 62.3664 61.7187 62.3702L69.4654 62.5058C69.6277 62.5086 69.6833 62.3088 69.575 62.2123C69.4667 62.1159 69.2873 62.101 69.1253 62.0929C66.7508 61.9742 64.3699 61.9388 61.9916 61.9867ZM57.99 54.6201C57.1673 61.739 56.2623 68.852 55.2753 75.9577C55.2489 76.148 55.154 76.3914 54.9137 76.3938C41.3809 76.5289 27.8442 76.4201 14.3176 76.0675C14.1742 76.0637 14.0178 76.056 13.9116 75.9792C13.7737 75.8795 13.7779 75.7088 13.7928 75.5609L16.0094 53.4408C16.1692 53.2868 16.4528 53.2704 16.7035 53.266C30.0346 53.0332 43.376 52.8006 56.6995 53.2287C57.0129 53.2387 57.3466 53.2546 57.6002 53.4017C58.0463 53.6603 58.0406 54.1823 57.99 54.6201ZM51.2793 57.3969C41.2903 56.579 31.2212 56.3832 21.1941 56.8116C21.0653 56.8171 20.9253 56.8263 20.8304 56.8959C20.7297 56.9696 20.7101 57.0883 20.6967 57.1968L18.8326 72.3028C18.8193 72.4109 18.8099 72.5307 18.8928 72.6169C18.9919 72.7198 19.178 72.7309 19.3408 72.7332L48.4503 73.1339C48.6302 73.1364 48.8315 73.1323 48.9583 73.0306C49.0637 72.9461 49.0861 72.8182 49.1029 72.6998L51.2793 57.3969ZM51.9651 57.3435C51.8326 57.5413 51.7986 57.7702 51.7669 57.993L49.7289 72.3195C49.702 72.5083 49.677 72.7076 49.7734 72.8813C49.8815 73.076 50.12 73.2004 50.3461 73.3137L54.5566 75.4235C55.6612 68.373 56.7665 61.3163 57.2786 54.2228L52.7146 56.7679C52.4275 56.928 52.1301 57.0971 51.9651 57.3435ZM52.554 56.2961L56.3 54.0606C48.7138 53.5426 41.0978 53.6306 33.479 53.7186H33.479C28.0681 53.7812 22.6558 53.8437 17.2519 53.6892L19.524 55.6693C19.8841 55.9832 20.3209 56.3232 20.8535 56.2966C30.9143 55.7926 41.0278 55.9594 51.0538 56.7946C51.6062 56.8406 52.1094 56.5615 52.554 56.2961ZM50.0886 73.7738C49.6156 73.6502 49.1093 73.6409 48.6116 73.6326L19.4238 73.149C18.9316 73.1408 18.4231 73.1349 17.9674 73.2835C17.591 73.4062 17.2792 73.6255 16.9752 73.8407L14.361 75.6916C20.8908 75.4615 27.4283 75.5979 33.9656 75.7343C40.67 75.8742 47.3741 76.0141 54.0695 75.7586L51.2756 74.2849C50.8994 74.0864 50.5174 73.8857 50.0886 73.7738ZM19.4606 58.4342C19.6239 56.7773 18.4984 55.0824 16.6875 54.2581C15.8618 61.1764 15.1135 68.1006 14.4429 75.0295L17.2749 73.25C17.6478 73.0157 18.0518 72.7371 18.089 72.3598L19.4606 58.4342ZM64.0963 54.4506C63.8035 54.1873 63.3463 54.0463 62.9073 54.0839C62.4099 54.1266 61.9545 54.4009 61.7671 54.7706C61.5798 55.1404 61.6685 55.5898 61.9893 55.8958C62.4603 56.3451 63.406 56.4071 63.9628 56.0252C64.5197 55.6433 64.5836 54.8887 64.0963 54.4506ZM62.6368 54.6004C62.8188 54.5185 63.0388 54.4918 63.243 54.5269C63.7638 54.6164 64.0736 55.1512 63.8211 55.5251C63.5686 55.899 62.838 55.9876 62.4574 55.6905C62.0768 55.3934 62.173 54.8093 62.6368 54.6004ZM107.698 30.5245C107.099 30.1077 106.777 29.4705 106.748 28.8368C106.718 28.2031 106.961 27.5745 107.342 27.0182C107.445 26.8688 107.732 26.8629 107.903 26.9654C108.073 27.0678 108.153 27.2386 108.213 27.4019C108.585 28.4035 108.565 29.495 108.157 30.4876C108.143 30.5228 108.127 30.5591 108.094 30.5856C107.991 30.6709 107.81 30.6027 107.698 30.5245ZM106.672 31.2264C105.903 31.25 105.129 31.1763 104.389 31.009C103.978 30.9161 103.523 30.7488 103.418 30.4188C103.328 30.1332 103.561 29.8278 103.887 29.6891C104.213 29.5504 104.605 29.5493 104.969 29.6C105.829 29.7197 106.623 30.1197 107.128 30.6881C107.201 30.7706 107.271 30.8663 107.253 30.9663C107.219 31.1577 106.914 31.219 106.672 31.2264ZM106.789 31.7976L106.85 32.5019L104.699 33.018C104.286 33.1171 103.828 33.2141 103.438 33.0678C103.048 32.9215 102.887 32.4107 103.264 32.244C104.259 31.8039 105.408 31.5887 106.545 31.6297C106.622 31.6325 106.711 31.6413 106.755 31.6925C106.781 31.7226 106.785 31.7611 106.789 31.7976ZM111.121 33.9221C110.179 33.5704 109.535 32.8652 108.933 32.1885C108.906 32.1574 108.877 32.1225 108.882 32.0846C108.894 31.9942 109.057 31.9909 109.167 32.0142C110.24 32.2414 111.378 32.4994 112.115 33.1616C112.271 33.3024 112.413 33.4801 112.377 33.6662C112.339 33.8646 112.099 34.0098 111.85 34.04C111.601 34.0703 111.349 34.0072 111.121 33.9221ZM110.373 34.8547C110.352 35.0428 110.205 35.2337 109.976 35.2813C109.836 35.3104 109.687 35.2833 109.553 35.2385C108.871 35.0094 108.561 34.3818 108.407 33.8046C108.279 33.3262 108.209 32.838 108.199 32.3489C109.084 32.8335 109.793 33.5213 110.218 34.3081C110.312 34.4815 110.393 34.6667 110.373 34.8547ZM110.526 26.9562C110.71 26.9185 110.947 27.0373 110.907 27.186C110.585 28.4069 110.09 29.7437 108.746 30.3831C108.845 29.2682 109.32 28.1759 110.107 27.2509C110.214 27.1251 110.341 26.994 110.526 26.9562ZM113.104 32.2383C112.875 32.2361 112.646 32.2208 112.419 32.2005C111.292 32.1004 110.182 31.8787 109.129 31.5434C110.43 30.901 112.267 31.0577 113.367 31.9049C113.423 31.9478 113.481 31.9983 113.483 32.0601C113.489 32.1916 113.269 32.2398 113.104 32.2383ZM106.595 35.184C106.589 34.4364 106.975 33.6916 107.642 33.1659C107.622 33.1049 107.793 33.1416 107.737 33.1862C108.033 33.8527 108.098 34.5838 107.922 35.2769C107.841 35.5922 107.606 35.9633 107.203 35.9492C106.784 35.9346 106.598 35.5183 106.595 35.184ZM106.848 38.2304L103.808 39.4959C103.729 39.2342 103.777 38.9497 103.94 38.714C104.286 38.2131 105.044 38.0118 105.733 37.8529C106.117 37.7644 106.509 37.6751 106.908 37.6879C106.997 37.6908 107.093 37.7012 107.159 37.7501C107.353 37.8955 107.085 38.1321 106.848 38.2304ZM111.886 28.9726C112.104 28.8926 112.409 28.8378 112.545 28.9956C112.676 29.1485 112.516 29.3516 112.352 29.4832C111.639 30.0555 110.724 30.4374 109.812 30.7862C109.561 30.882 109.162 30.9271 109.093 30.7123C109.839 29.9707 110.803 29.3699 111.886 28.9726ZM107.986 31.9773C107.723 32.0459 107.371 31.9466 107.322 31.7292C107.291 31.5908 107.388 31.4542 107.504 31.3486C107.743 31.1314 108.082 30.9862 108.441 30.9475C108.529 30.938 108.623 30.9356 108.701 30.9693C108.951 31.0781 108.795 31.3825 108.614 31.5585C108.439 31.7295 108.249 31.9087 107.986 31.9773Z" fill="#00160A"/>
<path fill-rule="evenodd" clip-rule="evenodd" d="M106.01 42.767C103.576 43.6159 100.757 43.7311 98.2278 43.0849C97.6954 45.1869 95.6466 46.8498 94.8614 48.9004C94.546 49.724 94.4432 50.59 94.396 51.4507C94.106 56.7432 95.8514 61.9563 97.5819 67.0695C97.6602 67.301 97.7485 67.5459 97.9709 67.7065C98.213 67.8815 98.5604 67.9185 98.885 67.9444C102.051 68.1969 105.254 68.1525 108.407 67.8124C108.943 67.7546 109.178 67.2505 109.298 66.8288C110.672 62.0192 111.259 57.0661 111.04 52.1354C110.988 50.9526 110.88 49.7387 110.253 48.6667C109.567 47.4928 108.323 46.5948 107.425 45.5164C106.734 44.6862 106.25 43.746 106.01 42.767Z" fill="#FF79B0"/>
<path fill-rule="evenodd" clip-rule="evenodd" d="M101.547 42.4812C101.709 42.694 101.739 43.0942 101.428 43.0695C100.407 41.5137 99.176 40.0454 97.7632 38.6979C97.7971 38.9035 97.831 39.1092 97.8649 39.3148C97.9337 39.7321 98.0018 40.1614 97.873 40.5696C97.7441 40.9779 97.3707 41.3658 96.8522 41.4468C96.3337 41.5278 95.7327 41.1817 95.7962 40.7638C95.7981 41.2212 95.198 41.6087 94.6316 41.5339C94.0652 41.4591 93.6563 40.9635 93.7666 40.5146C93.817 40.3095 93.4641 40.1765 93.2132 40.2375C92.9622 40.2985 92.7726 40.463 92.5347 40.5511C91.8011 40.8226 90.9335 40.2088 90.8918 39.5652C90.8502 38.9217 91.5243 37.6741 92.0716 37.1996C91.3037 37.1006 90.6857 36.5098 90.702 35.8902C90.7182 35.2706 91.3667 34.7009 92.1391 34.6276C91.5517 34.0208 90.9515 33.1686 91.5232 32.5523C91.9408 32.1022 92.822 32.0721 93.433 32.3485C94.044 32.6249 94.4373 33.1246 94.7625 33.6207C94.7541 33.2164 94.7475 32.802 94.9152 32.4203C95.0829 32.0386 95.4636 31.6899 95.9635 31.6197C96.4635 31.5495 97.0375 31.8548 97.0268 32.2591C97.0184 32.5723 96.8068 33.0369 97.1943 33.0903C97.4038 32.6672 98.1353 32.5075 98.639 32.7217C99.1427 32.9358 99.3921 33.4323 99.3238 33.8839C99.2555 34.3355 98.9166 34.7387 98.4932 35.0438C99.1162 35.0756 99.8753 35.1857 100.076 35.6568C100.27 36.1145 99.7598 36.5813 99.2079 36.7819C98.656 36.9824 98.0216 37.0424 97.5237 37.3184C98.311 37.7162 99.1164 38.6708 99.801 39.6553C100.682 40.9218 101.363 42.2378 101.547 42.4812Z" fill="#FF79B0"/>
<path fill-rule="evenodd" clip-rule="evenodd" d="M97.3552 37.3182C98.1135 37.7979 98.8011 38.3484 99.3993 38.9549C99.5615 38.46 99.7519 37.9295 100.255 37.6118C100.758 37.2942 101.673 37.3615 101.865 37.8495C101.936 38.0293 101.896 38.2241 101.843 38.4078C101.622 39.1756 101.18 39.9025 100.561 40.5164C100.889 40.9491 101.217 41.3817 101.545 41.8144C101.707 42.0272 101.737 42.4274 101.427 42.4027C100.405 40.8469 99.1742 39.3786 97.7614 38.0311C97.7953 38.2367 97.8292 38.4424 97.8631 38.648C97.932 39.0654 98 39.4946 97.8712 39.9028C97.7423 40.3111 97.3689 40.699 96.8504 40.78C96.3319 40.861 95.731 40.5149 95.7944 40.097C95.7963 40.5544 95.1962 40.9419 94.6298 40.8671C94.0635 40.7923 93.6545 40.2967 93.7648 39.8478C93.8152 39.6427 93.4623 39.5097 93.2114 39.5707C92.9604 39.6317 92.7708 39.7962 92.5329 39.8843C91.7993 40.1558 90.9317 39.542 90.8901 38.8985C90.8484 38.2549 91.3559 37.674 91.9032 37.1995C91.1353 37.1005 90.5173 36.5097 90.5335 35.8901C90.5498 35.2705 91.1983 34.7008 91.9707 34.6274C91.3833 34.0206 90.7831 33.1685 91.3547 32.5522C91.7723 32.102 92.6535 32.072 93.2645 32.3484C93.8755 32.6247 94.2689 33.1244 94.5941 33.6206C94.5856 33.2162 94.5791 32.8019 94.7468 32.4202C94.9145 32.0384 95.2951 31.6897 95.7951 31.6196C96.295 31.5494 96.8691 31.8546 96.8583 32.259C96.85 32.5722 96.6384 33.0368 97.0259 33.0902C97.2353 32.667 97.9668 32.5074 98.4705 32.7215C98.9742 32.9357 99.2237 33.4322 99.1554 33.8837C99.087 34.3353 98.7481 34.7385 98.3247 35.0437C98.9477 35.0754 99.7069 35.1855 99.9071 35.6567C100.102 36.1144 99.5913 36.5812 99.0394 36.7817C98.4876 36.9823 97.8532 37.0422 97.3552 37.3182ZM91.9312 32.6758C91.4809 32.949 91.5463 33.5197 91.8323 33.9088C92.3337 34.591 93.2877 34.9634 94.1935 35.2862C94.3891 35.3559 94.6836 35.3961 94.7608 35.2369C94.7965 35.1632 94.7595 35.0812 94.7228 35.0079C94.4551 34.4739 94.1864 33.9383 93.8391 33.4342C93.644 33.1511 93.4138 32.8698 93.0725 32.6954C92.7313 32.5211 92.2538 32.4802 91.9312 32.6758ZM91.0448 35.7587C90.9278 36.26 91.5418 36.7176 92.1759 36.7865C92.81 36.8554 93.4351 36.6506 94.0235 36.4501C94.1789 36.3972 94.347 36.3348 94.4194 36.2131C94.5664 35.966 94.2271 35.719 93.9331 35.5778C93.4433 35.3426 92.9282 35.1009 92.3572 35.0735C91.7863 35.0462 91.1494 35.3107 91.0448 35.7587ZM98.5984 33.6432C98.6243 33.5422 98.6414 33.4339 98.592 33.3387C98.5057 33.1727 98.2475 33.1064 98.0225 33.1184C97.3386 33.155 96.8792 33.6869 96.6055 34.1876C96.3623 34.6324 96.1795 35.0981 96.0613 35.574C97.2906 35.4198 98.3488 34.6145 98.5984 33.6432ZM96.3088 37.4056C95.9292 37.4538 95.8876 37.873 95.9448 38.1759C96.0015 38.4765 96.0581 38.7772 96.1148 39.0778C96.2065 39.564 96.3695 40.1286 96.9338 40.3276C97.5216 39.5471 97.5151 38.5062 96.9176 37.7304C96.7818 37.5542 96.5652 37.3731 96.3088 37.4056M94.5713 40.2664C94.6154 40.3112 94.6674 40.3565 94.737 40.3693C94.9093 40.4012 95.0209 40.2299 95.0603 40.0926C95.3268 39.1619 95.3169 38.197 95.3057 37.2424C95.2972 37.1716 95.1568 37.2123 95.1029 37.2689C94.691 37.7024 94.3349 38.1836 94.194 38.7155C94.0531 39.2475 94.1509 39.8381 94.5713 40.2664ZM96.8261 35.7802C96.7382 35.8166 96.6488 35.8547 96.5826 35.9134C96.3635 36.1079 96.5168 36.4464 96.8045 36.5718C97.0923 36.6971 97.4464 36.6647 97.7644 36.6007C98.2343 36.5061 98.6846 36.3499 99.0916 36.1402C99.2484 36.0594 99.4181 35.9307 99.3669 35.7876C99.3447 35.7256 99.2838 35.6775 99.2202 35.6376C98.5536 35.2201 97.5788 35.4692 96.8261 35.7802M95.4011 35.2487C95.9216 34.3372 96.1838 33.3329 96.1626 32.3317C96.1613 32.2729 96.1578 32.2108 96.1172 32.1617C95.9751 31.99 95.6451 32.1637 95.5162 32.3418C94.8835 33.2165 94.8388 34.3439 95.4011 35.2487M94.4704 37.3318C94.5988 37.2897 94.5448 37.1157 94.4136 37.0795C94.2825 37.0432 94.1412 37.0948 94.0177 37.1454C93.2552 37.4579 92.4599 37.8074 92.0267 38.3969C91.8799 38.5967 91.7963 38.8805 92.0093 39.0379C92.2034 39.1815 92.5246 39.1221 92.7417 39.0011C93.4959 38.5808 93.6191 37.6107 94.4704 37.3318ZM101.105 37.8099C100.99 37.714 100.791 37.8038 100.672 37.8972C100.283 38.2036 99.9377 38.5704 99.8317 38.9983C99.7256 39.4262 99.9118 39.9215 100.382 40.1445C100.933 39.5167 101.214 38.7419 101.169 37.977C101.165 37.9176 101.157 37.8529 101.105 37.8099ZM94.9408 36.0683C95.1041 36.4628 95.4433 36.8094 95.8837 37.0317C96.023 37.102 96.1584 36.9305 96.1681 36.7993C96.1983 36.3889 95.993 35.9712 95.6209 35.6863C95.4735 35.5734 95.2548 35.4771 95.0727 35.5512C94.8579 35.6386 94.8653 35.8858 94.9408 36.0683Z" fill="#00160A"/>
<path fill-rule="evenodd" clip-rule="evenodd" d="M76.2271 55.4523C75.5158 55.4675 74.7947 55.4868 74.1143 55.6525C75.7577 62.1559 75.9261 68.8304 76.7838 75.4291C76.8002 75.5552 76.8222 75.691 76.931 75.7834C77.0547 75.8884 77.2524 75.9063 77.4326 75.9176C89.1018 76.6496 100.836 76.7246 112.518 76.1417C112.666 76.1344 112.827 76.1228 112.936 76.0426C113.067 75.9458 113.077 75.7855 113.076 75.6428C113.056 73.1419 112.609 70.6571 112.164 68.1815C111.473 64.3428 110.782 60.5041 110.091 56.6654C110.065 56.5194 110.028 56.3577 109.879 56.2695C109.769 56.2037 109.622 56.1952 109.484 56.1892C98.4079 55.7031 87.3165 55.2168 76.2271 55.4523Z" fill="#E7EAEE"/>
<ellipse cx="103.917" cy="66.9333" rx="0.333336" ry="0.266666" fill="#FFB61D"/>
<ellipse cx="101.5" cy="66.9333" rx="0.333332" ry="0.266666" fill="#FFB61D"/>
<ellipse cx="95.167" cy="69.6667" rx="0.25" ry="0.199997" fill="#FFB61D"/>
<ellipse cx="93.0835" cy="69.6667" rx="0.25" ry="0.199997" fill="#FFB61D"/>
<ellipse cx="86.667" cy="66.9333" rx="0.5" ry="0.399998" fill="#FFB61D"/>
<ellipse cx="83" cy="67.0666" rx="0.5" ry="0.400002" fill="#FFB61D"/>
<path fill-rule="evenodd" clip-rule="evenodd" d="M112.988 76.8035C101.042 77.3718 89.0431 77.2292 77.1239 76.3771C76.7968 76.3537 76.4379 76.3177 76.2163 76.1246C76.0121 75.9467 75.9834 75.6858 75.9647 75.4452C75.4484 68.8144 74.6573 62.1973 73.593 55.6081C73.5252 55.1884 74.2164 54.989 74.7447 54.9468C82.0188 54.3654 89.327 54.6442 96.6411 54.9233C101.317 55.1017 105.996 55.2802 110.669 55.234C110.977 55.231 111.085 55.5539 111.099 55.7984C111.284 58.8863 111.925 61.9432 112.566 64.9986C113.313 68.5607 114.059 72.1206 114.082 75.7246C114.084 76.0707 114.044 76.4732 113.685 76.668C113.485 76.7767 113.23 76.792 112.988 76.8035ZM76.2272 55.4524C75.5159 55.4675 74.7948 55.4868 74.1144 55.6525C75.2346 60.0855 75.6695 64.598 76.1045 69.1117L76.1045 69.1118C76.3076 71.2199 76.5108 73.3284 76.7839 75.4291C76.8003 75.5553 76.8223 75.691 76.9312 75.7835C77.0548 75.8884 77.2526 75.9063 77.4327 75.9176C89.1019 76.6497 100.836 76.7247 112.518 76.1418C112.666 76.1344 112.827 76.1228 112.936 76.0427C113.067 75.9459 113.077 75.7855 113.076 75.6429C113.056 73.142 112.61 70.6572 112.164 68.1816L110.091 56.6655C110.065 56.5194 110.028 56.3578 109.879 56.2695C109.769 56.2038 109.622 56.1953 109.485 56.1892C98.408 55.7031 87.3166 55.2169 76.2272 55.4524ZM83.6108 64.8551C83.8982 64.8445 84.0228 65.1374 84.0573 65.3651C84.1168 65.7563 84.0805 66.273 83.6069 66.3861C83.1964 66.0811 83.0408 65.5766 83.2271 65.1546C83.2902 65.0115 83.4207 64.8622 83.6108 64.8551ZM101.689 66.3279C101.181 66.2931 101.557 64.9076 101.843 65.074C102.128 65.2405 102.197 66.3627 101.689 66.3279ZM104.012 66.1406C103.399 66.1406 103.608 64.8661 104.012 64.8661C104.228 64.8661 104.404 66.1406 104.012 66.1406ZM85.9604 66.1567C86.0674 65.9862 86.1341 65.7997 86.1559 65.6099C86.1731 65.4613 86.1593 65.302 86.0531 65.1791C85.9469 65.0563 85.7249 64.9882 85.5638 65.0642C85.4634 65.1115 85.4074 65.2012 85.3719 65.2897C85.2575 65.5747 85.3075 65.8988 85.5051 66.1533C85.5693 66.2361 85.6788 66.3203 85.7963 66.2939C85.875 66.2763 85.9238 66.215 85.9604 66.1567ZM94.4004 68.8534C94.4434 68.585 94.5752 68.2218 94.8847 68.3331C95.0105 68.3783 95.0743 68.491 95.1064 68.598C95.1743 68.824 95.1187 69.1045 94.8632 69.2164C94.6077 69.3283 94.3573 69.1218 94.4004 68.8534ZM84.1787 67.1063C83.914 67.2986 83.5173 67.5237 83.2473 67.3361C83.2885 67.1612 83.4118 66.9995 83.5875 66.8898C83.3581 66.7372 82.9622 66.8299 82.8361 67.0458C82.71 67.2618 82.8401 67.5394 83.0916 67.6682C83.343 67.797 83.6814 67.788 83.9482 67.6806C84.0173 67.6527 84.0892 67.619 84.1622 67.5848C84.4439 67.4525 84.7423 67.3125 84.962 67.474C85.4595 67.8396 86.3663 67.743 86.7258 67.286C86.8257 67.159 86.8845 66.9938 86.799 66.8603C86.7134 66.7269 86.4373 66.6822 86.3394 66.8102C86.3145 66.8426 86.3044 66.8801 86.2943 66.9175C86.291 66.93 86.2876 66.9424 86.2838 66.9546C86.2197 67.1564 85.9846 67.3159 85.7245 67.3341C85.4644 67.3524 85.198 67.2282 85.0906 67.0385C84.9433 66.7782 84.4434 66.9139 84.1787 67.1063ZM93.4538 68.376C93.5055 68.6702 93.416 68.9788 93.2075 69.2251C93.1686 69.2711 93.117 69.3189 93.0476 69.3225C92.9745 69.3264 92.9135 69.2797 92.8701 69.2327C92.6255 68.9677 92.6348 68.572 92.8917 68.3145C93.0114 68.1946 93.2565 68.1097 93.3834 68.2248C93.4286 68.2658 93.4443 68.322 93.4538 68.376ZM79.4444 73.0855C79.4651 73.7669 80.4864 74.0987 81.3284 74.2181C83.6867 74.5525 86.0958 74.5645 88.491 74.5756C95.6795 74.609 102.876 74.6421 110.048 74.2521C110.3 74.2384 110.582 74.2119 110.739 74.054C110.886 73.9064 110.868 73.6975 110.842 73.5103C110.128 68.2583 109.179 63.0266 108 57.8282C107.929 57.5183 107.431 57.4318 107.037 57.4145C97.4494 56.9929 87.8413 57.0025 78.2392 57.0123C77.9683 57.0125 77.6815 57.0162 77.451 57.1297C76.9274 57.3873 77.0056 58.002 77.1432 58.48C78.5232 63.2704 79.2954 68.1719 79.4444 73.0855ZM100.568 68.5409C99.5739 69.1311 98.8209 69.9755 98.4484 70.918C97.3133 70.4989 96.7991 69.2599 97.3969 68.384C98.1584 67.2684 98.4255 65.7409 97.3157 64.8296C96.6002 64.2421 95.4637 64.0712 94.4574 64.2356C92.4645 64.5613 90.9562 66.2013 91.1664 67.814C91.2 68.0725 91.2717 68.3264 91.3434 68.5803C91.4178 68.8436 91.4921 69.1068 91.524 69.3751C91.5867 69.902 91.4468 70.4908 90.9294 70.8227C90.1713 69.7776 88.9402 68.956 87.5163 68.5446C88.4548 66.7441 89.38 64.6349 88.1955 62.929C87.7894 62.3442 87.1668 61.8727 86.5007 61.4666C85.6265 60.9336 84.5853 60.4815 83.4872 60.5423C81.6356 60.6446 80.3553 62.217 80.3181 63.696C80.281 65.175 81.1491 66.561 81.996 67.8773L79.9569 69.9037C79.6196 65.7503 78.8719 61.6182 77.7232 57.558C87.2633 57.5859 96.8029 57.7086 106.339 57.9259C106.55 57.9307 106.782 57.9423 106.935 58.0591C107.066 58.1598 107.103 58.3134 107.133 58.4565L110.053 72.2422C108.769 70.5322 107.125 68.9942 105.211 67.7121C104.736 68.9382 104.317 70.178 103.954 71.4282L102.506 69.6192C103.658 69.0691 104.42 68.1289 105.077 67.1948C105.846 66.1005 106.543 64.9251 106.6 63.6717C106.657 62.4182 105.931 61.0683 104.504 60.5389C105.322 60.0997 105.352 59.0184 104.617 58.4945C103.881 57.9707 102.626 58.0641 101.948 58.6353C101.27 59.2066 101.189 60.1415 101.669 60.8284C100.128 61.3586 99.0418 62.6395 98.9989 63.9767C98.9592 65.2136 99.7262 66.3663 100.5 67.4389C100.753 67.7895 100.975 68.2993 100.568 68.5409ZM96.6237 69.6176L99.1678 73.802C99.3861 73.4432 99.171 73.0623 98.9546 72.6792C98.866 72.5223 98.7771 72.365 98.7177 72.2087C98.2819 71.061 99.4753 69.9636 100.568 69.1394C100.741 69.0089 100.955 68.8683 101.188 68.9057C101.378 68.936 101.505 69.0741 101.614 69.2017C102.402 70.1279 103.203 71.0765 103.567 72.1573C103.569 72.1629 103.571 72.1684 103.573 72.174C103.625 72.329 103.681 72.4951 103.839 72.5929C104.003 72.6943 104.31 72.6475 104.329 72.4829C104.496 71.0229 104.896 69.5799 105.516 68.1998L109.653 72.4286C109.943 72.7242 110.248 73.0947 110.084 73.4457C109.889 73.8607 109.203 73.9319 108.647 73.935L90.6361 74.0355C87.6153 74.0523 84.5839 74.0687 81.5869 73.7666C81.2732 73.735 80.9419 73.6937 80.6996 73.5318C80.4824 73.3867 80.3704 73.1662 80.2884 72.95C79.893 71.9078 80.0247 70.7451 80.648 69.7763C80.9396 69.3229 81.3747 68.8887 81.9861 68.74C82.5974 68.5912 83.3848 68.8498 83.5014 69.3507C83.6711 70.0802 84.4535 70.7257 85.3825 70.7731C86.3115 70.8205 87.2435 70.1625 87.1708 69.4228C87.1418 69.1283 87.7312 69.1316 88.0474 69.2857C89.7536 70.117 90.6319 71.8957 90.0943 73.4308C90.0056 73.6843 90.5566 73.8053 90.7761 73.6085C90.9816 73.4243 90.9665 73.1529 90.9527 72.9032C90.9518 72.8862 90.9508 72.8693 90.95 72.8526C90.9008 71.8944 91.289 70.9258 92.0258 70.1677C92.2884 70.3086 92.4851 70.5191 92.6798 70.7272C92.9403 71.0058 93.1969 71.2802 93.602 71.3785C94.2315 71.5313 94.8736 71.1647 95.2877 70.7572C95.388 70.6585 95.4839 70.5551 95.5798 70.4516C95.8803 70.1274 96.1819 69.802 96.6237 69.6176ZM83.5051 62.7214C82.9471 63.6356 82.1389 64.4521 81.1533 65.0975C80.9674 64.4257 80.9216 63.7294 81.0184 63.0457C81.0927 62.5214 81.2665 61.9798 81.7161 61.5924C82.2963 61.0923 83.2467 60.9474 84.0839 61.084C84.9212 61.2206 85.6644 61.5989 86.3392 62.0169C86.9071 62.3687 87.4536 62.7648 87.7931 63.2702C88.5581 64.409 88.1176 65.8015 87.6609 67.0409C87.3806 67.8014 87.0069 68.6509 86.0994 68.9752C85.3128 69.2563 84.3758 69.0308 83.6546 68.6544C82.4593 68.0307 81.619 66.9913 81.4003 65.8661C81.3645 65.6816 81.364 65.4584 81.5545 65.3498C82.4572 64.8349 83.202 64.1456 83.707 63.3577C84.5595 64.2926 86.0227 64.8518 87.4711 64.7962C87.7817 64.7843 88.195 64.6082 88.0601 64.3849C86.3174 64.53 84.505 63.8681 83.5051 62.7214ZM101.885 68.566C101.247 67.8145 100.697 67.0157 100.245 66.1832C100.132 65.9759 100.052 65.6882 100.287 65.5624C101.429 64.953 102.294 64.0213 102.692 62.9729L103.521 63.7992C103.789 64.0665 104.063 64.3382 104.42 64.5285C104.777 64.7188 105.237 64.8183 105.643 64.7073C105.794 64.6661 105.833 64.87 105.778 64.9889C105.147 66.3422 104.239 67.6132 103.101 68.7362C103.001 68.8347 102.892 68.9367 102.741 68.9762C102.4 69.0654 102.086 68.8028 101.885 68.566ZM103.197 60.9838C103.604 60.9509 104.027 60.9644 104.4 61.0963C104.729 61.2124 105 61.414 105.222 61.6388C105.889 62.3118 106.152 63.2283 105.918 64.0653C105.898 64.1344 105.873 64.2068 105.809 64.2558C105.706 64.3343 105.543 64.3265 105.404 64.303C104.597 64.1666 103.935 63.6776 103.534 63.1023C103.514 63.0737 103.495 63.0447 103.475 63.0156C103.357 62.841 103.237 62.6626 103.031 62.5552C102.792 62.43 102.391 62.4721 102.313 62.6921C101.942 63.7406 101.087 64.6757 99.9484 65.2786C99.6946 65.0656 99.5778 64.7704 99.526 64.4796C99.3765 63.6394 99.726 62.7582 100.421 62.1153C101.116 61.4723 102.138 61.0697 103.197 60.9838ZM95.3493 64.7469C96.3047 64.8432 97.183 65.4398 97.3346 66.1977C97.4047 66.5481 97.3266 66.9053 97.2487 67.2546C97.2122 67.4181 97.167 67.5945 97.0113 67.7048C96.82 67.8402 96.53 67.8288 96.2795 67.7875C95.5661 67.6698 94.9022 67.3692 94.41 66.9411C94.3803 66.9153 94.351 66.8888 94.3216 66.8623C94.1911 66.7447 94.0597 66.6262 93.8869 66.5535C93.6751 66.4645 93.3742 66.4709 93.2361 66.6268C92.8482 67.0645 92.3332 67.4301 91.743 67.6867C91.813 66.9212 92.1374 66.1544 92.777 65.5806C93.4165 65.0067 94.3939 64.6507 95.3493 64.7469ZM93.4711 67.1562C93.5931 66.9706 93.9368 67.1399 94.1087 67.2984C94.7853 67.9221 95.828 68.2822 96.8616 68.2491C96.3254 69.1072 95.5892 69.8855 94.7018 70.5325C94.4891 70.6876 94.2344 70.8443 93.9472 70.8253C93.6962 70.8087 93.4926 70.6614 93.3215 70.5142C92.791 70.0577 92.3678 69.5222 92.0803 68.9437C91.9666 68.715 91.9066 68.4 92.169 68.2706C92.7172 68.0004 93.172 67.6112 93.4711 67.1562ZM103.255 60.5616C102.634 60.6461 101.943 60.2308 101.987 59.7299C102.017 59.3794 102.362 59.093 102.743 58.9172C103.02 58.7894 103.339 58.7014 103.658 58.728C103.976 58.7546 104.29 58.9152 104.389 59.1581C104.434 59.2683 104.433 59.3873 104.415 59.5022C104.337 60.0005 103.876 60.4771 103.255 60.5616ZM84.3354 69.3677C85.1182 69.6225 86.0555 69.5508 86.7631 69.1819C86.8062 69.334 86.6988 69.4848 86.5956 69.6174C86.2649 70.0425 85.7448 70.5304 85.1435 70.3871C84.8277 70.3119 84.6366 70.0896 84.4435 69.865C84.2729 69.6666 84.1007 69.4663 83.8396 69.3637C83.9545 69.2557 84.171 69.3141 84.3354 69.3677Z" fill="#00160A"/>
</svg>
