<svg width="125" height="100" viewBox="0 0 125 100" fill="none" xmlns="http://www.w3.org/2000/svg">
<path d="M20.134 62.8812C20.134 62.8812 85.6767 62.9088 111.627 62.8812C113.663 59.329 111.101 54.5826 106.472 53.3334C107.921 54.6555 109.369 55.9776 110.818 57.2997C108.273 57.2792 20.134 57.2997 20.134 57.2997V62.8812Z" fill="#FF79B0"/>
<path fill-rule="evenodd" clip-rule="evenodd" d="M41.2729 62.8889C73.8162 62.899 97.2674 62.8964 111.627 62.8811C113.663 59.3289 63.722 60.8247 44.7843 60.8247C25.8467 60.8247 34.608 62.8868 41.2729 62.8889Z" fill="#FEC601"/>
<path fill-rule="evenodd" clip-rule="evenodd" d="M54.826 22.1588C54.5946 21.9479 54.1382 21.9323 53.8852 22.1267C54.7022 20.8322 57.0925 20.4441 57.606 19.0533C58.2634 17.273 59.2332 15.5667 60.4779 14C60.9958 15.5403 61.9853 16.9777 63.3356 18.1513C63.6869 18.1526 64.0382 18.1538 64.3895 18.1551C65.1875 18.158 65.9927 18.1614 66.7721 18.2987C68.1743 18.5457 69.4312 19.2146 70.8519 19.3811C70.7466 19.2756 70.6413 19.1701 70.536 19.0646C70.5653 18.9557 70.7625 18.9059 70.8647 18.9816C71.0446 18.409 71.6243 17.9593 72.2819 17.6912C72.9395 17.4232 73.9092 16.9243 75.8501 17.0555C73.4952 19.1644 74.2245 27.9439 73.6452 29.6077C73.4476 29.6499 73.2964 29.4771 73.1678 29.3499C73.0393 29.2226 72.7393 29.1445 72.6699 29.2983C72.1875 30.368 72.1189 32.0141 70.6403 32.6514C70.355 32.7744 70.1853 32.5447 70.2074 32.4327C70.2357 32.2897 70.021 32.1795 69.8421 32.2013C69.6632 32.223 69.5202 32.3267 69.3806 32.4188C67.0287 33.9724 63.1776 33.1716 60.8228 34.7225C60.3575 35.0289 59.9476 35.4283 59.3669 35.5573C59.0203 35.6343 58.6512 35.6039 58.2971 35.5532C56.1893 35.251 54.3126 34.2504 52.8486 33.0002C51.3847 31.7499 50.2917 30.2549 49.2741 28.7476C50.2117 28.3228 51.1974 27.8598 51.7068 27.1002C52.1081 26.5016 52.3549 25.6437 53.199 25.5706C52.9313 26.2662 52.6635 26.9618 52.3958 27.6575C52.2978 27.9122 52.1986 28.1779 52.2504 28.4411C52.3023 28.7044 52.5538 28.9631 52.8865 28.9764C53.3381 28.9945 53.6561 28.5857 54.1045 28.5392C54.1894 29.8847 54.8353 31.2037 55.9152 32.2374C56.29 32.5961 57.0106 32.9219 57.3908 32.5669C56.8136 31.8209 56.2364 31.0749 55.6591 30.3288C55.2994 29.8639 54.9303 29.3775 54.8643 28.8333C54.7984 28.289 55.1357 27.6717 55.7898 27.513C55.8189 27.3691 55.6292 27.2455 55.447 27.2412C55.2649 27.237 55.0972 27.3141 54.9408 27.3887C54.3585 27.6666 53.7762 27.9444 53.194 28.2223C53.3797 27.1177 53.7596 26.0342 54.3189 25.0134C53.777 24.9723 53.2229 25.0386 52.7197 25.2046C53.1071 24.3079 53.8175 23.5021 54.7434 22.9092C55.0173 22.7338 55.0574 22.3698 54.826 22.1588Z" fill="white"/>
<path fill-rule="evenodd" clip-rule="evenodd" d="M66.4541 19.7786C65.9744 20.0326 65.596 20.4072 65.3861 20.8357C65.3209 20.9689 65.1355 21.0332 65.0104 21.1355C64.8853 21.2378 64.8646 21.4565 65.0399 21.4851C65.1165 21.4976 65.1918 21.4638 65.259 21.4317C66.3345 20.918 67.6424 20.5032 68.8157 20.8541C68.6228 20.9329 68.5254 21.1352 68.6023 21.2972C68.3628 21.3041 68.1396 21.3903 67.9244 21.4747C67.735 21.5491 67.5455 21.6235 67.356 21.6979C67.3759 21.7426 67.3957 21.7874 67.4156 21.8321C68.2722 21.4832 69.3186 21.4469 70.2098 21.7352C69.9136 21.7712 69.6118 21.7778 69.3136 21.7548C68.8788 21.9301 68.444 22.1054 68.0092 22.2807C67.9124 22.3197 67.8104 22.3626 67.756 22.4375C67.7016 22.5125 67.7223 22.6286 67.8235 22.6595C68.6091 22.1052 69.7205 21.8601 70.7502 22.014C70.8704 22.032 70.9526 21.8979 70.9016 21.809C70.8506 21.7202 70.7283 21.6745 70.6146 21.6387C70.0438 21.4589 69.4418 21.3426 68.8313 21.2942C69.1367 21.0677 69.4904 20.8831 69.8725 20.7507C69.9354 20.5785 69.6249 20.4135 69.4509 20.5266C68.1288 20.3193 66.7123 20.525 65.5657 21.091C65.5561 20.911 65.7229 20.7597 65.879 20.6299C66.3669 20.2241 66.8548 19.8184 67.3427 19.4126C66.4884 19.4992 65.651 19.6916 64.8694 19.9809C64.6927 20.0464 64.5181 20.117 64.358 20.2057C63.755 20.5397 63.3962 21.137 63.447 21.7223C63.8122 21.1047 64.3904 20.5687 65.1006 20.1893C65.5066 19.9725 65.967 19.8036 66.4541 19.7786V19.7786Z" fill="#E7EAEE"/>
<path fill-rule="evenodd" clip-rule="evenodd" d="M97.5104 48.9694C98.7476 49.8578 98.6396 51.4297 98.193 52.7108C97.6186 54.3588 96.6471 55.9177 95.3476 57.2766L110.818 57.401L106.472 53.4347C111.101 54.6839 113.663 59.4303 111.627 62.9825C85.6767 63.0101 59.7268 62.9676 33.7773 62.855C38.5103 65.414 43.0986 68.5186 45.298 72.7363C47.4974 76.9541 46.5867 82.4995 41.9111 85.1252C40.1696 86.1032 38.0783 86.6044 35.9877 86.9212C33.8321 87.2478 31.2216 87.2615 29.8911 85.8659C29.114 85.0508 29.4855 83.7719 29.8528 82.507C30.1091 81.6247 30.3634 80.7492 30.2244 80.0429C29.7532 77.6477 27.7376 76.433 25.4377 75.047C24.9545 74.7558 24.4588 74.4571 23.9623 74.1382C19.7224 71.416 14.8621 67.9742 13.6247 63.7391C12.4945 59.8707 13.7384 56.0334 16.9709 53.0177C18.1347 51.9318 19.5655 50.9435 21.0034 49.9503L21.0035 49.9502C22.9358 48.6155 24.8811 47.2718 26.2095 45.6702C27.0207 44.6921 27.3051 43.6466 27.6035 42.5494C27.7106 42.1557 27.8195 41.7552 27.9552 41.3489C29.6979 36.1315 35.9121 33.4489 42.311 30.6866L42.3118 30.6862L42.3122 30.6861C43.1222 30.3364 43.9352 29.9854 44.7424 29.6279C48.4455 27.9877 52.1829 25.8882 53.372 22.6017C52.7163 22.6222 52.4732 21.8337 52.851 21.4045C53.132 21.0853 53.5759 20.9057 54.0187 20.7265C54.1713 20.6647 54.3238 20.603 54.4694 20.5356C55.8215 19.9103 56.5967 18.6346 57.3905 17.3282C58.5831 15.3654 59.8178 13.3334 63.1144 13.3334C63.2387 13.9993 63.1101 14.5925 62.9896 15.1484C62.8034 16.0074 62.6365 16.777 63.4524 17.5874C65.7886 17.3801 68.2038 17.7888 70.235 18.7351C71.4093 16.9516 74.3875 16.1897 76.8017 16.7672C76.496 17.075 76.3147 17.2294 76.1644 17.3574C75.8469 17.6278 75.6678 17.7803 74.7468 19.0125C73.3897 20.828 74.2494 27.5022 74.4642 28.5575C74.679 29.6127 73.6627 30.3626 72.7331 29.8415C73.1859 31.4055 71.5545 32.8981 69.5484 32.9431C68.8633 33.0409 68.4376 33.306 68.0352 33.5566C67.7849 33.7125 67.5436 33.8627 67.2547 33.9635C73.6243 37.6084 80.6756 40.4893 88.1008 42.4806L88.2315 42.5156C89.6208 42.8876 91.073 43.2764 92.0567 44.1401C93.0713 45.0309 93.3096 46.6123 92.1289 47.3608C92.8498 47.8837 93.8364 48.0259 94.8232 48.1682C95.8061 48.3098 96.7892 48.4515 97.5104 48.9694ZM31.7098 56.0231C32.8593 56.8921 35.1099 56.9376 36.6914 56.9324L57.2012 56.8653C57.7936 56.2354 57.4272 55.2674 56.6618 54.771C55.8963 54.2747 54.8659 54.1411 53.8836 54.0789C50.7134 53.8781 47.4892 54.2425 44.5125 55.138C43.6767 55.2568 43.042 54.4132 43.244 53.7535C43.446 53.0939 44.1482 52.6221 44.8012 52.1881C46.9082 50.7877 48.9742 49.2108 49.9632 47.1672C50.9889 45.0479 50.6913 42.5477 49.1842 40.6213C51.7145 42.3029 52.2461 45.394 51.1098 47.8636C49.9734 50.3332 47.4781 52.2542 44.7742 53.753C46.2509 53.9952 47.784 53.7254 49.3015 53.4583C51.1404 53.1347 52.9565 52.815 54.6218 53.4153L54.9652 45.9213L55.8554 52.4901C55.9215 52.9784 56.1137 53.5827 56.7171 53.6735C58.355 53.9201 59.3261 55.6361 58.4769 56.7834C59.2088 57.1785 60.3254 57.0017 60.814 56.4134C61.3027 55.8251 61.0737 54.9331 60.3348 54.5464C58.5425 53.6085 58.4007 51.588 58.4495 49.8751L58.786 38.0489C58.7942 37.7634 58.7134 37.3881 58.3598 37.3488C53.185 36.7737 48.5841 33.6631 47.0124 29.6771C42.4262 31.3205 37.8394 33.2156 34.1387 35.8254C25.67 41.7977 27.9929 46.7638 28.6006 48.0629C28.707 48.2905 28.7608 48.4055 28.6948 48.3937C28.2725 48.3182 28.0721 47.9378 27.9552 47.6045C27.6821 46.826 27.5042 46.0261 27.4249 45.2199C26.0274 47.2971 23.802 48.8753 21.5723 50.4567C19.5342 51.9021 17.4925 53.3502 16.0756 55.1843C13.8906 58.0127 13.4332 61.653 14.8708 64.7727C16.5692 68.4581 20.4726 71.0361 24.3225 73.5788C25.2476 74.1898 26.1696 74.7987 27.0572 75.4205C28.9151 76.722 30.7841 78.3346 30.8441 80.3095C30.8602 80.8387 30.742 81.3603 30.6237 81.8828C30.5401 82.252 30.4564 82.6217 30.4199 82.9947C30.3318 83.8953 30.6096 84.92 31.5629 85.4043C31.965 85.6085 32.4431 85.6926 32.9145 85.7471C37.8011 86.3117 43.787 83.6663 45.1809 79.8771C46.5488 76.1589 44.1478 71.5717 40.9931 68.63C39.0333 66.8025 36.4974 65.4965 33.9532 64.1862C32.402 63.3874 30.8477 62.5869 29.4189 61.6657C28.08 60.8023 26.7577 59.8717 25.9104 58.6745C25.0631 57.4774 24.7588 55.9553 25.5199 54.7217C26.1436 53.7106 27.3729 53.0085 28.5783 52.3201C30.0941 51.4544 31.5721 50.6103 31.7607 49.2006C31.7375 49.834 31.4033 50.5435 31.072 51.2469L31.0719 51.2469C30.7831 51.8601 30.4965 52.4686 30.4202 53.0177C30.2566 54.1965 30.6321 55.2085 31.7098 56.0231ZM29.216 53.6057C27.1572 53.6237 25.948 55.7087 26.5272 57.2893C27.1063 58.8699 28.8073 59.9949 30.4202 61.0186C31.2295 61.5322 32.123 62.0708 33.156 62.077L111.042 62.5432L111.383 57.7096L96.3618 57.6982C94.4188 57.6967 92.2158 57.7856 90.9502 58.965C90.49 59.3938 89.6705 58.9269 89.109 58.5838C87.7789 57.771 85.9727 57.7313 84.299 57.7259L29.3431 57.5475C28.7538 57.5456 27.9608 57.3872 27.9802 56.916L31.6757 56.8048C30.3485 56.0741 29.4326 54.8829 29.216 53.6057ZM86.3706 57.1737C85.5462 55.5809 84.9208 53.9222 84.5066 52.2304C84.3903 51.7553 84.2903 51.2688 84.3694 50.7887C84.6066 49.3481 86.3166 48.4 87.8875 47.6706C87.2169 47.6599 86.6451 47.2807 86.2147 46.8692C86.0949 46.7547 85.9805 46.6355 85.8661 46.5164L85.8661 46.5164C85.5696 46.2075 85.273 45.8986 84.8822 45.6702C84.0805 45.2015 83.9522 45.1931 82.2961 45.0844C82.1255 45.0733 81.9388 45.061 81.7335 45.0471C80.2771 44.9483 76.7548 43.8867 74.183 43.1115C72.871 42.7161 71.8064 42.3952 71.3895 42.3147C65.6854 41.2136 61.7316 42.6552 60.8412 43.4322C60.3553 43.8563 60.2361 44.4644 60.1384 45.0343C59.6992 47.5985 59.2598 50.203 59.7225 52.7645C59.8088 53.2426 59.9685 53.7697 60.4754 54.0324C60.9836 54.2958 61.4622 54.5958 61.9035 54.9275C62.611 55.4594 63.2471 56.323 62.6975 56.9633L86.3706 57.1737ZM53.9027 21.9366C54.1557 21.7421 54.6121 21.7577 54.8435 21.9687C55.0749 22.1797 55.0348 22.5437 54.7609 22.7191C53.835 23.312 53.1246 24.1178 52.7372 25.0145C53.2404 24.8485 53.7945 24.7822 54.3364 24.8233C53.7771 25.844 53.3972 26.9276 53.2115 28.0321L54.9583 27.1986C55.1147 27.1239 55.2824 27.0468 55.4645 27.0511C55.6467 27.0554 55.8364 27.179 55.8073 27.3229C55.1532 27.4815 54.8159 28.0989 54.8819 28.6431C54.9478 29.1874 55.3169 29.6738 55.6766 30.1387L57.4083 32.3768C57.0281 32.7317 56.3075 32.406 55.9327 32.0473C54.8528 31.0136 54.2069 29.6945 54.122 28.349C53.9137 28.3706 53.7336 28.4704 53.5551 28.5693C53.3494 28.6833 53.1459 28.796 52.904 28.7863C52.5713 28.7729 52.3198 28.5143 52.2679 28.251C52.2161 27.9877 52.3153 27.7221 52.4133 27.4674L53.2165 25.3804C52.5618 25.4372 52.2664 25.9661 51.9795 26.4799L51.9795 26.48C51.8965 26.6285 51.8143 26.7758 51.7243 26.91C51.2149 27.6697 50.2292 28.1327 49.2916 28.5575C50.3092 30.0648 51.4022 31.5598 52.8661 32.81C54.3301 34.0603 56.2068 35.0608 58.3146 35.363C58.6687 35.4138 59.0378 35.4441 59.3844 35.3672C59.8185 35.2707 60.1573 35.0231 60.495 34.7762C60.609 34.6929 60.7229 34.6097 60.8403 34.5323C62.017 33.7574 63.5673 33.5696 65.1175 33.3819C66.6695 33.1939 68.2215 33.0059 69.3981 32.2287L69.4316 32.2065C69.5607 32.1205 69.695 32.0311 69.8596 32.0111C70.0385 31.9894 70.2532 32.0996 70.2249 32.2426C70.2028 32.3545 70.3725 32.5843 70.6579 32.4613C71.7581 31.987 72.0776 30.9542 72.3678 30.016L72.3678 30.0159L72.3679 30.0159C72.4676 29.6933 72.564 29.3819 72.6874 29.1082C72.7568 28.9543 73.0568 29.0325 73.1854 29.1597L73.2166 29.191C73.3383 29.3132 73.4809 29.4564 73.6627 29.4176C73.8797 28.7793 73.804 28.0578 73.7309 27.3598C73.7011 27.0756 73.6717 26.7953 73.6627 26.5261C73.6619 26.5018 73.6524 26.4282 73.6377 26.3129C73.4696 24.999 72.608 18.2629 75.8502 17.0555C75.0794 16.934 73.8354 17.0465 72.7331 17.5874C71.6179 18.1346 70.8164 19.1379 70.8694 19.191C70.0991 19.1007 69.377 18.8627 68.6538 18.6244C68.0431 18.4232 67.4316 18.2216 66.7896 18.1086C66.0102 17.9713 65.205 17.9678 64.407 17.9649L63.3531 17.9611C62.2177 16.9744 62.2617 15.8934 62.3126 14.6398V14.6398V14.6397V14.6397V14.6397C62.3223 14.4024 62.3322 14.1589 62.3344 13.9088C60.3666 14.1155 58.2809 17.0829 57.6235 18.8632C57.3489 19.6068 56.5379 20.0638 55.7176 20.5259C55.0037 20.9281 54.2829 21.3342 53.9027 21.9366ZM87.4415 42.9285C87.2161 42.8827 86.9921 42.8372 86.7712 42.7905C83.3909 42.075 80.2359 40.8158 77.1084 39.565C73.3821 38.0748 69.5917 36.5487 66.6023 34.2275C66.3712 34.0481 66.0048 34.0606 65.6854 34.0935C64.5046 34.2153 63.3431 34.4564 62.2372 34.8094C61.6577 34.9944 61.006 35.312 61.0019 35.8111C61.0005 35.9868 61.0848 36.1549 61.1678 36.3176L61.7245 37.4092C61.9621 37.875 62.2037 38.358 62.1832 38.8608C62.1627 39.3635 61.8058 39.8942 61.2012 40.0323C60.5966 40.1704 59.8498 39.7205 60.006 39.2332C60.2735 38.3989 60.4566 37.5472 60.5528 36.6893C59.3749 38.5556 59.7811 40.7824 60.2154 42.8441C61.7746 42.1869 63.4066 41.6406 65.0861 41.2136C65.663 41.0669 66.3096 40.9376 66.8545 41.1484C68.1887 41.6645 70.6999 41.802 70.9472 41.6633C71.1945 41.5246 71.5328 41.5915 71.8177 41.6716C72.2763 41.8005 73.1499 42.073 74.1937 42.3985L74.195 42.3989L74.1954 42.3991L74.1956 42.3991L74.1958 42.3992C76.7594 43.1987 80.348 44.318 81.336 44.4181C81.596 44.4444 81.8575 44.4639 82.1189 44.4835H82.119H82.119H82.119L82.1192 44.4835C82.6847 44.5257 83.2499 44.5679 83.7995 44.6791C84.6033 44.8418 85.3957 45.1789 85.8211 45.7482C86.1389 45.6083 86.3373 45.361 86.5368 45.1124L86.5369 45.1123C86.6331 44.9923 86.7297 44.872 86.84 44.7633C87.179 44.4293 87.8907 44.2231 88.2157 44.5659C88.5008 43.7858 89.9443 43.4846 90.6693 44.054C90.7813 44.142 90.8748 44.2434 90.9683 44.3448C91.0654 44.4502 91.1626 44.5556 91.2806 44.6458C91.512 44.8229 91.8825 44.932 92.151 44.7924C91.0535 43.6622 89.2059 43.2869 87.4415 42.9285ZM91.019 57.0954C91.8471 57.3337 92.7608 57.1015 93.5824 56.849C94.3589 56.6103 95.1696 56.3256 95.6413 55.7774C96.2091 55.1177 96.1479 54.2472 96.0642 53.4491L95.7138 50.1057C96.2335 50.4553 96.6152 50.9343 96.792 51.4588C97.212 50.7177 96.5873 49.7277 95.5925 49.5579C96.0128 49.2794 96.7046 49.4621 97.0012 49.8285C97.2979 50.195 97.2911 50.6668 97.2044 51.0978C97.181 51.2141 97.1525 51.3302 97.124 51.4464C97.0469 51.7606 96.9698 52.0749 96.9935 52.3932C97.6179 51.6125 97.737 50.5877 97.303 49.7284C97.1064 49.3393 96.7581 48.9585 96.2486 48.8583C95.7392 48.758 95.1087 49.091 95.1931 49.5053C95.3865 50.4546 94.8331 51.4291 93.9846 52.1106C93.136 52.792 92.024 53.2212 90.9016 53.5661C90.4885 53.693 89.9749 53.9837 90.1763 54.2989C90.3867 54.6281 90.5318 55.0006 90.4595 55.3658C90.3873 55.731 90.0529 56.0799 89.5975 56.1428C89.0362 56.2205 88.5366 55.8726 88.1331 55.551L85.7491 53.6508C86.0667 54.357 86.4394 55.0473 86.8642 55.7164C87.1552 56.1748 87.488 56.639 88.0141 56.9343C88.5401 57.2295 89.3102 57.3063 89.8078 56.981C90.085 56.7998 90.4633 56.9203 90.8154 57.0326C90.8846 57.0546 90.9528 57.0764 91.019 57.0954ZM91.255 50.446C91.4774 50.328 91.7 50.2099 91.9306 50.1058C92.6451 49.7834 93.594 49.61 94.2499 50.0042C94.4601 49.4628 94.0445 48.8813 93.5023 48.5162C92.5433 47.8703 91.1373 47.6809 89.9667 48.0398C88.8568 48.3802 87.7303 48.7507 86.8488 49.3885C85.9672 50.0263 85.3645 50.9907 85.591 51.9241C85.8389 51.9724 86.0458 51.8132 86.2392 51.6643L86.2392 51.6643L86.2394 51.6642C86.2762 51.6358 86.3125 51.6079 86.3486 51.5818C86.8968 51.185 87.6489 51.1742 88.4153 51.1633C88.8813 51.1566 89.3526 51.1499 89.7866 51.0563C90.323 50.9405 90.7885 50.6935 91.255 50.446ZM89.5553 55.2686C89.3348 54.8272 89.2 54.3412 89.3205 53.8758C89.4411 53.4103 89.8612 52.974 90.4395 52.8646C91.7772 52.6115 92.9931 51.9659 93.8042 51.078C93.9676 50.8991 94.1006 50.6201 93.883 50.483C93.7937 50.4268 93.6721 50.4184 93.5585 50.4198C92.826 50.4285 92.1851 50.7336 91.5431 51.0393C91.2835 51.1629 91.0236 51.2866 90.7574 51.3908C90.1209 51.64 89.4194 51.7826 88.7113 51.8065C88.5695 51.8114 88.426 51.8117 88.2824 51.812C87.8305 51.813 87.3771 51.814 86.9664 51.9551C86.4252 52.141 86.026 52.7045 86.3639 53.0904C87.166 54.0065 88.2864 54.7078 89.3896 55.3948L89.5553 55.2686ZM48.9519 29.0841C48.8287 28.9061 48.646 28.7017 48.3934 28.7247C48.0664 28.7545 48.0005 29.1116 48.0454 29.3724C48.364 31.2231 49.796 32.8685 51.6178 34.0373C53.4396 35.206 55.6314 35.9459 57.8485 36.5324C58.0009 36.5727 58.1502 36.6487 58.2969 36.7234C58.5773 36.8661 58.8478 37.0038 59.1109 36.8776C59.414 36.7322 59.3366 36.3332 59.0608 36.1564C58.8105 35.996 58.4772 35.9615 58.156 35.9284L58.0579 35.9181C55.9143 35.6872 53.9998 34.6698 52.5353 33.3963C51.0708 32.1229 49.9994 30.598 48.9519 29.0841ZM88.6999 44.6727C88.5067 44.8568 88.294 45.0596 88.0009 45.0545C87.7543 45.0502 87.6008 45.2104 87.4416 45.3763L87.4416 45.3764C87.3288 45.494 87.2132 45.6146 87.0597 45.6815C86.6926 45.8416 86.661 46.2874 86.902 46.5608C87.1429 46.8342 87.5611 46.9672 87.9657 47.0518C88.7906 47.2242 89.6616 47.254 90.5019 47.1385C91.0499 47.0632 91.618 46.9091 91.9634 46.5605C92.3088 46.2119 92.3186 45.6264 91.8613 45.3734C91.7083 45.2888 91.5241 45.2494 91.341 45.2102C91.1226 45.1634 90.9058 45.117 90.7451 44.9946C90.6259 44.9038 90.5545 44.7828 90.4831 44.6619C90.4084 44.5353 90.3338 44.4088 90.2045 44.3175C89.9951 44.1698 89.6779 44.1496 89.4144 44.2234C89.1509 44.2972 88.9343 44.4518 88.7534 44.6219C88.7357 44.6386 88.7179 44.6556 88.6999 44.6727ZM90.2445 58.2816C90.3293 58.3083 90.4248 58.3126 90.5128 58.2936C90.5979 58.2753 90.6755 58.2354 90.7316 58.181C90.9597 57.9598 90.6417 57.5599 90.2945 57.6316C89.9474 57.7033 89.911 58.1763 90.2445 58.2816ZM62.0222 56.8937C62.1066 56.9746 62.3125 56.9662 62.3344 56.8623C62.4244 56.4348 62.4672 55.9089 62.0252 55.6581L61.9503 56.591C61.9418 56.6962 61.9377 56.8128 62.0222 56.8937ZM66.4544 19.1119C65.9747 19.3659 65.5962 19.7405 65.3864 20.169C65.3436 20.2563 65.2492 20.314 65.1541 20.3722C65.104 20.4028 65.0538 20.4335 65.0107 20.4688C64.8856 20.5711 64.8648 20.7898 65.0401 20.8184C65.1168 20.8309 65.192 20.7971 65.2592 20.765C66.3347 20.2513 67.6426 19.8364 68.8159 20.1873C68.623 20.2662 68.5256 20.4685 68.6026 20.6305C68.3631 20.6374 68.1398 20.7235 67.9247 20.808L67.3562 21.0312L67.4158 21.1654C68.2724 20.8165 69.3188 20.7802 70.21 21.0685C69.9138 21.1045 69.612 21.1111 69.3138 21.0881L68.0094 21.614C67.9127 21.653 67.8107 21.6959 67.7562 21.7708C67.7018 21.8458 67.7225 21.9619 67.8237 21.9928C68.6094 21.4385 69.7207 21.1934 70.7505 21.3473C70.8706 21.3653 70.9528 21.2312 70.9018 21.1423C70.8508 21.0534 70.7286 21.0078 70.6148 20.972C70.044 20.7922 69.442 20.6759 68.8315 20.6275C69.1369 20.401 69.4906 20.2164 69.8727 20.084C69.9356 19.9118 69.6251 19.7468 69.4511 19.8599C68.129 19.6526 66.7126 19.8583 65.5659 20.4242C65.5563 20.2443 65.7232 20.093 65.8793 19.9632L67.343 18.7459C66.4887 18.8325 65.6512 19.0249 64.8697 19.3142C64.6929 19.3797 64.5183 19.4503 64.3582 19.539C63.7552 19.8729 63.3964 20.4703 63.4472 21.0556C63.8125 20.438 64.3906 19.902 65.1009 19.5226C65.5069 19.3057 65.9672 19.1369 66.4544 19.1119ZM63.4444 24.7957C63.5273 24.2792 63.5311 23.7282 63.224 23.2691C63.1322 23.1318 63.0047 22.9999 62.8239 22.9423C62.5471 22.8542 62.2285 22.9666 62.0103 23.1288C61.4687 23.531 61.3536 24.1826 61.3999 24.7725C61.4201 25.0289 61.4672 25.2911 61.6243 25.5151C61.7814 25.7391 62.0687 25.9194 62.3898 25.9232C62.7121 25.927 63.0063 25.7526 63.174 25.5323C63.3416 25.3121 63.4033 25.0514 63.4444 24.7957ZM71.1528 26.717C71.7618 25.9714 71.7207 24.9226 71.0546 24.209C70.975 24.1237 70.8845 24.0411 70.7663 23.9923C70.5359 23.8974 70.2416 23.9546 70.042 24.0869C69.8424 24.2192 69.7225 24.4129 69.6357 24.6082C69.3784 25.1868 69.3677 25.8336 69.6059 26.4174C69.7503 26.7715 70.1084 27.1546 70.5671 27.0906C70.8203 27.0552 71.0122 26.8892 71.1528 26.717ZM65.3033 30.5466C65.2301 30.5304 65.1573 30.5142 65.1034 30.473C64.9893 30.3856 65.0295 30.2168 65.159 30.1445C65.2886 30.0722 65.4704 30.0847 65.6086 30.146C65.7485 30.208 65.8597 30.3307 65.836 30.4573C65.8123 30.5838 65.6101 30.6783 65.4799 30.6039C65.4283 30.5744 65.3656 30.5605 65.3033 30.5466ZM63.659 28.4909C62.648 28.3117 62.0828 28.3344 61.2155 28.5112L61.0326 28.5493C60.1672 28.7301 59.6265 28.7309 58.528 28.4461C58.3967 28.412 58.2557 28.4696 58.2131 28.5746C58.1705 28.6797 60.1751 29.1354 61.0914 28.9502L61.2603 28.9151C62.1039 28.7378 62.5949 28.7119 63.5509 28.8814C63.6857 28.9053 63.8192 28.8372 63.849 28.7294C63.8789 28.6216 63.7938 28.5148 63.659 28.4909ZM55.7179 26.5592C55.7789 26.4601 55.9287 26.4193 56.0526 26.4681C57.8317 27.1687 58.8176 27.26 60.44 27.0943L60.8494 27.0537C60.896 27.0495 60.9371 27.0461 60.9802 27.0427L61.1264 27.0323C62.0923 26.9716 62.8581 27.1027 63.8408 27.5722C63.9594 27.6288 63.9981 27.7516 63.9273 27.8464C63.8565 27.9413 63.703 27.9722 63.5844 27.9156C62.6701 27.4788 61.9951 27.3704 61.0928 27.436C61.033 27.4404 60.9831 27.4443 60.9253 27.4494L60.3253 27.5085C58.7135 27.6582 55.6569 26.6583 55.7179 26.5592ZM68.0609 28.4368C67.9232 28.429 67.8036 28.5119 67.7938 28.6221C67.784 28.7323 67.8877 28.828 68.0254 28.8358C68.5953 28.8683 68.9879 29.0233 69.5772 29.4032L69.7903 29.544L69.9416 29.6454C70.4611 29.9918 70.8071 30.1806 71.266 30.3312C71.3937 30.3731 72.2759 30.5167 71.5921 30.222C70.9083 29.9274 70.0174 29.1746 70.0174 29.1746L69.8869 29.0892C69.2256 28.6634 68.7526 28.4762 68.0609 28.4368ZM67.6858 29.3936C67.74 29.292 67.8868 29.2448 68.0138 29.2882C68.6414 29.5025 68.9947 29.7764 69.5884 30.3981L69.7718 30.5889C69.8919 30.7118 69.9926 30.8359 70.0903 30.9563C70.3058 31.2218 70.5069 31.4694 70.8697 31.648C71.3971 31.9075 70.6434 31.7715 70.5258 31.7136C70.0576 31.4832 69.7538 31.229 69.2798 30.7338L69.1423 30.59C68.6278 30.0564 68.3274 29.8302 67.8175 29.6561C67.6906 29.6127 67.6315 29.4952 67.6858 29.3936Z" fill="#00160A"/>
<path fill-rule="evenodd" clip-rule="evenodd" d="M66.8097 28.7583C67.0142 28.6109 67.3113 28.5657 67.5111 28.4141C67.7004 28.2704 67.7729 28.0361 67.6891 27.8383C67.6054 27.6405 67.3698 27.4897 67.1102 27.4677C66.3657 27.4046 65.6211 27.3414 64.8766 27.2783C64.6999 27.2633 64.5046 27.252 64.3614 27.3363C64.1428 27.4649 64.1773 27.746 64.3353 27.9225C64.4933 28.0989 64.7367 28.2127 64.9271 28.3674C65.1725 28.5667 65.3259 28.8369 65.3521 29.1159C65.3716 29.3231 65.3434 29.57 65.5486 29.6973C65.8062 29.857 66.1872 29.6682 66.3449 29.44C66.5026 29.2118 66.5675 28.9329 66.8097 28.7583H66.8097Z" fill="#FF4081"/>
<path fill-rule="evenodd" clip-rule="evenodd" d="M36.619 56.9886C35.0375 56.9938 32.7868 56.9483 31.6373 56.0794C30.5597 55.2647 30.1842 54.2528 30.3478 53.0739C30.5115 51.895 31.645 50.4424 31.6882 49.2568C31.3497 51.7876 26.8555 52.4954 25.4474 54.7779C24.6863 56.0116 24.9906 57.5336 25.8379 58.7308C26.6852 59.9279 28.0075 60.8585 29.3465 61.7219C33.1187 64.1541 37.766 65.7445 40.9207 68.6862C44.0754 71.6279 46.4764 76.2151 45.1085 79.9333C43.7145 83.7225 37.7287 86.3679 32.8421 85.8033C32.3707 85.7488 31.8926 85.6647 31.4905 85.4605C30.5371 84.9762 30.2593 83.9516 30.3474 83.0509C30.4355 82.1502 30.7991 81.2689 30.7717 80.3657C30.7117 78.3908 28.8426 76.7782 26.9848 75.4768C22.4034 72.2673 16.9049 69.3999 14.7984 64.8289C13.3607 61.7092 13.8181 58.0689 16.0032 55.2405C18.9702 51.3997 24.6776 49.2518 27.3525 45.2761C27.4317 46.0823 27.6096 46.8822 27.8828 47.6607C27.9997 47.994 28.2001 48.3744 28.6223 48.4499C29.0657 48.5292 24.1138 42.9003 34.0663 35.8816C37.7669 33.2718 42.3537 31.3768 46.9399 29.7333C48.5116 33.7193 53.1126 36.8299 58.2874 37.4051C58.6409 37.4443 58.7217 37.8197 58.7136 38.1051C58.6014 42.0472 58.4892 45.9893 58.377 49.9313C58.3283 51.6442 58.4701 53.6647 60.2623 54.6026C61.0013 54.9893 61.2302 55.8813 60.7416 56.4696C60.253 57.0579 59.1363 57.2347 58.4044 56.8396C59.2536 55.6923 58.2826 53.9763 56.6447 53.7297C56.0412 53.6389 55.8491 53.0346 55.7829 52.5463C55.4862 50.3567 55.1895 48.1671 54.8927 45.9775C54.7783 48.4755 54.6638 50.9735 54.5494 53.4715C51.5096 52.3759 47.9678 54.3449 44.7017 53.8092C47.4056 52.3104 49.901 50.3894 51.0373 47.9198C52.1737 45.4502 51.642 42.3591 49.1118 40.6775C50.6189 42.6039 50.9165 45.1041 49.8908 47.2234C48.9018 49.267 46.8357 50.8439 44.7287 52.2443C44.0757 52.6783 43.3735 53.1501 43.1715 53.8097C42.9695 54.4694 43.6042 55.313 44.4401 55.1942C47.4167 54.2987 50.6409 53.9343 53.8112 54.1351C54.7934 54.1973 55.8239 54.3309 56.5893 54.8273C57.3548 55.3236 57.7212 56.2916 57.1287 56.9215C50.2922 56.9439 43.4556 56.9663 36.619 56.9886Z" fill="white"/>
<path fill-rule="evenodd" clip-rule="evenodd" d="M32.9144 85.747C32.443 85.6925 31.9649 85.6084 31.5628 85.4042C30.6095 84.92 30.3317 83.8953 30.4198 82.9946C30.5079 82.0939 30.8714 81.2126 30.844 80.3095C30.7841 78.3345 28.915 76.7219 27.0571 75.4205C22.4757 72.211 16.9772 69.3436 14.8708 64.7726C14.0274 62.9425 24.6175 68.5391 30.4198 75.1281C34.5082 79.7709 34.9343 85.9804 32.9144 85.747Z" fill="#E7EAEE"/>
<path fill-rule="evenodd" clip-rule="evenodd" d="M29.0186 40.233C29.7364 38.8501 31.7376 37.5186 34.1386 35.8253C37.8392 33.2155 42.426 31.3205 47.0122 29.677C42.5152 32.2978 37.0328 34.4854 33.1317 37.7747C31.2303 39.3778 29.944 42.6087 28.8691 43.6469C28.0461 44.4417 26.9713 44.1771 29.0186 40.233Z" fill="#E7EAEE"/>
<path fill-rule="evenodd" clip-rule="evenodd" d="M60.7075 39.6907C60.5444 39.4058 60.4296 38.0911 61.2888 38.0911C61.8247 38.5778 61.7697 39.5118 60.7075 39.6907Z" fill="#FF4081"/>
<path fill-rule="evenodd" clip-rule="evenodd" d="M86.771 42.7905C88.7215 43.2033 90.9131 43.5178 92.1509 44.7924C91.8823 44.932 91.5118 44.8229 91.2804 44.6458C91.0489 44.4687 90.8977 44.2335 90.6691 44.054C89.9441 43.4846 88.5006 43.7858 88.2155 44.5659C87.8905 44.2231 87.1788 44.4293 86.8398 44.7633C86.5009 45.0973 86.2922 45.5408 85.8209 45.7482C85.3955 45.1789 84.6032 44.8417 83.7994 44.6791C82.9956 44.5164 82.1584 44.5014 81.3358 44.4181C79.9452 44.2772 78.5864 43.9373 77.3431 43.4194C77.4186 43.5435 72.2672 41.7564 67.5531 41.4973C64.1108 41.3081 60.8733 42.5667 60.2153 42.8441C59.781 40.7824 59.3747 38.5556 60.5527 36.6893C60.4564 37.5472 60.2734 38.3989 60.0058 39.2332C59.8496 39.7204 60.5965 40.1704 61.2011 40.0323C61.8057 39.8942 62.1625 39.3635 62.183 38.8608C62.2035 38.358 61.9619 37.8749 61.7244 37.4092C61.5388 37.0453 61.3532 36.6814 61.1676 36.3175C61.0847 36.1548 61.0003 35.9868 61.0018 35.8111C61.0058 35.312 61.6576 34.9943 62.237 34.8094C63.3429 34.4564 64.5044 34.2153 65.6853 34.0935C66.0046 34.0605 66.371 34.0481 66.6021 34.2275C69.5915 36.5487 73.3819 38.0748 77.1082 39.565C80.2358 40.8158 83.3907 42.075 86.771 42.7905Z" fill="white"/>
<path fill-rule="evenodd" clip-rule="evenodd" d="M85.821 45.7481C85.3956 45.1788 84.6032 44.8417 83.7994 44.679C82.9956 44.5163 82.1584 44.5013 81.3359 44.418C81.015 44.3855 79.6971 44.2191 77.9864 43.7389C75.5129 43.0446 72.1175 41.9361 68.8826 41.6541C64.6598 41.286 60.8944 42.5578 60.2154 42.844C59.781 40.7823 61.2499 41.0299 62.0385 40.9648C79.4731 39.5241 86.2922 45.5407 85.821 45.7481Z" fill="#E7EAEE"/>
</svg>
