<svg width="46" height="50" viewBox="0 0 46 50" fill="none" xmlns="http://www.w3.org/2000/svg">
<path d="M39.3986 0.000751132C38.1672 -0.023253 35.7831 0.533333 35.7831 0.915578C35.7831 1.10658 34.8079 1.46746 33.6162 1.71755C30.0636 2.3129 27.7983 4.74234 26.5527 7.03638C26.0175 6.52649 24.5118 7.14689 26.0869 8.33357C26.3054 8.49817 25.8253 9.54899 25.8712 11.1254C26.1686 15.9704 28.0814 19.51 31.835 21.4352C35.0803 23.0996 38.2189 22.6738 40.9565 19.782C43.8561 16.7191 44.5525 12.7951 43.0493 7.98808C42.8623 7.38964 42.9909 7.31559 43.8445 7.53216C45.5322 7.96032 45.2032 7.07446 43.0863 5.48971C42.3331 4.92575 42.3465 4.91029 43.3824 5.14777C44.0453 5.29976 44.468 5.22981 44.468 4.96829C44.468 4.37563 43.1403 3.71377 41.9511 3.71377C40.5634 3.71377 40.2737 2.99696 41.5992 2.84293C43.4387 2.62916 42.425 1.92087 40.2146 1.87551C39.0696 1.85203 38.0184 1.71717 37.8788 1.57606C37.6487 1.34345 37.8846 1.28871 39.6982 1.15701C40.5413 1.09575 40.6541 0.248621 39.8457 0.0486635C39.7272 0.0193411 39.5746 0.00419124 39.3986 0.000751132ZM12.4002 0.159274C8.80962 0.13596 4.98238 2.11511 2.7346 6.37702C0.540466 10.5828 0.55548 13.3535 2.79236 16.7867C3.52279 17.9078 4.60849 18.9464 4.52819 19.071C3.9775 19.9254 3.84419 21.6839 5.61153 21.0055C7.19165 20.3989 6.3167 20.7968 6.17422 21.2295C6.00462 21.7449 6.52121 22.269 6.91965 21.6714C7.79313 20.3607 8.21173 20.9833 8.48921 21.8812C8.86983 23.1134 10.1217 23.1794 10.1217 22.2459C10.1217 21.444 10.7715 21.5264 11.0949 22.3693C11.3444 23.0201 11.401 23.0152 11.9266 22.2933C12.4643 21.5547 12.5148 21.5519 13.0051 22.2297C13.0089 22.2346 13.0127 22.2389 13.0159 22.2439C12.9364 23.351 13.0743 24.631 13.3106 25.7662C13.3395 25.8141 13.3633 25.8744 13.3834 25.9442C12.179 25.5173 10.9602 25.2627 9.9436 25.2627C3.89853 24.877 2.15993 28.3256 1.33612 31.12C0.480937 33.2807 -0.366631 40.3599 0.165572 40.8979C0.943969 41.6846 1.32585 40.8438 1.59812 37.7443C1.65471 35.5174 1.9756 33.3549 2.66498 31.5363C3.88239 36.7853 7.08655 40.2487 11.2112 42.286C11.1788 42.6985 11.1539 43.1 11.1397 43.4844C11.1897 44.5371 10.8803 45.3817 11.4891 46.2657C11.9723 46.7831 12.1883 46.6671 12.6611 46.4449C13.0194 46.2765 12.8682 45.6523 12.8002 44.6972C12.755 44.1536 12.7545 43.5754 12.7807 42.977C14.4999 43.6472 16.3429 44.1 18.2437 44.358C18.3482 45.3186 18.2542 46.434 18.687 47.5875C19.3003 49.6509 22.5626 51.2941 23.626 48.5687C23.9512 47.7352 24.1807 46.9687 24.3294 46.2616C25.1457 46.5892 26.5502 46.9903 28.6335 47.0484C29.3341 47.068 30.5506 46.5293 31.3884 45.845C31.5199 45.7923 31.6305 45.6983 31.706 45.5596C32.2143 45.0528 32.4727 44.5012 32.1616 44.0504C32.0298 43.885 31.8162 43.8136 31.5665 43.7943C31.5458 43.7134 31.5256 43.6324 31.5058 43.5514C31.6182 43.4956 31.7234 43.4342 31.8158 43.3665C32.1958 43.0877 32.2614 42.7723 32.1078 42.5492C33.0054 42.7713 33.8155 43.5417 34.395 45.041C35.0319 46.3931 35.8465 46.2642 36.5185 46.2206C37.8199 46.2496 38.4167 44.2995 38.2734 43.4273C38.0441 42.4765 37.8887 41.5279 37.3689 40.5537C36.9047 39.2472 34.517 37.5337 32.8993 37.6091C32.2791 37.6381 31.7123 37.6918 30.4756 37.6775C30.3109 35.4402 30.7776 32.6933 30.3392 28.5904C31.937 27.3864 34.1107 26.5199 36.3602 26.2764C39.2401 25.9647 40.2433 26.2544 39.9144 27.3018C39.536 28.5069 40.0992 29.002 40.9565 28.2178C42.0392 27.2273 42.3979 27.883 41.3753 28.9834L40.516 29.9076L41.4435 30.7891C41.9787 31.2974 42.6328 31.5688 42.9893 31.4305C43.8869 31.0823 44.1503 32.2925 44.4257 38.0271C44.621 42.0918 44.7759 43.0204 45.2578 43.0204C45.7549 43.0204 45.836 42.2834 45.7639 38.4317C45.7169 35.9077 45.5201 33.0021 45.3267 31.9753C45.0421 30.4634 45.0962 29.9803 45.61 29.4335C46.0838 28.9296 46.1195 28.7116 45.7518 28.5737C45.4455 28.459 45.3496 28.0239 45.4983 27.4244C45.6892 26.6567 45.5847 26.46 44.9849 26.46C44.5705 26.46 44.0149 26.6789 43.7503 26.9464C43.372 27.3288 43.3233 27.1578 43.5229 26.1478C43.7436 25.0328 43.6695 24.8635 42.9615 24.8635C42.5129 24.8635 42.0359 25.044 41.9015 25.264C41.7381 25.5315 41.4117 25.5315 40.9172 25.264C40.3966 24.9824 39.4483 24.8464 38.3288 24.8398C36.4629 24.8287 34.122 25.1766 32.4944 25.807C31.6966 26.1159 30.887 26.4097 30.0816 26.6862C29.9696 26.0011 29.8327 25.2834 29.6633 24.5272C29.3313 23.1359 29.8381 21.5559 28.8777 20.2817C28.4843 19.8299 27.6548 19.8286 27.1089 20.2804C26.1776 21.2208 25.7218 22.1983 24.6925 23.3037C21.4183 23.0416 19.8007 23.3151 17.4339 23.154C16.9089 22.3397 16.5714 21.6034 16.2511 20.6588C16.3113 20.6301 16.3738 20.6062 16.4385 20.5892C16.8727 20.4744 17.228 20.0707 17.228 19.6914C17.228 19.312 17.5973 18.6637 18.0484 18.251C19.4731 16.8541 19.8747 15.3772 20.608 13.7121C22.383 14.0201 22.3426 12.4022 20.9548 12.2191C22.3898 4.50498 17.6479 0.193349 12.4002 0.159274ZM13.0133 1.61162C16.6631 1.64299 19.3188 5.26446 19.6057 8.50257C19.7614 11.5713 19.692 11.7559 18.43 11.6204C17.0144 11.4684 16.6913 12.1429 17.9188 12.6872C18.4074 12.9039 18.6083 13.0515 19.0384 13.3146C18.9151 14.736 17.0195 17.6132 15.3686 18.5977C10.5937 21.9424 3.59567 18.4775 2.76589 12.3576C2.57629 10.9597 2.7487 10.1105 3.62038 8.14716C5.3407 4.27237 8.5508 1.6819 12.2706 1.65448C12.5223 1.62349 12.7699 1.60952 13.0133 1.61162ZM35.0775 3.32804C36.2109 3.32564 37.1413 3.50963 37.658 3.50097C37.9102 3.42151 38.0985 3.38468 38.2351 3.39579C38.4623 3.41431 38.5461 3.56634 38.5461 3.87641C38.5461 4.23666 38.9639 4.69202 39.4743 4.88819C40.0936 5.12614 40.6768 5.9531 41.2259 7.37252C42.4341 10.4948 42.6047 11.8289 42.1061 14.2562C41.5157 17.1311 40.3107 18.8783 38.1632 19.975C30.9149 22.4969 28.0963 16.9478 27.0878 11.5662C27.0434 10.5679 27.2391 9.19934 27.2391 9.19936L28.3826 9.51435C29.2571 9.75541 29.3965 9.07248 28.7868 8.59316L27.9101 7.90386L28.7053 6.64129C30.7376 3.85257 33.1889 3.33185 35.0775 3.32804ZM32.4827 7.28549C31.6679 7.26762 31.4136 8.43147 31.7813 8.86903C32.7165 10.3807 34.0981 7.36881 32.6532 7.30533C32.5941 7.29305 32.537 7.28669 32.4827 7.28549ZM8.57197 7.30533C7.7823 7.30533 7.46591 8.07843 8.02466 8.64332C8.44784 9.07102 9.12164 8.70495 9.26242 7.97048C9.3485 7.52193 9.12371 7.30533 8.57197 7.30533ZM15.1715 7.93418C15.1519 7.93322 15.1326 7.93413 15.1135 7.93511C14.657 7.96119 14.3638 8.45963 14.5971 9.07434C14.7277 9.4183 15.0233 9.69982 15.254 9.69982C15.9327 9.69982 16.2075 8.45269 15.6108 8.07997C15.4576 7.98422 15.3084 7.9385 15.1715 7.93436V7.93418ZM36.7696 8.10318C36.0593 8.10318 35.655 8.7872 35.9329 9.51903C36.2132 10.2579 36.7406 10.2571 37.348 9.5173C37.8904 8.85661 37.5821 8.10334 36.7696 8.10332V8.10318ZM7.82469 11.7679C7.63054 11.7691 7.43976 11.7749 7.25386 11.7878C4.75372 11.9617 4.03174 12.37 4.59485 13.2912C4.88313 13.7626 5.05627 13.7822 5.44675 13.3876C6.11565 12.7115 6.5686 12.765 6.5686 13.5208C6.5686 13.9928 7.70394 14.4446 8.39645 13.7054C9.45498 12.5754 9.57813 13.8841 9.81807 14.399C9.99288 14.7741 10.5127 14.7988 10.6122 14.6578C10.8214 14.3614 11.6518 13.4939 11.3112 14.7591C11.7744 15.3642 12.1862 15.6206 12.6806 15.1272C12.9722 14.8363 13.074 14.8652 14.0153 15.5318C15.1802 16.3565 15.7753 15.7959 15.1285 14.4836C14.4476 13.1018 10.7368 11.7598 7.82469 11.7679ZM28.8127 13.2502C28.632 13.2534 28.5069 13.3102 28.4706 13.4501C28.9794 17.5323 32.6198 21.3723 36.5418 18.8123C37.934 17.8517 39.5064 15.4887 39.1459 14.8992C39.0339 14.7161 37.6031 14.5608 35.9666 14.5543C34.2943 14.5476 32.136 14.2557 31.0392 13.8875C30.3981 13.7152 29.3555 13.2406 28.8127 13.2502ZM6.54397 14.5539V14.5549C6.24261 14.5669 6.17422 14.7986 6.17422 15.3861C6.17422 16.6627 7.37405 18.1908 9.02005 19.0108C11.8009 19.7782 13.4667 17.9706 13.5904 16.8246C13.6941 15.8634 8.8834 15.1487 7.06259 14.6472C6.87517 14.5942 6.72579 14.5613 6.60748 14.5553C6.5853 14.5541 6.56398 14.5539 6.54397 14.5543V14.5539ZM30.0007 14.8356C32.626 16.0204 34.9296 15.6136 36.9894 15.8878C36.9894 15.8878 37.5453 16.2058 36.0573 17.5088C34.322 19.151 31.6667 18.0705 30.7374 16.3173L30.0007 14.8356ZM8.09668 15.748C9.1043 15.9946 9.76157 16.1545 10.383 16.2694C11.3823 16.4589 11.7161 16.7109 11.6235 17.2048C11.4226 18.2758 9.52937 18.2792 8.47236 17.2107C7.63585 16.3652 7.42787 15.8782 8.09668 15.748ZM14.8359 21.5044C14.9348 21.4932 15.0496 21.5764 15.2024 21.7449C15.6951 22.2757 15.3937 24.2539 16.6779 24.6973C17.3045 24.9876 17.8469 24.8486 18.418 24.8682C18.346 25.2209 18.3833 25.4545 18.5977 25.8075C18.798 26.1305 18.9617 26.1874 19.201 26.0172C19.3832 25.8875 19.467 25.5068 19.6392 24.9451C19.7001 24.7525 20.2932 24.4238 20.4326 24.956C20.5664 25.4663 20.4621 25.6182 20.6952 25.9767C20.9596 26.3096 21.2505 26.574 21.5615 25.8609C21.6805 25.6002 21.725 25.2383 21.7387 24.8465C21.8341 24.3789 22.1055 24.4823 22.5017 24.7217C22.6823 25.139 22.7511 25.4546 23.1363 25.6408C23.4753 25.7043 23.6794 25.3467 23.7906 25.0035C23.8979 24.7359 23.8982 24.7358 24.212 24.7585C24.3848 24.771 24.8158 24.8387 25.1698 24.9088C26.2399 25.0763 26.7879 23.4036 27.2456 22.5085C27.5208 22.0179 27.8631 22.1559 28.0695 22.7593C28.06 23.7751 27.9827 25.0259 28.1964 25.5874C28.8066 27.7687 29.3972 30.2496 28.9442 33.1583C28.2759 33.5922 27.2306 32.4397 27.193 31.5497C27.8777 31.3767 28.5171 29.8726 27.1776 29.6068C26.7564 29.4705 26.5065 29.4382 25.6608 29.4107C24.2847 29.3852 24.2178 31.0785 25.6238 31.3483C26.0016 31.763 25.0045 33.543 24.4983 33.8342C23.7571 34.2606 23.0514 33.6346 22.4978 33.149C22.3091 32.9315 21.8174 32.9061 21.69 33.1073C21.3483 33.7622 23.0114 35.0091 23.6643 35.1999C24.5831 35.5103 25.443 35.1958 25.9708 34.4183C26.2031 34.0409 26.4277 33.7178 26.6179 33.3178C26.8723 33.0001 26.8056 33.3192 27.0134 33.5806C27.3091 34.0832 28.0328 34.6441 28.7639 34.6212C28.9446 37.517 29.0754 39.3694 29.2345 40.8371C27.4156 40.9455 25.3021 41.0478 23.8824 41.3725C23.2049 40.0225 22.1123 39.0908 21.0959 38.3404C20.9018 38.2259 20.6124 38.1359 20.3315 38.1253C19.9703 38.1118 19.6231 38.2295 19.5098 38.5951C19.3688 39.0515 19.8624 39.7764 20.313 39.8782C22.1417 40.445 22.7944 42.807 22.7169 44.4419C22.6722 45.0956 22.8031 45.7666 22.5143 46.4828C22.4398 46.7167 22.3913 46.7787 22.2675 46.799C21.8358 46.8805 21.9851 47.5666 21.7582 47.8592C21.5457 47.9404 21.5433 47.8637 21.7254 46.9944C21.8368 46.4642 22.0949 45.4343 21.147 45.6762C20.9787 45.7611 20.8163 46.1526 20.6893 46.7756C20.6185 47.1243 20.5406 47.4053 20.5159 47.4001C20.0752 47.2017 20.098 44.4838 19.9766 44.1321C20.0925 42.3159 18.4204 41.1894 17.4531 40.9417C16.2018 40.6212 15.9799 41.5184 16.8712 42.1726C15.4719 41.9649 14.1551 41.5837 12.937 41.0669C13.1273 39.3694 13.4212 37.602 13.5484 35.9887C13.5958 35.4225 13.6061 35.4103 13.9752 35.49C14.3046 35.5584 14.6752 35.5063 15.02 35.4362C15.3296 35.3823 15.7808 35.2687 15.9037 34.9509C16.128 34.1629 14.6473 34.4178 14.047 34.2287C13.8158 34.1586 13.814 34.1555 13.8533 33.8684C13.8832 33.65 13.8397 33.7191 13.9668 33.4477C14.1615 33.4455 14.3762 33.4224 14.6017 33.5037C15.221 33.5536 15.7867 33.4531 15.953 33.2639C16.3055 32.8427 15.8439 32.5974 15.4133 32.4224C14.991 32.251 14.5608 32.2931 14.1175 32.2538C14.1147 32.1174 14.0904 32.0187 14.1033 31.9555C14.1223 31.8619 14.1942 31.8457 14.4877 31.8683C15.7363 31.9644 15.8555 31.9546 16.1274 31.7331C16.9922 31.004 15.6347 30.7283 14.9909 30.6753C14.5111 30.6056 14.3217 30.5564 14.3001 30.4966C14.5236 28.8499 14.6843 28.3292 14.9793 26.5814C15.1164 25.548 13.6412 23.9965 14.3692 22.3908C14.5506 21.8043 14.6713 21.5231 14.8359 21.5044ZM9.28334 26.5992C9.75762 26.602 10.2581 26.6436 10.7861 26.727C11.8387 26.8341 12.7013 27.0495 13.4275 27.4051C13.2157 30.1756 11.8975 35.9869 11.3287 40.6352C6.64775 38.0355 3.8237 34.2216 4.0242 29.0706C4.03927 29.0477 4.05055 29.0278 4.06401 29.0061C5.26104 27.5075 6.95564 26.5856 9.28334 26.5992ZM23.089 26.7254C22.7315 26.7198 22.5064 26.9924 22.3805 27.5653C22.3161 27.8626 22.297 28.3544 22.6219 28.6812C22.7982 28.8343 23.2839 28.8122 23.5312 28.7225C23.9356 28.539 24.3557 27.0902 23.4921 26.8229C23.3422 26.76 23.2082 26.7272 23.089 26.7254ZM19.1527 26.8174C18.553 26.8174 18.4421 27.4492 18.4979 28.0731C18.5511 28.6352 18.8883 28.9768 19.4445 29.0514C19.9415 28.9728 20.1216 28.4714 20.2153 27.7025C20.2134 27.016 19.9794 26.8217 19.1527 26.8174ZM32.3947 39.1478C34.0644 39.1443 35.5923 39.9848 36.2263 41.9454C35.9109 42.4749 35.7454 42.5084 35.9251 43.7262C36.0871 44.2317 35.7817 44.402 35.4122 43.7824C34.6819 42.3555 33.7885 41.54 32.085 41.173C31.6789 41.1145 31.3019 41.075 31.2472 41.0852C30.9934 41.1213 30.9157 40.1521 30.8513 39.768C30.8475 39.552 30.8033 39.3021 30.9753 39.3432C31.4486 39.2159 31.9272 39.1487 32.3947 39.1478ZM29.3934 42.1108C29.4058 42.1977 29.4186 42.284 29.4315 42.3693C28.8809 42.418 28.3504 42.4745 27.9303 42.5241C28.5039 42.4228 28.9935 42.2764 29.3934 42.1108Z" fill="#FF4081"/>
</svg>
