<svg width="46" height="40" viewBox="0 0 46 40" fill="none" xmlns="http://www.w3.org/2000/svg">
<g clip-path="url(#clip0_30_773)">
<path d="M22.5976 3.70936C28.6248 3.66754 29.3388 3.68261 31.7197 3.76083C33.9211 3.83336 35.1187 4.14624 35.9161 4.41075C36.9721 4.76112 37.727 5.1832 38.5217 5.86766C39.3165 6.55212 39.8101 7.20555 40.226 8.12294C40.5399 8.81566 40.9149 9.85719 41.0287 11.7787C41.1516 13.8572 41.1788 14.4806 41.2154 19.7452C41.2519 25.0099 41.2333 25.6336 41.1393 27.7135C41.0521 29.6366 40.6916 30.683 40.3873 31.38C39.9842 32.3031 39.4996 32.9635 38.7145 33.6589C37.9294 34.3543 37.1804 34.7869 36.1294 35.1517C35.3357 35.4272 34.1426 35.7569 31.9424 35.8598C29.5632 35.9712 28.8494 35.9962 22.8219 36.038C16.7942 36.0798 16.0802 36.0647 13.6997 35.9864C11.4982 35.9138 10.3009 35.6009 9.50349 35.3364C8.44749 34.9862 7.69238 34.5641 6.89772 33.8797C6.10305 33.1951 5.6093 32.5416 5.1936 31.6242C4.87964 30.9317 4.50452 29.8902 4.39084 27.9684C4.26778 25.8901 4.24053 25.2667 4.204 20.002C4.16747 14.7374 4.18607 14.1137 4.28028 12.0339C4.36746 10.1108 4.7279 9.06415 5.03223 8.36714C5.43515 7.44407 5.91979 6.78385 6.70489 6.08843C7.49015 5.39285 8.23915 4.96049 9.29019 4.5955C10.0837 4.31995 11.2767 3.99048 13.477 3.88741C15.8566 3.77616 16.5703 3.75118 22.5976 3.70936ZM22.573 0.156607C16.4425 0.199144 15.6739 0.227122 13.267 0.339793C10.8649 0.452277 9.22627 0.797004 7.79397 1.29434C6.31294 1.80851 5.05883 2.49147 3.81152 3.59632C2.56421 4.70117 1.80012 5.80605 1.23227 7.1066C0.682825 8.36466 0.311323 9.80064 0.216194 11.9C0.120918 14.0037 0.0996537 14.6754 0.136809 20.0302C0.173965 25.3851 0.204547 26.0563 0.329006 28.1585C0.453259 30.2565 0.844652 31.6872 1.41151 32.9374C1.99717 34.2299 2.77669 35.3243 4.03921 36.4117C5.30173 37.4991 6.56521 38.1645 8.05323 38.658C9.49246 39.1356 11.1355 39.4574 13.5388 39.5365C15.9472 39.6158 16.7161 39.6331 22.8466 39.5906C28.9771 39.548 29.7456 39.5201 32.1525 39.4074C34.5545 39.2949 36.1931 38.9503 37.6254 38.4528C39.1064 37.9388 40.3606 37.2559 41.6079 36.151C42.8552 35.0462 43.6194 33.9413 44.1873 32.6406C44.7366 31.3825 45.1082 29.9467 45.2034 27.8473C45.2986 25.7435 45.3199 25.0718 45.2827 19.717C45.2456 14.3621 45.215 13.6908 45.0905 11.5887C44.9663 9.49079 44.5747 8.06011 44.008 6.80995C43.4222 5.51725 42.6427 4.42308 41.3802 3.33564C40.1176 2.24821 38.8542 1.58256 37.3663 1.08915C35.9271 0.611736 34.2838 0.289782 31.8806 0.21064C29.4723 0.131379 28.7035 0.114069 22.573 0.156607ZM22.6395 9.74861C16.2376 9.79303 11.0794 14.3624 11.1182 19.954C11.157 25.5459 16.3781 30.043 22.78 29.9986C29.1818 29.9542 34.3401 25.3851 34.3013 19.7932C34.2625 14.2014 29.0413 9.70419 22.6395 9.74861ZM22.7554 26.446C18.5998 26.4748 15.2106 23.5556 15.1854 19.9258C15.1602 16.296 18.5086 13.33 22.6642 13.3012C26.8197 13.2724 30.209 16.1916 30.2342 19.8214C30.2593 23.4512 26.9109 26.4171 22.7554 26.446ZM37.3949 9.24617C37.404 10.553 36.1987 11.6206 34.7025 11.631C33.2066 11.6414 31.9864 10.5906 31.9774 9.28376C31.9683 7.97705 33.1737 6.90931 34.6697 6.89893C36.1659 6.88855 37.3858 7.93946 37.3949 9.24617Z" fill="#0A0A08"/>
</g>
<defs>
<clipPath id="clip0_30_773">
<rect width="45.147" height="39.4349" fill="white" transform="translate(0 0.313232) rotate(-0.397548)"/>
</clipPath>
</defs>
</svg>
