<svg width="19" height="19" viewBox="0 0 19 19" fill="none" xmlns="http://www.w3.org/2000/svg">
<g clip-path="url(#clip0_24_47)">
<path d="M9.01104 1.87243C11.414 1.85576 11.6987 1.86293 12.648 1.89958C13.5258 1.93357 14.0034 2.07686 14.3214 2.19792C14.7426 2.35826 15.0437 2.55123 15.3608 2.86396C15.678 3.1767 15.875 3.47515 16.0412 3.89406C16.1667 4.21037 16.3166 4.68592 16.3627 5.56305C16.4126 6.51181 16.4237 6.79636 16.4404 9.19938C16.457 11.6025 16.4499 11.8871 16.4132 12.8364C16.3792 13.7142 16.2359 14.1917 16.1149 14.5097C15.9545 14.9309 15.7616 15.2321 15.4488 15.5492C15.1361 15.8663 14.8376 16.0635 14.4187 16.2296C14.1024 16.355 13.6269 16.505 12.7497 16.5511C11.8011 16.601 11.5166 16.6121 9.11342 16.6288C6.7102 16.6455 6.42552 16.6383 5.47637 16.6016C4.59862 16.5676 4.1211 16.4243 3.80308 16.3032C3.38191 16.1429 3.08068 15.95 2.76357 15.6372C2.44646 15.3244 2.24934 15.026 2.08324 14.6071C1.95778 14.2908 1.80781 13.8153 1.76171 12.9381C1.71181 11.9894 1.7007 11.7048 1.68402 9.30176C1.66735 6.89875 1.67452 6.61407 1.71124 5.66478C1.74523 4.78703 1.88852 4.30944 2.00958 3.99142C2.16985 3.57025 2.36282 3.26909 2.67555 2.95198C2.98836 2.6348 3.28681 2.43775 3.70572 2.27158C4.02196 2.14612 4.49751 1.99622 5.37471 1.95005C6.3234 1.90022 6.60795 1.88911 9.01104 1.87243ZM8.99978 0.250786C6.55557 0.267746 6.24916 0.280208 5.28958 0.330672C4.3319 0.381052 3.67871 0.537744 3.10785 0.76418C2.51757 0.998273 2.01783 1.30951 1.52097 1.81331C1.02411 2.31711 0.71991 2.82113 0.49403 3.41453C0.275469 3.98854 0.127926 4.64384 0.0908392 5.60206C0.0536958 6.56224 0.0454867 6.8688 0.0624463 9.31302C0.0794058 11.7572 0.0918681 12.0636 0.142332 13.0232C0.192712 13.9809 0.349334 14.6341 0.57584 15.2049C0.809862 15.7952 1.1211 16.295 1.6249 16.7918C2.1287 17.2887 2.63272 17.5929 3.22619 17.8188C3.8002 18.0373 4.45543 18.1849 5.41365 18.222C6.3739 18.2591 6.68046 18.2673 9.12468 18.2504C11.5689 18.2334 11.8753 18.2209 12.8349 18.1705C13.7925 18.1201 14.4457 17.9635 15.0165 17.737C15.6068 17.5029 16.1066 17.1917 16.6034 16.6879C17.1003 16.1841 17.4046 15.6801 17.6304 15.0866C17.8489 14.5126 17.9965 13.8574 18.0336 12.8992C18.0708 11.9389 18.079 11.6323 18.062 9.18812C18.0451 6.74391 18.0326 6.4375 17.9821 5.47792C17.9317 4.52031 17.7751 3.86712 17.5486 3.29626C17.3145 2.70598 17.0033 2.20624 16.4995 1.70938C15.9957 1.21252 15.4917 0.90818 14.8983 0.68237C14.3243 0.463879 13.669 0.316266 12.7107 0.279179C11.7506 0.242036 11.444 0.233827 8.99978 0.250786ZM9.03016 4.62904C6.47774 4.64675 4.42299 6.73035 4.4407 9.28264C4.45841 11.8351 6.54187 13.8898 9.0943 13.8721C11.6466 13.8544 13.7015 11.7709 13.6838 9.2185C13.666 6.66615 11.5825 4.61133 9.03016 4.62904ZM9.08305 12.2505C7.42624 12.262 6.07377 10.9282 6.06228 9.27139C6.05078 7.61458 7.38461 6.26211 9.04141 6.25062C10.6982 6.23912 12.0507 7.57295 12.0622 9.22975C12.0737 10.8866 10.7398 12.239 9.08305 12.2505ZM14.9129 4.40562C14.9171 5.00213 14.437 5.48894 13.8404 5.49308C13.244 5.49722 12.7571 5.01712 12.753 4.4206C12.7488 3.82416 13.229 3.33727 13.8255 3.33314C14.422 3.329 14.9088 3.80917 14.9129 4.40562Z" fill="white"/>
</g>
<defs>
<clipPath id="clip0_24_47">
<rect width="18" height="18" fill="white" transform="translate(0 0.313232) rotate(-0.397548)"/>
</clipPath>
</defs>
</svg>
